<?xml version="1.0" encoding="utf-8" standalone="no"?>
<!DOCTYPE svg PUBLIC "-//W3C//DTD SVG 1.1//EN"
  "http://www.w3.org/Graphics/SVG/1.1/DTD/svg11.dtd">
<svg xmlns:xlink="http://www.w3.org/1999/xlink" width="432pt" height="345.6pt" viewBox="0 0 432 345.6" xmlns="http://www.w3.org/2000/svg" version="1.1">
 <metadata>
  <rdf:RDF xmlns:dc="http://purl.org/dc/elements/1.1/" xmlns:cc="http://creativecommons.org/ns#" xmlns:rdf="http://www.w3.org/1999/02/22-rdf-syntax-ns#">
   <cc:Work>
    <dc:type rdf:resource="http://purl.org/dc/dcmitype/StillImage"/>
    <dc:date>2023-03-10T21:40:39.884568</dc:date>
    <dc:format>image/svg+xml</dc:format>
    <dc:creator>
     <cc:Agent>
      <dc:title>Matplotlib v3.5.2, https://matplotlib.org/</dc:title>
     </cc:Agent>
    </dc:creator>
   </cc:Work>
  </rdf:RDF>
 </metadata>
 <defs>
  <style type="text/css">*{stroke-linejoin: round; stroke-linecap: butt}</style>
 </defs>
 <g id="figure_1">
  <g id="patch_1">
   <path d="M 0 345.6 
L 432 345.6 
L 432 0 
L 0 0 
L 0 345.6 
z
" style="fill: none"/>
  </g>
  <g id="axes_1">
   <g id="patch_2">
    <path d="M 54 302.4 
L 388.8 302.4 
L 388.8 41.472 
L 54 41.472 
z
" style="fill: #ffffff"/>
   </g>
   <g id="matplotlib.axis_1">
    <g id="xtick_1">
     <g id="line2d_1">
      <defs>
       <path id="mc8ffe90435" d="M 0 0 
L 0 -3.5 
" style="stroke: #000000; stroke-width: 0.8"/>
      </defs>
      <g>
       <use xlink:href="#mc8ffe90435" x="169.530759" y="302.4" style="stroke: #000000; stroke-width: 0.8"/>
      </g>
     </g>
     <g id="line2d_2">
      <defs>
       <path id="mc999ea5a6e" d="M 0 0 
L 0 3.5 
" style="stroke: #000000; stroke-width: 0.8"/>
      </defs>
      <g>
       <use xlink:href="#mc999ea5a6e" x="169.530759" y="41.472" style="stroke: #000000; stroke-width: 0.8"/>
      </g>
     </g>
     <g id="text_1">
      <!-- $\mathdefault{10^{2}}$ -->
      <g transform="translate(157.210759 316.537812)scale(0.14 -0.14)">
       <defs>
        <path id="DejaVuSans-31" d="M 794 531 
L 1825 531 
L 1825 4091 
L 703 3866 
L 703 4441 
L 1819 4666 
L 2450 4666 
L 2450 531 
L 3481 531 
L 3481 0 
L 794 0 
L 794 531 
z
" transform="scale(0.015625)"/>
        <path id="DejaVuSans-30" d="M 2034 4250 
Q 1547 4250 1301 3770 
Q 1056 3291 1056 2328 
Q 1056 1369 1301 889 
Q 1547 409 2034 409 
Q 2525 409 2770 889 
Q 3016 1369 3016 2328 
Q 3016 3291 2770 3770 
Q 2525 4250 2034 4250 
z
M 2034 4750 
Q 2819 4750 3233 4129 
Q 3647 3509 3647 2328 
Q 3647 1150 3233 529 
Q 2819 -91 2034 -91 
Q 1250 -91 836 529 
Q 422 1150 422 2328 
Q 422 3509 836 4129 
Q 1250 4750 2034 4750 
z
" transform="scale(0.015625)"/>
        <path id="DejaVuSans-32" d="M 1228 531 
L 3431 531 
L 3431 0 
L 469 0 
L 469 531 
Q 828 903 1448 1529 
Q 2069 2156 2228 2338 
Q 2531 2678 2651 2914 
Q 2772 3150 2772 3378 
Q 2772 3750 2511 3984 
Q 2250 4219 1831 4219 
Q 1534 4219 1204 4116 
Q 875 4013 500 3803 
L 500 4441 
Q 881 4594 1212 4672 
Q 1544 4750 1819 4750 
Q 2544 4750 2975 4387 
Q 3406 4025 3406 3419 
Q 3406 3131 3298 2873 
Q 3191 2616 2906 2266 
Q 2828 2175 2409 1742 
Q 1991 1309 1228 531 
z
" transform="scale(0.015625)"/>
       </defs>
       <use xlink:href="#DejaVuSans-31" transform="translate(0 0.765625)"/>
       <use xlink:href="#DejaVuSans-30" transform="translate(63.623047 0.765625)"/>
       <use xlink:href="#DejaVuSans-32" transform="translate(128.203125 39.046875)scale(0.7)"/>
      </g>
     </g>
    </g>
    <g id="xtick_2">
     <g id="line2d_3">
      <g>
       <use xlink:href="#mc8ffe90435" x="325.852844" y="302.4" style="stroke: #000000; stroke-width: 0.8"/>
      </g>
     </g>
     <g id="line2d_4">
      <g>
       <use xlink:href="#mc999ea5a6e" x="325.852844" y="41.472" style="stroke: #000000; stroke-width: 0.8"/>
      </g>
     </g>
     <g id="text_2">
      <!-- $\mathdefault{10^{3}}$ -->
      <g transform="translate(313.532844 316.537812)scale(0.14 -0.14)">
       <defs>
        <path id="DejaVuSans-33" d="M 2597 2516 
Q 3050 2419 3304 2112 
Q 3559 1806 3559 1356 
Q 3559 666 3084 287 
Q 2609 -91 1734 -91 
Q 1441 -91 1130 -33 
Q 819 25 488 141 
L 488 750 
Q 750 597 1062 519 
Q 1375 441 1716 441 
Q 2309 441 2620 675 
Q 2931 909 2931 1356 
Q 2931 1769 2642 2001 
Q 2353 2234 1838 2234 
L 1294 2234 
L 1294 2753 
L 1863 2753 
Q 2328 2753 2575 2939 
Q 2822 3125 2822 3475 
Q 2822 3834 2567 4026 
Q 2313 4219 1838 4219 
Q 1578 4219 1281 4162 
Q 984 4106 628 3988 
L 628 4550 
Q 988 4650 1302 4700 
Q 1616 4750 1894 4750 
Q 2613 4750 3031 4423 
Q 3450 4097 3450 3541 
Q 3450 3153 3228 2886 
Q 3006 2619 2597 2516 
z
" transform="scale(0.015625)"/>
       </defs>
       <use xlink:href="#DejaVuSans-31" transform="translate(0 0.765625)"/>
       <use xlink:href="#DejaVuSans-30" transform="translate(63.623047 0.765625)"/>
       <use xlink:href="#DejaVuSans-33" transform="translate(128.203125 39.046875)scale(0.7)"/>
      </g>
     </g>
    </g>
    <g id="xtick_3">
     <g id="line2d_5">
      <defs>
       <path id="m7f614b76a6" d="M 0 0 
L 0 -2 
" style="stroke: #000000; stroke-width: 0.6"/>
      </defs>
      <g>
       <use xlink:href="#m7f614b76a6" x="60.26631" y="302.4" style="stroke: #000000; stroke-width: 0.6"/>
      </g>
     </g>
     <g id="line2d_6">
      <defs>
       <path id="mff57ea0b0f" d="M 0 0 
L 0 2 
" style="stroke: #000000; stroke-width: 0.6"/>
      </defs>
      <g>
       <use xlink:href="#mff57ea0b0f" x="60.26631" y="41.472" style="stroke: #000000; stroke-width: 0.6"/>
      </g>
     </g>
    </g>
    <g id="xtick_4">
     <g id="line2d_7">
      <g>
       <use xlink:href="#m7f614b76a6" x="87.793263" y="302.4" style="stroke: #000000; stroke-width: 0.6"/>
      </g>
     </g>
     <g id="line2d_8">
      <g>
       <use xlink:href="#mff57ea0b0f" x="87.793263" y="41.472" style="stroke: #000000; stroke-width: 0.6"/>
      </g>
     </g>
    </g>
    <g id="xtick_5">
     <g id="line2d_9">
      <g>
       <use xlink:href="#m7f614b76a6" x="107.323947" y="302.4" style="stroke: #000000; stroke-width: 0.6"/>
      </g>
     </g>
     <g id="line2d_10">
      <g>
       <use xlink:href="#mff57ea0b0f" x="107.323947" y="41.472" style="stroke: #000000; stroke-width: 0.6"/>
      </g>
     </g>
    </g>
    <g id="xtick_6">
     <g id="line2d_11">
      <g>
       <use xlink:href="#m7f614b76a6" x="122.473122" y="302.4" style="stroke: #000000; stroke-width: 0.6"/>
      </g>
     </g>
     <g id="line2d_12">
      <g>
       <use xlink:href="#mff57ea0b0f" x="122.473122" y="41.472" style="stroke: #000000; stroke-width: 0.6"/>
      </g>
     </g>
    </g>
    <g id="xtick_7">
     <g id="line2d_13">
      <g>
       <use xlink:href="#m7f614b76a6" x="134.8509" y="302.4" style="stroke: #000000; stroke-width: 0.6"/>
      </g>
     </g>
     <g id="line2d_14">
      <g>
       <use xlink:href="#mff57ea0b0f" x="134.8509" y="41.472" style="stroke: #000000; stroke-width: 0.6"/>
      </g>
     </g>
    </g>
    <g id="xtick_8">
     <g id="line2d_15">
      <g>
       <use xlink:href="#m7f614b76a6" x="145.316161" y="302.4" style="stroke: #000000; stroke-width: 0.6"/>
      </g>
     </g>
     <g id="line2d_16">
      <g>
       <use xlink:href="#mff57ea0b0f" x="145.316161" y="41.472" style="stroke: #000000; stroke-width: 0.6"/>
      </g>
     </g>
    </g>
    <g id="xtick_9">
     <g id="line2d_17">
      <g>
       <use xlink:href="#m7f614b76a6" x="154.381583" y="302.4" style="stroke: #000000; stroke-width: 0.6"/>
      </g>
     </g>
     <g id="line2d_18">
      <g>
       <use xlink:href="#mff57ea0b0f" x="154.381583" y="41.472" style="stroke: #000000; stroke-width: 0.6"/>
      </g>
     </g>
    </g>
    <g id="xtick_10">
     <g id="line2d_19">
      <g>
       <use xlink:href="#m7f614b76a6" x="162.377852" y="302.4" style="stroke: #000000; stroke-width: 0.6"/>
      </g>
     </g>
     <g id="line2d_20">
      <g>
       <use xlink:href="#mff57ea0b0f" x="162.377852" y="41.472" style="stroke: #000000; stroke-width: 0.6"/>
      </g>
     </g>
    </g>
    <g id="xtick_11">
     <g id="line2d_21">
      <g>
       <use xlink:href="#m7f614b76a6" x="216.588395" y="302.4" style="stroke: #000000; stroke-width: 0.6"/>
      </g>
     </g>
     <g id="line2d_22">
      <g>
       <use xlink:href="#mff57ea0b0f" x="216.588395" y="41.472" style="stroke: #000000; stroke-width: 0.6"/>
      </g>
     </g>
    </g>
    <g id="xtick_12">
     <g id="line2d_23">
      <g>
       <use xlink:href="#m7f614b76a6" x="244.115348" y="302.4" style="stroke: #000000; stroke-width: 0.6"/>
      </g>
     </g>
     <g id="line2d_24">
      <g>
       <use xlink:href="#mff57ea0b0f" x="244.115348" y="41.472" style="stroke: #000000; stroke-width: 0.6"/>
      </g>
     </g>
    </g>
    <g id="xtick_13">
     <g id="line2d_25">
      <g>
       <use xlink:href="#m7f614b76a6" x="263.646032" y="302.4" style="stroke: #000000; stroke-width: 0.6"/>
      </g>
     </g>
     <g id="line2d_26">
      <g>
       <use xlink:href="#mff57ea0b0f" x="263.646032" y="41.472" style="stroke: #000000; stroke-width: 0.6"/>
      </g>
     </g>
    </g>
    <g id="xtick_14">
     <g id="line2d_27">
      <g>
       <use xlink:href="#m7f614b76a6" x="278.795207" y="302.4" style="stroke: #000000; stroke-width: 0.6"/>
      </g>
     </g>
     <g id="line2d_28">
      <g>
       <use xlink:href="#mff57ea0b0f" x="278.795207" y="41.472" style="stroke: #000000; stroke-width: 0.6"/>
      </g>
     </g>
    </g>
    <g id="xtick_15">
     <g id="line2d_29">
      <g>
       <use xlink:href="#m7f614b76a6" x="291.172985" y="302.4" style="stroke: #000000; stroke-width: 0.6"/>
      </g>
     </g>
     <g id="line2d_30">
      <g>
       <use xlink:href="#mff57ea0b0f" x="291.172985" y="41.472" style="stroke: #000000; stroke-width: 0.6"/>
      </g>
     </g>
    </g>
    <g id="xtick_16">
     <g id="line2d_31">
      <g>
       <use xlink:href="#m7f614b76a6" x="301.638246" y="302.4" style="stroke: #000000; stroke-width: 0.6"/>
      </g>
     </g>
     <g id="line2d_32">
      <g>
       <use xlink:href="#mff57ea0b0f" x="301.638246" y="41.472" style="stroke: #000000; stroke-width: 0.6"/>
      </g>
     </g>
    </g>
    <g id="xtick_17">
     <g id="line2d_33">
      <g>
       <use xlink:href="#m7f614b76a6" x="310.703668" y="302.4" style="stroke: #000000; stroke-width: 0.6"/>
      </g>
     </g>
     <g id="line2d_34">
      <g>
       <use xlink:href="#mff57ea0b0f" x="310.703668" y="41.472" style="stroke: #000000; stroke-width: 0.6"/>
      </g>
     </g>
    </g>
    <g id="xtick_18">
     <g id="line2d_35">
      <g>
       <use xlink:href="#m7f614b76a6" x="318.699937" y="302.4" style="stroke: #000000; stroke-width: 0.6"/>
      </g>
     </g>
     <g id="line2d_36">
      <g>
       <use xlink:href="#mff57ea0b0f" x="318.699937" y="41.472" style="stroke: #000000; stroke-width: 0.6"/>
      </g>
     </g>
    </g>
    <g id="xtick_19">
     <g id="line2d_37">
      <g>
       <use xlink:href="#m7f614b76a6" x="372.91048" y="302.4" style="stroke: #000000; stroke-width: 0.6"/>
      </g>
     </g>
     <g id="line2d_38">
      <g>
       <use xlink:href="#mff57ea0b0f" x="372.91048" y="41.472" style="stroke: #000000; stroke-width: 0.6"/>
      </g>
     </g>
    </g>
    <g id="text_3">
     <!-- $p_\mathrm{T}^\mathrm{gen}$ -->
     <g transform="translate(207.19 336.049375)scale(0.14 -0.14)">
      <defs>
       <path id="DejaVuSans-Oblique-70" d="M 3175 2156 
Q 3175 2616 2975 2859 
Q 2775 3103 2400 3103 
Q 2144 3103 1911 2972 
Q 1678 2841 1497 2591 
Q 1319 2344 1212 1994 
Q 1106 1644 1106 1300 
Q 1106 863 1306 627 
Q 1506 391 1875 391 
Q 2147 391 2380 519 
Q 2613 647 2778 891 
Q 2956 1147 3065 1494 
Q 3175 1841 3175 2156 
z
M 1394 2969 
Q 1625 3272 1939 3428 
Q 2253 3584 2638 3584 
Q 3175 3584 3472 3232 
Q 3769 2881 3769 2247 
Q 3769 1728 3584 1258 
Q 3400 788 3053 416 
Q 2822 169 2531 39 
Q 2241 -91 1919 -91 
Q 1547 -91 1294 64 
Q 1041 219 916 525 
L 556 -1331 
L -19 -1331 
L 922 3500 
L 1497 3500 
L 1394 2969 
z
" transform="scale(0.015625)"/>
       <path id="DejaVuSans-67" d="M 2906 1791 
Q 2906 2416 2648 2759 
Q 2391 3103 1925 3103 
Q 1463 3103 1205 2759 
Q 947 2416 947 1791 
Q 947 1169 1205 825 
Q 1463 481 1925 481 
Q 2391 481 2648 825 
Q 2906 1169 2906 1791 
z
M 3481 434 
Q 3481 -459 3084 -895 
Q 2688 -1331 1869 -1331 
Q 1566 -1331 1297 -1286 
Q 1028 -1241 775 -1147 
L 775 -588 
Q 1028 -725 1275 -790 
Q 1522 -856 1778 -856 
Q 2344 -856 2625 -561 
Q 2906 -266 2906 331 
L 2906 616 
Q 2728 306 2450 153 
Q 2172 0 1784 0 
Q 1141 0 747 490 
Q 353 981 353 1791 
Q 353 2603 747 3093 
Q 1141 3584 1784 3584 
Q 2172 3584 2450 3431 
Q 2728 3278 2906 2969 
L 2906 3500 
L 3481 3500 
L 3481 434 
z
" transform="scale(0.015625)"/>
       <path id="DejaVuSans-65" d="M 3597 1894 
L 3597 1613 
L 953 1613 
Q 991 1019 1311 708 
Q 1631 397 2203 397 
Q 2534 397 2845 478 
Q 3156 559 3463 722 
L 3463 178 
Q 3153 47 2828 -22 
Q 2503 -91 2169 -91 
Q 1331 -91 842 396 
Q 353 884 353 1716 
Q 353 2575 817 3079 
Q 1281 3584 2069 3584 
Q 2775 3584 3186 3129 
Q 3597 2675 3597 1894 
z
M 3022 2063 
Q 3016 2534 2758 2815 
Q 2500 3097 2075 3097 
Q 1594 3097 1305 2825 
Q 1016 2553 972 2059 
L 3022 2063 
z
" transform="scale(0.015625)"/>
       <path id="DejaVuSans-6e" d="M 3513 2113 
L 3513 0 
L 2938 0 
L 2938 2094 
Q 2938 2591 2744 2837 
Q 2550 3084 2163 3084 
Q 1697 3084 1428 2787 
Q 1159 2491 1159 1978 
L 1159 0 
L 581 0 
L 581 3500 
L 1159 3500 
L 1159 2956 
Q 1366 3272 1645 3428 
Q 1925 3584 2291 3584 
Q 2894 3584 3203 3211 
Q 3513 2838 3513 2113 
z
" transform="scale(0.015625)"/>
       <path id="DejaVuSans-54" d="M -19 4666 
L 3928 4666 
L 3928 4134 
L 2272 4134 
L 2272 0 
L 1638 0 
L 1638 4134 
L -19 4134 
L -19 4666 
z
" transform="scale(0.015625)"/>
      </defs>
      <use xlink:href="#DejaVuSans-Oblique-70" transform="translate(0 0.051563)"/>
      <use xlink:href="#DejaVuSans-67" transform="translate(68.126458 50.8)scale(0.7)"/>
      <use xlink:href="#DejaVuSans-65" transform="translate(112.560052 50.8)scale(0.7)"/>
      <use xlink:href="#DejaVuSans-6e" transform="translate(155.626458 50.8)scale(0.7)"/>
      <use xlink:href="#DejaVuSans-54" transform="translate(63.476562 -27.292187)scale(0.7)"/>
     </g>
    </g>
   </g>
   <g id="matplotlib.axis_2">
    <g id="ytick_1">
     <g id="line2d_39">
      <defs>
       <path id="mf36a6b722c" d="M 0 0 
L 3.5 0 
" style="stroke: #000000; stroke-width: 0.8"/>
      </defs>
      <g>
       <use xlink:href="#mf36a6b722c" x="54" y="292.818083" style="stroke: #000000; stroke-width: 0.8"/>
      </g>
     </g>
     <g id="line2d_40">
      <defs>
       <path id="m811f504c57" d="M 0 0 
L -3.5 0 
" style="stroke: #000000; stroke-width: 0.8"/>
      </defs>
      <g>
       <use xlink:href="#m811f504c57" x="388.8" y="292.818083" style="stroke: #000000; stroke-width: 0.8"/>
      </g>
     </g>
     <g id="text_4">
      <!-- −0.10 -->
      <g transform="translate(7.596562 298.136989)scale(0.14 -0.14)">
       <defs>
        <path id="DejaVuSans-2212" d="M 678 2272 
L 4684 2272 
L 4684 1741 
L 678 1741 
L 678 2272 
z
" transform="scale(0.015625)"/>
        <path id="DejaVuSans-2e" d="M 684 794 
L 1344 794 
L 1344 0 
L 684 0 
L 684 794 
z
" transform="scale(0.015625)"/>
       </defs>
       <use xlink:href="#DejaVuSans-2212"/>
       <use xlink:href="#DejaVuSans-30" x="83.789062"/>
       <use xlink:href="#DejaVuSans-2e" x="147.412109"/>
       <use xlink:href="#DejaVuSans-31" x="179.199219"/>
       <use xlink:href="#DejaVuSans-30" x="242.822266"/>
      </g>
     </g>
    </g>
    <g id="ytick_2">
     <g id="line2d_41">
      <g>
       <use xlink:href="#mf36a6b722c" x="54" y="255.114806" style="stroke: #000000; stroke-width: 0.8"/>
      </g>
     </g>
     <g id="line2d_42">
      <g>
       <use xlink:href="#m811f504c57" x="388.8" y="255.114806" style="stroke: #000000; stroke-width: 0.8"/>
      </g>
     </g>
     <g id="text_5">
      <!-- −0.05 -->
      <g transform="translate(7.596562 260.433712)scale(0.14 -0.14)">
       <defs>
        <path id="DejaVuSans-35" d="M 691 4666 
L 3169 4666 
L 3169 4134 
L 1269 4134 
L 1269 2991 
Q 1406 3038 1543 3061 
Q 1681 3084 1819 3084 
Q 2600 3084 3056 2656 
Q 3513 2228 3513 1497 
Q 3513 744 3044 326 
Q 2575 -91 1722 -91 
Q 1428 -91 1123 -41 
Q 819 9 494 109 
L 494 744 
Q 775 591 1075 516 
Q 1375 441 1709 441 
Q 2250 441 2565 725 
Q 2881 1009 2881 1497 
Q 2881 1984 2565 2268 
Q 2250 2553 1709 2553 
Q 1456 2553 1204 2497 
Q 953 2441 691 2322 
L 691 4666 
z
" transform="scale(0.015625)"/>
       </defs>
       <use xlink:href="#DejaVuSans-2212"/>
       <use xlink:href="#DejaVuSans-30" x="83.789062"/>
       <use xlink:href="#DejaVuSans-2e" x="147.412109"/>
       <use xlink:href="#DejaVuSans-30" x="179.199219"/>
       <use xlink:href="#DejaVuSans-35" x="242.822266"/>
      </g>
     </g>
    </g>
    <g id="ytick_3">
     <g id="line2d_43">
      <g>
       <use xlink:href="#mf36a6b722c" x="54" y="217.411529" style="stroke: #000000; stroke-width: 0.8"/>
      </g>
     </g>
     <g id="line2d_44">
      <g>
       <use xlink:href="#m811f504c57" x="388.8" y="217.411529" style="stroke: #000000; stroke-width: 0.8"/>
      </g>
     </g>
     <g id="text_6">
      <!-- 0.00 -->
      <g transform="translate(19.328125 222.730435)scale(0.14 -0.14)">
       <use xlink:href="#DejaVuSans-30"/>
       <use xlink:href="#DejaVuSans-2e" x="63.623047"/>
       <use xlink:href="#DejaVuSans-30" x="95.410156"/>
       <use xlink:href="#DejaVuSans-30" x="159.033203"/>
      </g>
     </g>
    </g>
    <g id="ytick_4">
     <g id="line2d_45">
      <g>
       <use xlink:href="#mf36a6b722c" x="54" y="179.708252" style="stroke: #000000; stroke-width: 0.8"/>
      </g>
     </g>
     <g id="line2d_46">
      <g>
       <use xlink:href="#m811f504c57" x="388.8" y="179.708252" style="stroke: #000000; stroke-width: 0.8"/>
      </g>
     </g>
     <g id="text_7">
      <!-- 0.05 -->
      <g transform="translate(19.328125 185.027158)scale(0.14 -0.14)">
       <use xlink:href="#DejaVuSans-30"/>
       <use xlink:href="#DejaVuSans-2e" x="63.623047"/>
       <use xlink:href="#DejaVuSans-30" x="95.410156"/>
       <use xlink:href="#DejaVuSans-35" x="159.033203"/>
      </g>
     </g>
    </g>
    <g id="ytick_5">
     <g id="line2d_47">
      <g>
       <use xlink:href="#mf36a6b722c" x="54" y="142.004974" style="stroke: #000000; stroke-width: 0.8"/>
      </g>
     </g>
     <g id="line2d_48">
      <g>
       <use xlink:href="#m811f504c57" x="388.8" y="142.004974" style="stroke: #000000; stroke-width: 0.8"/>
      </g>
     </g>
     <g id="text_8">
      <!-- 0.10 -->
      <g transform="translate(19.328125 147.323881)scale(0.14 -0.14)">
       <use xlink:href="#DejaVuSans-30"/>
       <use xlink:href="#DejaVuSans-2e" x="63.623047"/>
       <use xlink:href="#DejaVuSans-31" x="95.410156"/>
       <use xlink:href="#DejaVuSans-30" x="159.033203"/>
      </g>
     </g>
    </g>
    <g id="ytick_6">
     <g id="line2d_49">
      <g>
       <use xlink:href="#mf36a6b722c" x="54" y="104.301697" style="stroke: #000000; stroke-width: 0.8"/>
      </g>
     </g>
     <g id="line2d_50">
      <g>
       <use xlink:href="#m811f504c57" x="388.8" y="104.301697" style="stroke: #000000; stroke-width: 0.8"/>
      </g>
     </g>
     <g id="text_9">
      <!-- 0.15 -->
      <g transform="translate(19.328125 109.620603)scale(0.14 -0.14)">
       <use xlink:href="#DejaVuSans-30"/>
       <use xlink:href="#DejaVuSans-2e" x="63.623047"/>
       <use xlink:href="#DejaVuSans-31" x="95.410156"/>
       <use xlink:href="#DejaVuSans-35" x="159.033203"/>
      </g>
     </g>
    </g>
    <g id="ytick_7">
     <g id="line2d_51">
      <g>
       <use xlink:href="#mf36a6b722c" x="54" y="66.59842" style="stroke: #000000; stroke-width: 0.8"/>
      </g>
     </g>
     <g id="line2d_52">
      <g>
       <use xlink:href="#m811f504c57" x="388.8" y="66.59842" style="stroke: #000000; stroke-width: 0.8"/>
      </g>
     </g>
     <g id="text_10">
      <!-- 0.20 -->
      <g transform="translate(19.328125 71.917326)scale(0.14 -0.14)">
       <use xlink:href="#DejaVuSans-30"/>
       <use xlink:href="#DejaVuSans-2e" x="63.623047"/>
       <use xlink:href="#DejaVuSans-32" x="95.410156"/>
       <use xlink:href="#DejaVuSans-30" x="159.033203"/>
      </g>
     </g>
    </g>
    <g id="text_11">
     <!-- $R_{b}-R_{g}$ -->
     <g transform="translate(-0.743438 196.926)rotate(-90)scale(0.14 -0.14)">
      <defs>
       <path id="DejaVuSans-Oblique-52" d="M 1613 4147 
L 1294 2491 
L 2106 2491 
Q 2584 2491 2879 2755 
Q 3175 3019 3175 3444 
Q 3175 3784 2976 3965 
Q 2778 4147 2406 4147 
L 1613 4147 
z
M 2772 2241 
Q 2972 2194 3105 2009 
Q 3238 1825 3413 1275 
L 3809 0 
L 3144 0 
L 2778 1197 
Q 2638 1659 2453 1815 
Q 2269 1972 1888 1972 
L 1191 1972 
L 806 0 
L 172 0 
L 1081 4666 
L 2503 4666 
Q 3150 4666 3495 4373 
Q 3841 4081 3841 3531 
Q 3841 3044 3547 2687 
Q 3253 2331 2772 2241 
z
" transform="scale(0.015625)"/>
       <path id="DejaVuSans-Oblique-62" d="M 3169 2138 
Q 3169 2591 2961 2847 
Q 2753 3103 2388 3103 
Q 2122 3103 1889 2973 
Q 1656 2844 1484 2597 
Q 1303 2338 1198 1995 
Q 1094 1653 1094 1313 
Q 1094 881 1298 636 
Q 1503 391 1863 391 
Q 2134 391 2365 517 
Q 2597 644 2772 891 
Q 2950 1147 3059 1487 
Q 3169 1828 3169 2138 
z
M 1381 2969 
Q 1594 3256 1914 3420 
Q 2234 3584 2584 3584 
Q 3122 3584 3439 3221 
Q 3756 2859 3756 2241 
Q 3756 1734 3570 1259 
Q 3384 784 3041 416 
Q 2816 172 2522 40 
Q 2228 -91 1906 -91 
Q 1566 -91 1316 65 
Q 1066 222 909 531 
L 806 0 
L 231 0 
L 1178 4863 
L 1753 4863 
L 1381 2969 
z
" transform="scale(0.015625)"/>
       <path id="DejaVuSans-Oblique-67" d="M 3816 3500 
L 3219 434 
Q 3047 -456 2561 -893 
Q 2075 -1331 1253 -1331 
Q 950 -1331 690 -1286 
Q 431 -1241 206 -1147 
L 313 -588 
Q 525 -725 762 -790 
Q 1000 -856 1269 -856 
Q 1816 -856 2167 -557 
Q 2519 -259 2631 300 
L 2681 563 
Q 2441 288 2122 144 
Q 1803 0 1434 0 
Q 903 0 598 351 
Q 294 703 294 1319 
Q 294 1803 478 2267 
Q 663 2731 997 3091 
Q 1219 3328 1514 3456 
Q 1809 3584 2131 3584 
Q 2484 3584 2746 3420 
Q 3009 3256 3138 2956 
L 3238 3500 
L 3816 3500 
z
M 2950 2216 
Q 2950 2641 2750 2872 
Q 2550 3103 2181 3103 
Q 1953 3103 1747 3012 
Q 1541 2922 1394 2759 
Q 1156 2491 1023 2127 
Q 891 1763 891 1375 
Q 891 944 1092 712 
Q 1294 481 1672 481 
Q 2219 481 2584 976 
Q 2950 1472 2950 2216 
z
" transform="scale(0.015625)"/>
      </defs>
      <use xlink:href="#DejaVuSans-Oblique-52" transform="translate(0 0.09375)"/>
      <use xlink:href="#DejaVuSans-Oblique-62" transform="translate(69.482422 -16.3125)scale(0.7)"/>
      <use xlink:href="#DejaVuSans-2212" transform="translate(136.132812 0.09375)"/>
      <use xlink:href="#DejaVuSans-Oblique-52" transform="translate(239.404297 0.09375)"/>
      <use xlink:href="#DejaVuSans-Oblique-67" transform="translate(308.886719 -16.3125)scale(0.7)"/>
     </g>
    </g>
   </g>
   <g id="LineCollection_1">
    <path d="M 69.218182 222.968666 
L 69.218182 157.52849 
" clip-path="url(#p50383e2dd7)" style="fill: none; stroke: #1f77b4; stroke-width: 0.8"/>
    <path d="M 87.121925 235.995156 
L 87.121925 214.074071 
" clip-path="url(#p50383e2dd7)" style="fill: none; stroke: #1f77b4; stroke-width: 0.8"/>
    <path d="M 105.025668 225.501709 
L 105.025668 212.65136 
" clip-path="url(#p50383e2dd7)" style="fill: none; stroke: #1f77b4; stroke-width: 0.8"/>
    <path d="M 122.929412 208.322019 
L 122.929412 198.472655 
" clip-path="url(#p50383e2dd7)" style="fill: none; stroke: #1f77b4; stroke-width: 0.8"/>
    <path d="M 140.833155 207.670712 
L 140.833155 195.499201 
" clip-path="url(#p50383e2dd7)" style="fill: none; stroke: #1f77b4; stroke-width: 0.8"/>
    <path d="M 158.736898 219.411822 
L 158.736898 204.165948 
" clip-path="url(#p50383e2dd7)" style="fill: none; stroke: #1f77b4; stroke-width: 0.8"/>
    <path d="M 176.640642 214.891747 
L 176.640642 206.773019 
" clip-path="url(#p50383e2dd7)" style="fill: none; stroke: #1f77b4; stroke-width: 0.8"/>
    <path d="M 194.544385 212.905441 
L 194.544385 200.678036 
" clip-path="url(#p50383e2dd7)" style="fill: none; stroke: #1f77b4; stroke-width: 0.8"/>
    <path d="M 212.448128 222.830043 
L 212.448128 208.858248 
" clip-path="url(#p50383e2dd7)" style="fill: none; stroke: #1f77b4; stroke-width: 0.8"/>
    <path d="M 230.351872 223.035502 
L 230.351872 213.219227 
" clip-path="url(#p50383e2dd7)" style="fill: none; stroke: #1f77b4; stroke-width: 0.8"/>
    <path d="M 248.255615 222.321805 
L 248.255615 210.072683 
" clip-path="url(#p50383e2dd7)" style="fill: none; stroke: #1f77b4; stroke-width: 0.8"/>
    <path d="M 266.159358 214.152651 
L 266.159358 205.810424 
" clip-path="url(#p50383e2dd7)" style="fill: none; stroke: #1f77b4; stroke-width: 0.8"/>
    <path d="M 284.063102 223.577512 
L 284.063102 208.855428 
" clip-path="url(#p50383e2dd7)" style="fill: none; stroke: #1f77b4; stroke-width: 0.8"/>
    <path d="M 301.966845 222.030034 
L 301.966845 208.109238 
" clip-path="url(#p50383e2dd7)" style="fill: none; stroke: #1f77b4; stroke-width: 0.8"/>
    <path d="M 319.870588 219.745908 
L 319.870588 198.872574 
" clip-path="url(#p50383e2dd7)" style="fill: none; stroke: #1f77b4; stroke-width: 0.8"/>
    <path d="M 337.774332 239.38605 
L 337.774332 200.855745 
" clip-path="url(#p50383e2dd7)" style="fill: none; stroke: #1f77b4; stroke-width: 0.8"/>
    <path d="M 355.678075 286.269238 
L 355.678075 266.866615 
" clip-path="url(#p50383e2dd7)" style="fill: none; stroke: #1f77b4; stroke-width: 0.8"/>
    <path d="M 373.581818 146.505364 
L 373.581818 77.803325 
" clip-path="url(#p50383e2dd7)" style="fill: none; stroke: #1f77b4; stroke-width: 0.8"/>
    <path clip-path="url(#p50383e2dd7)" style="fill: none; stroke: #1f77b4; stroke-width: 0.8"/>
   </g>
   <g id="LineCollection_2">
    <path d="M 69.218182 234.358944 
L 69.218182 184.160375 
" clip-path="url(#p50383e2dd7)" style="fill: none; stroke: #ff7f0e; stroke-width: 0.8"/>
    <path d="M 87.121925 237.53086 
L 87.121925 218.402621 
" clip-path="url(#p50383e2dd7)" style="fill: none; stroke: #ff7f0e; stroke-width: 0.8"/>
    <path d="M 105.025668 230.666958 
L 105.025668 211.43222 
" clip-path="url(#p50383e2dd7)" style="fill: none; stroke: #ff7f0e; stroke-width: 0.8"/>
    <path d="M 122.929412 212.435422 
L 122.929412 196.394629 
" clip-path="url(#p50383e2dd7)" style="fill: none; stroke: #ff7f0e; stroke-width: 0.8"/>
    <path d="M 140.833155 214.026028 
L 140.833155 200.840198 
" clip-path="url(#p50383e2dd7)" style="fill: none; stroke: #ff7f0e; stroke-width: 0.8"/>
    <path d="M 158.736898 221.764064 
L 158.736898 206.691074 
" clip-path="url(#p50383e2dd7)" style="fill: none; stroke: #ff7f0e; stroke-width: 0.8"/>
    <path d="M 176.640642 214.984741 
L 176.640642 202.153066 
" clip-path="url(#p50383e2dd7)" style="fill: none; stroke: #ff7f0e; stroke-width: 0.8"/>
    <path d="M 194.544385 214.980354 
L 194.544385 199.455353 
" clip-path="url(#p50383e2dd7)" style="fill: none; stroke: #ff7f0e; stroke-width: 0.8"/>
    <path d="M 212.448128 222.893271 
L 212.448128 208.355478 
" clip-path="url(#p50383e2dd7)" style="fill: none; stroke: #ff7f0e; stroke-width: 0.8"/>
    <path d="M 230.351872 220.680211 
L 230.351872 215.249039 
" clip-path="url(#p50383e2dd7)" style="fill: none; stroke: #ff7f0e; stroke-width: 0.8"/>
    <path d="M 248.255615 219.074715 
L 248.255615 209.37784 
" clip-path="url(#p50383e2dd7)" style="fill: none; stroke: #ff7f0e; stroke-width: 0.8"/>
    <path d="M 266.159358 216.033184 
L 266.159358 209.03921 
" clip-path="url(#p50383e2dd7)" style="fill: none; stroke: #ff7f0e; stroke-width: 0.8"/>
    <path d="M 284.063102 229.618741 
L 284.063102 219.195523 
" clip-path="url(#p50383e2dd7)" style="fill: none; stroke: #ff7f0e; stroke-width: 0.8"/>
    <path d="M 301.966845 222.480286 
L 301.966845 211.41704 
" clip-path="url(#p50383e2dd7)" style="fill: none; stroke: #ff7f0e; stroke-width: 0.8"/>
    <path d="M 319.870588 226.136797 
L 319.870588 212.180526 
" clip-path="url(#p50383e2dd7)" style="fill: none; stroke: #ff7f0e; stroke-width: 0.8"/>
    <path d="M 337.774332 229.643166 
L 337.774332 210.354454 
" clip-path="url(#p50383e2dd7)" style="fill: none; stroke: #ff7f0e; stroke-width: 0.8"/>
    <path d="M 355.678075 288.290568 
L 355.678075 272.427107 
" clip-path="url(#p50383e2dd7)" style="fill: none; stroke: #ff7f0e; stroke-width: 0.8"/>
    <path d="M 373.581818 139.434967 
L 373.581818 56.437926 
" clip-path="url(#p50383e2dd7)" style="fill: none; stroke: #ff7f0e; stroke-width: 0.8"/>
    <path clip-path="url(#p50383e2dd7)" style="fill: none; stroke: #ff7f0e; stroke-width: 0.8"/>
   </g>
   <g id="LineCollection_3">
    <path d="M 69.218182 236.318051 
L 69.218182 177.701063 
" clip-path="url(#p50383e2dd7)" style="fill: none; stroke: #2ca02c; stroke-width: 0.8"/>
    <path d="M 87.121925 243.196324 
L 87.121925 222.06543 
" clip-path="url(#p50383e2dd7)" style="fill: none; stroke: #2ca02c; stroke-width: 0.8"/>
    <path d="M 105.025668 227.854501 
L 105.025668 207.7063 
" clip-path="url(#p50383e2dd7)" style="fill: none; stroke: #2ca02c; stroke-width: 0.8"/>
    <path d="M 122.929412 219.773893 
L 122.929412 201.228164 
" clip-path="url(#p50383e2dd7)" style="fill: none; stroke: #2ca02c; stroke-width: 0.8"/>
    <path d="M 140.833155 210.984517 
L 140.833155 199.347697 
" clip-path="url(#p50383e2dd7)" style="fill: none; stroke: #2ca02c; stroke-width: 0.8"/>
    <path d="M 158.736898 217.371158 
L 158.736898 204.304912 
" clip-path="url(#p50383e2dd7)" style="fill: none; stroke: #2ca02c; stroke-width: 0.8"/>
    <path d="M 176.640642 214.988879 
L 176.640642 203.239174 
" clip-path="url(#p50383e2dd7)" style="fill: none; stroke: #2ca02c; stroke-width: 0.8"/>
    <path d="M 194.544385 213.428639 
L 194.544385 200.019673 
" clip-path="url(#p50383e2dd7)" style="fill: none; stroke: #2ca02c; stroke-width: 0.8"/>
    <path d="M 212.448128 222.362241 
L 212.448128 210.557402 
" clip-path="url(#p50383e2dd7)" style="fill: none; stroke: #2ca02c; stroke-width: 0.8"/>
    <path d="M 230.351872 225.948827 
L 230.351872 213.324021 
" clip-path="url(#p50383e2dd7)" style="fill: none; stroke: #2ca02c; stroke-width: 0.8"/>
    <path d="M 248.255615 217.673451 
L 248.255615 208.169915 
" clip-path="url(#p50383e2dd7)" style="fill: none; stroke: #2ca02c; stroke-width: 0.8"/>
    <path d="M 266.159358 216.823379 
L 266.159358 209.274878 
" clip-path="url(#p50383e2dd7)" style="fill: none; stroke: #2ca02c; stroke-width: 0.8"/>
    <path d="M 284.063102 228.434228 
L 284.063102 215.608489 
" clip-path="url(#p50383e2dd7)" style="fill: none; stroke: #2ca02c; stroke-width: 0.8"/>
    <path d="M 301.966845 220.8589 
L 301.966845 210.64878 
" clip-path="url(#p50383e2dd7)" style="fill: none; stroke: #2ca02c; stroke-width: 0.8"/>
    <path d="M 319.870588 223.951686 
L 319.870588 206.484675 
" clip-path="url(#p50383e2dd7)" style="fill: none; stroke: #2ca02c; stroke-width: 0.8"/>
    <path d="M 337.774332 231.987797 
L 337.774332 209.729452 
" clip-path="url(#p50383e2dd7)" style="fill: none; stroke: #2ca02c; stroke-width: 0.8"/>
    <path d="M 355.678075 290.539636 
L 355.678075 271.908721 
" clip-path="url(#p50383e2dd7)" style="fill: none; stroke: #2ca02c; stroke-width: 0.8"/>
    <path d="M 373.581818 147.866249 
L 373.581818 53.332364 
" clip-path="url(#p50383e2dd7)" style="fill: none; stroke: #2ca02c; stroke-width: 0.8"/>
    <path clip-path="url(#p50383e2dd7)" style="fill: none; stroke: #2ca02c; stroke-width: 0.8"/>
   </g>
   <g id="line2d_53">
    <path d="M 54 217.411529 
L 388.8 217.411529 
" clip-path="url(#p50383e2dd7)" style="fill: none; stroke-dasharray: 5.55,2.4; stroke-dashoffset: 0; stroke: #808080; stroke-opacity: 0.7; stroke-width: 1.5"/>
   </g>
   <g id="line2d_54">
    <defs>
     <path id="meb9bbe0279" d="M 0 1.5 
C 0.397805 1.5 0.77937 1.341951 1.06066 1.06066 
C 1.341951 0.77937 1.5 0.397805 1.5 0 
C 1.5 -0.397805 1.341951 -0.77937 1.06066 -1.06066 
C 0.77937 -1.341951 0.397805 -1.5 0 -1.5 
C -0.397805 -1.5 -0.77937 -1.341951 -1.06066 -1.06066 
C -1.341951 -0.77937 -1.5 -0.397805 -1.5 0 
C -1.5 0.397805 -1.341951 0.77937 -1.06066 1.06066 
C -0.77937 1.341951 -0.397805 1.5 0 1.5 
z
" style="stroke: #1f77b4"/>
    </defs>
    <g clip-path="url(#p50383e2dd7)">
     <use xlink:href="#meb9bbe0279" x="69.218182" y="190.248578" style="fill: #1f77b4; stroke: #1f77b4"/>
     <use xlink:href="#meb9bbe0279" x="87.121925" y="225.034614" style="fill: #1f77b4; stroke: #1f77b4"/>
     <use xlink:href="#meb9bbe0279" x="105.025668" y="219.076534" style="fill: #1f77b4; stroke: #1f77b4"/>
     <use xlink:href="#meb9bbe0279" x="122.929412" y="203.397337" style="fill: #1f77b4; stroke: #1f77b4"/>
     <use xlink:href="#meb9bbe0279" x="140.833155" y="201.584956" style="fill: #1f77b4; stroke: #1f77b4"/>
     <use xlink:href="#meb9bbe0279" x="158.736898" y="211.788885" style="fill: #1f77b4; stroke: #1f77b4"/>
     <use xlink:href="#meb9bbe0279" x="176.640642" y="210.832383" style="fill: #1f77b4; stroke: #1f77b4"/>
     <use xlink:href="#meb9bbe0279" x="194.544385" y="206.791739" style="fill: #1f77b4; stroke: #1f77b4"/>
     <use xlink:href="#meb9bbe0279" x="212.448128" y="215.844145" style="fill: #1f77b4; stroke: #1f77b4"/>
     <use xlink:href="#meb9bbe0279" x="230.351872" y="218.127365" style="fill: #1f77b4; stroke: #1f77b4"/>
     <use xlink:href="#meb9bbe0279" x="248.255615" y="216.197244" style="fill: #1f77b4; stroke: #1f77b4"/>
     <use xlink:href="#meb9bbe0279" x="266.159358" y="209.981537" style="fill: #1f77b4; stroke: #1f77b4"/>
     <use xlink:href="#meb9bbe0279" x="284.063102" y="216.21647" style="fill: #1f77b4; stroke: #1f77b4"/>
     <use xlink:href="#meb9bbe0279" x="301.966845" y="215.069636" style="fill: #1f77b4; stroke: #1f77b4"/>
     <use xlink:href="#meb9bbe0279" x="319.870588" y="209.309241" style="fill: #1f77b4; stroke: #1f77b4"/>
     <use xlink:href="#meb9bbe0279" x="337.774332" y="220.120898" style="fill: #1f77b4; stroke: #1f77b4"/>
     <use xlink:href="#meb9bbe0279" x="355.678075" y="276.567927" style="fill: #1f77b4; stroke: #1f77b4"/>
     <use xlink:href="#meb9bbe0279" x="373.581818" y="112.154344" style="fill: #1f77b4; stroke: #1f77b4"/>
    </g>
   </g>
   <g id="line2d_55">
    <defs>
     <path id="md54e302087" d="M -1.5 1.5 
L 1.5 1.5 
L 1.5 -1.5 
L -1.5 -1.5 
z
" style="stroke: #ff7f0e; stroke-linejoin: miter"/>
    </defs>
    <g clip-path="url(#p50383e2dd7)">
     <use xlink:href="#md54e302087" x="69.218182" y="209.259659" style="fill: #ff7f0e; stroke: #ff7f0e; stroke-linejoin: miter"/>
     <use xlink:href="#md54e302087" x="87.121925" y="227.96674" style="fill: #ff7f0e; stroke: #ff7f0e; stroke-linejoin: miter"/>
     <use xlink:href="#md54e302087" x="105.025668" y="221.049589" style="fill: #ff7f0e; stroke: #ff7f0e; stroke-linejoin: miter"/>
     <use xlink:href="#md54e302087" x="122.929412" y="204.415025" style="fill: #ff7f0e; stroke: #ff7f0e; stroke-linejoin: miter"/>
     <use xlink:href="#md54e302087" x="140.833155" y="207.433113" style="fill: #ff7f0e; stroke: #ff7f0e; stroke-linejoin: miter"/>
     <use xlink:href="#md54e302087" x="158.736898" y="214.227569" style="fill: #ff7f0e; stroke: #ff7f0e; stroke-linejoin: miter"/>
     <use xlink:href="#md54e302087" x="176.640642" y="208.568904" style="fill: #ff7f0e; stroke: #ff7f0e; stroke-linejoin: miter"/>
     <use xlink:href="#md54e302087" x="194.544385" y="207.217853" style="fill: #ff7f0e; stroke: #ff7f0e; stroke-linejoin: miter"/>
     <use xlink:href="#md54e302087" x="212.448128" y="215.624374" style="fill: #ff7f0e; stroke: #ff7f0e; stroke-linejoin: miter"/>
     <use xlink:href="#md54e302087" x="230.351872" y="217.964625" style="fill: #ff7f0e; stroke: #ff7f0e; stroke-linejoin: miter"/>
     <use xlink:href="#md54e302087" x="248.255615" y="214.226277" style="fill: #ff7f0e; stroke: #ff7f0e; stroke-linejoin: miter"/>
     <use xlink:href="#md54e302087" x="266.159358" y="212.536197" style="fill: #ff7f0e; stroke: #ff7f0e; stroke-linejoin: miter"/>
     <use xlink:href="#md54e302087" x="284.063102" y="224.407132" style="fill: #ff7f0e; stroke: #ff7f0e; stroke-linejoin: miter"/>
     <use xlink:href="#md54e302087" x="301.966845" y="216.948663" style="fill: #ff7f0e; stroke: #ff7f0e; stroke-linejoin: miter"/>
     <use xlink:href="#md54e302087" x="319.870588" y="219.158662" style="fill: #ff7f0e; stroke: #ff7f0e; stroke-linejoin: miter"/>
     <use xlink:href="#md54e302087" x="337.774332" y="219.99881" style="fill: #ff7f0e; stroke: #ff7f0e; stroke-linejoin: miter"/>
     <use xlink:href="#md54e302087" x="355.678075" y="280.358837" style="fill: #ff7f0e; stroke: #ff7f0e; stroke-linejoin: miter"/>
     <use xlink:href="#md54e302087" x="373.581818" y="97.936446" style="fill: #ff7f0e; stroke: #ff7f0e; stroke-linejoin: miter"/>
    </g>
   </g>
   <g id="line2d_56">
    <defs>
     <path id="md7560176af" d="M 0 -1.5 
L -1.5 1.5 
L 1.5 1.5 
z
" style="stroke: #2ca02c; stroke-linejoin: miter"/>
    </defs>
    <g clip-path="url(#p50383e2dd7)">
     <use xlink:href="#md7560176af" x="69.218182" y="207.009557" style="fill: #2ca02c; stroke: #2ca02c; stroke-linejoin: miter"/>
     <use xlink:href="#md7560176af" x="87.121925" y="232.630877" style="fill: #2ca02c; stroke: #2ca02c; stroke-linejoin: miter"/>
     <use xlink:href="#md7560176af" x="105.025668" y="217.780401" style="fill: #2ca02c; stroke: #2ca02c; stroke-linejoin: miter"/>
     <use xlink:href="#md7560176af" x="122.929412" y="210.501028" style="fill: #2ca02c; stroke: #2ca02c; stroke-linejoin: miter"/>
     <use xlink:href="#md7560176af" x="140.833155" y="205.166107" style="fill: #2ca02c; stroke: #2ca02c; stroke-linejoin: miter"/>
     <use xlink:href="#md7560176af" x="158.736898" y="210.838035" style="fill: #2ca02c; stroke: #2ca02c; stroke-linejoin: miter"/>
     <use xlink:href="#md7560176af" x="176.640642" y="209.114026" style="fill: #2ca02c; stroke: #2ca02c; stroke-linejoin: miter"/>
     <use xlink:href="#md7560176af" x="194.544385" y="206.724156" style="fill: #2ca02c; stroke: #2ca02c; stroke-linejoin: miter"/>
     <use xlink:href="#md7560176af" x="212.448128" y="216.459822" style="fill: #2ca02c; stroke: #2ca02c; stroke-linejoin: miter"/>
     <use xlink:href="#md7560176af" x="230.351872" y="219.636424" style="fill: #2ca02c; stroke: #2ca02c; stroke-linejoin: miter"/>
     <use xlink:href="#md7560176af" x="248.255615" y="212.921683" style="fill: #2ca02c; stroke: #2ca02c; stroke-linejoin: miter"/>
     <use xlink:href="#md7560176af" x="266.159358" y="213.049128" style="fill: #2ca02c; stroke: #2ca02c; stroke-linejoin: miter"/>
     <use xlink:href="#md7560176af" x="284.063102" y="222.021359" style="fill: #2ca02c; stroke: #2ca02c; stroke-linejoin: miter"/>
     <use xlink:href="#md7560176af" x="301.966845" y="215.75384" style="fill: #2ca02c; stroke: #2ca02c; stroke-linejoin: miter"/>
     <use xlink:href="#md7560176af" x="319.870588" y="215.21818" style="fill: #2ca02c; stroke: #2ca02c; stroke-linejoin: miter"/>
     <use xlink:href="#md7560176af" x="337.774332" y="220.858625" style="fill: #2ca02c; stroke: #2ca02c; stroke-linejoin: miter"/>
     <use xlink:href="#md7560176af" x="355.678075" y="281.224179" style="fill: #2ca02c; stroke: #2ca02c; stroke-linejoin: miter"/>
     <use xlink:href="#md7560176af" x="373.581818" y="100.599306" style="fill: #2ca02c; stroke: #2ca02c; stroke-linejoin: miter"/>
    </g>
   </g>
   <g id="patch_3">
    <path d="M 54 302.4 
L 54 41.472 
" style="fill: none; stroke: #000000; stroke-width: 0.8; stroke-linejoin: miter; stroke-linecap: square"/>
   </g>
   <g id="patch_4">
    <path d="M 388.8 302.4 
L 388.8 41.472 
" style="fill: none; stroke: #000000; stroke-width: 0.8; stroke-linejoin: miter; stroke-linecap: square"/>
   </g>
   <g id="patch_5">
    <path d="M 54 302.4 
L 388.8 302.4 
" style="fill: none; stroke: #000000; stroke-width: 0.8; stroke-linejoin: miter; stroke-linecap: square"/>
   </g>
   <g id="patch_6">
    <path d="M 54 41.472 
L 388.8 41.472 
" style="fill: none; stroke: #000000; stroke-width: 0.8; stroke-linejoin: miter; stroke-linecap: square"/>
   </g>
   <g id="text_12">
    <!-- $1.3 &lt; |\eta^\mathrm{gen}| &lt; 2.5$ -->
    <g transform="translate(272.04 37.590144)scale(0.14 -0.14)">
     <defs>
      <path id="DejaVuSans-3c" d="M 4684 3150 
L 1459 2003 
L 4684 863 
L 4684 294 
L 678 1747 
L 678 2266 
L 4684 3719 
L 4684 3150 
z
" transform="scale(0.015625)"/>
      <path id="DejaVuSans-7c" d="M 1344 4891 
L 1344 -1509 
L 813 -1509 
L 813 4891 
L 1344 4891 
z
" transform="scale(0.015625)"/>
      <path id="DejaVuSans-Oblique-3b7" d="M 3703 2113 
L 3034 -1331 
L 2459 -1331 
L 3125 2094 
Q 3222 2591 3075 2838 
Q 2931 3084 2544 3084 
Q 2078 3084 1750 2788 
Q 1425 2491 1325 1978 
L 941 0 
L 363 0 
L 1044 3500 
L 1622 3500 
L 1516 2956 
Q 1781 3272 2094 3428 
Q 2403 3584 2769 3584 
Q 3372 3584 3609 3213 
Q 3844 2838 3703 2113 
z
" transform="scale(0.015625)"/>
     </defs>
     <use xlink:href="#DejaVuSans-31" transform="translate(0 0.51875)"/>
     <use xlink:href="#DejaVuSans-2e" transform="translate(63.623047 0.51875)"/>
     <use xlink:href="#DejaVuSans-33" transform="translate(95.410156 0.51875)"/>
     <use xlink:href="#DejaVuSans-3c" transform="translate(178.515625 0.51875)"/>
     <use xlink:href="#DejaVuSans-7c" transform="translate(281.787109 0.51875)"/>
     <use xlink:href="#DejaVuSans-Oblique-3b7" transform="translate(315.478516 0.51875)"/>
     <use xlink:href="#DejaVuSans-67" transform="translate(383.507318 38.8)scale(0.7)"/>
     <use xlink:href="#DejaVuSans-65" transform="translate(427.940911 38.8)scale(0.7)"/>
     <use xlink:href="#DejaVuSans-6e" transform="translate(471.007318 38.8)scale(0.7)"/>
     <use xlink:href="#DejaVuSans-7c" transform="translate(518.106927 0.51875)"/>
     <use xlink:href="#DejaVuSans-3c" transform="translate(571.280755 0.51875)"/>
     <use xlink:href="#DejaVuSans-32" transform="translate(674.55224 0.51875)"/>
     <use xlink:href="#DejaVuSans-2e" transform="translate(738.175286 0.51875)"/>
     <use xlink:href="#DejaVuSans-35" transform="translate(769.962396 0.51875)"/>
    </g>
   </g>
   <g id="legend_1">
    <g id="patch_7">
     <path d="M 257.897813 114.320125 
L 379 114.320125 
Q 381.8 114.320125 381.8 111.520125 
L 381.8 51.272 
Q 381.8 48.472 379 48.472 
L 257.897813 48.472 
Q 255.097813 48.472 255.097813 51.272 
L 255.097813 111.520125 
Q 255.097813 114.320125 257.897813 114.320125 
z
" style="fill: #ffffff; opacity: 0.8; stroke: #cccccc; stroke-linejoin: miter"/>
    </g>
    <g id="LineCollection_4">
     <path d="M 274.697813 66.809812 
L 274.697813 52.809812 
" style="fill: none; stroke: #1f77b4; stroke-width: 0.8"/>
    </g>
    <g id="line2d_57"/>
    <g id="line2d_58">
     <g>
      <use xlink:href="#meb9bbe0279" x="274.697813" y="59.809812" style="fill: #1f77b4; stroke: #1f77b4"/>
     </g>
    </g>
    <g id="text_13">
     <!-- Baseline -->
     <g transform="translate(299.897813 64.709812)scale(0.14 -0.14)">
      <defs>
       <path id="DejaVuSans-42" d="M 1259 2228 
L 1259 519 
L 2272 519 
Q 2781 519 3026 730 
Q 3272 941 3272 1375 
Q 3272 1813 3026 2020 
Q 2781 2228 2272 2228 
L 1259 2228 
z
M 1259 4147 
L 1259 2741 
L 2194 2741 
Q 2656 2741 2882 2914 
Q 3109 3088 3109 3444 
Q 3109 3797 2882 3972 
Q 2656 4147 2194 4147 
L 1259 4147 
z
M 628 4666 
L 2241 4666 
Q 2963 4666 3353 4366 
Q 3744 4066 3744 3513 
Q 3744 3084 3544 2831 
Q 3344 2578 2956 2516 
Q 3422 2416 3680 2098 
Q 3938 1781 3938 1306 
Q 3938 681 3513 340 
Q 3088 0 2303 0 
L 628 0 
L 628 4666 
z
" transform="scale(0.015625)"/>
       <path id="DejaVuSans-61" d="M 2194 1759 
Q 1497 1759 1228 1600 
Q 959 1441 959 1056 
Q 959 750 1161 570 
Q 1363 391 1709 391 
Q 2188 391 2477 730 
Q 2766 1069 2766 1631 
L 2766 1759 
L 2194 1759 
z
M 3341 1997 
L 3341 0 
L 2766 0 
L 2766 531 
Q 2569 213 2275 61 
Q 1981 -91 1556 -91 
Q 1019 -91 701 211 
Q 384 513 384 1019 
Q 384 1609 779 1909 
Q 1175 2209 1959 2209 
L 2766 2209 
L 2766 2266 
Q 2766 2663 2505 2880 
Q 2244 3097 1772 3097 
Q 1472 3097 1187 3025 
Q 903 2953 641 2809 
L 641 3341 
Q 956 3463 1253 3523 
Q 1550 3584 1831 3584 
Q 2591 3584 2966 3190 
Q 3341 2797 3341 1997 
z
" transform="scale(0.015625)"/>
       <path id="DejaVuSans-73" d="M 2834 3397 
L 2834 2853 
Q 2591 2978 2328 3040 
Q 2066 3103 1784 3103 
Q 1356 3103 1142 2972 
Q 928 2841 928 2578 
Q 928 2378 1081 2264 
Q 1234 2150 1697 2047 
L 1894 2003 
Q 2506 1872 2764 1633 
Q 3022 1394 3022 966 
Q 3022 478 2636 193 
Q 2250 -91 1575 -91 
Q 1294 -91 989 -36 
Q 684 19 347 128 
L 347 722 
Q 666 556 975 473 
Q 1284 391 1588 391 
Q 1994 391 2212 530 
Q 2431 669 2431 922 
Q 2431 1156 2273 1281 
Q 2116 1406 1581 1522 
L 1381 1569 
Q 847 1681 609 1914 
Q 372 2147 372 2553 
Q 372 3047 722 3315 
Q 1072 3584 1716 3584 
Q 2034 3584 2315 3537 
Q 2597 3491 2834 3397 
z
" transform="scale(0.015625)"/>
       <path id="DejaVuSans-6c" d="M 603 4863 
L 1178 4863 
L 1178 0 
L 603 0 
L 603 4863 
z
" transform="scale(0.015625)"/>
       <path id="DejaVuSans-69" d="M 603 3500 
L 1178 3500 
L 1178 0 
L 603 0 
L 603 3500 
z
M 603 4863 
L 1178 4863 
L 1178 4134 
L 603 4134 
L 603 4863 
z
" transform="scale(0.015625)"/>
      </defs>
      <use xlink:href="#DejaVuSans-42"/>
      <use xlink:href="#DejaVuSans-61" x="68.603516"/>
      <use xlink:href="#DejaVuSans-73" x="129.882812"/>
      <use xlink:href="#DejaVuSans-65" x="181.982422"/>
      <use xlink:href="#DejaVuSans-6c" x="243.505859"/>
      <use xlink:href="#DejaVuSans-69" x="271.289062"/>
      <use xlink:href="#DejaVuSans-6e" x="299.072266"/>
      <use xlink:href="#DejaVuSans-65" x="362.451172"/>
     </g>
    </g>
    <g id="LineCollection_5">
     <path d="M 274.697813 87.359187 
L 274.697813 73.359187 
" style="fill: none; stroke: #ff7f0e; stroke-width: 0.8"/>
    </g>
    <g id="line2d_59"/>
    <g id="line2d_60">
     <g>
      <use xlink:href="#md54e302087" x="274.697813" y="80.359187" style="fill: #ff7f0e; stroke: #ff7f0e; stroke-linejoin: miter"/>
     </g>
    </g>
    <g id="text_14">
     <!-- PFN -->
     <g transform="translate(299.897813 85.259187)scale(0.14 -0.14)">
      <defs>
       <path id="DejaVuSans-50" d="M 1259 4147 
L 1259 2394 
L 2053 2394 
Q 2494 2394 2734 2622 
Q 2975 2850 2975 3272 
Q 2975 3691 2734 3919 
Q 2494 4147 2053 4147 
L 1259 4147 
z
M 628 4666 
L 2053 4666 
Q 2838 4666 3239 4311 
Q 3641 3956 3641 3272 
Q 3641 2581 3239 2228 
Q 2838 1875 2053 1875 
L 1259 1875 
L 1259 0 
L 628 0 
L 628 4666 
z
" transform="scale(0.015625)"/>
       <path id="DejaVuSans-46" d="M 628 4666 
L 3309 4666 
L 3309 4134 
L 1259 4134 
L 1259 2759 
L 3109 2759 
L 3109 2228 
L 1259 2228 
L 1259 0 
L 628 0 
L 628 4666 
z
" transform="scale(0.015625)"/>
       <path id="DejaVuSans-4e" d="M 628 4666 
L 1478 4666 
L 3547 763 
L 3547 4666 
L 4159 4666 
L 4159 0 
L 3309 0 
L 1241 3903 
L 1241 0 
L 628 0 
L 628 4666 
z
" transform="scale(0.015625)"/>
      </defs>
      <use xlink:href="#DejaVuSans-50"/>
      <use xlink:href="#DejaVuSans-46" x="60.302734"/>
      <use xlink:href="#DejaVuSans-4e" x="117.822266"/>
     </g>
    </g>
    <g id="LineCollection_6">
     <path d="M 274.697813 107.908562 
L 274.697813 93.908562 
" style="fill: none; stroke: #2ca02c; stroke-width: 0.8"/>
    </g>
    <g id="line2d_61"/>
    <g id="line2d_62">
     <g>
      <use xlink:href="#md7560176af" x="274.697813" y="100.908562" style="fill: #2ca02c; stroke: #2ca02c; stroke-linejoin: miter"/>
     </g>
    </g>
    <g id="text_15">
     <!-- ParticleNet -->
     <g transform="translate(299.897813 105.808562)scale(0.14 -0.14)">
      <defs>
       <path id="DejaVuSans-72" d="M 2631 2963 
Q 2534 3019 2420 3045 
Q 2306 3072 2169 3072 
Q 1681 3072 1420 2755 
Q 1159 2438 1159 1844 
L 1159 0 
L 581 0 
L 581 3500 
L 1159 3500 
L 1159 2956 
Q 1341 3275 1631 3429 
Q 1922 3584 2338 3584 
Q 2397 3584 2469 3576 
Q 2541 3569 2628 3553 
L 2631 2963 
z
" transform="scale(0.015625)"/>
       <path id="DejaVuSans-74" d="M 1172 4494 
L 1172 3500 
L 2356 3500 
L 2356 3053 
L 1172 3053 
L 1172 1153 
Q 1172 725 1289 603 
Q 1406 481 1766 481 
L 2356 481 
L 2356 0 
L 1766 0 
Q 1100 0 847 248 
Q 594 497 594 1153 
L 594 3053 
L 172 3053 
L 172 3500 
L 594 3500 
L 594 4494 
L 1172 4494 
z
" transform="scale(0.015625)"/>
       <path id="DejaVuSans-63" d="M 3122 3366 
L 3122 2828 
Q 2878 2963 2633 3030 
Q 2388 3097 2138 3097 
Q 1578 3097 1268 2742 
Q 959 2388 959 1747 
Q 959 1106 1268 751 
Q 1578 397 2138 397 
Q 2388 397 2633 464 
Q 2878 531 3122 666 
L 3122 134 
Q 2881 22 2623 -34 
Q 2366 -91 2075 -91 
Q 1284 -91 818 406 
Q 353 903 353 1747 
Q 353 2603 823 3093 
Q 1294 3584 2113 3584 
Q 2378 3584 2631 3529 
Q 2884 3475 3122 3366 
z
" transform="scale(0.015625)"/>
      </defs>
      <use xlink:href="#DejaVuSans-50"/>
      <use xlink:href="#DejaVuSans-61" x="55.802734"/>
      <use xlink:href="#DejaVuSans-72" x="117.082031"/>
      <use xlink:href="#DejaVuSans-74" x="158.195312"/>
      <use xlink:href="#DejaVuSans-69" x="197.404297"/>
      <use xlink:href="#DejaVuSans-63" x="225.1875"/>
      <use xlink:href="#DejaVuSans-6c" x="280.167969"/>
      <use xlink:href="#DejaVuSans-65" x="307.951172"/>
      <use xlink:href="#DejaVuSans-4e" x="369.474609"/>
      <use xlink:href="#DejaVuSans-65" x="444.279297"/>
      <use xlink:href="#DejaVuSans-74" x="505.802734"/>
     </g>
    </g>
   </g>
  </g>
 </g>
 <defs>
  <clipPath id="p50383e2dd7">
   <rect x="54" y="41.472" width="334.8" height="260.928"/>
  </clipPath>
 </defs>
</svg>
