<?xml version="1.0" encoding="utf-8" standalone="no"?>
<!DOCTYPE svg PUBLIC "-//W3C//DTD SVG 1.1//EN"
  "http://www.w3.org/Graphics/SVG/1.1/DTD/svg11.dtd">
<svg xmlns:xlink="http://www.w3.org/1999/xlink" width="432pt" height="345.6pt" viewBox="0 0 432 345.6" xmlns="http://www.w3.org/2000/svg" version="1.1">
 <metadata>
  <rdf:RDF xmlns:dc="http://purl.org/dc/elements/1.1/" xmlns:cc="http://creativecommons.org/ns#" xmlns:rdf="http://www.w3.org/1999/02/22-rdf-syntax-ns#">
   <cc:Work>
    <dc:type rdf:resource="http://purl.org/dc/dcmitype/StillImage"/>
    <dc:date>2023-03-10T21:40:25.100548</dc:date>
    <dc:format>image/svg+xml</dc:format>
    <dc:creator>
     <cc:Agent>
      <dc:title>Matplotlib v3.5.2, https://matplotlib.org/</dc:title>
     </cc:Agent>
    </dc:creator>
   </cc:Work>
  </rdf:RDF>
 </metadata>
 <defs>
  <style type="text/css">*{stroke-linejoin: round; stroke-linecap: butt}</style>
 </defs>
 <g id="figure_1">
  <g id="patch_1">
   <path d="M 0 345.6 
L 432 345.6 
L 432 0 
L 0 0 
L 0 345.6 
z
" style="fill: none"/>
  </g>
  <g id="axes_1">
   <g id="patch_2">
    <path d="M 54 302.4 
L 388.8 302.4 
L 388.8 41.472 
L 54 41.472 
z
" style="fill: #ffffff"/>
   </g>
   <g id="matplotlib.axis_1">
    <g id="xtick_1">
     <g id="line2d_1">
      <defs>
       <path id="m4cdfe3c158" d="M 0 0 
L 0 -3.5 
" style="stroke: #000000; stroke-width: 0.8"/>
      </defs>
      <g>
       <use xlink:href="#m4cdfe3c158" x="163.957838" y="302.4" style="stroke: #000000; stroke-width: 0.8"/>
      </g>
     </g>
     <g id="line2d_2">
      <defs>
       <path id="mfb2078093e" d="M 0 0 
L 0 3.5 
" style="stroke: #000000; stroke-width: 0.8"/>
      </defs>
      <g>
       <use xlink:href="#mfb2078093e" x="163.957838" y="41.472" style="stroke: #000000; stroke-width: 0.8"/>
      </g>
     </g>
     <g id="text_1">
      <!-- $\mathdefault{10^{2}}$ -->
      <g transform="translate(151.637838 316.537812)scale(0.14 -0.14)">
       <defs>
        <path id="DejaVuSans-31" d="M 794 531 
L 1825 531 
L 1825 4091 
L 703 3866 
L 703 4441 
L 1819 4666 
L 2450 4666 
L 2450 531 
L 3481 531 
L 3481 0 
L 794 0 
L 794 531 
z
" transform="scale(0.015625)"/>
        <path id="DejaVuSans-30" d="M 2034 4250 
Q 1547 4250 1301 3770 
Q 1056 3291 1056 2328 
Q 1056 1369 1301 889 
Q 1547 409 2034 409 
Q 2525 409 2770 889 
Q 3016 1369 3016 2328 
Q 3016 3291 2770 3770 
Q 2525 4250 2034 4250 
z
M 2034 4750 
Q 2819 4750 3233 4129 
Q 3647 3509 3647 2328 
Q 3647 1150 3233 529 
Q 2819 -91 2034 -91 
Q 1250 -91 836 529 
Q 422 1150 422 2328 
Q 422 3509 836 4129 
Q 1250 4750 2034 4750 
z
" transform="scale(0.015625)"/>
        <path id="DejaVuSans-32" d="M 1228 531 
L 3431 531 
L 3431 0 
L 469 0 
L 469 531 
Q 828 903 1448 1529 
Q 2069 2156 2228 2338 
Q 2531 2678 2651 2914 
Q 2772 3150 2772 3378 
Q 2772 3750 2511 3984 
Q 2250 4219 1831 4219 
Q 1534 4219 1204 4116 
Q 875 4013 500 3803 
L 500 4441 
Q 881 4594 1212 4672 
Q 1544 4750 1819 4750 
Q 2544 4750 2975 4387 
Q 3406 4025 3406 3419 
Q 3406 3131 3298 2873 
Q 3191 2616 2906 2266 
Q 2828 2175 2409 1742 
Q 1991 1309 1228 531 
z
" transform="scale(0.015625)"/>
       </defs>
       <use xlink:href="#DejaVuSans-31" transform="translate(0 0.765625)"/>
       <use xlink:href="#DejaVuSans-30" transform="translate(63.623047 0.765625)"/>
       <use xlink:href="#DejaVuSans-32" transform="translate(128.203125 39.046875)scale(0.7)"/>
      </g>
     </g>
    </g>
    <g id="xtick_2">
     <g id="line2d_3">
      <g>
       <use xlink:href="#m4cdfe3c158" x="311.595363" y="302.4" style="stroke: #000000; stroke-width: 0.8"/>
      </g>
     </g>
     <g id="line2d_4">
      <g>
       <use xlink:href="#mfb2078093e" x="311.595363" y="41.472" style="stroke: #000000; stroke-width: 0.8"/>
      </g>
     </g>
     <g id="text_2">
      <!-- $\mathdefault{10^{3}}$ -->
      <g transform="translate(299.275363 316.537812)scale(0.14 -0.14)">
       <defs>
        <path id="DejaVuSans-33" d="M 2597 2516 
Q 3050 2419 3304 2112 
Q 3559 1806 3559 1356 
Q 3559 666 3084 287 
Q 2609 -91 1734 -91 
Q 1441 -91 1130 -33 
Q 819 25 488 141 
L 488 750 
Q 750 597 1062 519 
Q 1375 441 1716 441 
Q 2309 441 2620 675 
Q 2931 909 2931 1356 
Q 2931 1769 2642 2001 
Q 2353 2234 1838 2234 
L 1294 2234 
L 1294 2753 
L 1863 2753 
Q 2328 2753 2575 2939 
Q 2822 3125 2822 3475 
Q 2822 3834 2567 4026 
Q 2313 4219 1838 4219 
Q 1578 4219 1281 4162 
Q 984 4106 628 3988 
L 628 4550 
Q 988 4650 1302 4700 
Q 1616 4750 1894 4750 
Q 2613 4750 3031 4423 
Q 3450 4097 3450 3541 
Q 3450 3153 3228 2886 
Q 3006 2619 2597 2516 
z
" transform="scale(0.015625)"/>
       </defs>
       <use xlink:href="#DejaVuSans-31" transform="translate(0 0.765625)"/>
       <use xlink:href="#DejaVuSans-30" transform="translate(63.623047 0.765625)"/>
       <use xlink:href="#DejaVuSans-33" transform="translate(128.203125 39.046875)scale(0.7)"/>
      </g>
     </g>
    </g>
    <g id="xtick_3">
     <g id="line2d_5">
      <defs>
       <path id="m59a1c310e6" d="M 0 0 
L 0 -2 
" style="stroke: #000000; stroke-width: 0.6"/>
      </defs>
      <g>
       <use xlink:href="#m59a1c310e6" x="60.763636" y="302.4" style="stroke: #000000; stroke-width: 0.6"/>
      </g>
     </g>
     <g id="line2d_6">
      <defs>
       <path id="m48095328cf" d="M 0 0 
L 0 2 
" style="stroke: #000000; stroke-width: 0.6"/>
      </defs>
      <g>
       <use xlink:href="#m48095328cf" x="60.763636" y="41.472" style="stroke: #000000; stroke-width: 0.6"/>
      </g>
     </g>
    </g>
    <g id="xtick_4">
     <g id="line2d_7">
      <g>
       <use xlink:href="#m59a1c310e6" x="86.761314" y="302.4" style="stroke: #000000; stroke-width: 0.6"/>
      </g>
     </g>
     <g id="line2d_8">
      <g>
       <use xlink:href="#m48095328cf" x="86.761314" y="41.472" style="stroke: #000000; stroke-width: 0.6"/>
      </g>
     </g>
    </g>
    <g id="xtick_5">
     <g id="line2d_9">
      <g>
       <use xlink:href="#m59a1c310e6" x="105.20696" y="302.4" style="stroke: #000000; stroke-width: 0.6"/>
      </g>
     </g>
     <g id="line2d_10">
      <g>
       <use xlink:href="#m48095328cf" x="105.20696" y="41.472" style="stroke: #000000; stroke-width: 0.6"/>
      </g>
     </g>
    </g>
    <g id="xtick_6">
     <g id="line2d_11">
      <g>
       <use xlink:href="#m59a1c310e6" x="119.514514" y="302.4" style="stroke: #000000; stroke-width: 0.6"/>
      </g>
     </g>
     <g id="line2d_12">
      <g>
       <use xlink:href="#m48095328cf" x="119.514514" y="41.472" style="stroke: #000000; stroke-width: 0.6"/>
      </g>
     </g>
    </g>
    <g id="xtick_7">
     <g id="line2d_13">
      <g>
       <use xlink:href="#m59a1c310e6" x="131.204637" y="302.4" style="stroke: #000000; stroke-width: 0.6"/>
      </g>
     </g>
     <g id="line2d_14">
      <g>
       <use xlink:href="#m48095328cf" x="131.204637" y="41.472" style="stroke: #000000; stroke-width: 0.6"/>
      </g>
     </g>
    </g>
    <g id="xtick_8">
     <g id="line2d_15">
      <g>
       <use xlink:href="#m59a1c310e6" x="141.088496" y="302.4" style="stroke: #000000; stroke-width: 0.6"/>
      </g>
     </g>
     <g id="line2d_16">
      <g>
       <use xlink:href="#m48095328cf" x="141.088496" y="41.472" style="stroke: #000000; stroke-width: 0.6"/>
      </g>
     </g>
    </g>
    <g id="xtick_9">
     <g id="line2d_17">
      <g>
       <use xlink:href="#m59a1c310e6" x="149.650283" y="302.4" style="stroke: #000000; stroke-width: 0.6"/>
      </g>
     </g>
     <g id="line2d_18">
      <g>
       <use xlink:href="#m48095328cf" x="149.650283" y="41.472" style="stroke: #000000; stroke-width: 0.6"/>
      </g>
     </g>
    </g>
    <g id="xtick_10">
     <g id="line2d_19">
      <g>
       <use xlink:href="#m59a1c310e6" x="157.202315" y="302.4" style="stroke: #000000; stroke-width: 0.6"/>
      </g>
     </g>
     <g id="line2d_20">
      <g>
       <use xlink:href="#m48095328cf" x="157.202315" y="41.472" style="stroke: #000000; stroke-width: 0.6"/>
      </g>
     </g>
    </g>
    <g id="xtick_11">
     <g id="line2d_21">
      <g>
       <use xlink:href="#m59a1c310e6" x="208.401161" y="302.4" style="stroke: #000000; stroke-width: 0.6"/>
      </g>
     </g>
     <g id="line2d_22">
      <g>
       <use xlink:href="#m48095328cf" x="208.401161" y="41.472" style="stroke: #000000; stroke-width: 0.6"/>
      </g>
     </g>
    </g>
    <g id="xtick_12">
     <g id="line2d_23">
      <g>
       <use xlink:href="#m59a1c310e6" x="234.398839" y="302.4" style="stroke: #000000; stroke-width: 0.6"/>
      </g>
     </g>
     <g id="line2d_24">
      <g>
       <use xlink:href="#m48095328cf" x="234.398839" y="41.472" style="stroke: #000000; stroke-width: 0.6"/>
      </g>
     </g>
    </g>
    <g id="xtick_13">
     <g id="line2d_25">
      <g>
       <use xlink:href="#m59a1c310e6" x="252.844485" y="302.4" style="stroke: #000000; stroke-width: 0.6"/>
      </g>
     </g>
     <g id="line2d_26">
      <g>
       <use xlink:href="#m48095328cf" x="252.844485" y="41.472" style="stroke: #000000; stroke-width: 0.6"/>
      </g>
     </g>
    </g>
    <g id="xtick_14">
     <g id="line2d_27">
      <g>
       <use xlink:href="#m59a1c310e6" x="267.152039" y="302.4" style="stroke: #000000; stroke-width: 0.6"/>
      </g>
     </g>
     <g id="line2d_28">
      <g>
       <use xlink:href="#m48095328cf" x="267.152039" y="41.472" style="stroke: #000000; stroke-width: 0.6"/>
      </g>
     </g>
    </g>
    <g id="xtick_15">
     <g id="line2d_29">
      <g>
       <use xlink:href="#m59a1c310e6" x="278.842162" y="302.4" style="stroke: #000000; stroke-width: 0.6"/>
      </g>
     </g>
     <g id="line2d_30">
      <g>
       <use xlink:href="#m48095328cf" x="278.842162" y="41.472" style="stroke: #000000; stroke-width: 0.6"/>
      </g>
     </g>
    </g>
    <g id="xtick_16">
     <g id="line2d_31">
      <g>
       <use xlink:href="#m59a1c310e6" x="288.726021" y="302.4" style="stroke: #000000; stroke-width: 0.6"/>
      </g>
     </g>
     <g id="line2d_32">
      <g>
       <use xlink:href="#m48095328cf" x="288.726021" y="41.472" style="stroke: #000000; stroke-width: 0.6"/>
      </g>
     </g>
    </g>
    <g id="xtick_17">
     <g id="line2d_33">
      <g>
       <use xlink:href="#m59a1c310e6" x="297.287808" y="302.4" style="stroke: #000000; stroke-width: 0.6"/>
      </g>
     </g>
     <g id="line2d_34">
      <g>
       <use xlink:href="#m48095328cf" x="297.287808" y="41.472" style="stroke: #000000; stroke-width: 0.6"/>
      </g>
     </g>
    </g>
    <g id="xtick_18">
     <g id="line2d_35">
      <g>
       <use xlink:href="#m59a1c310e6" x="304.83984" y="302.4" style="stroke: #000000; stroke-width: 0.6"/>
      </g>
     </g>
     <g id="line2d_36">
      <g>
       <use xlink:href="#m48095328cf" x="304.83984" y="41.472" style="stroke: #000000; stroke-width: 0.6"/>
      </g>
     </g>
    </g>
    <g id="xtick_19">
     <g id="line2d_37">
      <g>
       <use xlink:href="#m59a1c310e6" x="356.038686" y="302.4" style="stroke: #000000; stroke-width: 0.6"/>
      </g>
     </g>
     <g id="line2d_38">
      <g>
       <use xlink:href="#m48095328cf" x="356.038686" y="41.472" style="stroke: #000000; stroke-width: 0.6"/>
      </g>
     </g>
    </g>
    <g id="xtick_20">
     <g id="line2d_39">
      <g>
       <use xlink:href="#m59a1c310e6" x="382.036364" y="302.4" style="stroke: #000000; stroke-width: 0.6"/>
      </g>
     </g>
     <g id="line2d_40">
      <g>
       <use xlink:href="#m48095328cf" x="382.036364" y="41.472" style="stroke: #000000; stroke-width: 0.6"/>
      </g>
     </g>
    </g>
    <g id="text_3">
     <!-- $p_\mathrm{T}^\mathrm{gen}$ -->
     <g transform="translate(207.19 336.049375)scale(0.14 -0.14)">
      <defs>
       <path id="DejaVuSans-Oblique-70" d="M 3175 2156 
Q 3175 2616 2975 2859 
Q 2775 3103 2400 3103 
Q 2144 3103 1911 2972 
Q 1678 2841 1497 2591 
Q 1319 2344 1212 1994 
Q 1106 1644 1106 1300 
Q 1106 863 1306 627 
Q 1506 391 1875 391 
Q 2147 391 2380 519 
Q 2613 647 2778 891 
Q 2956 1147 3065 1494 
Q 3175 1841 3175 2156 
z
M 1394 2969 
Q 1625 3272 1939 3428 
Q 2253 3584 2638 3584 
Q 3175 3584 3472 3232 
Q 3769 2881 3769 2247 
Q 3769 1728 3584 1258 
Q 3400 788 3053 416 
Q 2822 169 2531 39 
Q 2241 -91 1919 -91 
Q 1547 -91 1294 64 
Q 1041 219 916 525 
L 556 -1331 
L -19 -1331 
L 922 3500 
L 1497 3500 
L 1394 2969 
z
" transform="scale(0.015625)"/>
       <path id="DejaVuSans-67" d="M 2906 1791 
Q 2906 2416 2648 2759 
Q 2391 3103 1925 3103 
Q 1463 3103 1205 2759 
Q 947 2416 947 1791 
Q 947 1169 1205 825 
Q 1463 481 1925 481 
Q 2391 481 2648 825 
Q 2906 1169 2906 1791 
z
M 3481 434 
Q 3481 -459 3084 -895 
Q 2688 -1331 1869 -1331 
Q 1566 -1331 1297 -1286 
Q 1028 -1241 775 -1147 
L 775 -588 
Q 1028 -725 1275 -790 
Q 1522 -856 1778 -856 
Q 2344 -856 2625 -561 
Q 2906 -266 2906 331 
L 2906 616 
Q 2728 306 2450 153 
Q 2172 0 1784 0 
Q 1141 0 747 490 
Q 353 981 353 1791 
Q 353 2603 747 3093 
Q 1141 3584 1784 3584 
Q 2172 3584 2450 3431 
Q 2728 3278 2906 2969 
L 2906 3500 
L 3481 3500 
L 3481 434 
z
" transform="scale(0.015625)"/>
       <path id="DejaVuSans-65" d="M 3597 1894 
L 3597 1613 
L 953 1613 
Q 991 1019 1311 708 
Q 1631 397 2203 397 
Q 2534 397 2845 478 
Q 3156 559 3463 722 
L 3463 178 
Q 3153 47 2828 -22 
Q 2503 -91 2169 -91 
Q 1331 -91 842 396 
Q 353 884 353 1716 
Q 353 2575 817 3079 
Q 1281 3584 2069 3584 
Q 2775 3584 3186 3129 
Q 3597 2675 3597 1894 
z
M 3022 2063 
Q 3016 2534 2758 2815 
Q 2500 3097 2075 3097 
Q 1594 3097 1305 2825 
Q 1016 2553 972 2059 
L 3022 2063 
z
" transform="scale(0.015625)"/>
       <path id="DejaVuSans-6e" d="M 3513 2113 
L 3513 0 
L 2938 0 
L 2938 2094 
Q 2938 2591 2744 2837 
Q 2550 3084 2163 3084 
Q 1697 3084 1428 2787 
Q 1159 2491 1159 1978 
L 1159 0 
L 581 0 
L 581 3500 
L 1159 3500 
L 1159 2956 
Q 1366 3272 1645 3428 
Q 1925 3584 2291 3584 
Q 2894 3584 3203 3211 
Q 3513 2838 3513 2113 
z
" transform="scale(0.015625)"/>
       <path id="DejaVuSans-54" d="M -19 4666 
L 3928 4666 
L 3928 4134 
L 2272 4134 
L 2272 0 
L 1638 0 
L 1638 4134 
L -19 4134 
L -19 4666 
z
" transform="scale(0.015625)"/>
      </defs>
      <use xlink:href="#DejaVuSans-Oblique-70" transform="translate(0 0.051563)"/>
      <use xlink:href="#DejaVuSans-67" transform="translate(68.126458 50.8)scale(0.7)"/>
      <use xlink:href="#DejaVuSans-65" transform="translate(112.560052 50.8)scale(0.7)"/>
      <use xlink:href="#DejaVuSans-6e" transform="translate(155.626458 50.8)scale(0.7)"/>
      <use xlink:href="#DejaVuSans-54" transform="translate(63.476562 -27.292187)scale(0.7)"/>
     </g>
    </g>
   </g>
   <g id="matplotlib.axis_2">
    <g id="ytick_1">
     <g id="line2d_41">
      <defs>
       <path id="m68aab1bd3a" d="M 0 0 
L 3.5 0 
" style="stroke: #000000; stroke-width: 0.8"/>
      </defs>
      <g>
       <use xlink:href="#m68aab1bd3a" x="54" y="281.868767" style="stroke: #000000; stroke-width: 0.8"/>
      </g>
     </g>
     <g id="line2d_42">
      <defs>
       <path id="m912b185d9c" d="M 0 0 
L -3.5 0 
" style="stroke: #000000; stroke-width: 0.8"/>
      </defs>
      <g>
       <use xlink:href="#m912b185d9c" x="388.8" y="281.868767" style="stroke: #000000; stroke-width: 0.8"/>
      </g>
     </g>
     <g id="text_4">
      <!-- −0.02 -->
      <g transform="translate(7.596562 287.187673)scale(0.14 -0.14)">
       <defs>
        <path id="DejaVuSans-2212" d="M 678 2272 
L 4684 2272 
L 4684 1741 
L 678 1741 
L 678 2272 
z
" transform="scale(0.015625)"/>
        <path id="DejaVuSans-2e" d="M 684 794 
L 1344 794 
L 1344 0 
L 684 0 
L 684 794 
z
" transform="scale(0.015625)"/>
       </defs>
       <use xlink:href="#DejaVuSans-2212"/>
       <use xlink:href="#DejaVuSans-30" x="83.789062"/>
       <use xlink:href="#DejaVuSans-2e" x="147.412109"/>
       <use xlink:href="#DejaVuSans-30" x="179.199219"/>
       <use xlink:href="#DejaVuSans-32" x="242.822266"/>
      </g>
     </g>
    </g>
    <g id="ytick_2">
     <g id="line2d_43">
      <g>
       <use xlink:href="#m68aab1bd3a" x="54" y="239.954527" style="stroke: #000000; stroke-width: 0.8"/>
      </g>
     </g>
     <g id="line2d_44">
      <g>
       <use xlink:href="#m912b185d9c" x="388.8" y="239.954527" style="stroke: #000000; stroke-width: 0.8"/>
      </g>
     </g>
     <g id="text_5">
      <!-- −0.01 -->
      <g transform="translate(7.596562 245.273433)scale(0.14 -0.14)">
       <use xlink:href="#DejaVuSans-2212"/>
       <use xlink:href="#DejaVuSans-30" x="83.789062"/>
       <use xlink:href="#DejaVuSans-2e" x="147.412109"/>
       <use xlink:href="#DejaVuSans-30" x="179.199219"/>
       <use xlink:href="#DejaVuSans-31" x="242.822266"/>
      </g>
     </g>
    </g>
    <g id="ytick_3">
     <g id="line2d_45">
      <g>
       <use xlink:href="#m68aab1bd3a" x="54" y="198.040286" style="stroke: #000000; stroke-width: 0.8"/>
      </g>
     </g>
     <g id="line2d_46">
      <g>
       <use xlink:href="#m912b185d9c" x="388.8" y="198.040286" style="stroke: #000000; stroke-width: 0.8"/>
      </g>
     </g>
     <g id="text_6">
      <!-- 0.00 -->
      <g transform="translate(19.328125 203.359193)scale(0.14 -0.14)">
       <use xlink:href="#DejaVuSans-30"/>
       <use xlink:href="#DejaVuSans-2e" x="63.623047"/>
       <use xlink:href="#DejaVuSans-30" x="95.410156"/>
       <use xlink:href="#DejaVuSans-30" x="159.033203"/>
      </g>
     </g>
    </g>
    <g id="ytick_4">
     <g id="line2d_47">
      <g>
       <use xlink:href="#m68aab1bd3a" x="54" y="156.126046" style="stroke: #000000; stroke-width: 0.8"/>
      </g>
     </g>
     <g id="line2d_48">
      <g>
       <use xlink:href="#m912b185d9c" x="388.8" y="156.126046" style="stroke: #000000; stroke-width: 0.8"/>
      </g>
     </g>
     <g id="text_7">
      <!-- 0.01 -->
      <g transform="translate(19.328125 161.444952)scale(0.14 -0.14)">
       <use xlink:href="#DejaVuSans-30"/>
       <use xlink:href="#DejaVuSans-2e" x="63.623047"/>
       <use xlink:href="#DejaVuSans-30" x="95.410156"/>
       <use xlink:href="#DejaVuSans-31" x="159.033203"/>
      </g>
     </g>
    </g>
    <g id="ytick_5">
     <g id="line2d_49">
      <g>
       <use xlink:href="#m68aab1bd3a" x="54" y="114.211806" style="stroke: #000000; stroke-width: 0.8"/>
      </g>
     </g>
     <g id="line2d_50">
      <g>
       <use xlink:href="#m912b185d9c" x="388.8" y="114.211806" style="stroke: #000000; stroke-width: 0.8"/>
      </g>
     </g>
     <g id="text_8">
      <!-- 0.02 -->
      <g transform="translate(19.328125 119.530712)scale(0.14 -0.14)">
       <use xlink:href="#DejaVuSans-30"/>
       <use xlink:href="#DejaVuSans-2e" x="63.623047"/>
       <use xlink:href="#DejaVuSans-30" x="95.410156"/>
       <use xlink:href="#DejaVuSans-32" x="159.033203"/>
      </g>
     </g>
    </g>
    <g id="ytick_6">
     <g id="line2d_51">
      <g>
       <use xlink:href="#m68aab1bd3a" x="54" y="72.297565" style="stroke: #000000; stroke-width: 0.8"/>
      </g>
     </g>
     <g id="line2d_52">
      <g>
       <use xlink:href="#m912b185d9c" x="388.8" y="72.297565" style="stroke: #000000; stroke-width: 0.8"/>
      </g>
     </g>
     <g id="text_9">
      <!-- 0.03 -->
      <g transform="translate(19.328125 77.616471)scale(0.14 -0.14)">
       <use xlink:href="#DejaVuSans-30"/>
       <use xlink:href="#DejaVuSans-2e" x="63.623047"/>
       <use xlink:href="#DejaVuSans-30" x="95.410156"/>
       <use xlink:href="#DejaVuSans-33" x="159.033203"/>
      </g>
     </g>
    </g>
    <g id="text_10">
     <!-- $R_{uds}-R_{c}$ -->
     <g transform="translate(0.685 202.106)rotate(-90)scale(0.14 -0.14)">
      <defs>
       <path id="DejaVuSans-Oblique-52" d="M 1613 4147 
L 1294 2491 
L 2106 2491 
Q 2584 2491 2879 2755 
Q 3175 3019 3175 3444 
Q 3175 3784 2976 3965 
Q 2778 4147 2406 4147 
L 1613 4147 
z
M 2772 2241 
Q 2972 2194 3105 2009 
Q 3238 1825 3413 1275 
L 3809 0 
L 3144 0 
L 2778 1197 
Q 2638 1659 2453 1815 
Q 2269 1972 1888 1972 
L 1191 1972 
L 806 0 
L 172 0 
L 1081 4666 
L 2503 4666 
Q 3150 4666 3495 4373 
Q 3841 4081 3841 3531 
Q 3841 3044 3547 2687 
Q 3253 2331 2772 2241 
z
" transform="scale(0.015625)"/>
       <path id="DejaVuSans-Oblique-75" d="M 428 1388 
L 838 3500 
L 1416 3500 
L 1006 1409 
Q 975 1256 961 1147 
Q 947 1038 947 966 
Q 947 700 1109 554 
Q 1272 409 1569 409 
Q 2031 409 2368 721 
Q 2706 1034 2809 1563 
L 3194 3500 
L 3769 3500 
L 3091 0 
L 2516 0 
L 2631 550 
Q 2388 244 2052 76 
Q 1716 -91 1338 -91 
Q 878 -91 622 161 
Q 366 413 366 863 
Q 366 956 381 1097 
Q 397 1238 428 1388 
z
" transform="scale(0.015625)"/>
       <path id="DejaVuSans-Oblique-64" d="M 2675 525 
Q 2444 222 2128 65 
Q 1813 -91 1428 -91 
Q 903 -91 598 267 
Q 294 625 294 1247 
Q 294 1766 478 2236 
Q 663 2706 1013 3078 
Q 1244 3325 1534 3454 
Q 1825 3584 2144 3584 
Q 2481 3584 2739 3421 
Q 2997 3259 3138 2956 
L 3513 4863 
L 4091 4863 
L 3144 0 
L 2566 0 
L 2675 525 
z
M 891 1350 
Q 891 897 1095 644 
Q 1300 391 1663 391 
Q 1931 391 2161 520 
Q 2391 650 2566 903 
Q 2750 1166 2856 1509 
Q 2963 1853 2963 2188 
Q 2963 2622 2758 2865 
Q 2553 3109 2194 3109 
Q 1922 3109 1687 2981 
Q 1453 2853 1288 2613 
Q 1106 2353 998 2009 
Q 891 1666 891 1350 
z
" transform="scale(0.015625)"/>
       <path id="DejaVuSans-Oblique-73" d="M 3200 3397 
L 3091 2853 
Q 2863 2978 2609 3040 
Q 2356 3103 2088 3103 
Q 1634 3103 1373 2948 
Q 1113 2794 1113 2528 
Q 1113 2219 1719 2053 
Q 1766 2041 1788 2034 
L 1972 1978 
Q 2547 1819 2739 1644 
Q 2931 1469 2931 1166 
Q 2931 609 2489 259 
Q 2047 -91 1331 -91 
Q 1053 -91 747 -37 
Q 441 16 72 128 
L 184 722 
Q 500 559 806 475 
Q 1113 391 1394 391 
Q 1816 391 2080 572 
Q 2344 753 2344 1031 
Q 2344 1331 1650 1516 
L 1591 1531 
L 1394 1581 
Q 956 1697 753 1886 
Q 550 2075 550 2369 
Q 550 2928 970 3256 
Q 1391 3584 2113 3584 
Q 2397 3584 2667 3537 
Q 2938 3491 3200 3397 
z
" transform="scale(0.015625)"/>
       <path id="DejaVuSans-Oblique-63" d="M 3431 3366 
L 3316 2797 
Q 3109 2947 2876 3022 
Q 2644 3097 2394 3097 
Q 2119 3097 1870 3000 
Q 1622 2903 1453 2725 
Q 1184 2453 1037 2087 
Q 891 1722 891 1331 
Q 891 859 1127 628 
Q 1363 397 1844 397 
Q 2081 397 2348 469 
Q 2616 541 2906 684 
L 2797 116 
Q 2547 13 2283 -39 
Q 2019 -91 1741 -91 
Q 1044 -91 669 257 
Q 294 606 294 1253 
Q 294 1797 489 2255 
Q 684 2713 1069 3078 
Q 1331 3328 1684 3456 
Q 2038 3584 2456 3584 
Q 2700 3584 2940 3529 
Q 3181 3475 3431 3366 
z
" transform="scale(0.015625)"/>
      </defs>
      <use xlink:href="#DejaVuSans-Oblique-52" transform="translate(0 0.09375)"/>
      <use xlink:href="#DejaVuSans-Oblique-75" transform="translate(69.482422 -16.3125)scale(0.7)"/>
      <use xlink:href="#DejaVuSans-Oblique-64" transform="translate(113.847656 -16.3125)scale(0.7)"/>
      <use xlink:href="#DejaVuSans-Oblique-73" transform="translate(158.28125 -16.3125)scale(0.7)"/>
      <use xlink:href="#DejaVuSans-2212" transform="translate(216.967773 0.09375)"/>
      <use xlink:href="#DejaVuSans-Oblique-52" transform="translate(320.239258 0.09375)"/>
      <use xlink:href="#DejaVuSans-Oblique-63" transform="translate(389.72168 -16.3125)scale(0.7)"/>
     </g>
    </g>
   </g>
   <g id="LineCollection_1">
    <path d="M 69.218182 211.453523 
L 69.218182 53.332364 
" clip-path="url(#pf60bce1bf2)" style="fill: none; stroke: #1f77b4; stroke-width: 0.8"/>
    <path d="M 86.127273 211.242999 
L 86.127273 156.359667 
" clip-path="url(#pf60bce1bf2)" style="fill: none; stroke: #1f77b4; stroke-width: 0.8"/>
    <path d="M 103.036364 141.869907 
L 103.036364 96.691004 
" clip-path="url(#pf60bce1bf2)" style="fill: none; stroke: #1f77b4; stroke-width: 0.8"/>
    <path d="M 119.945455 146.108466 
L 119.945455 97.962054 
" clip-path="url(#pf60bce1bf2)" style="fill: none; stroke: #1f77b4; stroke-width: 0.8"/>
    <path d="M 136.854545 138.371923 
L 136.854545 88.817291 
" clip-path="url(#pf60bce1bf2)" style="fill: none; stroke: #1f77b4; stroke-width: 0.8"/>
    <path d="M 153.763636 162.592552 
L 153.763636 121.627487 
" clip-path="url(#pf60bce1bf2)" style="fill: none; stroke: #1f77b4; stroke-width: 0.8"/>
    <path d="M 170.672727 138.594205 
L 170.672727 104.040234 
" clip-path="url(#pf60bce1bf2)" style="fill: none; stroke: #1f77b4; stroke-width: 0.8"/>
    <path d="M 187.581818 176.103977 
L 187.581818 140.870628 
" clip-path="url(#pf60bce1bf2)" style="fill: none; stroke: #1f77b4; stroke-width: 0.8"/>
    <path d="M 204.490909 131.852267 
L 204.490909 106.627659 
" clip-path="url(#pf60bce1bf2)" style="fill: none; stroke: #1f77b4; stroke-width: 0.8"/>
    <path d="M 221.4 147.27075 
L 221.4 122.611399 
" clip-path="url(#pf60bce1bf2)" style="fill: none; stroke: #1f77b4; stroke-width: 0.8"/>
    <path d="M 238.309091 160.646258 
L 238.309091 135.510619 
" clip-path="url(#pf60bce1bf2)" style="fill: none; stroke: #1f77b4; stroke-width: 0.8"/>
    <path d="M 255.218182 143.760838 
L 255.218182 126.906254 
" clip-path="url(#pf60bce1bf2)" style="fill: none; stroke: #1f77b4; stroke-width: 0.8"/>
    <path d="M 272.127273 152.628992 
L 272.127273 137.170907 
" clip-path="url(#pf60bce1bf2)" style="fill: none; stroke: #1f77b4; stroke-width: 0.8"/>
    <path d="M 289.036364 153.068434 
L 289.036364 128.420378 
" clip-path="url(#pf60bce1bf2)" style="fill: none; stroke: #1f77b4; stroke-width: 0.8"/>
    <path d="M 305.945455 145.432462 
L 305.945455 125.377306 
" clip-path="url(#pf60bce1bf2)" style="fill: none; stroke: #1f77b4; stroke-width: 0.8"/>
    <path d="M 322.854545 153.601675 
L 322.854545 136.825375 
" clip-path="url(#pf60bce1bf2)" style="fill: none; stroke: #1f77b4; stroke-width: 0.8"/>
    <path d="M 339.763636 173.031816 
L 339.763636 141.108752 
" clip-path="url(#pf60bce1bf2)" style="fill: none; stroke: #1f77b4; stroke-width: 0.8"/>
    <path d="M 356.672727 193.946637 
L 356.672727 153.994209 
" clip-path="url(#pf60bce1bf2)" style="fill: none; stroke: #1f77b4; stroke-width: 0.8"/>
    <path d="M 373.581818 247.22348 
L 373.581818 135.147269 
" clip-path="url(#pf60bce1bf2)" style="fill: none; stroke: #1f77b4; stroke-width: 0.8"/>
   </g>
   <g id="LineCollection_2">
    <path d="M 69.218182 290.539636 
L 69.218182 153.175863 
" clip-path="url(#pf60bce1bf2)" style="fill: none; stroke: #ff7f0e; stroke-width: 0.8"/>
    <path d="M 86.127273 247.857226 
L 86.127273 180.06805 
" clip-path="url(#pf60bce1bf2)" style="fill: none; stroke: #ff7f0e; stroke-width: 0.8"/>
    <path d="M 103.036364 168.572456 
L 103.036364 132.148087 
" clip-path="url(#pf60bce1bf2)" style="fill: none; stroke: #ff7f0e; stroke-width: 0.8"/>
    <path d="M 119.945455 176.711079 
L 119.945455 122.467806 
" clip-path="url(#pf60bce1bf2)" style="fill: none; stroke: #ff7f0e; stroke-width: 0.8"/>
    <path d="M 136.854545 160.871058 
L 136.854545 129.456998 
" clip-path="url(#pf60bce1bf2)" style="fill: none; stroke: #ff7f0e; stroke-width: 0.8"/>
    <path d="M 153.763636 179.859831 
L 153.763636 146.676609 
" clip-path="url(#pf60bce1bf2)" style="fill: none; stroke: #ff7f0e; stroke-width: 0.8"/>
    <path d="M 170.672727 157.909788 
L 170.672727 128.346184 
" clip-path="url(#pf60bce1bf2)" style="fill: none; stroke: #ff7f0e; stroke-width: 0.8"/>
    <path d="M 187.581818 184.228712 
L 187.581818 152.133032 
" clip-path="url(#pf60bce1bf2)" style="fill: none; stroke: #ff7f0e; stroke-width: 0.8"/>
    <path d="M 204.490909 154.101751 
L 204.490909 129.802925 
" clip-path="url(#pf60bce1bf2)" style="fill: none; stroke: #ff7f0e; stroke-width: 0.8"/>
    <path d="M 221.4 180.736086 
L 221.4 159.0822 
" clip-path="url(#pf60bce1bf2)" style="fill: none; stroke: #ff7f0e; stroke-width: 0.8"/>
    <path d="M 238.309091 195.137768 
L 238.309091 172.955333 
" clip-path="url(#pf60bce1bf2)" style="fill: none; stroke: #ff7f0e; stroke-width: 0.8"/>
    <path d="M 255.218182 186.040581 
L 255.218182 166.614815 
" clip-path="url(#pf60bce1bf2)" style="fill: none; stroke: #ff7f0e; stroke-width: 0.8"/>
    <path d="M 272.127273 194.380211 
L 272.127273 172.669838 
" clip-path="url(#pf60bce1bf2)" style="fill: none; stroke: #ff7f0e; stroke-width: 0.8"/>
    <path d="M 289.036364 195.95005 
L 289.036364 177.877763 
" clip-path="url(#pf60bce1bf2)" style="fill: none; stroke: #ff7f0e; stroke-width: 0.8"/>
    <path d="M 305.945455 196.433957 
L 305.945455 175.524169 
" clip-path="url(#pf60bce1bf2)" style="fill: none; stroke: #ff7f0e; stroke-width: 0.8"/>
    <path d="M 322.854545 194.873272 
L 322.854545 174.371675 
" clip-path="url(#pf60bce1bf2)" style="fill: none; stroke: #ff7f0e; stroke-width: 0.8"/>
    <path d="M 339.763636 206.473624 
L 339.763636 185.106945 
" clip-path="url(#pf60bce1bf2)" style="fill: none; stroke: #ff7f0e; stroke-width: 0.8"/>
    <path d="M 356.672727 238.387037 
L 356.672727 192.493411 
" clip-path="url(#pf60bce1bf2)" style="fill: none; stroke: #ff7f0e; stroke-width: 0.8"/>
    <path d="M 373.581818 214.44931 
L 373.581818 125.327219 
" clip-path="url(#pf60bce1bf2)" style="fill: none; stroke: #ff7f0e; stroke-width: 0.8"/>
   </g>
   <g id="LineCollection_3">
    <path d="M 69.218182 239.907303 
L 69.218182 70.86901 
" clip-path="url(#pf60bce1bf2)" style="fill: none; stroke: #2ca02c; stroke-width: 0.8"/>
    <path d="M 86.127273 258.561871 
L 86.127273 198.51843 
" clip-path="url(#pf60bce1bf2)" style="fill: none; stroke: #2ca02c; stroke-width: 0.8"/>
    <path d="M 103.036364 159.352555 
L 103.036364 106.63685 
" clip-path="url(#pf60bce1bf2)" style="fill: none; stroke: #2ca02c; stroke-width: 0.8"/>
    <path d="M 119.945455 176.615387 
L 119.945455 129.072303 
" clip-path="url(#pf60bce1bf2)" style="fill: none; stroke: #2ca02c; stroke-width: 0.8"/>
    <path d="M 136.854545 161.770053 
L 136.854545 123.996148 
" clip-path="url(#pf60bce1bf2)" style="fill: none; stroke: #2ca02c; stroke-width: 0.8"/>
    <path d="M 153.763636 184.886887 
L 153.763636 146.48119 
" clip-path="url(#pf60bce1bf2)" style="fill: none; stroke: #2ca02c; stroke-width: 0.8"/>
    <path d="M 170.672727 163.22833 
L 170.672727 132.220809 
" clip-path="url(#pf60bce1bf2)" style="fill: none; stroke: #2ca02c; stroke-width: 0.8"/>
    <path d="M 187.581818 179.609749 
L 187.581818 148.863405 
" clip-path="url(#pf60bce1bf2)" style="fill: none; stroke: #2ca02c; stroke-width: 0.8"/>
    <path d="M 204.490909 150.736176 
L 204.490909 125.833306 
" clip-path="url(#pf60bce1bf2)" style="fill: none; stroke: #2ca02c; stroke-width: 0.8"/>
    <path d="M 221.4 179.225756 
L 221.4 155.116093 
" clip-path="url(#pf60bce1bf2)" style="fill: none; stroke: #2ca02c; stroke-width: 0.8"/>
    <path d="M 238.309091 189.288729 
L 238.309091 172.036453 
" clip-path="url(#pf60bce1bf2)" style="fill: none; stroke: #2ca02c; stroke-width: 0.8"/>
    <path d="M 255.218182 182.595941 
L 255.218182 167.568119 
" clip-path="url(#pf60bce1bf2)" style="fill: none; stroke: #2ca02c; stroke-width: 0.8"/>
    <path d="M 272.127273 191.399802 
L 272.127273 171.154399 
" clip-path="url(#pf60bce1bf2)" style="fill: none; stroke: #2ca02c; stroke-width: 0.8"/>
    <path d="M 289.036364 196.311548 
L 289.036364 181.388148 
" clip-path="url(#pf60bce1bf2)" style="fill: none; stroke: #2ca02c; stroke-width: 0.8"/>
    <path d="M 305.945455 201.52242 
L 305.945455 183.237884 
" clip-path="url(#pf60bce1bf2)" style="fill: none; stroke: #2ca02c; stroke-width: 0.8"/>
    <path d="M 322.854545 196.414922 
L 322.854545 179.530898 
" clip-path="url(#pf60bce1bf2)" style="fill: none; stroke: #2ca02c; stroke-width: 0.8"/>
    <path d="M 339.763636 203.443017 
L 339.763636 183.911315 
" clip-path="url(#pf60bce1bf2)" style="fill: none; stroke: #2ca02c; stroke-width: 0.8"/>
    <path d="M 356.672727 238.842522 
L 356.672727 194.471603 
" clip-path="url(#pf60bce1bf2)" style="fill: none; stroke: #2ca02c; stroke-width: 0.8"/>
    <path d="M 373.581818 236.770884 
L 373.581818 131.785924 
" clip-path="url(#pf60bce1bf2)" style="fill: none; stroke: #2ca02c; stroke-width: 0.8"/>
   </g>
   <g id="line2d_53">
    <path d="M 54 198.040286 
L 388.8 198.040286 
" clip-path="url(#pf60bce1bf2)" style="fill: none; stroke-dasharray: 5.55,2.4; stroke-dashoffset: 0; stroke: #808080; stroke-opacity: 0.7; stroke-width: 1.5"/>
   </g>
   <g id="line2d_54">
    <defs>
     <path id="mfcff1c30dd" d="M 0 1.5 
C 0.397805 1.5 0.77937 1.341951 1.06066 1.06066 
C 1.341951 0.77937 1.5 0.397805 1.5 0 
C 1.5 -0.397805 1.341951 -0.77937 1.06066 -1.06066 
C 0.77937 -1.341951 0.397805 -1.5 0 -1.5 
C -0.397805 -1.5 -0.77937 -1.341951 -1.06066 -1.06066 
C -1.341951 -0.77937 -1.5 -0.397805 -1.5 0 
C -1.5 0.397805 -1.341951 0.77937 -1.06066 1.06066 
C -0.77937 1.341951 -0.397805 1.5 0 1.5 
z
" style="stroke: #1f77b4"/>
    </defs>
    <g clip-path="url(#pf60bce1bf2)">
     <use xlink:href="#mfcff1c30dd" x="69.218182" y="132.392943" style="fill: #1f77b4; stroke: #1f77b4"/>
     <use xlink:href="#mfcff1c30dd" x="86.127273" y="183.801333" style="fill: #1f77b4; stroke: #1f77b4"/>
     <use xlink:href="#mfcff1c30dd" x="103.036364" y="119.280455" style="fill: #1f77b4; stroke: #1f77b4"/>
     <use xlink:href="#mfcff1c30dd" x="119.945455" y="122.03526" style="fill: #1f77b4; stroke: #1f77b4"/>
     <use xlink:href="#mfcff1c30dd" x="136.854545" y="113.594607" style="fill: #1f77b4; stroke: #1f77b4"/>
     <use xlink:href="#mfcff1c30dd" x="153.763636" y="142.11002" style="fill: #1f77b4; stroke: #1f77b4"/>
     <use xlink:href="#mfcff1c30dd" x="170.672727" y="121.317219" style="fill: #1f77b4; stroke: #1f77b4"/>
     <use xlink:href="#mfcff1c30dd" x="187.581818" y="158.487303" style="fill: #1f77b4; stroke: #1f77b4"/>
     <use xlink:href="#mfcff1c30dd" x="204.490909" y="119.239963" style="fill: #1f77b4; stroke: #1f77b4"/>
     <use xlink:href="#mfcff1c30dd" x="221.4" y="134.941074" style="fill: #1f77b4; stroke: #1f77b4"/>
     <use xlink:href="#mfcff1c30dd" x="238.309091" y="148.078439" style="fill: #1f77b4; stroke: #1f77b4"/>
     <use xlink:href="#mfcff1c30dd" x="255.218182" y="135.333546" style="fill: #1f77b4; stroke: #1f77b4"/>
     <use xlink:href="#mfcff1c30dd" x="272.127273" y="144.89995" style="fill: #1f77b4; stroke: #1f77b4"/>
     <use xlink:href="#mfcff1c30dd" x="289.036364" y="140.744406" style="fill: #1f77b4; stroke: #1f77b4"/>
     <use xlink:href="#mfcff1c30dd" x="305.945455" y="135.404884" style="fill: #1f77b4; stroke: #1f77b4"/>
     <use xlink:href="#mfcff1c30dd" x="322.854545" y="145.213525" style="fill: #1f77b4; stroke: #1f77b4"/>
     <use xlink:href="#mfcff1c30dd" x="339.763636" y="157.070284" style="fill: #1f77b4; stroke: #1f77b4"/>
     <use xlink:href="#mfcff1c30dd" x="356.672727" y="173.970423" style="fill: #1f77b4; stroke: #1f77b4"/>
     <use xlink:href="#mfcff1c30dd" x="373.581818" y="191.185374" style="fill: #1f77b4; stroke: #1f77b4"/>
    </g>
   </g>
   <g id="line2d_55">
    <defs>
     <path id="m2242595079" d="M -1.5 1.5 
L 1.5 1.5 
L 1.5 -1.5 
L -1.5 -1.5 
z
" style="stroke: #ff7f0e; stroke-linejoin: miter"/>
    </defs>
    <g clip-path="url(#pf60bce1bf2)">
     <use xlink:href="#m2242595079" x="69.218182" y="221.85775" style="fill: #ff7f0e; stroke: #ff7f0e; stroke-linejoin: miter"/>
     <use xlink:href="#m2242595079" x="86.127273" y="213.962638" style="fill: #ff7f0e; stroke: #ff7f0e; stroke-linejoin: miter"/>
     <use xlink:href="#m2242595079" x="103.036364" y="150.360272" style="fill: #ff7f0e; stroke: #ff7f0e; stroke-linejoin: miter"/>
     <use xlink:href="#m2242595079" x="119.945455" y="149.589443" style="fill: #ff7f0e; stroke: #ff7f0e; stroke-linejoin: miter"/>
     <use xlink:href="#m2242595079" x="136.854545" y="145.164028" style="fill: #ff7f0e; stroke: #ff7f0e; stroke-linejoin: miter"/>
     <use xlink:href="#m2242595079" x="153.763636" y="163.26822" style="fill: #ff7f0e; stroke: #ff7f0e; stroke-linejoin: miter"/>
     <use xlink:href="#m2242595079" x="170.672727" y="143.127986" style="fill: #ff7f0e; stroke: #ff7f0e; stroke-linejoin: miter"/>
     <use xlink:href="#m2242595079" x="187.581818" y="168.180872" style="fill: #ff7f0e; stroke: #ff7f0e; stroke-linejoin: miter"/>
     <use xlink:href="#m2242595079" x="204.490909" y="141.952338" style="fill: #ff7f0e; stroke: #ff7f0e; stroke-linejoin: miter"/>
     <use xlink:href="#m2242595079" x="221.4" y="169.909143" style="fill: #ff7f0e; stroke: #ff7f0e; stroke-linejoin: miter"/>
     <use xlink:href="#m2242595079" x="238.309091" y="184.04655" style="fill: #ff7f0e; stroke: #ff7f0e; stroke-linejoin: miter"/>
     <use xlink:href="#m2242595079" x="255.218182" y="176.327698" style="fill: #ff7f0e; stroke: #ff7f0e; stroke-linejoin: miter"/>
     <use xlink:href="#m2242595079" x="272.127273" y="183.525025" style="fill: #ff7f0e; stroke: #ff7f0e; stroke-linejoin: miter"/>
     <use xlink:href="#m2242595079" x="289.036364" y="186.913907" style="fill: #ff7f0e; stroke: #ff7f0e; stroke-linejoin: miter"/>
     <use xlink:href="#m2242595079" x="305.945455" y="185.979063" style="fill: #ff7f0e; stroke: #ff7f0e; stroke-linejoin: miter"/>
     <use xlink:href="#m2242595079" x="322.854545" y="184.622474" style="fill: #ff7f0e; stroke: #ff7f0e; stroke-linejoin: miter"/>
     <use xlink:href="#m2242595079" x="339.763636" y="195.790284" style="fill: #ff7f0e; stroke: #ff7f0e; stroke-linejoin: miter"/>
     <use xlink:href="#m2242595079" x="356.672727" y="215.440224" style="fill: #ff7f0e; stroke: #ff7f0e; stroke-linejoin: miter"/>
     <use xlink:href="#m2242595079" x="373.581818" y="169.888265" style="fill: #ff7f0e; stroke: #ff7f0e; stroke-linejoin: miter"/>
    </g>
   </g>
   <g id="line2d_56">
    <defs>
     <path id="m2ffc6d01aa" d="M 0 -1.5 
L -1.5 1.5 
L 1.5 1.5 
z
" style="stroke: #2ca02c; stroke-linejoin: miter"/>
    </defs>
    <g clip-path="url(#pf60bce1bf2)">
     <use xlink:href="#m2ffc6d01aa" x="69.218182" y="155.388157" style="fill: #2ca02c; stroke: #2ca02c; stroke-linejoin: miter"/>
     <use xlink:href="#m2ffc6d01aa" x="86.127273" y="228.540151" style="fill: #2ca02c; stroke: #2ca02c; stroke-linejoin: miter"/>
     <use xlink:href="#m2ffc6d01aa" x="103.036364" y="132.994703" style="fill: #2ca02c; stroke: #2ca02c; stroke-linejoin: miter"/>
     <use xlink:href="#m2ffc6d01aa" x="119.945455" y="152.843845" style="fill: #2ca02c; stroke: #2ca02c; stroke-linejoin: miter"/>
     <use xlink:href="#m2ffc6d01aa" x="136.854545" y="142.8831" style="fill: #2ca02c; stroke: #2ca02c; stroke-linejoin: miter"/>
     <use xlink:href="#m2ffc6d01aa" x="153.763636" y="165.684038" style="fill: #2ca02c; stroke: #2ca02c; stroke-linejoin: miter"/>
     <use xlink:href="#m2ffc6d01aa" x="170.672727" y="147.72457" style="fill: #2ca02c; stroke: #2ca02c; stroke-linejoin: miter"/>
     <use xlink:href="#m2ffc6d01aa" x="187.581818" y="164.236577" style="fill: #2ca02c; stroke: #2ca02c; stroke-linejoin: miter"/>
     <use xlink:href="#m2ffc6d01aa" x="204.490909" y="138.284741" style="fill: #2ca02c; stroke: #2ca02c; stroke-linejoin: miter"/>
     <use xlink:href="#m2ffc6d01aa" x="221.4" y="167.170924" style="fill: #2ca02c; stroke: #2ca02c; stroke-linejoin: miter"/>
     <use xlink:href="#m2ffc6d01aa" x="238.309091" y="180.662591" style="fill: #2ca02c; stroke: #2ca02c; stroke-linejoin: miter"/>
     <use xlink:href="#m2ffc6d01aa" x="255.218182" y="175.08203" style="fill: #2ca02c; stroke: #2ca02c; stroke-linejoin: miter"/>
     <use xlink:href="#m2ffc6d01aa" x="272.127273" y="181.277101" style="fill: #2ca02c; stroke: #2ca02c; stroke-linejoin: miter"/>
     <use xlink:href="#m2ffc6d01aa" x="289.036364" y="188.849848" style="fill: #2ca02c; stroke: #2ca02c; stroke-linejoin: miter"/>
     <use xlink:href="#m2ffc6d01aa" x="305.945455" y="192.380152" style="fill: #2ca02c; stroke: #2ca02c; stroke-linejoin: miter"/>
     <use xlink:href="#m2ffc6d01aa" x="322.854545" y="187.97291" style="fill: #2ca02c; stroke: #2ca02c; stroke-linejoin: miter"/>
     <use xlink:href="#m2ffc6d01aa" x="339.763636" y="193.677166" style="fill: #2ca02c; stroke: #2ca02c; stroke-linejoin: miter"/>
     <use xlink:href="#m2ffc6d01aa" x="356.672727" y="216.657063" style="fill: #2ca02c; stroke: #2ca02c; stroke-linejoin: miter"/>
     <use xlink:href="#m2ffc6d01aa" x="373.581818" y="184.278404" style="fill: #2ca02c; stroke: #2ca02c; stroke-linejoin: miter"/>
    </g>
   </g>
   <g id="patch_3">
    <path d="M 54 302.4 
L 54 41.472 
" style="fill: none; stroke: #000000; stroke-width: 0.8; stroke-linejoin: miter; stroke-linecap: square"/>
   </g>
   <g id="patch_4">
    <path d="M 388.8 302.4 
L 388.8 41.472 
" style="fill: none; stroke: #000000; stroke-width: 0.8; stroke-linejoin: miter; stroke-linecap: square"/>
   </g>
   <g id="patch_5">
    <path d="M 54 302.4 
L 388.8 302.4 
" style="fill: none; stroke: #000000; stroke-width: 0.8; stroke-linejoin: miter; stroke-linecap: square"/>
   </g>
   <g id="patch_6">
    <path d="M 54 41.472 
L 388.8 41.472 
" style="fill: none; stroke: #000000; stroke-width: 0.8; stroke-linejoin: miter; stroke-linecap: square"/>
   </g>
   <g id="text_11">
    <!-- $0 &lt; |\eta^\mathrm{gen}| &lt; 1.3$ -->
    <g transform="translate(285.34 37.590144)scale(0.14 -0.14)">
     <defs>
      <path id="DejaVuSans-3c" d="M 4684 3150 
L 1459 2003 
L 4684 863 
L 4684 294 
L 678 1747 
L 678 2266 
L 4684 3719 
L 4684 3150 
z
" transform="scale(0.015625)"/>
      <path id="DejaVuSans-7c" d="M 1344 4891 
L 1344 -1509 
L 813 -1509 
L 813 4891 
L 1344 4891 
z
" transform="scale(0.015625)"/>
      <path id="DejaVuSans-Oblique-3b7" d="M 3703 2113 
L 3034 -1331 
L 2459 -1331 
L 3125 2094 
Q 3222 2591 3075 2838 
Q 2931 3084 2544 3084 
Q 2078 3084 1750 2788 
Q 1425 2491 1325 1978 
L 941 0 
L 363 0 
L 1044 3500 
L 1622 3500 
L 1516 2956 
Q 1781 3272 2094 3428 
Q 2403 3584 2769 3584 
Q 3372 3584 3609 3213 
Q 3844 2838 3703 2113 
z
" transform="scale(0.015625)"/>
     </defs>
     <use xlink:href="#DejaVuSans-30" transform="translate(0 0.51875)"/>
     <use xlink:href="#DejaVuSans-3c" transform="translate(83.105469 0.51875)"/>
     <use xlink:href="#DejaVuSans-7c" transform="translate(186.376953 0.51875)"/>
     <use xlink:href="#DejaVuSans-Oblique-3b7" transform="translate(220.068359 0.51875)"/>
     <use xlink:href="#DejaVuSans-67" transform="translate(288.097161 38.8)scale(0.7)"/>
     <use xlink:href="#DejaVuSans-65" transform="translate(332.530755 38.8)scale(0.7)"/>
     <use xlink:href="#DejaVuSans-6e" transform="translate(375.597161 38.8)scale(0.7)"/>
     <use xlink:href="#DejaVuSans-7c" transform="translate(422.696771 0.51875)"/>
     <use xlink:href="#DejaVuSans-3c" transform="translate(475.870599 0.51875)"/>
     <use xlink:href="#DejaVuSans-31" transform="translate(579.142083 0.51875)"/>
     <use xlink:href="#DejaVuSans-2e" transform="translate(642.76513 0.51875)"/>
     <use xlink:href="#DejaVuSans-33" transform="translate(674.55224 0.51875)"/>
    </g>
   </g>
   <g id="legend_1">
    <g id="patch_7">
     <path d="M 257.897813 114.320125 
L 379 114.320125 
Q 381.8 114.320125 381.8 111.520125 
L 381.8 51.272 
Q 381.8 48.472 379 48.472 
L 257.897813 48.472 
Q 255.097813 48.472 255.097813 51.272 
L 255.097813 111.520125 
Q 255.097813 114.320125 257.897813 114.320125 
z
" style="fill: #ffffff; opacity: 0.8; stroke: #cccccc; stroke-linejoin: miter"/>
    </g>
    <g id="LineCollection_4">
     <path d="M 274.697813 66.809812 
L 274.697813 52.809812 
" style="fill: none; stroke: #1f77b4; stroke-width: 0.8"/>
    </g>
    <g id="line2d_57"/>
    <g id="line2d_58">
     <g>
      <use xlink:href="#mfcff1c30dd" x="274.697813" y="59.809812" style="fill: #1f77b4; stroke: #1f77b4"/>
     </g>
    </g>
    <g id="text_12">
     <!-- Baseline -->
     <g transform="translate(299.897813 64.709812)scale(0.14 -0.14)">
      <defs>
       <path id="DejaVuSans-42" d="M 1259 2228 
L 1259 519 
L 2272 519 
Q 2781 519 3026 730 
Q 3272 941 3272 1375 
Q 3272 1813 3026 2020 
Q 2781 2228 2272 2228 
L 1259 2228 
z
M 1259 4147 
L 1259 2741 
L 2194 2741 
Q 2656 2741 2882 2914 
Q 3109 3088 3109 3444 
Q 3109 3797 2882 3972 
Q 2656 4147 2194 4147 
L 1259 4147 
z
M 628 4666 
L 2241 4666 
Q 2963 4666 3353 4366 
Q 3744 4066 3744 3513 
Q 3744 3084 3544 2831 
Q 3344 2578 2956 2516 
Q 3422 2416 3680 2098 
Q 3938 1781 3938 1306 
Q 3938 681 3513 340 
Q 3088 0 2303 0 
L 628 0 
L 628 4666 
z
" transform="scale(0.015625)"/>
       <path id="DejaVuSans-61" d="M 2194 1759 
Q 1497 1759 1228 1600 
Q 959 1441 959 1056 
Q 959 750 1161 570 
Q 1363 391 1709 391 
Q 2188 391 2477 730 
Q 2766 1069 2766 1631 
L 2766 1759 
L 2194 1759 
z
M 3341 1997 
L 3341 0 
L 2766 0 
L 2766 531 
Q 2569 213 2275 61 
Q 1981 -91 1556 -91 
Q 1019 -91 701 211 
Q 384 513 384 1019 
Q 384 1609 779 1909 
Q 1175 2209 1959 2209 
L 2766 2209 
L 2766 2266 
Q 2766 2663 2505 2880 
Q 2244 3097 1772 3097 
Q 1472 3097 1187 3025 
Q 903 2953 641 2809 
L 641 3341 
Q 956 3463 1253 3523 
Q 1550 3584 1831 3584 
Q 2591 3584 2966 3190 
Q 3341 2797 3341 1997 
z
" transform="scale(0.015625)"/>
       <path id="DejaVuSans-73" d="M 2834 3397 
L 2834 2853 
Q 2591 2978 2328 3040 
Q 2066 3103 1784 3103 
Q 1356 3103 1142 2972 
Q 928 2841 928 2578 
Q 928 2378 1081 2264 
Q 1234 2150 1697 2047 
L 1894 2003 
Q 2506 1872 2764 1633 
Q 3022 1394 3022 966 
Q 3022 478 2636 193 
Q 2250 -91 1575 -91 
Q 1294 -91 989 -36 
Q 684 19 347 128 
L 347 722 
Q 666 556 975 473 
Q 1284 391 1588 391 
Q 1994 391 2212 530 
Q 2431 669 2431 922 
Q 2431 1156 2273 1281 
Q 2116 1406 1581 1522 
L 1381 1569 
Q 847 1681 609 1914 
Q 372 2147 372 2553 
Q 372 3047 722 3315 
Q 1072 3584 1716 3584 
Q 2034 3584 2315 3537 
Q 2597 3491 2834 3397 
z
" transform="scale(0.015625)"/>
       <path id="DejaVuSans-6c" d="M 603 4863 
L 1178 4863 
L 1178 0 
L 603 0 
L 603 4863 
z
" transform="scale(0.015625)"/>
       <path id="DejaVuSans-69" d="M 603 3500 
L 1178 3500 
L 1178 0 
L 603 0 
L 603 3500 
z
M 603 4863 
L 1178 4863 
L 1178 4134 
L 603 4134 
L 603 4863 
z
" transform="scale(0.015625)"/>
      </defs>
      <use xlink:href="#DejaVuSans-42"/>
      <use xlink:href="#DejaVuSans-61" x="68.603516"/>
      <use xlink:href="#DejaVuSans-73" x="129.882812"/>
      <use xlink:href="#DejaVuSans-65" x="181.982422"/>
      <use xlink:href="#DejaVuSans-6c" x="243.505859"/>
      <use xlink:href="#DejaVuSans-69" x="271.289062"/>
      <use xlink:href="#DejaVuSans-6e" x="299.072266"/>
      <use xlink:href="#DejaVuSans-65" x="362.451172"/>
     </g>
    </g>
    <g id="LineCollection_5">
     <path d="M 274.697813 87.359187 
L 274.697813 73.359187 
" style="fill: none; stroke: #ff7f0e; stroke-width: 0.8"/>
    </g>
    <g id="line2d_59"/>
    <g id="line2d_60">
     <g>
      <use xlink:href="#m2242595079" x="274.697813" y="80.359187" style="fill: #ff7f0e; stroke: #ff7f0e; stroke-linejoin: miter"/>
     </g>
    </g>
    <g id="text_13">
     <!-- PFN -->
     <g transform="translate(299.897813 85.259187)scale(0.14 -0.14)">
      <defs>
       <path id="DejaVuSans-50" d="M 1259 4147 
L 1259 2394 
L 2053 2394 
Q 2494 2394 2734 2622 
Q 2975 2850 2975 3272 
Q 2975 3691 2734 3919 
Q 2494 4147 2053 4147 
L 1259 4147 
z
M 628 4666 
L 2053 4666 
Q 2838 4666 3239 4311 
Q 3641 3956 3641 3272 
Q 3641 2581 3239 2228 
Q 2838 1875 2053 1875 
L 1259 1875 
L 1259 0 
L 628 0 
L 628 4666 
z
" transform="scale(0.015625)"/>
       <path id="DejaVuSans-46" d="M 628 4666 
L 3309 4666 
L 3309 4134 
L 1259 4134 
L 1259 2759 
L 3109 2759 
L 3109 2228 
L 1259 2228 
L 1259 0 
L 628 0 
L 628 4666 
z
" transform="scale(0.015625)"/>
       <path id="DejaVuSans-4e" d="M 628 4666 
L 1478 4666 
L 3547 763 
L 3547 4666 
L 4159 4666 
L 4159 0 
L 3309 0 
L 1241 3903 
L 1241 0 
L 628 0 
L 628 4666 
z
" transform="scale(0.015625)"/>
      </defs>
      <use xlink:href="#DejaVuSans-50"/>
      <use xlink:href="#DejaVuSans-46" x="60.302734"/>
      <use xlink:href="#DejaVuSans-4e" x="117.822266"/>
     </g>
    </g>
    <g id="LineCollection_6">
     <path d="M 274.697813 107.908562 
L 274.697813 93.908562 
" style="fill: none; stroke: #2ca02c; stroke-width: 0.8"/>
    </g>
    <g id="line2d_61"/>
    <g id="line2d_62">
     <g>
      <use xlink:href="#m2ffc6d01aa" x="274.697813" y="100.908562" style="fill: #2ca02c; stroke: #2ca02c; stroke-linejoin: miter"/>
     </g>
    </g>
    <g id="text_14">
     <!-- ParticleNet -->
     <g transform="translate(299.897813 105.808562)scale(0.14 -0.14)">
      <defs>
       <path id="DejaVuSans-72" d="M 2631 2963 
Q 2534 3019 2420 3045 
Q 2306 3072 2169 3072 
Q 1681 3072 1420 2755 
Q 1159 2438 1159 1844 
L 1159 0 
L 581 0 
L 581 3500 
L 1159 3500 
L 1159 2956 
Q 1341 3275 1631 3429 
Q 1922 3584 2338 3584 
Q 2397 3584 2469 3576 
Q 2541 3569 2628 3553 
L 2631 2963 
z
" transform="scale(0.015625)"/>
       <path id="DejaVuSans-74" d="M 1172 4494 
L 1172 3500 
L 2356 3500 
L 2356 3053 
L 1172 3053 
L 1172 1153 
Q 1172 725 1289 603 
Q 1406 481 1766 481 
L 2356 481 
L 2356 0 
L 1766 0 
Q 1100 0 847 248 
Q 594 497 594 1153 
L 594 3053 
L 172 3053 
L 172 3500 
L 594 3500 
L 594 4494 
L 1172 4494 
z
" transform="scale(0.015625)"/>
       <path id="DejaVuSans-63" d="M 3122 3366 
L 3122 2828 
Q 2878 2963 2633 3030 
Q 2388 3097 2138 3097 
Q 1578 3097 1268 2742 
Q 959 2388 959 1747 
Q 959 1106 1268 751 
Q 1578 397 2138 397 
Q 2388 397 2633 464 
Q 2878 531 3122 666 
L 3122 134 
Q 2881 22 2623 -34 
Q 2366 -91 2075 -91 
Q 1284 -91 818 406 
Q 353 903 353 1747 
Q 353 2603 823 3093 
Q 1294 3584 2113 3584 
Q 2378 3584 2631 3529 
Q 2884 3475 3122 3366 
z
" transform="scale(0.015625)"/>
      </defs>
      <use xlink:href="#DejaVuSans-50"/>
      <use xlink:href="#DejaVuSans-61" x="55.802734"/>
      <use xlink:href="#DejaVuSans-72" x="117.082031"/>
      <use xlink:href="#DejaVuSans-74" x="158.195312"/>
      <use xlink:href="#DejaVuSans-69" x="197.404297"/>
      <use xlink:href="#DejaVuSans-63" x="225.1875"/>
      <use xlink:href="#DejaVuSans-6c" x="280.167969"/>
      <use xlink:href="#DejaVuSans-65" x="307.951172"/>
      <use xlink:href="#DejaVuSans-4e" x="369.474609"/>
      <use xlink:href="#DejaVuSans-65" x="444.279297"/>
      <use xlink:href="#DejaVuSans-74" x="505.802734"/>
     </g>
    </g>
   </g>
  </g>
 </g>
 <defs>
  <clipPath id="pf60bce1bf2">
   <rect x="54" y="41.472" width="334.8" height="260.928"/>
  </clipPath>
 </defs>
</svg>
