<?xml version="1.0" encoding="utf-8" standalone="no"?>
<!DOCTYPE svg PUBLIC "-//W3C//DTD SVG 1.1//EN"
  "http://www.w3.org/Graphics/SVG/1.1/DTD/svg11.dtd">
<svg xmlns:xlink="http://www.w3.org/1999/xlink" width="432pt" height="345.6pt" viewBox="0 0 432 345.6" xmlns="http://www.w3.org/2000/svg" version="1.1">
 <metadata>
  <rdf:RDF xmlns:dc="http://purl.org/dc/elements/1.1/" xmlns:cc="http://creativecommons.org/ns#" xmlns:rdf="http://www.w3.org/1999/02/22-rdf-syntax-ns#">
   <cc:Work>
    <dc:type rdf:resource="http://purl.org/dc/dcmitype/StillImage"/>
    <dc:date>2023-03-25T09:58:13.907567</dc:date>
    <dc:format>image/svg+xml</dc:format>
    <dc:creator>
     <cc:Agent>
      <dc:title>Matplotlib v3.5.2, https://matplotlib.org/</dc:title>
     </cc:Agent>
    </dc:creator>
   </cc:Work>
  </rdf:RDF>
 </metadata>
 <defs>
  <style type="text/css">*{stroke-linejoin: round; stroke-linecap: butt}</style>
 </defs>
 <g id="figure_1">
  <g id="patch_1">
   <path d="M 0 345.6 
L 432 345.6 
L 432 0 
L 0 0 
L 0 345.6 
z
" style="fill: none"/>
  </g>
  <g id="axes_1">
   <g id="patch_2">
    <path d="M 54 302.4 
L 388.8 302.4 
L 388.8 41.472 
L 54 41.472 
z
" style="fill: #ffffff"/>
   </g>
   <g id="matplotlib.axis_1">
    <g id="xtick_1">
     <g id="line2d_1">
      <defs>
       <path id="m570b371663" d="M 0 0 
L 0 -3.5 
" style="stroke: #000000; stroke-width: 1.2"/>
      </defs>
      <g>
       <use xlink:href="#m570b371663" x="169.530759" y="302.4" style="stroke: #000000; stroke-width: 1.2"/>
      </g>
     </g>
     <g id="line2d_2">
      <defs>
       <path id="m5106579dc5" d="M 0 0 
L 0 3.5 
" style="stroke: #000000; stroke-width: 1.2"/>
      </defs>
      <g>
       <use xlink:href="#m5106579dc5" x="169.530759" y="41.472" style="stroke: #000000; stroke-width: 1.2"/>
      </g>
     </g>
     <g id="text_1">
      <!-- $\mathdefault{10^{2}}$ -->
      <g transform="translate(157.210759 316.537812)scale(0.14 -0.14)">
       <defs>
        <path id="DejaVuSans-31" d="M 794 531 
L 1825 531 
L 1825 4091 
L 703 3866 
L 703 4441 
L 1819 4666 
L 2450 4666 
L 2450 531 
L 3481 531 
L 3481 0 
L 794 0 
L 794 531 
z
" transform="scale(0.015625)"/>
        <path id="DejaVuSans-30" d="M 2034 4250 
Q 1547 4250 1301 3770 
Q 1056 3291 1056 2328 
Q 1056 1369 1301 889 
Q 1547 409 2034 409 
Q 2525 409 2770 889 
Q 3016 1369 3016 2328 
Q 3016 3291 2770 3770 
Q 2525 4250 2034 4250 
z
M 2034 4750 
Q 2819 4750 3233 4129 
Q 3647 3509 3647 2328 
Q 3647 1150 3233 529 
Q 2819 -91 2034 -91 
Q 1250 -91 836 529 
Q 422 1150 422 2328 
Q 422 3509 836 4129 
Q 1250 4750 2034 4750 
z
" transform="scale(0.015625)"/>
        <path id="DejaVuSans-32" d="M 1228 531 
L 3431 531 
L 3431 0 
L 469 0 
L 469 531 
Q 828 903 1448 1529 
Q 2069 2156 2228 2338 
Q 2531 2678 2651 2914 
Q 2772 3150 2772 3378 
Q 2772 3750 2511 3984 
Q 2250 4219 1831 4219 
Q 1534 4219 1204 4116 
Q 875 4013 500 3803 
L 500 4441 
Q 881 4594 1212 4672 
Q 1544 4750 1819 4750 
Q 2544 4750 2975 4387 
Q 3406 4025 3406 3419 
Q 3406 3131 3298 2873 
Q 3191 2616 2906 2266 
Q 2828 2175 2409 1742 
Q 1991 1309 1228 531 
z
" transform="scale(0.015625)"/>
       </defs>
       <use xlink:href="#DejaVuSans-31" transform="translate(0 0.765625)"/>
       <use xlink:href="#DejaVuSans-30" transform="translate(63.623047 0.765625)"/>
       <use xlink:href="#DejaVuSans-32" transform="translate(128.203125 39.046875)scale(0.7)"/>
      </g>
     </g>
    </g>
    <g id="xtick_2">
     <g id="line2d_3">
      <g>
       <use xlink:href="#m570b371663" x="325.852844" y="302.4" style="stroke: #000000; stroke-width: 1.2"/>
      </g>
     </g>
     <g id="line2d_4">
      <g>
       <use xlink:href="#m5106579dc5" x="325.852844" y="41.472" style="stroke: #000000; stroke-width: 1.2"/>
      </g>
     </g>
     <g id="text_2">
      <!-- $\mathdefault{10^{3}}$ -->
      <g transform="translate(313.532844 316.537812)scale(0.14 -0.14)">
       <defs>
        <path id="DejaVuSans-33" d="M 2597 2516 
Q 3050 2419 3304 2112 
Q 3559 1806 3559 1356 
Q 3559 666 3084 287 
Q 2609 -91 1734 -91 
Q 1441 -91 1130 -33 
Q 819 25 488 141 
L 488 750 
Q 750 597 1062 519 
Q 1375 441 1716 441 
Q 2309 441 2620 675 
Q 2931 909 2931 1356 
Q 2931 1769 2642 2001 
Q 2353 2234 1838 2234 
L 1294 2234 
L 1294 2753 
L 1863 2753 
Q 2328 2753 2575 2939 
Q 2822 3125 2822 3475 
Q 2822 3834 2567 4026 
Q 2313 4219 1838 4219 
Q 1578 4219 1281 4162 
Q 984 4106 628 3988 
L 628 4550 
Q 988 4650 1302 4700 
Q 1616 4750 1894 4750 
Q 2613 4750 3031 4423 
Q 3450 4097 3450 3541 
Q 3450 3153 3228 2886 
Q 3006 2619 2597 2516 
z
" transform="scale(0.015625)"/>
       </defs>
       <use xlink:href="#DejaVuSans-31" transform="translate(0 0.765625)"/>
       <use xlink:href="#DejaVuSans-30" transform="translate(63.623047 0.765625)"/>
       <use xlink:href="#DejaVuSans-33" transform="translate(128.203125 39.046875)scale(0.7)"/>
      </g>
     </g>
    </g>
    <g id="xtick_3">
     <g id="line2d_5">
      <defs>
       <path id="mf8360783b2" d="M 0 0 
L 0 -2 
" style="stroke: #000000; stroke-width: 1.2"/>
      </defs>
      <g>
       <use xlink:href="#mf8360783b2" x="60.26631" y="302.4" style="stroke: #000000; stroke-width: 1.2"/>
      </g>
     </g>
     <g id="line2d_6">
      <defs>
       <path id="m53e377ee53" d="M 0 0 
L 0 2 
" style="stroke: #000000; stroke-width: 1.2"/>
      </defs>
      <g>
       <use xlink:href="#m53e377ee53" x="60.26631" y="41.472" style="stroke: #000000; stroke-width: 1.2"/>
      </g>
     </g>
    </g>
    <g id="xtick_4">
     <g id="line2d_7">
      <g>
       <use xlink:href="#mf8360783b2" x="87.793263" y="302.4" style="stroke: #000000; stroke-width: 1.2"/>
      </g>
     </g>
     <g id="line2d_8">
      <g>
       <use xlink:href="#m53e377ee53" x="87.793263" y="41.472" style="stroke: #000000; stroke-width: 1.2"/>
      </g>
     </g>
    </g>
    <g id="xtick_5">
     <g id="line2d_9">
      <g>
       <use xlink:href="#mf8360783b2" x="107.323947" y="302.4" style="stroke: #000000; stroke-width: 1.2"/>
      </g>
     </g>
     <g id="line2d_10">
      <g>
       <use xlink:href="#m53e377ee53" x="107.323947" y="41.472" style="stroke: #000000; stroke-width: 1.2"/>
      </g>
     </g>
    </g>
    <g id="xtick_6">
     <g id="line2d_11">
      <g>
       <use xlink:href="#mf8360783b2" x="122.473122" y="302.4" style="stroke: #000000; stroke-width: 1.2"/>
      </g>
     </g>
     <g id="line2d_12">
      <g>
       <use xlink:href="#m53e377ee53" x="122.473122" y="41.472" style="stroke: #000000; stroke-width: 1.2"/>
      </g>
     </g>
    </g>
    <g id="xtick_7">
     <g id="line2d_13">
      <g>
       <use xlink:href="#mf8360783b2" x="134.8509" y="302.4" style="stroke: #000000; stroke-width: 1.2"/>
      </g>
     </g>
     <g id="line2d_14">
      <g>
       <use xlink:href="#m53e377ee53" x="134.8509" y="41.472" style="stroke: #000000; stroke-width: 1.2"/>
      </g>
     </g>
    </g>
    <g id="xtick_8">
     <g id="line2d_15">
      <g>
       <use xlink:href="#mf8360783b2" x="145.316161" y="302.4" style="stroke: #000000; stroke-width: 1.2"/>
      </g>
     </g>
     <g id="line2d_16">
      <g>
       <use xlink:href="#m53e377ee53" x="145.316161" y="41.472" style="stroke: #000000; stroke-width: 1.2"/>
      </g>
     </g>
    </g>
    <g id="xtick_9">
     <g id="line2d_17">
      <g>
       <use xlink:href="#mf8360783b2" x="154.381583" y="302.4" style="stroke: #000000; stroke-width: 1.2"/>
      </g>
     </g>
     <g id="line2d_18">
      <g>
       <use xlink:href="#m53e377ee53" x="154.381583" y="41.472" style="stroke: #000000; stroke-width: 1.2"/>
      </g>
     </g>
    </g>
    <g id="xtick_10">
     <g id="line2d_19">
      <g>
       <use xlink:href="#mf8360783b2" x="162.377852" y="302.4" style="stroke: #000000; stroke-width: 1.2"/>
      </g>
     </g>
     <g id="line2d_20">
      <g>
       <use xlink:href="#m53e377ee53" x="162.377852" y="41.472" style="stroke: #000000; stroke-width: 1.2"/>
      </g>
     </g>
    </g>
    <g id="xtick_11">
     <g id="line2d_21">
      <g>
       <use xlink:href="#mf8360783b2" x="216.588395" y="302.4" style="stroke: #000000; stroke-width: 1.2"/>
      </g>
     </g>
     <g id="line2d_22">
      <g>
       <use xlink:href="#m53e377ee53" x="216.588395" y="41.472" style="stroke: #000000; stroke-width: 1.2"/>
      </g>
     </g>
    </g>
    <g id="xtick_12">
     <g id="line2d_23">
      <g>
       <use xlink:href="#mf8360783b2" x="244.115348" y="302.4" style="stroke: #000000; stroke-width: 1.2"/>
      </g>
     </g>
     <g id="line2d_24">
      <g>
       <use xlink:href="#m53e377ee53" x="244.115348" y="41.472" style="stroke: #000000; stroke-width: 1.2"/>
      </g>
     </g>
    </g>
    <g id="xtick_13">
     <g id="line2d_25">
      <g>
       <use xlink:href="#mf8360783b2" x="263.646032" y="302.4" style="stroke: #000000; stroke-width: 1.2"/>
      </g>
     </g>
     <g id="line2d_26">
      <g>
       <use xlink:href="#m53e377ee53" x="263.646032" y="41.472" style="stroke: #000000; stroke-width: 1.2"/>
      </g>
     </g>
    </g>
    <g id="xtick_14">
     <g id="line2d_27">
      <g>
       <use xlink:href="#mf8360783b2" x="278.795207" y="302.4" style="stroke: #000000; stroke-width: 1.2"/>
      </g>
     </g>
     <g id="line2d_28">
      <g>
       <use xlink:href="#m53e377ee53" x="278.795207" y="41.472" style="stroke: #000000; stroke-width: 1.2"/>
      </g>
     </g>
    </g>
    <g id="xtick_15">
     <g id="line2d_29">
      <g>
       <use xlink:href="#mf8360783b2" x="291.172985" y="302.4" style="stroke: #000000; stroke-width: 1.2"/>
      </g>
     </g>
     <g id="line2d_30">
      <g>
       <use xlink:href="#m53e377ee53" x="291.172985" y="41.472" style="stroke: #000000; stroke-width: 1.2"/>
      </g>
     </g>
    </g>
    <g id="xtick_16">
     <g id="line2d_31">
      <g>
       <use xlink:href="#mf8360783b2" x="301.638246" y="302.4" style="stroke: #000000; stroke-width: 1.2"/>
      </g>
     </g>
     <g id="line2d_32">
      <g>
       <use xlink:href="#m53e377ee53" x="301.638246" y="41.472" style="stroke: #000000; stroke-width: 1.2"/>
      </g>
     </g>
    </g>
    <g id="xtick_17">
     <g id="line2d_33">
      <g>
       <use xlink:href="#mf8360783b2" x="310.703668" y="302.4" style="stroke: #000000; stroke-width: 1.2"/>
      </g>
     </g>
     <g id="line2d_34">
      <g>
       <use xlink:href="#m53e377ee53" x="310.703668" y="41.472" style="stroke: #000000; stroke-width: 1.2"/>
      </g>
     </g>
    </g>
    <g id="xtick_18">
     <g id="line2d_35">
      <g>
       <use xlink:href="#mf8360783b2" x="318.699937" y="302.4" style="stroke: #000000; stroke-width: 1.2"/>
      </g>
     </g>
     <g id="line2d_36">
      <g>
       <use xlink:href="#m53e377ee53" x="318.699937" y="41.472" style="stroke: #000000; stroke-width: 1.2"/>
      </g>
     </g>
    </g>
    <g id="xtick_19">
     <g id="line2d_37">
      <g>
       <use xlink:href="#mf8360783b2" x="372.91048" y="302.4" style="stroke: #000000; stroke-width: 1.2"/>
      </g>
     </g>
     <g id="line2d_38">
      <g>
       <use xlink:href="#m53e377ee53" x="372.91048" y="41.472" style="stroke: #000000; stroke-width: 1.2"/>
      </g>
     </g>
    </g>
    <g id="text_3">
     <!-- $p_\mathrm{T}^\mathrm{gen}$ -->
     <g transform="translate(207.19 336.049375)scale(0.14 -0.14)">
      <defs>
       <path id="DejaVuSans-Oblique-70" d="M 3175 2156 
Q 3175 2616 2975 2859 
Q 2775 3103 2400 3103 
Q 2144 3103 1911 2972 
Q 1678 2841 1497 2591 
Q 1319 2344 1212 1994 
Q 1106 1644 1106 1300 
Q 1106 863 1306 627 
Q 1506 391 1875 391 
Q 2147 391 2380 519 
Q 2613 647 2778 891 
Q 2956 1147 3065 1494 
Q 3175 1841 3175 2156 
z
M 1394 2969 
Q 1625 3272 1939 3428 
Q 2253 3584 2638 3584 
Q 3175 3584 3472 3232 
Q 3769 2881 3769 2247 
Q 3769 1728 3584 1258 
Q 3400 788 3053 416 
Q 2822 169 2531 39 
Q 2241 -91 1919 -91 
Q 1547 -91 1294 64 
Q 1041 219 916 525 
L 556 -1331 
L -19 -1331 
L 922 3500 
L 1497 3500 
L 1394 2969 
z
" transform="scale(0.015625)"/>
       <path id="DejaVuSans-67" d="M 2906 1791 
Q 2906 2416 2648 2759 
Q 2391 3103 1925 3103 
Q 1463 3103 1205 2759 
Q 947 2416 947 1791 
Q 947 1169 1205 825 
Q 1463 481 1925 481 
Q 2391 481 2648 825 
Q 2906 1169 2906 1791 
z
M 3481 434 
Q 3481 -459 3084 -895 
Q 2688 -1331 1869 -1331 
Q 1566 -1331 1297 -1286 
Q 1028 -1241 775 -1147 
L 775 -588 
Q 1028 -725 1275 -790 
Q 1522 -856 1778 -856 
Q 2344 -856 2625 -561 
Q 2906 -266 2906 331 
L 2906 616 
Q 2728 306 2450 153 
Q 2172 0 1784 0 
Q 1141 0 747 490 
Q 353 981 353 1791 
Q 353 2603 747 3093 
Q 1141 3584 1784 3584 
Q 2172 3584 2450 3431 
Q 2728 3278 2906 2969 
L 2906 3500 
L 3481 3500 
L 3481 434 
z
" transform="scale(0.015625)"/>
       <path id="DejaVuSans-65" d="M 3597 1894 
L 3597 1613 
L 953 1613 
Q 991 1019 1311 708 
Q 1631 397 2203 397 
Q 2534 397 2845 478 
Q 3156 559 3463 722 
L 3463 178 
Q 3153 47 2828 -22 
Q 2503 -91 2169 -91 
Q 1331 -91 842 396 
Q 353 884 353 1716 
Q 353 2575 817 3079 
Q 1281 3584 2069 3584 
Q 2775 3584 3186 3129 
Q 3597 2675 3597 1894 
z
M 3022 2063 
Q 3016 2534 2758 2815 
Q 2500 3097 2075 3097 
Q 1594 3097 1305 2825 
Q 1016 2553 972 2059 
L 3022 2063 
z
" transform="scale(0.015625)"/>
       <path id="DejaVuSans-6e" d="M 3513 2113 
L 3513 0 
L 2938 0 
L 2938 2094 
Q 2938 2591 2744 2837 
Q 2550 3084 2163 3084 
Q 1697 3084 1428 2787 
Q 1159 2491 1159 1978 
L 1159 0 
L 581 0 
L 581 3500 
L 1159 3500 
L 1159 2956 
Q 1366 3272 1645 3428 
Q 1925 3584 2291 3584 
Q 2894 3584 3203 3211 
Q 3513 2838 3513 2113 
z
" transform="scale(0.015625)"/>
       <path id="DejaVuSans-54" d="M -19 4666 
L 3928 4666 
L 3928 4134 
L 2272 4134 
L 2272 0 
L 1638 0 
L 1638 4134 
L -19 4134 
L -19 4666 
z
" transform="scale(0.015625)"/>
      </defs>
      <use xlink:href="#DejaVuSans-Oblique-70" transform="translate(0 0.051563)"/>
      <use xlink:href="#DejaVuSans-67" transform="translate(68.126458 50.8)scale(0.7)"/>
      <use xlink:href="#DejaVuSans-65" transform="translate(112.560052 50.8)scale(0.7)"/>
      <use xlink:href="#DejaVuSans-6e" transform="translate(155.626458 50.8)scale(0.7)"/>
      <use xlink:href="#DejaVuSans-54" transform="translate(63.476562 -27.292187)scale(0.7)"/>
     </g>
    </g>
   </g>
   <g id="matplotlib.axis_2">
    <g id="ytick_1">
     <g id="line2d_39">
      <defs>
       <path id="m4ae0e4bf56" d="M 0 0 
L 3.5 0 
" style="stroke: #000000; stroke-width: 1.2"/>
      </defs>
      <g>
       <use xlink:href="#m4ae0e4bf56" x="54" y="271.646294" style="stroke: #000000; stroke-width: 1.2"/>
      </g>
     </g>
     <g id="line2d_40">
      <defs>
       <path id="m90aecd9718" d="M 0 0 
L -3.5 0 
" style="stroke: #000000; stroke-width: 1.2"/>
      </defs>
      <g>
       <use xlink:href="#m90aecd9718" x="388.8" y="271.646294" style="stroke: #000000; stroke-width: 1.2"/>
      </g>
     </g>
     <g id="text_4">
      <!-- 1.0 -->
      <g transform="translate(28.235625 276.9652)scale(0.14 -0.14)">
       <defs>
        <path id="DejaVuSans-2e" d="M 684 794 
L 1344 794 
L 1344 0 
L 684 0 
L 684 794 
z
" transform="scale(0.015625)"/>
       </defs>
       <use xlink:href="#DejaVuSans-31"/>
       <use xlink:href="#DejaVuSans-2e" x="63.623047"/>
       <use xlink:href="#DejaVuSans-30" x="95.410156"/>
      </g>
     </g>
    </g>
    <g id="ytick_2">
     <g id="line2d_41">
      <g>
       <use xlink:href="#m4ae0e4bf56" x="54" y="225.724428" style="stroke: #000000; stroke-width: 1.2"/>
      </g>
     </g>
     <g id="line2d_42">
      <g>
       <use xlink:href="#m90aecd9718" x="388.8" y="225.724428" style="stroke: #000000; stroke-width: 1.2"/>
      </g>
     </g>
     <g id="text_5">
      <!-- 1.1 -->
      <g transform="translate(28.235625 231.043334)scale(0.14 -0.14)">
       <use xlink:href="#DejaVuSans-31"/>
       <use xlink:href="#DejaVuSans-2e" x="63.623047"/>
       <use xlink:href="#DejaVuSans-31" x="95.410156"/>
      </g>
     </g>
    </g>
    <g id="ytick_3">
     <g id="line2d_43">
      <g>
       <use xlink:href="#m4ae0e4bf56" x="54" y="179.802562" style="stroke: #000000; stroke-width: 1.2"/>
      </g>
     </g>
     <g id="line2d_44">
      <g>
       <use xlink:href="#m90aecd9718" x="388.8" y="179.802562" style="stroke: #000000; stroke-width: 1.2"/>
      </g>
     </g>
     <g id="text_6">
      <!-- 1.2 -->
      <g transform="translate(28.235625 185.121468)scale(0.14 -0.14)">
       <use xlink:href="#DejaVuSans-31"/>
       <use xlink:href="#DejaVuSans-2e" x="63.623047"/>
       <use xlink:href="#DejaVuSans-32" x="95.410156"/>
      </g>
     </g>
    </g>
    <g id="ytick_4">
     <g id="line2d_45">
      <g>
       <use xlink:href="#m4ae0e4bf56" x="54" y="133.880696" style="stroke: #000000; stroke-width: 1.2"/>
      </g>
     </g>
     <g id="line2d_46">
      <g>
       <use xlink:href="#m90aecd9718" x="388.8" y="133.880696" style="stroke: #000000; stroke-width: 1.2"/>
      </g>
     </g>
     <g id="text_7">
      <!-- 1.3 -->
      <g transform="translate(28.235625 139.199602)scale(0.14 -0.14)">
       <use xlink:href="#DejaVuSans-31"/>
       <use xlink:href="#DejaVuSans-2e" x="63.623047"/>
       <use xlink:href="#DejaVuSans-33" x="95.410156"/>
      </g>
     </g>
    </g>
    <g id="ytick_5">
     <g id="line2d_47">
      <g>
       <use xlink:href="#m4ae0e4bf56" x="54" y="87.95883" style="stroke: #000000; stroke-width: 1.2"/>
      </g>
     </g>
     <g id="line2d_48">
      <g>
       <use xlink:href="#m90aecd9718" x="388.8" y="87.95883" style="stroke: #000000; stroke-width: 1.2"/>
      </g>
     </g>
     <g id="text_8">
      <!-- 1.4 -->
      <g transform="translate(28.235625 93.277736)scale(0.14 -0.14)">
       <defs>
        <path id="DejaVuSans-34" d="M 2419 4116 
L 825 1625 
L 2419 1625 
L 2419 4116 
z
M 2253 4666 
L 3047 4666 
L 3047 1625 
L 3713 1625 
L 3713 1100 
L 3047 1100 
L 3047 0 
L 2419 0 
L 2419 1100 
L 313 1100 
L 313 1709 
L 2253 4666 
z
" transform="scale(0.015625)"/>
       </defs>
       <use xlink:href="#DejaVuSans-31"/>
       <use xlink:href="#DejaVuSans-2e" x="63.623047"/>
       <use xlink:href="#DejaVuSans-34" x="95.410156"/>
      </g>
     </g>
    </g>
    <g id="ytick_6">
     <g id="line2d_49">
      <g>
       <use xlink:href="#m4ae0e4bf56" x="54" y="42.036964" style="stroke: #000000; stroke-width: 1.2"/>
      </g>
     </g>
     <g id="line2d_50">
      <g>
       <use xlink:href="#m90aecd9718" x="388.8" y="42.036964" style="stroke: #000000; stroke-width: 1.2"/>
      </g>
     </g>
     <g id="text_9">
      <!-- 1.5 -->
      <g transform="translate(28.235625 47.35587)scale(0.14 -0.14)">
       <defs>
        <path id="DejaVuSans-35" d="M 691 4666 
L 3169 4666 
L 3169 4134 
L 1269 4134 
L 1269 2991 
Q 1406 3038 1543 3061 
Q 1681 3084 1819 3084 
Q 2600 3084 3056 2656 
Q 3513 2228 3513 1497 
Q 3513 744 3044 326 
Q 2575 -91 1722 -91 
Q 1428 -91 1123 -41 
Q 819 9 494 109 
L 494 744 
Q 775 591 1075 516 
Q 1375 441 1709 441 
Q 2250 441 2565 725 
Q 2881 1009 2881 1497 
Q 2881 1984 2565 2268 
Q 2250 2553 1709 2553 
Q 1456 2553 1204 2497 
Q 953 2441 691 2322 
L 691 4666 
z
" transform="scale(0.015625)"/>
       </defs>
       <use xlink:href="#DejaVuSans-31"/>
       <use xlink:href="#DejaVuSans-2e" x="63.623047"/>
       <use xlink:href="#DejaVuSans-35" x="95.410156"/>
      </g>
     </g>
    </g>
    <g id="text_10">
     <!-- Median response -->
     <g transform="translate(21.324062 231.413031)rotate(-90)scale(0.14 -0.14)">
      <defs>
       <path id="DejaVuSans-4d" d="M 628 4666 
L 1569 4666 
L 2759 1491 
L 3956 4666 
L 4897 4666 
L 4897 0 
L 4281 0 
L 4281 4097 
L 3078 897 
L 2444 897 
L 1241 4097 
L 1241 0 
L 628 0 
L 628 4666 
z
" transform="scale(0.015625)"/>
       <path id="DejaVuSans-64" d="M 2906 2969 
L 2906 4863 
L 3481 4863 
L 3481 0 
L 2906 0 
L 2906 525 
Q 2725 213 2448 61 
Q 2172 -91 1784 -91 
Q 1150 -91 751 415 
Q 353 922 353 1747 
Q 353 2572 751 3078 
Q 1150 3584 1784 3584 
Q 2172 3584 2448 3432 
Q 2725 3281 2906 2969 
z
M 947 1747 
Q 947 1113 1208 752 
Q 1469 391 1925 391 
Q 2381 391 2643 752 
Q 2906 1113 2906 1747 
Q 2906 2381 2643 2742 
Q 2381 3103 1925 3103 
Q 1469 3103 1208 2742 
Q 947 2381 947 1747 
z
" transform="scale(0.015625)"/>
       <path id="DejaVuSans-69" d="M 603 3500 
L 1178 3500 
L 1178 0 
L 603 0 
L 603 3500 
z
M 603 4863 
L 1178 4863 
L 1178 4134 
L 603 4134 
L 603 4863 
z
" transform="scale(0.015625)"/>
       <path id="DejaVuSans-61" d="M 2194 1759 
Q 1497 1759 1228 1600 
Q 959 1441 959 1056 
Q 959 750 1161 570 
Q 1363 391 1709 391 
Q 2188 391 2477 730 
Q 2766 1069 2766 1631 
L 2766 1759 
L 2194 1759 
z
M 3341 1997 
L 3341 0 
L 2766 0 
L 2766 531 
Q 2569 213 2275 61 
Q 1981 -91 1556 -91 
Q 1019 -91 701 211 
Q 384 513 384 1019 
Q 384 1609 779 1909 
Q 1175 2209 1959 2209 
L 2766 2209 
L 2766 2266 
Q 2766 2663 2505 2880 
Q 2244 3097 1772 3097 
Q 1472 3097 1187 3025 
Q 903 2953 641 2809 
L 641 3341 
Q 956 3463 1253 3523 
Q 1550 3584 1831 3584 
Q 2591 3584 2966 3190 
Q 3341 2797 3341 1997 
z
" transform="scale(0.015625)"/>
       <path id="DejaVuSans-20" transform="scale(0.015625)"/>
       <path id="DejaVuSans-72" d="M 2631 2963 
Q 2534 3019 2420 3045 
Q 2306 3072 2169 3072 
Q 1681 3072 1420 2755 
Q 1159 2438 1159 1844 
L 1159 0 
L 581 0 
L 581 3500 
L 1159 3500 
L 1159 2956 
Q 1341 3275 1631 3429 
Q 1922 3584 2338 3584 
Q 2397 3584 2469 3576 
Q 2541 3569 2628 3553 
L 2631 2963 
z
" transform="scale(0.015625)"/>
       <path id="DejaVuSans-73" d="M 2834 3397 
L 2834 2853 
Q 2591 2978 2328 3040 
Q 2066 3103 1784 3103 
Q 1356 3103 1142 2972 
Q 928 2841 928 2578 
Q 928 2378 1081 2264 
Q 1234 2150 1697 2047 
L 1894 2003 
Q 2506 1872 2764 1633 
Q 3022 1394 3022 966 
Q 3022 478 2636 193 
Q 2250 -91 1575 -91 
Q 1294 -91 989 -36 
Q 684 19 347 128 
L 347 722 
Q 666 556 975 473 
Q 1284 391 1588 391 
Q 1994 391 2212 530 
Q 2431 669 2431 922 
Q 2431 1156 2273 1281 
Q 2116 1406 1581 1522 
L 1381 1569 
Q 847 1681 609 1914 
Q 372 2147 372 2553 
Q 372 3047 722 3315 
Q 1072 3584 1716 3584 
Q 2034 3584 2315 3537 
Q 2597 3491 2834 3397 
z
" transform="scale(0.015625)"/>
       <path id="DejaVuSans-70" d="M 1159 525 
L 1159 -1331 
L 581 -1331 
L 581 3500 
L 1159 3500 
L 1159 2969 
Q 1341 3281 1617 3432 
Q 1894 3584 2278 3584 
Q 2916 3584 3314 3078 
Q 3713 2572 3713 1747 
Q 3713 922 3314 415 
Q 2916 -91 2278 -91 
Q 1894 -91 1617 61 
Q 1341 213 1159 525 
z
M 3116 1747 
Q 3116 2381 2855 2742 
Q 2594 3103 2138 3103 
Q 1681 3103 1420 2742 
Q 1159 2381 1159 1747 
Q 1159 1113 1420 752 
Q 1681 391 2138 391 
Q 2594 391 2855 752 
Q 3116 1113 3116 1747 
z
" transform="scale(0.015625)"/>
       <path id="DejaVuSans-6f" d="M 1959 3097 
Q 1497 3097 1228 2736 
Q 959 2375 959 1747 
Q 959 1119 1226 758 
Q 1494 397 1959 397 
Q 2419 397 2687 759 
Q 2956 1122 2956 1747 
Q 2956 2369 2687 2733 
Q 2419 3097 1959 3097 
z
M 1959 3584 
Q 2709 3584 3137 3096 
Q 3566 2609 3566 1747 
Q 3566 888 3137 398 
Q 2709 -91 1959 -91 
Q 1206 -91 779 398 
Q 353 888 353 1747 
Q 353 2609 779 3096 
Q 1206 3584 1959 3584 
z
" transform="scale(0.015625)"/>
      </defs>
      <use xlink:href="#DejaVuSans-4d"/>
      <use xlink:href="#DejaVuSans-65" x="86.279297"/>
      <use xlink:href="#DejaVuSans-64" x="147.802734"/>
      <use xlink:href="#DejaVuSans-69" x="211.279297"/>
      <use xlink:href="#DejaVuSans-61" x="239.0625"/>
      <use xlink:href="#DejaVuSans-6e" x="300.341797"/>
      <use xlink:href="#DejaVuSans-20" x="363.720703"/>
      <use xlink:href="#DejaVuSans-72" x="395.507812"/>
      <use xlink:href="#DejaVuSans-65" x="434.371094"/>
      <use xlink:href="#DejaVuSans-73" x="495.894531"/>
      <use xlink:href="#DejaVuSans-70" x="547.994141"/>
      <use xlink:href="#DejaVuSans-6f" x="611.470703"/>
      <use xlink:href="#DejaVuSans-6e" x="672.652344"/>
      <use xlink:href="#DejaVuSans-73" x="736.03125"/>
      <use xlink:href="#DejaVuSans-65" x="788.130859"/>
     </g>
    </g>
   </g>
   <g id="LineCollection_1">
    <path d="M 69.218182 75.063923 
L 69.218182 53.332364 
" clip-path="url(#p3ddf26bd17)" style="fill: none; stroke: #1f77b4; stroke-width: 0.8"/>
    <path d="M 87.121925 200.554574 
L 87.121925 189.575176 
" clip-path="url(#p3ddf26bd17)" style="fill: none; stroke: #1f77b4; stroke-width: 0.8"/>
    <path d="M 105.025668 248.324615 
L 105.025668 244.363811 
" clip-path="url(#p3ddf26bd17)" style="fill: none; stroke: #1f77b4; stroke-width: 0.8"/>
    <path d="M 122.929412 268.520418 
L 122.929412 262.373111 
" clip-path="url(#p3ddf26bd17)" style="fill: none; stroke: #1f77b4; stroke-width: 0.8"/>
    <path d="M 140.833155 271.678957 
L 140.833155 266.640607 
" clip-path="url(#p3ddf26bd17)" style="fill: none; stroke: #1f77b4; stroke-width: 0.8"/>
    <path d="M 158.736898 271.511359 
L 158.736898 266.141226 
" clip-path="url(#p3ddf26bd17)" style="fill: none; stroke: #1f77b4; stroke-width: 0.8"/>
    <path d="M 176.640642 273.305161 
L 176.640642 268.207133 
" clip-path="url(#p3ddf26bd17)" style="fill: none; stroke: #1f77b4; stroke-width: 0.8"/>
    <path d="M 194.544385 273.169181 
L 194.544385 268.754769 
" clip-path="url(#p3ddf26bd17)" style="fill: none; stroke: #1f77b4; stroke-width: 0.8"/>
    <path d="M 212.448128 276.252676 
L 212.448128 273.611567 
" clip-path="url(#p3ddf26bd17)" style="fill: none; stroke: #1f77b4; stroke-width: 0.8"/>
    <path d="M 230.351872 273.647842 
L 230.351872 270.156979 
" clip-path="url(#p3ddf26bd17)" style="fill: none; stroke: #1f77b4; stroke-width: 0.8"/>
    <path d="M 248.255615 275.282331 
L 248.255615 271.912316 
" clip-path="url(#p3ddf26bd17)" style="fill: none; stroke: #1f77b4; stroke-width: 0.8"/>
    <path d="M 266.159358 272.352448 
L 266.159358 268.680252 
" clip-path="url(#p3ddf26bd17)" style="fill: none; stroke: #1f77b4; stroke-width: 0.8"/>
    <path d="M 284.063102 272.279424 
L 284.063102 269.476777 
" clip-path="url(#p3ddf26bd17)" style="fill: none; stroke: #1f77b4; stroke-width: 0.8"/>
    <path d="M 301.966845 281.310812 
L 301.966845 275.833002 
" clip-path="url(#p3ddf26bd17)" style="fill: none; stroke: #1f77b4; stroke-width: 0.8"/>
    <path d="M 319.870588 278.656903 
L 319.870588 273.278317 
" clip-path="url(#p3ddf26bd17)" style="fill: none; stroke: #1f77b4; stroke-width: 0.8"/>
    <path d="M 337.774332 284.196974 
L 337.774332 272.186785 
" clip-path="url(#p3ddf26bd17)" style="fill: none; stroke: #1f77b4; stroke-width: 0.8"/>
    <path d="M 355.678075 274.002722 
L 355.678075 255.260064 
" clip-path="url(#p3ddf26bd17)" style="fill: none; stroke: #1f77b4; stroke-width: 0.8"/>
    <path d="M 373.581818 290.539636 
L 373.581818 290.539636 
" clip-path="url(#p3ddf26bd17)" style="fill: none; stroke: #1f77b4; stroke-width: 0.8"/>
    <path clip-path="url(#p3ddf26bd17)" style="fill: none; stroke: #1f77b4; stroke-width: 0.8"/>
   </g>
   <g id="LineCollection_2">
    <path d="M 69.218182 131.166099 
L 69.218182 108.564436 
" clip-path="url(#p3ddf26bd17)" style="fill: none; stroke: #ff7f0e; stroke-width: 0.8"/>
    <path d="M 87.121925 221.584892 
L 87.121925 211.71154 
" clip-path="url(#p3ddf26bd17)" style="fill: none; stroke: #ff7f0e; stroke-width: 0.8"/>
    <path d="M 105.025668 269.480549 
L 105.025668 261.817756 
" clip-path="url(#p3ddf26bd17)" style="fill: none; stroke: #ff7f0e; stroke-width: 0.8"/>
    <path d="M 122.929412 279.484785 
L 122.929412 274.45534 
" clip-path="url(#p3ddf26bd17)" style="fill: none; stroke: #ff7f0e; stroke-width: 0.8"/>
    <path d="M 140.833155 283.854655 
L 140.833155 275.862313 
" clip-path="url(#p3ddf26bd17)" style="fill: none; stroke: #ff7f0e; stroke-width: 0.8"/>
    <path d="M 158.736898 277.597718 
L 158.736898 272.412501 
" clip-path="url(#p3ddf26bd17)" style="fill: none; stroke: #ff7f0e; stroke-width: 0.8"/>
    <path d="M 176.640642 276.803609 
L 176.640642 272.297539 
" clip-path="url(#p3ddf26bd17)" style="fill: none; stroke: #ff7f0e; stroke-width: 0.8"/>
    <path d="M 194.544385 276.046368 
L 194.544385 272.769431 
" clip-path="url(#p3ddf26bd17)" style="fill: none; stroke: #ff7f0e; stroke-width: 0.8"/>
    <path d="M 212.448128 276.118228 
L 212.448128 273.027496 
" clip-path="url(#p3ddf26bd17)" style="fill: none; stroke: #ff7f0e; stroke-width: 0.8"/>
    <path d="M 230.351872 272.38509 
L 230.351872 269.180903 
" clip-path="url(#p3ddf26bd17)" style="fill: none; stroke: #ff7f0e; stroke-width: 0.8"/>
    <path d="M 248.255615 274.325672 
L 248.255615 271.398207 
" clip-path="url(#p3ddf26bd17)" style="fill: none; stroke: #ff7f0e; stroke-width: 0.8"/>
    <path d="M 266.159358 274.14698 
L 266.159358 271.680339 
" clip-path="url(#p3ddf26bd17)" style="fill: none; stroke: #ff7f0e; stroke-width: 0.8"/>
    <path d="M 284.063102 275.046018 
L 284.063102 271.601902 
" clip-path="url(#p3ddf26bd17)" style="fill: none; stroke: #ff7f0e; stroke-width: 0.8"/>
    <path d="M 301.966845 278.010259 
L 301.966845 274.305622 
" clip-path="url(#p3ddf26bd17)" style="fill: none; stroke: #ff7f0e; stroke-width: 0.8"/>
    <path d="M 319.870588 279.093758 
L 319.870588 274.256338 
" clip-path="url(#p3ddf26bd17)" style="fill: none; stroke: #ff7f0e; stroke-width: 0.8"/>
    <path d="M 337.774332 275.631076 
L 337.774332 269.686909 
" clip-path="url(#p3ddf26bd17)" style="fill: none; stroke: #ff7f0e; stroke-width: 0.8"/>
    <path d="M 355.678075 268.840055 
L 355.678075 249.04593 
" clip-path="url(#p3ddf26bd17)" style="fill: none; stroke: #ff7f0e; stroke-width: 0.8"/>
    <path d="M 373.581818 281.360768 
L 373.581818 281.360768 
" clip-path="url(#p3ddf26bd17)" style="fill: none; stroke: #ff7f0e; stroke-width: 0.8"/>
    <path clip-path="url(#p3ddf26bd17)" style="fill: none; stroke: #ff7f0e; stroke-width: 0.8"/>
   </g>
   <g id="LineCollection_3">
    <path d="M 69.218182 130.439978 
L 69.218182 112.484632 
" clip-path="url(#p3ddf26bd17)" style="fill: none; stroke: #2ca02c; stroke-width: 0.8"/>
    <path d="M 87.121925 220.221099 
L 87.121925 212.967193 
" clip-path="url(#p3ddf26bd17)" style="fill: none; stroke: #2ca02c; stroke-width: 0.8"/>
    <path d="M 105.025668 268.988625 
L 105.025668 264.520751 
" clip-path="url(#p3ddf26bd17)" style="fill: none; stroke: #2ca02c; stroke-width: 0.8"/>
    <path d="M 122.929412 281.912341 
L 122.929412 274.435124 
" clip-path="url(#p3ddf26bd17)" style="fill: none; stroke: #2ca02c; stroke-width: 0.8"/>
    <path d="M 140.833155 285.498206 
L 140.833155 276.951274 
" clip-path="url(#p3ddf26bd17)" style="fill: none; stroke: #2ca02c; stroke-width: 0.8"/>
    <path d="M 158.736898 279.434557 
L 158.736898 274.571478 
" clip-path="url(#p3ddf26bd17)" style="fill: none; stroke: #2ca02c; stroke-width: 0.8"/>
    <path d="M 176.640642 277.370722 
L 176.640642 272.047147 
" clip-path="url(#p3ddf26bd17)" style="fill: none; stroke: #2ca02c; stroke-width: 0.8"/>
    <path d="M 194.544385 274.964684 
L 194.544385 271.469008 
" clip-path="url(#p3ddf26bd17)" style="fill: none; stroke: #2ca02c; stroke-width: 0.8"/>
    <path d="M 212.448128 277.225897 
L 212.448128 273.012144 
" clip-path="url(#p3ddf26bd17)" style="fill: none; stroke: #2ca02c; stroke-width: 0.8"/>
    <path d="M 230.351872 272.975811 
L 230.351872 270.73749 
" clip-path="url(#p3ddf26bd17)" style="fill: none; stroke: #2ca02c; stroke-width: 0.8"/>
    <path d="M 248.255615 273.759959 
L 248.255615 270.775676 
" clip-path="url(#p3ddf26bd17)" style="fill: none; stroke: #2ca02c; stroke-width: 0.8"/>
    <path d="M 266.159358 272.98285 
L 266.159358 270.553898 
" clip-path="url(#p3ddf26bd17)" style="fill: none; stroke: #2ca02c; stroke-width: 0.8"/>
    <path d="M 284.063102 275.475218 
L 284.063102 272.712397 
" clip-path="url(#p3ddf26bd17)" style="fill: none; stroke: #2ca02c; stroke-width: 0.8"/>
    <path d="M 301.966845 277.654219 
L 301.966845 274.371505 
" clip-path="url(#p3ddf26bd17)" style="fill: none; stroke: #2ca02c; stroke-width: 0.8"/>
    <path d="M 319.870588 278.7822 
L 319.870588 275.031548 
" clip-path="url(#p3ddf26bd17)" style="fill: none; stroke: #2ca02c; stroke-width: 0.8"/>
    <path d="M 337.774332 282.103198 
L 337.774332 271.81537 
" clip-path="url(#p3ddf26bd17)" style="fill: none; stroke: #2ca02c; stroke-width: 0.8"/>
    <path d="M 355.678075 268.188091 
L 355.678075 248.831788 
" clip-path="url(#p3ddf26bd17)" style="fill: none; stroke: #2ca02c; stroke-width: 0.8"/>
    <path d="M 373.581818 279.401494 
L 373.581818 279.401494 
" clip-path="url(#p3ddf26bd17)" style="fill: none; stroke: #2ca02c; stroke-width: 0.8"/>
    <path clip-path="url(#p3ddf26bd17)" style="fill: none; stroke: #2ca02c; stroke-width: 0.8"/>
   </g>
   <g id="line2d_51">
    <path d="M 54 271.646294 
L 388.8 271.646294 
" clip-path="url(#p3ddf26bd17)" style="fill: none; stroke-dasharray: 5.55,2.4; stroke-dashoffset: 0; stroke: #808080; stroke-opacity: 0.7; stroke-width: 1.5"/>
   </g>
   <g id="line2d_52">
    <defs>
     <path id="m16743fbaa7" d="M 0 1.5 
C 0.397805 1.5 0.77937 1.341951 1.06066 1.06066 
C 1.341951 0.77937 1.5 0.397805 1.5 0 
C 1.5 -0.397805 1.341951 -0.77937 1.06066 -1.06066 
C 0.77937 -1.341951 0.397805 -1.5 0 -1.5 
C -0.397805 -1.5 -0.77937 -1.341951 -1.06066 -1.06066 
C -1.341951 -0.77937 -1.5 -0.397805 -1.5 0 
C -1.5 0.397805 -1.341951 0.77937 -1.06066 1.06066 
C -0.77937 1.341951 -0.397805 1.5 0 1.5 
z
" style="stroke: #1f77b4"/>
    </defs>
    <g clip-path="url(#p3ddf26bd17)">
     <use xlink:href="#m16743fbaa7" x="69.218182" y="64.198143" style="fill: #1f77b4; stroke: #1f77b4"/>
     <use xlink:href="#m16743fbaa7" x="87.121925" y="195.064875" style="fill: #1f77b4; stroke: #1f77b4"/>
     <use xlink:href="#m16743fbaa7" x="105.025668" y="246.344213" style="fill: #1f77b4; stroke: #1f77b4"/>
     <use xlink:href="#m16743fbaa7" x="122.929412" y="265.446764" style="fill: #1f77b4; stroke: #1f77b4"/>
     <use xlink:href="#m16743fbaa7" x="140.833155" y="269.159782" style="fill: #1f77b4; stroke: #1f77b4"/>
     <use xlink:href="#m16743fbaa7" x="158.736898" y="268.826292" style="fill: #1f77b4; stroke: #1f77b4"/>
     <use xlink:href="#m16743fbaa7" x="176.640642" y="270.756147" style="fill: #1f77b4; stroke: #1f77b4"/>
     <use xlink:href="#m16743fbaa7" x="194.544385" y="270.961975" style="fill: #1f77b4; stroke: #1f77b4"/>
     <use xlink:href="#m16743fbaa7" x="212.448128" y="274.932122" style="fill: #1f77b4; stroke: #1f77b4"/>
     <use xlink:href="#m16743fbaa7" x="230.351872" y="271.90241" style="fill: #1f77b4; stroke: #1f77b4"/>
     <use xlink:href="#m16743fbaa7" x="248.255615" y="273.597324" style="fill: #1f77b4; stroke: #1f77b4"/>
     <use xlink:href="#m16743fbaa7" x="266.159358" y="270.51635" style="fill: #1f77b4; stroke: #1f77b4"/>
     <use xlink:href="#m16743fbaa7" x="284.063102" y="270.878101" style="fill: #1f77b4; stroke: #1f77b4"/>
     <use xlink:href="#m16743fbaa7" x="301.966845" y="278.571907" style="fill: #1f77b4; stroke: #1f77b4"/>
     <use xlink:href="#m16743fbaa7" x="319.870588" y="275.96761" style="fill: #1f77b4; stroke: #1f77b4"/>
     <use xlink:href="#m16743fbaa7" x="337.774332" y="278.191879" style="fill: #1f77b4; stroke: #1f77b4"/>
     <use xlink:href="#m16743fbaa7" x="355.678075" y="264.631393" style="fill: #1f77b4; stroke: #1f77b4"/>
     <use xlink:href="#m16743fbaa7" x="373.581818" y="290.539636" style="fill: #1f77b4; stroke: #1f77b4"/>
    </g>
   </g>
   <g id="line2d_53">
    <defs>
     <path id="m6c45cda900" d="M -1.5 1.5 
L 1.5 1.5 
L 1.5 -1.5 
L -1.5 -1.5 
z
" style="stroke: #ff7f0e; stroke-linejoin: miter"/>
    </defs>
    <g clip-path="url(#p3ddf26bd17)">
     <use xlink:href="#m6c45cda900" x="69.218182" y="119.865267" style="fill: #ff7f0e; stroke: #ff7f0e; stroke-linejoin: miter"/>
     <use xlink:href="#m6c45cda900" x="87.121925" y="216.648216" style="fill: #ff7f0e; stroke: #ff7f0e; stroke-linejoin: miter"/>
     <use xlink:href="#m6c45cda900" x="105.025668" y="265.649153" style="fill: #ff7f0e; stroke: #ff7f0e; stroke-linejoin: miter"/>
     <use xlink:href="#m6c45cda900" x="122.929412" y="276.970062" style="fill: #ff7f0e; stroke: #ff7f0e; stroke-linejoin: miter"/>
     <use xlink:href="#m6c45cda900" x="140.833155" y="279.858484" style="fill: #ff7f0e; stroke: #ff7f0e; stroke-linejoin: miter"/>
     <use xlink:href="#m6c45cda900" x="158.736898" y="275.00511" style="fill: #ff7f0e; stroke: #ff7f0e; stroke-linejoin: miter"/>
     <use xlink:href="#m6c45cda900" x="176.640642" y="274.550574" style="fill: #ff7f0e; stroke: #ff7f0e; stroke-linejoin: miter"/>
     <use xlink:href="#m6c45cda900" x="194.544385" y="274.407899" style="fill: #ff7f0e; stroke: #ff7f0e; stroke-linejoin: miter"/>
     <use xlink:href="#m6c45cda900" x="212.448128" y="274.572862" style="fill: #ff7f0e; stroke: #ff7f0e; stroke-linejoin: miter"/>
     <use xlink:href="#m6c45cda900" x="230.351872" y="270.782996" style="fill: #ff7f0e; stroke: #ff7f0e; stroke-linejoin: miter"/>
     <use xlink:href="#m6c45cda900" x="248.255615" y="272.861939" style="fill: #ff7f0e; stroke: #ff7f0e; stroke-linejoin: miter"/>
     <use xlink:href="#m6c45cda900" x="266.159358" y="272.913659" style="fill: #ff7f0e; stroke: #ff7f0e; stroke-linejoin: miter"/>
     <use xlink:href="#m6c45cda900" x="284.063102" y="273.32396" style="fill: #ff7f0e; stroke: #ff7f0e; stroke-linejoin: miter"/>
     <use xlink:href="#m6c45cda900" x="301.966845" y="276.15794" style="fill: #ff7f0e; stroke: #ff7f0e; stroke-linejoin: miter"/>
     <use xlink:href="#m6c45cda900" x="319.870588" y="276.675048" style="fill: #ff7f0e; stroke: #ff7f0e; stroke-linejoin: miter"/>
     <use xlink:href="#m6c45cda900" x="337.774332" y="272.658993" style="fill: #ff7f0e; stroke: #ff7f0e; stroke-linejoin: miter"/>
     <use xlink:href="#m6c45cda900" x="355.678075" y="258.942993" style="fill: #ff7f0e; stroke: #ff7f0e; stroke-linejoin: miter"/>
     <use xlink:href="#m6c45cda900" x="373.581818" y="281.360768" style="fill: #ff7f0e; stroke: #ff7f0e; stroke-linejoin: miter"/>
    </g>
   </g>
   <g id="line2d_54">
    <defs>
     <path id="mdc578bb84b" d="M 0 -1.5 
L -1.5 1.5 
L 1.5 1.5 
z
" style="stroke: #2ca02c; stroke-linejoin: miter"/>
    </defs>
    <g clip-path="url(#p3ddf26bd17)">
     <use xlink:href="#mdc578bb84b" x="69.218182" y="121.462305" style="fill: #2ca02c; stroke: #2ca02c; stroke-linejoin: miter"/>
     <use xlink:href="#mdc578bb84b" x="87.121925" y="216.594146" style="fill: #2ca02c; stroke: #2ca02c; stroke-linejoin: miter"/>
     <use xlink:href="#mdc578bb84b" x="105.025668" y="266.754688" style="fill: #2ca02c; stroke: #2ca02c; stroke-linejoin: miter"/>
     <use xlink:href="#mdc578bb84b" x="122.929412" y="278.173733" style="fill: #2ca02c; stroke: #2ca02c; stroke-linejoin: miter"/>
     <use xlink:href="#mdc578bb84b" x="140.833155" y="281.22474" style="fill: #2ca02c; stroke: #2ca02c; stroke-linejoin: miter"/>
     <use xlink:href="#mdc578bb84b" x="158.736898" y="277.003017" style="fill: #2ca02c; stroke: #2ca02c; stroke-linejoin: miter"/>
     <use xlink:href="#mdc578bb84b" x="176.640642" y="274.708934" style="fill: #2ca02c; stroke: #2ca02c; stroke-linejoin: miter"/>
     <use xlink:href="#mdc578bb84b" x="194.544385" y="273.216846" style="fill: #2ca02c; stroke: #2ca02c; stroke-linejoin: miter"/>
     <use xlink:href="#mdc578bb84b" x="212.448128" y="275.11902" style="fill: #2ca02c; stroke: #2ca02c; stroke-linejoin: miter"/>
     <use xlink:href="#mdc578bb84b" x="230.351872" y="271.85665" style="fill: #2ca02c; stroke: #2ca02c; stroke-linejoin: miter"/>
     <use xlink:href="#mdc578bb84b" x="248.255615" y="272.267818" style="fill: #2ca02c; stroke: #2ca02c; stroke-linejoin: miter"/>
     <use xlink:href="#mdc578bb84b" x="266.159358" y="271.768374" style="fill: #2ca02c; stroke: #2ca02c; stroke-linejoin: miter"/>
     <use xlink:href="#mdc578bb84b" x="284.063102" y="274.093808" style="fill: #2ca02c; stroke: #2ca02c; stroke-linejoin: miter"/>
     <use xlink:href="#mdc578bb84b" x="301.966845" y="276.012862" style="fill: #2ca02c; stroke: #2ca02c; stroke-linejoin: miter"/>
     <use xlink:href="#mdc578bb84b" x="319.870588" y="276.906874" style="fill: #2ca02c; stroke: #2ca02c; stroke-linejoin: miter"/>
     <use xlink:href="#mdc578bb84b" x="337.774332" y="276.959284" style="fill: #2ca02c; stroke: #2ca02c; stroke-linejoin: miter"/>
     <use xlink:href="#mdc578bb84b" x="355.678075" y="258.509939" style="fill: #2ca02c; stroke: #2ca02c; stroke-linejoin: miter"/>
     <use xlink:href="#mdc578bb84b" x="373.581818" y="279.401494" style="fill: #2ca02c; stroke: #2ca02c; stroke-linejoin: miter"/>
    </g>
   </g>
   <g id="patch_3">
    <path d="M 54 302.4 
L 54 41.472 
" style="fill: none; stroke: #000000; stroke-width: 0.8; stroke-linejoin: miter; stroke-linecap: square"/>
   </g>
   <g id="patch_4">
    <path d="M 388.8 302.4 
L 388.8 41.472 
" style="fill: none; stroke: #000000; stroke-width: 0.8; stroke-linejoin: miter; stroke-linecap: square"/>
   </g>
   <g id="patch_5">
    <path d="M 54 302.4 
L 388.8 302.4 
" style="fill: none; stroke: #000000; stroke-width: 0.8; stroke-linejoin: miter; stroke-linecap: square"/>
   </g>
   <g id="patch_6">
    <path d="M 54 41.472 
L 388.8 41.472 
" style="fill: none; stroke: #000000; stroke-width: 0.8; stroke-linejoin: miter; stroke-linecap: square"/>
   </g>
   <g id="text_11">
    <!-- $c$, $1.3 &lt; |\eta^\mathrm{gen}| &lt; 2.5$ -->
    <g transform="translate(293.5 38.550144)scale(0.1 -0.1)">
     <defs>
      <path id="DejaVuSans-Oblique-63" d="M 3431 3366 
L 3316 2797 
Q 3109 2947 2876 3022 
Q 2644 3097 2394 3097 
Q 2119 3097 1870 3000 
Q 1622 2903 1453 2725 
Q 1184 2453 1037 2087 
Q 891 1722 891 1331 
Q 891 859 1127 628 
Q 1363 397 1844 397 
Q 2081 397 2348 469 
Q 2616 541 2906 684 
L 2797 116 
Q 2547 13 2283 -39 
Q 2019 -91 1741 -91 
Q 1044 -91 669 257 
Q 294 606 294 1253 
Q 294 1797 489 2255 
Q 684 2713 1069 3078 
Q 1331 3328 1684 3456 
Q 2038 3584 2456 3584 
Q 2700 3584 2940 3529 
Q 3181 3475 3431 3366 
z
" transform="scale(0.015625)"/>
      <path id="DejaVuSans-2c" d="M 750 794 
L 1409 794 
L 1409 256 
L 897 -744 
L 494 -744 
L 750 256 
L 750 794 
z
" transform="scale(0.015625)"/>
      <path id="DejaVuSans-3c" d="M 4684 3150 
L 1459 2003 
L 4684 863 
L 4684 294 
L 678 1747 
L 678 2266 
L 4684 3719 
L 4684 3150 
z
" transform="scale(0.015625)"/>
      <path id="DejaVuSans-7c" d="M 1344 4891 
L 1344 -1509 
L 813 -1509 
L 813 4891 
L 1344 4891 
z
" transform="scale(0.015625)"/>
      <path id="DejaVuSans-Oblique-3b7" d="M 3703 2113 
L 3034 -1331 
L 2459 -1331 
L 3125 2094 
Q 3222 2591 3075 2838 
Q 2931 3084 2544 3084 
Q 2078 3084 1750 2788 
Q 1425 2491 1325 1978 
L 941 0 
L 363 0 
L 1044 3500 
L 1622 3500 
L 1516 2956 
Q 1781 3272 2094 3428 
Q 2403 3584 2769 3584 
Q 3372 3584 3609 3213 
Q 3844 2838 3703 2113 
z
" transform="scale(0.015625)"/>
     </defs>
     <use xlink:href="#DejaVuSans-Oblique-63" transform="translate(0 0.51875)"/>
     <use xlink:href="#DejaVuSans-2c" transform="translate(54.980469 0.51875)"/>
     <use xlink:href="#DejaVuSans-20" transform="translate(86.767578 0.51875)"/>
     <use xlink:href="#DejaVuSans-31" transform="translate(118.554688 0.51875)"/>
     <use xlink:href="#DejaVuSans-2e" transform="translate(182.177734 0.51875)"/>
     <use xlink:href="#DejaVuSans-33" transform="translate(213.964844 0.51875)"/>
     <use xlink:href="#DejaVuSans-3c" transform="translate(297.070312 0.51875)"/>
     <use xlink:href="#DejaVuSans-7c" transform="translate(400.341797 0.51875)"/>
     <use xlink:href="#DejaVuSans-Oblique-3b7" transform="translate(434.033203 0.51875)"/>
     <use xlink:href="#DejaVuSans-67" transform="translate(502.062005 38.8)scale(0.7)"/>
     <use xlink:href="#DejaVuSans-65" transform="translate(546.495599 38.8)scale(0.7)"/>
     <use xlink:href="#DejaVuSans-6e" transform="translate(589.562005 38.8)scale(0.7)"/>
     <use xlink:href="#DejaVuSans-7c" transform="translate(636.661615 0.51875)"/>
     <use xlink:href="#DejaVuSans-3c" transform="translate(689.835443 0.51875)"/>
     <use xlink:href="#DejaVuSans-32" transform="translate(793.106927 0.51875)"/>
     <use xlink:href="#DejaVuSans-2e" transform="translate(856.729974 0.51875)"/>
     <use xlink:href="#DejaVuSans-35" transform="translate(888.517083 0.51875)"/>
    </g>
   </g>
   <g id="legend_1">
    <g id="patch_7">
     <path d="M 257.897813 114.320125 
L 379 114.320125 
Q 381.8 114.320125 381.8 111.520125 
L 381.8 51.272 
Q 381.8 48.472 379 48.472 
L 257.897813 48.472 
Q 255.097813 48.472 255.097813 51.272 
L 255.097813 111.520125 
Q 255.097813 114.320125 257.897813 114.320125 
z
" style="fill: #ffffff; opacity: 0.8; stroke: #cccccc; stroke-linejoin: miter"/>
    </g>
    <g id="LineCollection_4">
     <path d="M 274.697813 66.809812 
L 274.697813 52.809812 
" style="fill: none; stroke: #1f77b4; stroke-width: 0.8"/>
    </g>
    <g id="line2d_55"/>
    <g id="line2d_56">
     <g>
      <use xlink:href="#m16743fbaa7" x="274.697813" y="59.809812" style="fill: #1f77b4; stroke: #1f77b4"/>
     </g>
    </g>
    <g id="text_12">
     <!-- Baseline -->
     <g transform="translate(299.897813 64.709812)scale(0.14 -0.14)">
      <defs>
       <path id="DejaVuSans-42" d="M 1259 2228 
L 1259 519 
L 2272 519 
Q 2781 519 3026 730 
Q 3272 941 3272 1375 
Q 3272 1813 3026 2020 
Q 2781 2228 2272 2228 
L 1259 2228 
z
M 1259 4147 
L 1259 2741 
L 2194 2741 
Q 2656 2741 2882 2914 
Q 3109 3088 3109 3444 
Q 3109 3797 2882 3972 
Q 2656 4147 2194 4147 
L 1259 4147 
z
M 628 4666 
L 2241 4666 
Q 2963 4666 3353 4366 
Q 3744 4066 3744 3513 
Q 3744 3084 3544 2831 
Q 3344 2578 2956 2516 
Q 3422 2416 3680 2098 
Q 3938 1781 3938 1306 
Q 3938 681 3513 340 
Q 3088 0 2303 0 
L 628 0 
L 628 4666 
z
" transform="scale(0.015625)"/>
       <path id="DejaVuSans-6c" d="M 603 4863 
L 1178 4863 
L 1178 0 
L 603 0 
L 603 4863 
z
" transform="scale(0.015625)"/>
      </defs>
      <use xlink:href="#DejaVuSans-42"/>
      <use xlink:href="#DejaVuSans-61" x="68.603516"/>
      <use xlink:href="#DejaVuSans-73" x="129.882812"/>
      <use xlink:href="#DejaVuSans-65" x="181.982422"/>
      <use xlink:href="#DejaVuSans-6c" x="243.505859"/>
      <use xlink:href="#DejaVuSans-69" x="271.289062"/>
      <use xlink:href="#DejaVuSans-6e" x="299.072266"/>
      <use xlink:href="#DejaVuSans-65" x="362.451172"/>
     </g>
    </g>
    <g id="LineCollection_5">
     <path d="M 274.697813 87.359187 
L 274.697813 73.359187 
" style="fill: none; stroke: #ff7f0e; stroke-width: 0.8"/>
    </g>
    <g id="line2d_57"/>
    <g id="line2d_58">
     <g>
      <use xlink:href="#m6c45cda900" x="274.697813" y="80.359187" style="fill: #ff7f0e; stroke: #ff7f0e; stroke-linejoin: miter"/>
     </g>
    </g>
    <g id="text_13">
     <!-- PFN -->
     <g transform="translate(299.897813 85.259187)scale(0.14 -0.14)">
      <defs>
       <path id="DejaVuSans-50" d="M 1259 4147 
L 1259 2394 
L 2053 2394 
Q 2494 2394 2734 2622 
Q 2975 2850 2975 3272 
Q 2975 3691 2734 3919 
Q 2494 4147 2053 4147 
L 1259 4147 
z
M 628 4666 
L 2053 4666 
Q 2838 4666 3239 4311 
Q 3641 3956 3641 3272 
Q 3641 2581 3239 2228 
Q 2838 1875 2053 1875 
L 1259 1875 
L 1259 0 
L 628 0 
L 628 4666 
z
" transform="scale(0.015625)"/>
       <path id="DejaVuSans-46" d="M 628 4666 
L 3309 4666 
L 3309 4134 
L 1259 4134 
L 1259 2759 
L 3109 2759 
L 3109 2228 
L 1259 2228 
L 1259 0 
L 628 0 
L 628 4666 
z
" transform="scale(0.015625)"/>
       <path id="DejaVuSans-4e" d="M 628 4666 
L 1478 4666 
L 3547 763 
L 3547 4666 
L 4159 4666 
L 4159 0 
L 3309 0 
L 1241 3903 
L 1241 0 
L 628 0 
L 628 4666 
z
" transform="scale(0.015625)"/>
      </defs>
      <use xlink:href="#DejaVuSans-50"/>
      <use xlink:href="#DejaVuSans-46" x="60.302734"/>
      <use xlink:href="#DejaVuSans-4e" x="117.822266"/>
     </g>
    </g>
    <g id="LineCollection_6">
     <path d="M 274.697813 107.908562 
L 274.697813 93.908562 
" style="fill: none; stroke: #2ca02c; stroke-width: 0.8"/>
    </g>
    <g id="line2d_59"/>
    <g id="line2d_60">
     <g>
      <use xlink:href="#mdc578bb84b" x="274.697813" y="100.908562" style="fill: #2ca02c; stroke: #2ca02c; stroke-linejoin: miter"/>
     </g>
    </g>
    <g id="text_14">
     <!-- ParticleNet -->
     <g transform="translate(299.897813 105.808562)scale(0.14 -0.14)">
      <defs>
       <path id="DejaVuSans-74" d="M 1172 4494 
L 1172 3500 
L 2356 3500 
L 2356 3053 
L 1172 3053 
L 1172 1153 
Q 1172 725 1289 603 
Q 1406 481 1766 481 
L 2356 481 
L 2356 0 
L 1766 0 
Q 1100 0 847 248 
Q 594 497 594 1153 
L 594 3053 
L 172 3053 
L 172 3500 
L 594 3500 
L 594 4494 
L 1172 4494 
z
" transform="scale(0.015625)"/>
       <path id="DejaVuSans-63" d="M 3122 3366 
L 3122 2828 
Q 2878 2963 2633 3030 
Q 2388 3097 2138 3097 
Q 1578 3097 1268 2742 
Q 959 2388 959 1747 
Q 959 1106 1268 751 
Q 1578 397 2138 397 
Q 2388 397 2633 464 
Q 2878 531 3122 666 
L 3122 134 
Q 2881 22 2623 -34 
Q 2366 -91 2075 -91 
Q 1284 -91 818 406 
Q 353 903 353 1747 
Q 353 2603 823 3093 
Q 1294 3584 2113 3584 
Q 2378 3584 2631 3529 
Q 2884 3475 3122 3366 
z
" transform="scale(0.015625)"/>
      </defs>
      <use xlink:href="#DejaVuSans-50"/>
      <use xlink:href="#DejaVuSans-61" x="55.802734"/>
      <use xlink:href="#DejaVuSans-72" x="117.082031"/>
      <use xlink:href="#DejaVuSans-74" x="158.195312"/>
      <use xlink:href="#DejaVuSans-69" x="197.404297"/>
      <use xlink:href="#DejaVuSans-63" x="225.1875"/>
      <use xlink:href="#DejaVuSans-6c" x="280.167969"/>
      <use xlink:href="#DejaVuSans-65" x="307.951172"/>
      <use xlink:href="#DejaVuSans-4e" x="369.474609"/>
      <use xlink:href="#DejaVuSans-65" x="444.279297"/>
      <use xlink:href="#DejaVuSans-74" x="505.802734"/>
     </g>
    </g>
   </g>
  </g>
 </g>
 <defs>
  <clipPath id="p3ddf26bd17">
   <rect x="54" y="41.472" width="334.8" height="260.928"/>
  </clipPath>
 </defs>
</svg>
