<?xml version="1.0" encoding="utf-8" standalone="no"?>
<!DOCTYPE svg PUBLIC "-//W3C//DTD SVG 1.1//EN"
  "http://www.w3.org/Graphics/SVG/1.1/DTD/svg11.dtd">
<svg xmlns:xlink="http://www.w3.org/1999/xlink" width="432pt" height="345.6pt" viewBox="0 0 432 345.6" xmlns="http://www.w3.org/2000/svg" version="1.1">
 <metadata>
  <rdf:RDF xmlns:dc="http://purl.org/dc/elements/1.1/" xmlns:cc="http://creativecommons.org/ns#" xmlns:rdf="http://www.w3.org/1999/02/22-rdf-syntax-ns#">
   <cc:Work>
    <dc:type rdf:resource="http://purl.org/dc/dcmitype/StillImage"/>
    <dc:date>2023-03-25T09:58:11.211611</dc:date>
    <dc:format>image/svg+xml</dc:format>
    <dc:creator>
     <cc:Agent>
      <dc:title>Matplotlib v3.5.2, https://matplotlib.org/</dc:title>
     </cc:Agent>
    </dc:creator>
   </cc:Work>
  </rdf:RDF>
 </metadata>
 <defs>
  <style type="text/css">*{stroke-linejoin: round; stroke-linecap: butt}</style>
 </defs>
 <g id="figure_1">
  <g id="patch_1">
   <path d="M 0 345.6 
L 432 345.6 
L 432 0 
L 0 0 
L 0 345.6 
z
" style="fill: none"/>
  </g>
  <g id="axes_1">
   <g id="patch_2">
    <path d="M 54 302.4 
L 388.8 302.4 
L 388.8 41.472 
L 54 41.472 
z
" style="fill: #ffffff"/>
   </g>
   <g id="matplotlib.axis_1">
    <g id="xtick_1">
     <g id="line2d_1">
      <defs>
       <path id="m29edb60513" d="M 0 0 
L 0 -3.5 
" style="stroke: #000000; stroke-width: 1.2"/>
      </defs>
      <g>
       <use xlink:href="#m29edb60513" x="163.957838" y="302.4" style="stroke: #000000; stroke-width: 1.2"/>
      </g>
     </g>
     <g id="line2d_2">
      <defs>
       <path id="m625afd89ee" d="M 0 0 
L 0 3.5 
" style="stroke: #000000; stroke-width: 1.2"/>
      </defs>
      <g>
       <use xlink:href="#m625afd89ee" x="163.957838" y="41.472" style="stroke: #000000; stroke-width: 1.2"/>
      </g>
     </g>
     <g id="text_1">
      <!-- $\mathdefault{10^{2}}$ -->
      <g transform="translate(151.637838 316.537812)scale(0.14 -0.14)">
       <defs>
        <path id="DejaVuSans-31" d="M 794 531 
L 1825 531 
L 1825 4091 
L 703 3866 
L 703 4441 
L 1819 4666 
L 2450 4666 
L 2450 531 
L 3481 531 
L 3481 0 
L 794 0 
L 794 531 
z
" transform="scale(0.015625)"/>
        <path id="DejaVuSans-30" d="M 2034 4250 
Q 1547 4250 1301 3770 
Q 1056 3291 1056 2328 
Q 1056 1369 1301 889 
Q 1547 409 2034 409 
Q 2525 409 2770 889 
Q 3016 1369 3016 2328 
Q 3016 3291 2770 3770 
Q 2525 4250 2034 4250 
z
M 2034 4750 
Q 2819 4750 3233 4129 
Q 3647 3509 3647 2328 
Q 3647 1150 3233 529 
Q 2819 -91 2034 -91 
Q 1250 -91 836 529 
Q 422 1150 422 2328 
Q 422 3509 836 4129 
Q 1250 4750 2034 4750 
z
" transform="scale(0.015625)"/>
        <path id="DejaVuSans-32" d="M 1228 531 
L 3431 531 
L 3431 0 
L 469 0 
L 469 531 
Q 828 903 1448 1529 
Q 2069 2156 2228 2338 
Q 2531 2678 2651 2914 
Q 2772 3150 2772 3378 
Q 2772 3750 2511 3984 
Q 2250 4219 1831 4219 
Q 1534 4219 1204 4116 
Q 875 4013 500 3803 
L 500 4441 
Q 881 4594 1212 4672 
Q 1544 4750 1819 4750 
Q 2544 4750 2975 4387 
Q 3406 4025 3406 3419 
Q 3406 3131 3298 2873 
Q 3191 2616 2906 2266 
Q 2828 2175 2409 1742 
Q 1991 1309 1228 531 
z
" transform="scale(0.015625)"/>
       </defs>
       <use xlink:href="#DejaVuSans-31" transform="translate(0 0.765625)"/>
       <use xlink:href="#DejaVuSans-30" transform="translate(63.623047 0.765625)"/>
       <use xlink:href="#DejaVuSans-32" transform="translate(128.203125 39.046875)scale(0.7)"/>
      </g>
     </g>
    </g>
    <g id="xtick_2">
     <g id="line2d_3">
      <g>
       <use xlink:href="#m29edb60513" x="311.595363" y="302.4" style="stroke: #000000; stroke-width: 1.2"/>
      </g>
     </g>
     <g id="line2d_4">
      <g>
       <use xlink:href="#m625afd89ee" x="311.595363" y="41.472" style="stroke: #000000; stroke-width: 1.2"/>
      </g>
     </g>
     <g id="text_2">
      <!-- $\mathdefault{10^{3}}$ -->
      <g transform="translate(299.275363 316.537812)scale(0.14 -0.14)">
       <defs>
        <path id="DejaVuSans-33" d="M 2597 2516 
Q 3050 2419 3304 2112 
Q 3559 1806 3559 1356 
Q 3559 666 3084 287 
Q 2609 -91 1734 -91 
Q 1441 -91 1130 -33 
Q 819 25 488 141 
L 488 750 
Q 750 597 1062 519 
Q 1375 441 1716 441 
Q 2309 441 2620 675 
Q 2931 909 2931 1356 
Q 2931 1769 2642 2001 
Q 2353 2234 1838 2234 
L 1294 2234 
L 1294 2753 
L 1863 2753 
Q 2328 2753 2575 2939 
Q 2822 3125 2822 3475 
Q 2822 3834 2567 4026 
Q 2313 4219 1838 4219 
Q 1578 4219 1281 4162 
Q 984 4106 628 3988 
L 628 4550 
Q 988 4650 1302 4700 
Q 1616 4750 1894 4750 
Q 2613 4750 3031 4423 
Q 3450 4097 3450 3541 
Q 3450 3153 3228 2886 
Q 3006 2619 2597 2516 
z
" transform="scale(0.015625)"/>
       </defs>
       <use xlink:href="#DejaVuSans-31" transform="translate(0 0.765625)"/>
       <use xlink:href="#DejaVuSans-30" transform="translate(63.623047 0.765625)"/>
       <use xlink:href="#DejaVuSans-33" transform="translate(128.203125 39.046875)scale(0.7)"/>
      </g>
     </g>
    </g>
    <g id="xtick_3">
     <g id="line2d_5">
      <defs>
       <path id="m420de0811a" d="M 0 0 
L 0 -2 
" style="stroke: #000000; stroke-width: 1.2"/>
      </defs>
      <g>
       <use xlink:href="#m420de0811a" x="60.763636" y="302.4" style="stroke: #000000; stroke-width: 1.2"/>
      </g>
     </g>
     <g id="line2d_6">
      <defs>
       <path id="m4c29336393" d="M 0 0 
L 0 2 
" style="stroke: #000000; stroke-width: 1.2"/>
      </defs>
      <g>
       <use xlink:href="#m4c29336393" x="60.763636" y="41.472" style="stroke: #000000; stroke-width: 1.2"/>
      </g>
     </g>
    </g>
    <g id="xtick_4">
     <g id="line2d_7">
      <g>
       <use xlink:href="#m420de0811a" x="86.761314" y="302.4" style="stroke: #000000; stroke-width: 1.2"/>
      </g>
     </g>
     <g id="line2d_8">
      <g>
       <use xlink:href="#m4c29336393" x="86.761314" y="41.472" style="stroke: #000000; stroke-width: 1.2"/>
      </g>
     </g>
    </g>
    <g id="xtick_5">
     <g id="line2d_9">
      <g>
       <use xlink:href="#m420de0811a" x="105.20696" y="302.4" style="stroke: #000000; stroke-width: 1.2"/>
      </g>
     </g>
     <g id="line2d_10">
      <g>
       <use xlink:href="#m4c29336393" x="105.20696" y="41.472" style="stroke: #000000; stroke-width: 1.2"/>
      </g>
     </g>
    </g>
    <g id="xtick_6">
     <g id="line2d_11">
      <g>
       <use xlink:href="#m420de0811a" x="119.514514" y="302.4" style="stroke: #000000; stroke-width: 1.2"/>
      </g>
     </g>
     <g id="line2d_12">
      <g>
       <use xlink:href="#m4c29336393" x="119.514514" y="41.472" style="stroke: #000000; stroke-width: 1.2"/>
      </g>
     </g>
    </g>
    <g id="xtick_7">
     <g id="line2d_13">
      <g>
       <use xlink:href="#m420de0811a" x="131.204637" y="302.4" style="stroke: #000000; stroke-width: 1.2"/>
      </g>
     </g>
     <g id="line2d_14">
      <g>
       <use xlink:href="#m4c29336393" x="131.204637" y="41.472" style="stroke: #000000; stroke-width: 1.2"/>
      </g>
     </g>
    </g>
    <g id="xtick_8">
     <g id="line2d_15">
      <g>
       <use xlink:href="#m420de0811a" x="141.088496" y="302.4" style="stroke: #000000; stroke-width: 1.2"/>
      </g>
     </g>
     <g id="line2d_16">
      <g>
       <use xlink:href="#m4c29336393" x="141.088496" y="41.472" style="stroke: #000000; stroke-width: 1.2"/>
      </g>
     </g>
    </g>
    <g id="xtick_9">
     <g id="line2d_17">
      <g>
       <use xlink:href="#m420de0811a" x="149.650283" y="302.4" style="stroke: #000000; stroke-width: 1.2"/>
      </g>
     </g>
     <g id="line2d_18">
      <g>
       <use xlink:href="#m4c29336393" x="149.650283" y="41.472" style="stroke: #000000; stroke-width: 1.2"/>
      </g>
     </g>
    </g>
    <g id="xtick_10">
     <g id="line2d_19">
      <g>
       <use xlink:href="#m420de0811a" x="157.202315" y="302.4" style="stroke: #000000; stroke-width: 1.2"/>
      </g>
     </g>
     <g id="line2d_20">
      <g>
       <use xlink:href="#m4c29336393" x="157.202315" y="41.472" style="stroke: #000000; stroke-width: 1.2"/>
      </g>
     </g>
    </g>
    <g id="xtick_11">
     <g id="line2d_21">
      <g>
       <use xlink:href="#m420de0811a" x="208.401161" y="302.4" style="stroke: #000000; stroke-width: 1.2"/>
      </g>
     </g>
     <g id="line2d_22">
      <g>
       <use xlink:href="#m4c29336393" x="208.401161" y="41.472" style="stroke: #000000; stroke-width: 1.2"/>
      </g>
     </g>
    </g>
    <g id="xtick_12">
     <g id="line2d_23">
      <g>
       <use xlink:href="#m420de0811a" x="234.398839" y="302.4" style="stroke: #000000; stroke-width: 1.2"/>
      </g>
     </g>
     <g id="line2d_24">
      <g>
       <use xlink:href="#m4c29336393" x="234.398839" y="41.472" style="stroke: #000000; stroke-width: 1.2"/>
      </g>
     </g>
    </g>
    <g id="xtick_13">
     <g id="line2d_25">
      <g>
       <use xlink:href="#m420de0811a" x="252.844485" y="302.4" style="stroke: #000000; stroke-width: 1.2"/>
      </g>
     </g>
     <g id="line2d_26">
      <g>
       <use xlink:href="#m4c29336393" x="252.844485" y="41.472" style="stroke: #000000; stroke-width: 1.2"/>
      </g>
     </g>
    </g>
    <g id="xtick_14">
     <g id="line2d_27">
      <g>
       <use xlink:href="#m420de0811a" x="267.152039" y="302.4" style="stroke: #000000; stroke-width: 1.2"/>
      </g>
     </g>
     <g id="line2d_28">
      <g>
       <use xlink:href="#m4c29336393" x="267.152039" y="41.472" style="stroke: #000000; stroke-width: 1.2"/>
      </g>
     </g>
    </g>
    <g id="xtick_15">
     <g id="line2d_29">
      <g>
       <use xlink:href="#m420de0811a" x="278.842162" y="302.4" style="stroke: #000000; stroke-width: 1.2"/>
      </g>
     </g>
     <g id="line2d_30">
      <g>
       <use xlink:href="#m4c29336393" x="278.842162" y="41.472" style="stroke: #000000; stroke-width: 1.2"/>
      </g>
     </g>
    </g>
    <g id="xtick_16">
     <g id="line2d_31">
      <g>
       <use xlink:href="#m420de0811a" x="288.726021" y="302.4" style="stroke: #000000; stroke-width: 1.2"/>
      </g>
     </g>
     <g id="line2d_32">
      <g>
       <use xlink:href="#m4c29336393" x="288.726021" y="41.472" style="stroke: #000000; stroke-width: 1.2"/>
      </g>
     </g>
    </g>
    <g id="xtick_17">
     <g id="line2d_33">
      <g>
       <use xlink:href="#m420de0811a" x="297.287808" y="302.4" style="stroke: #000000; stroke-width: 1.2"/>
      </g>
     </g>
     <g id="line2d_34">
      <g>
       <use xlink:href="#m4c29336393" x="297.287808" y="41.472" style="stroke: #000000; stroke-width: 1.2"/>
      </g>
     </g>
    </g>
    <g id="xtick_18">
     <g id="line2d_35">
      <g>
       <use xlink:href="#m420de0811a" x="304.83984" y="302.4" style="stroke: #000000; stroke-width: 1.2"/>
      </g>
     </g>
     <g id="line2d_36">
      <g>
       <use xlink:href="#m4c29336393" x="304.83984" y="41.472" style="stroke: #000000; stroke-width: 1.2"/>
      </g>
     </g>
    </g>
    <g id="xtick_19">
     <g id="line2d_37">
      <g>
       <use xlink:href="#m420de0811a" x="356.038686" y="302.4" style="stroke: #000000; stroke-width: 1.2"/>
      </g>
     </g>
     <g id="line2d_38">
      <g>
       <use xlink:href="#m4c29336393" x="356.038686" y="41.472" style="stroke: #000000; stroke-width: 1.2"/>
      </g>
     </g>
    </g>
    <g id="xtick_20">
     <g id="line2d_39">
      <g>
       <use xlink:href="#m420de0811a" x="382.036364" y="302.4" style="stroke: #000000; stroke-width: 1.2"/>
      </g>
     </g>
     <g id="line2d_40">
      <g>
       <use xlink:href="#m4c29336393" x="382.036364" y="41.472" style="stroke: #000000; stroke-width: 1.2"/>
      </g>
     </g>
    </g>
    <g id="text_3">
     <!-- $p_\mathrm{T}^\mathrm{gen}$ -->
     <g transform="translate(207.19 336.049375)scale(0.14 -0.14)">
      <defs>
       <path id="DejaVuSans-Oblique-70" d="M 3175 2156 
Q 3175 2616 2975 2859 
Q 2775 3103 2400 3103 
Q 2144 3103 1911 2972 
Q 1678 2841 1497 2591 
Q 1319 2344 1212 1994 
Q 1106 1644 1106 1300 
Q 1106 863 1306 627 
Q 1506 391 1875 391 
Q 2147 391 2380 519 
Q 2613 647 2778 891 
Q 2956 1147 3065 1494 
Q 3175 1841 3175 2156 
z
M 1394 2969 
Q 1625 3272 1939 3428 
Q 2253 3584 2638 3584 
Q 3175 3584 3472 3232 
Q 3769 2881 3769 2247 
Q 3769 1728 3584 1258 
Q 3400 788 3053 416 
Q 2822 169 2531 39 
Q 2241 -91 1919 -91 
Q 1547 -91 1294 64 
Q 1041 219 916 525 
L 556 -1331 
L -19 -1331 
L 922 3500 
L 1497 3500 
L 1394 2969 
z
" transform="scale(0.015625)"/>
       <path id="DejaVuSans-67" d="M 2906 1791 
Q 2906 2416 2648 2759 
Q 2391 3103 1925 3103 
Q 1463 3103 1205 2759 
Q 947 2416 947 1791 
Q 947 1169 1205 825 
Q 1463 481 1925 481 
Q 2391 481 2648 825 
Q 2906 1169 2906 1791 
z
M 3481 434 
Q 3481 -459 3084 -895 
Q 2688 -1331 1869 -1331 
Q 1566 -1331 1297 -1286 
Q 1028 -1241 775 -1147 
L 775 -588 
Q 1028 -725 1275 -790 
Q 1522 -856 1778 -856 
Q 2344 -856 2625 -561 
Q 2906 -266 2906 331 
L 2906 616 
Q 2728 306 2450 153 
Q 2172 0 1784 0 
Q 1141 0 747 490 
Q 353 981 353 1791 
Q 353 2603 747 3093 
Q 1141 3584 1784 3584 
Q 2172 3584 2450 3431 
Q 2728 3278 2906 2969 
L 2906 3500 
L 3481 3500 
L 3481 434 
z
" transform="scale(0.015625)"/>
       <path id="DejaVuSans-65" d="M 3597 1894 
L 3597 1613 
L 953 1613 
Q 991 1019 1311 708 
Q 1631 397 2203 397 
Q 2534 397 2845 478 
Q 3156 559 3463 722 
L 3463 178 
Q 3153 47 2828 -22 
Q 2503 -91 2169 -91 
Q 1331 -91 842 396 
Q 353 884 353 1716 
Q 353 2575 817 3079 
Q 1281 3584 2069 3584 
Q 2775 3584 3186 3129 
Q 3597 2675 3597 1894 
z
M 3022 2063 
Q 3016 2534 2758 2815 
Q 2500 3097 2075 3097 
Q 1594 3097 1305 2825 
Q 1016 2553 972 2059 
L 3022 2063 
z
" transform="scale(0.015625)"/>
       <path id="DejaVuSans-6e" d="M 3513 2113 
L 3513 0 
L 2938 0 
L 2938 2094 
Q 2938 2591 2744 2837 
Q 2550 3084 2163 3084 
Q 1697 3084 1428 2787 
Q 1159 2491 1159 1978 
L 1159 0 
L 581 0 
L 581 3500 
L 1159 3500 
L 1159 2956 
Q 1366 3272 1645 3428 
Q 1925 3584 2291 3584 
Q 2894 3584 3203 3211 
Q 3513 2838 3513 2113 
z
" transform="scale(0.015625)"/>
       <path id="DejaVuSans-54" d="M -19 4666 
L 3928 4666 
L 3928 4134 
L 2272 4134 
L 2272 0 
L 1638 0 
L 1638 4134 
L -19 4134 
L -19 4666 
z
" transform="scale(0.015625)"/>
      </defs>
      <use xlink:href="#DejaVuSans-Oblique-70" transform="translate(0 0.051563)"/>
      <use xlink:href="#DejaVuSans-67" transform="translate(68.126458 50.8)scale(0.7)"/>
      <use xlink:href="#DejaVuSans-65" transform="translate(112.560052 50.8)scale(0.7)"/>
      <use xlink:href="#DejaVuSans-6e" transform="translate(155.626458 50.8)scale(0.7)"/>
      <use xlink:href="#DejaVuSans-54" transform="translate(63.476562 -27.292187)scale(0.7)"/>
     </g>
    </g>
   </g>
   <g id="matplotlib.axis_2">
    <g id="ytick_1">
     <g id="line2d_41">
      <defs>
       <path id="m7906d6f43f" d="M 0 0 
L 3.5 0 
" style="stroke: #000000; stroke-width: 1.2"/>
      </defs>
      <g>
       <use xlink:href="#m7906d6f43f" x="54" y="280.433161" style="stroke: #000000; stroke-width: 1.2"/>
      </g>
     </g>
     <g id="line2d_42">
      <defs>
       <path id="maa46505ab0" d="M 0 0 
L -3.5 0 
" style="stroke: #000000; stroke-width: 1.2"/>
      </defs>
      <g>
       <use xlink:href="#maa46505ab0" x="388.8" y="280.433161" style="stroke: #000000; stroke-width: 1.2"/>
      </g>
     </g>
     <g id="text_4">
      <!-- 1.0 -->
      <g transform="translate(28.235625 285.752067)scale(0.14 -0.14)">
       <defs>
        <path id="DejaVuSans-2e" d="M 684 794 
L 1344 794 
L 1344 0 
L 684 0 
L 684 794 
z
" transform="scale(0.015625)"/>
       </defs>
       <use xlink:href="#DejaVuSans-31"/>
       <use xlink:href="#DejaVuSans-2e" x="63.623047"/>
       <use xlink:href="#DejaVuSans-30" x="95.410156"/>
      </g>
     </g>
    </g>
    <g id="ytick_2">
     <g id="line2d_43">
      <g>
       <use xlink:href="#m7906d6f43f" x="54" y="226.293338" style="stroke: #000000; stroke-width: 1.2"/>
      </g>
     </g>
     <g id="line2d_44">
      <g>
       <use xlink:href="#maa46505ab0" x="388.8" y="226.293338" style="stroke: #000000; stroke-width: 1.2"/>
      </g>
     </g>
     <g id="text_5">
      <!-- 1.1 -->
      <g transform="translate(28.235625 231.612244)scale(0.14 -0.14)">
       <use xlink:href="#DejaVuSans-31"/>
       <use xlink:href="#DejaVuSans-2e" x="63.623047"/>
       <use xlink:href="#DejaVuSans-31" x="95.410156"/>
      </g>
     </g>
    </g>
    <g id="ytick_3">
     <g id="line2d_45">
      <g>
       <use xlink:href="#m7906d6f43f" x="54" y="172.153515" style="stroke: #000000; stroke-width: 1.2"/>
      </g>
     </g>
     <g id="line2d_46">
      <g>
       <use xlink:href="#maa46505ab0" x="388.8" y="172.153515" style="stroke: #000000; stroke-width: 1.2"/>
      </g>
     </g>
     <g id="text_6">
      <!-- 1.2 -->
      <g transform="translate(28.235625 177.472421)scale(0.14 -0.14)">
       <use xlink:href="#DejaVuSans-31"/>
       <use xlink:href="#DejaVuSans-2e" x="63.623047"/>
       <use xlink:href="#DejaVuSans-32" x="95.410156"/>
      </g>
     </g>
    </g>
    <g id="ytick_4">
     <g id="line2d_47">
      <g>
       <use xlink:href="#m7906d6f43f" x="54" y="118.013692" style="stroke: #000000; stroke-width: 1.2"/>
      </g>
     </g>
     <g id="line2d_48">
      <g>
       <use xlink:href="#maa46505ab0" x="388.8" y="118.013692" style="stroke: #000000; stroke-width: 1.2"/>
      </g>
     </g>
     <g id="text_7">
      <!-- 1.3 -->
      <g transform="translate(28.235625 123.332598)scale(0.14 -0.14)">
       <use xlink:href="#DejaVuSans-31"/>
       <use xlink:href="#DejaVuSans-2e" x="63.623047"/>
       <use xlink:href="#DejaVuSans-33" x="95.410156"/>
      </g>
     </g>
    </g>
    <g id="ytick_5">
     <g id="line2d_49">
      <g>
       <use xlink:href="#m7906d6f43f" x="54" y="63.873869" style="stroke: #000000; stroke-width: 1.2"/>
      </g>
     </g>
     <g id="line2d_50">
      <g>
       <use xlink:href="#maa46505ab0" x="388.8" y="63.873869" style="stroke: #000000; stroke-width: 1.2"/>
      </g>
     </g>
     <g id="text_8">
      <!-- 1.4 -->
      <g transform="translate(28.235625 69.192775)scale(0.14 -0.14)">
       <defs>
        <path id="DejaVuSans-34" d="M 2419 4116 
L 825 1625 
L 2419 1625 
L 2419 4116 
z
M 2253 4666 
L 3047 4666 
L 3047 1625 
L 3713 1625 
L 3713 1100 
L 3047 1100 
L 3047 0 
L 2419 0 
L 2419 1100 
L 313 1100 
L 313 1709 
L 2253 4666 
z
" transform="scale(0.015625)"/>
       </defs>
       <use xlink:href="#DejaVuSans-31"/>
       <use xlink:href="#DejaVuSans-2e" x="63.623047"/>
       <use xlink:href="#DejaVuSans-34" x="95.410156"/>
      </g>
     </g>
    </g>
    <g id="text_9">
     <!-- Median response -->
     <g transform="translate(21.324062 231.413031)rotate(-90)scale(0.14 -0.14)">
      <defs>
       <path id="DejaVuSans-4d" d="M 628 4666 
L 1569 4666 
L 2759 1491 
L 3956 4666 
L 4897 4666 
L 4897 0 
L 4281 0 
L 4281 4097 
L 3078 897 
L 2444 897 
L 1241 4097 
L 1241 0 
L 628 0 
L 628 4666 
z
" transform="scale(0.015625)"/>
       <path id="DejaVuSans-64" d="M 2906 2969 
L 2906 4863 
L 3481 4863 
L 3481 0 
L 2906 0 
L 2906 525 
Q 2725 213 2448 61 
Q 2172 -91 1784 -91 
Q 1150 -91 751 415 
Q 353 922 353 1747 
Q 353 2572 751 3078 
Q 1150 3584 1784 3584 
Q 2172 3584 2448 3432 
Q 2725 3281 2906 2969 
z
M 947 1747 
Q 947 1113 1208 752 
Q 1469 391 1925 391 
Q 2381 391 2643 752 
Q 2906 1113 2906 1747 
Q 2906 2381 2643 2742 
Q 2381 3103 1925 3103 
Q 1469 3103 1208 2742 
Q 947 2381 947 1747 
z
" transform="scale(0.015625)"/>
       <path id="DejaVuSans-69" d="M 603 3500 
L 1178 3500 
L 1178 0 
L 603 0 
L 603 3500 
z
M 603 4863 
L 1178 4863 
L 1178 4134 
L 603 4134 
L 603 4863 
z
" transform="scale(0.015625)"/>
       <path id="DejaVuSans-61" d="M 2194 1759 
Q 1497 1759 1228 1600 
Q 959 1441 959 1056 
Q 959 750 1161 570 
Q 1363 391 1709 391 
Q 2188 391 2477 730 
Q 2766 1069 2766 1631 
L 2766 1759 
L 2194 1759 
z
M 3341 1997 
L 3341 0 
L 2766 0 
L 2766 531 
Q 2569 213 2275 61 
Q 1981 -91 1556 -91 
Q 1019 -91 701 211 
Q 384 513 384 1019 
Q 384 1609 779 1909 
Q 1175 2209 1959 2209 
L 2766 2209 
L 2766 2266 
Q 2766 2663 2505 2880 
Q 2244 3097 1772 3097 
Q 1472 3097 1187 3025 
Q 903 2953 641 2809 
L 641 3341 
Q 956 3463 1253 3523 
Q 1550 3584 1831 3584 
Q 2591 3584 2966 3190 
Q 3341 2797 3341 1997 
z
" transform="scale(0.015625)"/>
       <path id="DejaVuSans-20" transform="scale(0.015625)"/>
       <path id="DejaVuSans-72" d="M 2631 2963 
Q 2534 3019 2420 3045 
Q 2306 3072 2169 3072 
Q 1681 3072 1420 2755 
Q 1159 2438 1159 1844 
L 1159 0 
L 581 0 
L 581 3500 
L 1159 3500 
L 1159 2956 
Q 1341 3275 1631 3429 
Q 1922 3584 2338 3584 
Q 2397 3584 2469 3576 
Q 2541 3569 2628 3553 
L 2631 2963 
z
" transform="scale(0.015625)"/>
       <path id="DejaVuSans-73" d="M 2834 3397 
L 2834 2853 
Q 2591 2978 2328 3040 
Q 2066 3103 1784 3103 
Q 1356 3103 1142 2972 
Q 928 2841 928 2578 
Q 928 2378 1081 2264 
Q 1234 2150 1697 2047 
L 1894 2003 
Q 2506 1872 2764 1633 
Q 3022 1394 3022 966 
Q 3022 478 2636 193 
Q 2250 -91 1575 -91 
Q 1294 -91 989 -36 
Q 684 19 347 128 
L 347 722 
Q 666 556 975 473 
Q 1284 391 1588 391 
Q 1994 391 2212 530 
Q 2431 669 2431 922 
Q 2431 1156 2273 1281 
Q 2116 1406 1581 1522 
L 1381 1569 
Q 847 1681 609 1914 
Q 372 2147 372 2553 
Q 372 3047 722 3315 
Q 1072 3584 1716 3584 
Q 2034 3584 2315 3537 
Q 2597 3491 2834 3397 
z
" transform="scale(0.015625)"/>
       <path id="DejaVuSans-70" d="M 1159 525 
L 1159 -1331 
L 581 -1331 
L 581 3500 
L 1159 3500 
L 1159 2969 
Q 1341 3281 1617 3432 
Q 1894 3584 2278 3584 
Q 2916 3584 3314 3078 
Q 3713 2572 3713 1747 
Q 3713 922 3314 415 
Q 2916 -91 2278 -91 
Q 1894 -91 1617 61 
Q 1341 213 1159 525 
z
M 3116 1747 
Q 3116 2381 2855 2742 
Q 2594 3103 2138 3103 
Q 1681 3103 1420 2742 
Q 1159 2381 1159 1747 
Q 1159 1113 1420 752 
Q 1681 391 2138 391 
Q 2594 391 2855 752 
Q 3116 1113 3116 1747 
z
" transform="scale(0.015625)"/>
       <path id="DejaVuSans-6f" d="M 1959 3097 
Q 1497 3097 1228 2736 
Q 959 2375 959 1747 
Q 959 1119 1226 758 
Q 1494 397 1959 397 
Q 2419 397 2687 759 
Q 2956 1122 2956 1747 
Q 2956 2369 2687 2733 
Q 2419 3097 1959 3097 
z
M 1959 3584 
Q 2709 3584 3137 3096 
Q 3566 2609 3566 1747 
Q 3566 888 3137 398 
Q 2709 -91 1959 -91 
Q 1206 -91 779 398 
Q 353 888 353 1747 
Q 353 2609 779 3096 
Q 1206 3584 1959 3584 
z
" transform="scale(0.015625)"/>
      </defs>
      <use xlink:href="#DejaVuSans-4d"/>
      <use xlink:href="#DejaVuSans-65" x="86.279297"/>
      <use xlink:href="#DejaVuSans-64" x="147.802734"/>
      <use xlink:href="#DejaVuSans-69" x="211.279297"/>
      <use xlink:href="#DejaVuSans-61" x="239.0625"/>
      <use xlink:href="#DejaVuSans-6e" x="300.341797"/>
      <use xlink:href="#DejaVuSans-20" x="363.720703"/>
      <use xlink:href="#DejaVuSans-72" x="395.507812"/>
      <use xlink:href="#DejaVuSans-65" x="434.371094"/>
      <use xlink:href="#DejaVuSans-73" x="495.894531"/>
      <use xlink:href="#DejaVuSans-70" x="547.994141"/>
      <use xlink:href="#DejaVuSans-6f" x="611.470703"/>
      <use xlink:href="#DejaVuSans-6e" x="672.652344"/>
      <use xlink:href="#DejaVuSans-73" x="736.03125"/>
      <use xlink:href="#DejaVuSans-65" x="788.130859"/>
     </g>
    </g>
   </g>
   <g id="LineCollection_1">
    <path d="M 69.218182 61.898258 
L 69.218182 53.332364 
" clip-path="url(#peebba451b4)" style="fill: none; stroke: #1f77b4; stroke-width: 0.8"/>
    <path d="M 86.127273 213.987919 
L 86.127273 211.281606 
" clip-path="url(#peebba451b4)" style="fill: none; stroke: #1f77b4; stroke-width: 0.8"/>
    <path d="M 103.036364 271.085974 
L 103.036364 269.387752 
" clip-path="url(#peebba451b4)" style="fill: none; stroke: #1f77b4; stroke-width: 0.8"/>
    <path d="M 119.945455 284.642939 
L 119.945455 282.732776 
" clip-path="url(#peebba451b4)" style="fill: none; stroke: #1f77b4; stroke-width: 0.8"/>
    <path d="M 136.854545 284.428808 
L 136.854545 282.609953 
" clip-path="url(#peebba451b4)" style="fill: none; stroke: #1f77b4; stroke-width: 0.8"/>
    <path d="M 153.763636 283.984653 
L 153.763636 281.964579 
" clip-path="url(#peebba451b4)" style="fill: none; stroke: #1f77b4; stroke-width: 0.8"/>
    <path d="M 170.672727 284.673706 
L 170.672727 283.458795 
" clip-path="url(#peebba451b4)" style="fill: none; stroke: #1f77b4; stroke-width: 0.8"/>
    <path d="M 187.581818 286.21009 
L 187.581818 284.602976 
" clip-path="url(#peebba451b4)" style="fill: none; stroke: #1f77b4; stroke-width: 0.8"/>
    <path d="M 204.490909 285.305179 
L 204.490909 283.97633 
" clip-path="url(#peebba451b4)" style="fill: none; stroke: #1f77b4; stroke-width: 0.8"/>
    <path d="M 221.4 284.732151 
L 221.4 284.059091 
" clip-path="url(#peebba451b4)" style="fill: none; stroke: #1f77b4; stroke-width: 0.8"/>
    <path d="M 238.309091 285.278673 
L 238.309091 284.302619 
" clip-path="url(#peebba451b4)" style="fill: none; stroke: #1f77b4; stroke-width: 0.8"/>
    <path d="M 255.218182 285.238516 
L 255.218182 284.293422 
" clip-path="url(#peebba451b4)" style="fill: none; stroke: #1f77b4; stroke-width: 0.8"/>
    <path d="M 272.127273 285.910373 
L 272.127273 284.670559 
" clip-path="url(#peebba451b4)" style="fill: none; stroke: #1f77b4; stroke-width: 0.8"/>
    <path d="M 289.036364 285.974615 
L 289.036364 284.704993 
" clip-path="url(#peebba451b4)" style="fill: none; stroke: #1f77b4; stroke-width: 0.8"/>
    <path d="M 305.945455 286.13956 
L 305.945455 284.851668 
" clip-path="url(#peebba451b4)" style="fill: none; stroke: #1f77b4; stroke-width: 0.8"/>
    <path d="M 322.854545 285.628313 
L 322.854545 284.538995 
" clip-path="url(#peebba451b4)" style="fill: none; stroke: #1f77b4; stroke-width: 0.8"/>
    <path d="M 339.763636 284.83711 
L 339.763636 283.043745 
" clip-path="url(#peebba451b4)" style="fill: none; stroke: #1f77b4; stroke-width: 0.8"/>
    <path d="M 356.672727 286.76955 
L 356.672727 283.309846 
" clip-path="url(#peebba451b4)" style="fill: none; stroke: #1f77b4; stroke-width: 0.8"/>
    <path d="M 373.581818 284.137602 
L 373.581818 279.820807 
" clip-path="url(#peebba451b4)" style="fill: none; stroke: #1f77b4; stroke-width: 0.8"/>
   </g>
   <g id="LineCollection_2">
    <path d="M 69.218182 108.210412 
L 69.218182 101.87387 
" clip-path="url(#peebba451b4)" style="fill: none; stroke: #ff7f0e; stroke-width: 0.8"/>
    <path d="M 86.127273 231.633076 
L 86.127273 229.221192 
" clip-path="url(#peebba451b4)" style="fill: none; stroke: #ff7f0e; stroke-width: 0.8"/>
    <path d="M 103.036364 282.654756 
L 103.036364 280.148669 
" clip-path="url(#peebba451b4)" style="fill: none; stroke: #ff7f0e; stroke-width: 0.8"/>
    <path d="M 119.945455 290.539636 
L 119.945455 288.546147 
" clip-path="url(#peebba451b4)" style="fill: none; stroke: #ff7f0e; stroke-width: 0.8"/>
    <path d="M 136.854545 288.375548 
L 136.854545 286.764116 
" clip-path="url(#peebba451b4)" style="fill: none; stroke: #ff7f0e; stroke-width: 0.8"/>
    <path d="M 153.763636 286.527344 
L 153.763636 284.898582 
" clip-path="url(#peebba451b4)" style="fill: none; stroke: #ff7f0e; stroke-width: 0.8"/>
    <path d="M 170.672727 286.252902 
L 170.672727 284.693498 
" clip-path="url(#peebba451b4)" style="fill: none; stroke: #ff7f0e; stroke-width: 0.8"/>
    <path d="M 187.581818 287.021084 
L 187.581818 285.631173 
" clip-path="url(#peebba451b4)" style="fill: none; stroke: #ff7f0e; stroke-width: 0.8"/>
    <path d="M 204.490909 285.926741 
L 204.490909 284.842179 
" clip-path="url(#peebba451b4)" style="fill: none; stroke: #ff7f0e; stroke-width: 0.8"/>
    <path d="M 221.4 284.750926 
L 221.4 283.492723 
" clip-path="url(#peebba451b4)" style="fill: none; stroke: #ff7f0e; stroke-width: 0.8"/>
    <path d="M 238.309091 284.226083 
L 238.309091 283.464492 
" clip-path="url(#peebba451b4)" style="fill: none; stroke: #ff7f0e; stroke-width: 0.8"/>
    <path d="M 255.218182 284.069374 
L 255.218182 283.065498 
" clip-path="url(#peebba451b4)" style="fill: none; stroke: #ff7f0e; stroke-width: 0.8"/>
    <path d="M 272.127273 284.633265 
L 272.127273 283.62851 
" clip-path="url(#peebba451b4)" style="fill: none; stroke: #ff7f0e; stroke-width: 0.8"/>
    <path d="M 289.036364 284.865719 
L 289.036364 283.812735 
" clip-path="url(#peebba451b4)" style="fill: none; stroke: #ff7f0e; stroke-width: 0.8"/>
    <path d="M 305.945455 284.441124 
L 305.945455 283.287903 
" clip-path="url(#peebba451b4)" style="fill: none; stroke: #ff7f0e; stroke-width: 0.8"/>
    <path d="M 322.854545 285.386148 
L 322.854545 284.097097 
" clip-path="url(#peebba451b4)" style="fill: none; stroke: #ff7f0e; stroke-width: 0.8"/>
    <path d="M 339.763636 285.165534 
L 339.763636 283.122284 
" clip-path="url(#peebba451b4)" style="fill: none; stroke: #ff7f0e; stroke-width: 0.8"/>
    <path d="M 356.672727 287.138818 
L 356.672727 283.89459 
" clip-path="url(#peebba451b4)" style="fill: none; stroke: #ff7f0e; stroke-width: 0.8"/>
    <path d="M 373.581818 285.333877 
L 373.581818 278.920008 
" clip-path="url(#peebba451b4)" style="fill: none; stroke: #ff7f0e; stroke-width: 0.8"/>
   </g>
   <g id="LineCollection_3">
    <path d="M 69.218182 104.316219 
L 69.218182 97.823352 
" clip-path="url(#peebba451b4)" style="fill: none; stroke: #2ca02c; stroke-width: 0.8"/>
    <path d="M 86.127273 231.292551 
L 86.127273 228.809959 
" clip-path="url(#peebba451b4)" style="fill: none; stroke: #2ca02c; stroke-width: 0.8"/>
    <path d="M 103.036364 281.488136 
L 103.036364 279.288631 
" clip-path="url(#peebba451b4)" style="fill: none; stroke: #2ca02c; stroke-width: 0.8"/>
    <path d="M 119.945455 290.073131 
L 119.945455 288.237713 
" clip-path="url(#peebba451b4)" style="fill: none; stroke: #2ca02c; stroke-width: 0.8"/>
    <path d="M 136.854545 287.780881 
L 136.854545 286.237467 
" clip-path="url(#peebba451b4)" style="fill: none; stroke: #2ca02c; stroke-width: 0.8"/>
    <path d="M 153.763636 285.76532 
L 153.763636 284.313162 
" clip-path="url(#peebba451b4)" style="fill: none; stroke: #2ca02c; stroke-width: 0.8"/>
    <path d="M 170.672727 286.165029 
L 170.672727 284.807865 
" clip-path="url(#peebba451b4)" style="fill: none; stroke: #2ca02c; stroke-width: 0.8"/>
    <path d="M 187.581818 286.691057 
L 187.581818 285.521717 
" clip-path="url(#peebba451b4)" style="fill: none; stroke: #2ca02c; stroke-width: 0.8"/>
    <path d="M 204.490909 285.403883 
L 204.490909 283.957474 
" clip-path="url(#peebba451b4)" style="fill: none; stroke: #2ca02c; stroke-width: 0.8"/>
    <path d="M 221.4 284.350815 
L 221.4 283.354468 
" clip-path="url(#peebba451b4)" style="fill: none; stroke: #2ca02c; stroke-width: 0.8"/>
    <path d="M 238.309091 284.573442 
L 238.309091 283.361686 
" clip-path="url(#peebba451b4)" style="fill: none; stroke: #2ca02c; stroke-width: 0.8"/>
    <path d="M 255.218182 284.350544 
L 255.218182 283.475163 
" clip-path="url(#peebba451b4)" style="fill: none; stroke: #2ca02c; stroke-width: 0.8"/>
    <path d="M 272.127273 284.422155 
L 272.127273 283.332476 
" clip-path="url(#peebba451b4)" style="fill: none; stroke: #2ca02c; stroke-width: 0.8"/>
    <path d="M 289.036364 284.51572 
L 289.036364 283.414128 
" clip-path="url(#peebba451b4)" style="fill: none; stroke: #2ca02c; stroke-width: 0.8"/>
    <path d="M 305.945455 284.531821 
L 305.945455 283.458504 
" clip-path="url(#peebba451b4)" style="fill: none; stroke: #2ca02c; stroke-width: 0.8"/>
    <path d="M 322.854545 285.219923 
L 322.854545 283.768009 
" clip-path="url(#peebba451b4)" style="fill: none; stroke: #2ca02c; stroke-width: 0.8"/>
    <path d="M 339.763636 285.264584 
L 339.763636 283.403642 
" clip-path="url(#peebba451b4)" style="fill: none; stroke: #2ca02c; stroke-width: 0.8"/>
    <path d="M 356.672727 285.898331 
L 356.672727 283.436473 
" clip-path="url(#peebba451b4)" style="fill: none; stroke: #2ca02c; stroke-width: 0.8"/>
    <path d="M 373.581818 286.17066 
L 373.581818 278.449355 
" clip-path="url(#peebba451b4)" style="fill: none; stroke: #2ca02c; stroke-width: 0.8"/>
   </g>
   <g id="line2d_51">
    <path d="M 54 280.433161 
L 388.8 280.433161 
" clip-path="url(#peebba451b4)" style="fill: none; stroke-dasharray: 5.55,2.4; stroke-dashoffset: 0; stroke: #808080; stroke-opacity: 0.7; stroke-width: 1.5"/>
   </g>
   <g id="line2d_52">
    <defs>
     <path id="m026296af64" d="M 0 1.5 
C 0.397805 1.5 0.77937 1.341951 1.06066 1.06066 
C 1.341951 0.77937 1.5 0.397805 1.5 0 
C 1.5 -0.397805 1.341951 -0.77937 1.06066 -1.06066 
C 0.77937 -1.341951 0.397805 -1.5 0 -1.5 
C -0.397805 -1.5 -0.77937 -1.341951 -1.06066 -1.06066 
C -1.341951 -0.77937 -1.5 -0.397805 -1.5 0 
C -1.5 0.397805 -1.341951 0.77937 -1.06066 1.06066 
C -0.77937 1.341951 -0.397805 1.5 0 1.5 
z
" style="stroke: #1f77b4"/>
    </defs>
    <g clip-path="url(#peebba451b4)">
     <use xlink:href="#m026296af64" x="69.218182" y="57.615311" style="fill: #1f77b4; stroke: #1f77b4"/>
     <use xlink:href="#m026296af64" x="86.127273" y="212.634762" style="fill: #1f77b4; stroke: #1f77b4"/>
     <use xlink:href="#m026296af64" x="103.036364" y="270.236863" style="fill: #1f77b4; stroke: #1f77b4"/>
     <use xlink:href="#m026296af64" x="119.945455" y="283.687857" style="fill: #1f77b4; stroke: #1f77b4"/>
     <use xlink:href="#m026296af64" x="136.854545" y="283.519381" style="fill: #1f77b4; stroke: #1f77b4"/>
     <use xlink:href="#m026296af64" x="153.763636" y="282.974616" style="fill: #1f77b4; stroke: #1f77b4"/>
     <use xlink:href="#m026296af64" x="170.672727" y="284.06625" style="fill: #1f77b4; stroke: #1f77b4"/>
     <use xlink:href="#m026296af64" x="187.581818" y="285.406533" style="fill: #1f77b4; stroke: #1f77b4"/>
     <use xlink:href="#m026296af64" x="204.490909" y="284.640754" style="fill: #1f77b4; stroke: #1f77b4"/>
     <use xlink:href="#m026296af64" x="221.4" y="284.395621" style="fill: #1f77b4; stroke: #1f77b4"/>
     <use xlink:href="#m026296af64" x="238.309091" y="284.790646" style="fill: #1f77b4; stroke: #1f77b4"/>
     <use xlink:href="#m026296af64" x="255.218182" y="284.765969" style="fill: #1f77b4; stroke: #1f77b4"/>
     <use xlink:href="#m026296af64" x="272.127273" y="285.290466" style="fill: #1f77b4; stroke: #1f77b4"/>
     <use xlink:href="#m026296af64" x="289.036364" y="285.339804" style="fill: #1f77b4; stroke: #1f77b4"/>
     <use xlink:href="#m026296af64" x="305.945455" y="285.495614" style="fill: #1f77b4; stroke: #1f77b4"/>
     <use xlink:href="#m026296af64" x="322.854545" y="285.083654" style="fill: #1f77b4; stroke: #1f77b4"/>
     <use xlink:href="#m026296af64" x="339.763636" y="283.940427" style="fill: #1f77b4; stroke: #1f77b4"/>
     <use xlink:href="#m026296af64" x="356.672727" y="285.039698" style="fill: #1f77b4; stroke: #1f77b4"/>
     <use xlink:href="#m026296af64" x="373.581818" y="281.979204" style="fill: #1f77b4; stroke: #1f77b4"/>
    </g>
   </g>
   <g id="line2d_53">
    <defs>
     <path id="m90218db118" d="M -1.5 1.5 
L 1.5 1.5 
L 1.5 -1.5 
L -1.5 -1.5 
z
" style="stroke: #ff7f0e; stroke-linejoin: miter"/>
    </defs>
    <g clip-path="url(#peebba451b4)">
     <use xlink:href="#m90218db118" x="69.218182" y="105.042141" style="fill: #ff7f0e; stroke: #ff7f0e; stroke-linejoin: miter"/>
     <use xlink:href="#m90218db118" x="86.127273" y="230.427134" style="fill: #ff7f0e; stroke: #ff7f0e; stroke-linejoin: miter"/>
     <use xlink:href="#m90218db118" x="103.036364" y="281.401713" style="fill: #ff7f0e; stroke: #ff7f0e; stroke-linejoin: miter"/>
     <use xlink:href="#m90218db118" x="119.945455" y="289.542892" style="fill: #ff7f0e; stroke: #ff7f0e; stroke-linejoin: miter"/>
     <use xlink:href="#m90218db118" x="136.854545" y="287.569832" style="fill: #ff7f0e; stroke: #ff7f0e; stroke-linejoin: miter"/>
     <use xlink:href="#m90218db118" x="153.763636" y="285.712963" style="fill: #ff7f0e; stroke: #ff7f0e; stroke-linejoin: miter"/>
     <use xlink:href="#m90218db118" x="170.672727" y="285.4732" style="fill: #ff7f0e; stroke: #ff7f0e; stroke-linejoin: miter"/>
     <use xlink:href="#m90218db118" x="187.581818" y="286.326129" style="fill: #ff7f0e; stroke: #ff7f0e; stroke-linejoin: miter"/>
     <use xlink:href="#m90218db118" x="204.490909" y="285.38446" style="fill: #ff7f0e; stroke: #ff7f0e; stroke-linejoin: miter"/>
     <use xlink:href="#m90218db118" x="221.4" y="284.121824" style="fill: #ff7f0e; stroke: #ff7f0e; stroke-linejoin: miter"/>
     <use xlink:href="#m90218db118" x="238.309091" y="283.845287" style="fill: #ff7f0e; stroke: #ff7f0e; stroke-linejoin: miter"/>
     <use xlink:href="#m90218db118" x="255.218182" y="283.567436" style="fill: #ff7f0e; stroke: #ff7f0e; stroke-linejoin: miter"/>
     <use xlink:href="#m90218db118" x="272.127273" y="284.130888" style="fill: #ff7f0e; stroke: #ff7f0e; stroke-linejoin: miter"/>
     <use xlink:href="#m90218db118" x="289.036364" y="284.339227" style="fill: #ff7f0e; stroke: #ff7f0e; stroke-linejoin: miter"/>
     <use xlink:href="#m90218db118" x="305.945455" y="283.864514" style="fill: #ff7f0e; stroke: #ff7f0e; stroke-linejoin: miter"/>
     <use xlink:href="#m90218db118" x="322.854545" y="284.741622" style="fill: #ff7f0e; stroke: #ff7f0e; stroke-linejoin: miter"/>
     <use xlink:href="#m90218db118" x="339.763636" y="284.143909" style="fill: #ff7f0e; stroke: #ff7f0e; stroke-linejoin: miter"/>
     <use xlink:href="#m90218db118" x="356.672727" y="285.516704" style="fill: #ff7f0e; stroke: #ff7f0e; stroke-linejoin: miter"/>
     <use xlink:href="#m90218db118" x="373.581818" y="282.126943" style="fill: #ff7f0e; stroke: #ff7f0e; stroke-linejoin: miter"/>
    </g>
   </g>
   <g id="line2d_54">
    <defs>
     <path id="m4209fc67e2" d="M 0 -1.5 
L -1.5 1.5 
L 1.5 1.5 
z
" style="stroke: #2ca02c; stroke-linejoin: miter"/>
    </defs>
    <g clip-path="url(#peebba451b4)">
     <use xlink:href="#m4209fc67e2" x="69.218182" y="101.069785" style="fill: #2ca02c; stroke: #2ca02c; stroke-linejoin: miter"/>
     <use xlink:href="#m4209fc67e2" x="86.127273" y="230.051255" style="fill: #2ca02c; stroke: #2ca02c; stroke-linejoin: miter"/>
     <use xlink:href="#m4209fc67e2" x="103.036364" y="280.388383" style="fill: #2ca02c; stroke: #2ca02c; stroke-linejoin: miter"/>
     <use xlink:href="#m4209fc67e2" x="119.945455" y="289.155422" style="fill: #2ca02c; stroke: #2ca02c; stroke-linejoin: miter"/>
     <use xlink:href="#m4209fc67e2" x="136.854545" y="287.009174" style="fill: #2ca02c; stroke: #2ca02c; stroke-linejoin: miter"/>
     <use xlink:href="#m4209fc67e2" x="153.763636" y="285.039241" style="fill: #2ca02c; stroke: #2ca02c; stroke-linejoin: miter"/>
     <use xlink:href="#m4209fc67e2" x="170.672727" y="285.486447" style="fill: #2ca02c; stroke: #2ca02c; stroke-linejoin: miter"/>
     <use xlink:href="#m4209fc67e2" x="187.581818" y="286.106387" style="fill: #2ca02c; stroke: #2ca02c; stroke-linejoin: miter"/>
     <use xlink:href="#m4209fc67e2" x="204.490909" y="284.680678" style="fill: #2ca02c; stroke: #2ca02c; stroke-linejoin: miter"/>
     <use xlink:href="#m4209fc67e2" x="221.4" y="283.852641" style="fill: #2ca02c; stroke: #2ca02c; stroke-linejoin: miter"/>
     <use xlink:href="#m4209fc67e2" x="238.309091" y="283.967564" style="fill: #2ca02c; stroke: #2ca02c; stroke-linejoin: miter"/>
     <use xlink:href="#m4209fc67e2" x="255.218182" y="283.912854" style="fill: #2ca02c; stroke: #2ca02c; stroke-linejoin: miter"/>
     <use xlink:href="#m4209fc67e2" x="272.127273" y="283.877315" style="fill: #2ca02c; stroke: #2ca02c; stroke-linejoin: miter"/>
     <use xlink:href="#m4209fc67e2" x="289.036364" y="283.964924" style="fill: #2ca02c; stroke: #2ca02c; stroke-linejoin: miter"/>
     <use xlink:href="#m4209fc67e2" x="305.945455" y="283.995163" style="fill: #2ca02c; stroke: #2ca02c; stroke-linejoin: miter"/>
     <use xlink:href="#m4209fc67e2" x="322.854545" y="284.493966" style="fill: #2ca02c; stroke: #2ca02c; stroke-linejoin: miter"/>
     <use xlink:href="#m4209fc67e2" x="339.763636" y="284.334113" style="fill: #2ca02c; stroke: #2ca02c; stroke-linejoin: miter"/>
     <use xlink:href="#m4209fc67e2" x="356.672727" y="284.667402" style="fill: #2ca02c; stroke: #2ca02c; stroke-linejoin: miter"/>
     <use xlink:href="#m4209fc67e2" x="373.581818" y="282.310008" style="fill: #2ca02c; stroke: #2ca02c; stroke-linejoin: miter"/>
    </g>
   </g>
   <g id="patch_3">
    <path d="M 54 302.4 
L 54 41.472 
" style="fill: none; stroke: #000000; stroke-width: 0.8; stroke-linejoin: miter; stroke-linecap: square"/>
   </g>
   <g id="patch_4">
    <path d="M 388.8 302.4 
L 388.8 41.472 
" style="fill: none; stroke: #000000; stroke-width: 0.8; stroke-linejoin: miter; stroke-linecap: square"/>
   </g>
   <g id="patch_5">
    <path d="M 54 302.4 
L 388.8 302.4 
" style="fill: none; stroke: #000000; stroke-width: 0.8; stroke-linejoin: miter; stroke-linecap: square"/>
   </g>
   <g id="patch_6">
    <path d="M 54 41.472 
L 388.8 41.472 
" style="fill: none; stroke: #000000; stroke-width: 0.8; stroke-linejoin: miter; stroke-linecap: square"/>
   </g>
   <g id="text_10">
    <!-- $g$, $0 &lt; |\eta^\mathrm{gen}| &lt; 1.3$ -->
    <g transform="translate(302.2 38.550144)scale(0.1 -0.1)">
     <defs>
      <path id="DejaVuSans-Oblique-67" d="M 3816 3500 
L 3219 434 
Q 3047 -456 2561 -893 
Q 2075 -1331 1253 -1331 
Q 950 -1331 690 -1286 
Q 431 -1241 206 -1147 
L 313 -588 
Q 525 -725 762 -790 
Q 1000 -856 1269 -856 
Q 1816 -856 2167 -557 
Q 2519 -259 2631 300 
L 2681 563 
Q 2441 288 2122 144 
Q 1803 0 1434 0 
Q 903 0 598 351 
Q 294 703 294 1319 
Q 294 1803 478 2267 
Q 663 2731 997 3091 
Q 1219 3328 1514 3456 
Q 1809 3584 2131 3584 
Q 2484 3584 2746 3420 
Q 3009 3256 3138 2956 
L 3238 3500 
L 3816 3500 
z
M 2950 2216 
Q 2950 2641 2750 2872 
Q 2550 3103 2181 3103 
Q 1953 3103 1747 3012 
Q 1541 2922 1394 2759 
Q 1156 2491 1023 2127 
Q 891 1763 891 1375 
Q 891 944 1092 712 
Q 1294 481 1672 481 
Q 2219 481 2584 976 
Q 2950 1472 2950 2216 
z
" transform="scale(0.015625)"/>
      <path id="DejaVuSans-2c" d="M 750 794 
L 1409 794 
L 1409 256 
L 897 -744 
L 494 -744 
L 750 256 
L 750 794 
z
" transform="scale(0.015625)"/>
      <path id="DejaVuSans-3c" d="M 4684 3150 
L 1459 2003 
L 4684 863 
L 4684 294 
L 678 1747 
L 678 2266 
L 4684 3719 
L 4684 3150 
z
" transform="scale(0.015625)"/>
      <path id="DejaVuSans-7c" d="M 1344 4891 
L 1344 -1509 
L 813 -1509 
L 813 4891 
L 1344 4891 
z
" transform="scale(0.015625)"/>
      <path id="DejaVuSans-Oblique-3b7" d="M 3703 2113 
L 3034 -1331 
L 2459 -1331 
L 3125 2094 
Q 3222 2591 3075 2838 
Q 2931 3084 2544 3084 
Q 2078 3084 1750 2788 
Q 1425 2491 1325 1978 
L 941 0 
L 363 0 
L 1044 3500 
L 1622 3500 
L 1516 2956 
Q 1781 3272 2094 3428 
Q 2403 3584 2769 3584 
Q 3372 3584 3609 3213 
Q 3844 2838 3703 2113 
z
" transform="scale(0.015625)"/>
     </defs>
     <use xlink:href="#DejaVuSans-Oblique-67" transform="translate(0 0.51875)"/>
     <use xlink:href="#DejaVuSans-2c" transform="translate(63.476562 0.51875)"/>
     <use xlink:href="#DejaVuSans-20" transform="translate(95.263672 0.51875)"/>
     <use xlink:href="#DejaVuSans-30" transform="translate(127.050781 0.51875)"/>
     <use xlink:href="#DejaVuSans-3c" transform="translate(210.15625 0.51875)"/>
     <use xlink:href="#DejaVuSans-7c" transform="translate(313.427734 0.51875)"/>
     <use xlink:href="#DejaVuSans-Oblique-3b7" transform="translate(347.119141 0.51875)"/>
     <use xlink:href="#DejaVuSans-67" transform="translate(415.147943 38.8)scale(0.7)"/>
     <use xlink:href="#DejaVuSans-65" transform="translate(459.581536 38.8)scale(0.7)"/>
     <use xlink:href="#DejaVuSans-6e" transform="translate(502.647943 38.8)scale(0.7)"/>
     <use xlink:href="#DejaVuSans-7c" transform="translate(549.747552 0.51875)"/>
     <use xlink:href="#DejaVuSans-3c" transform="translate(602.92138 0.51875)"/>
     <use xlink:href="#DejaVuSans-31" transform="translate(706.192865 0.51875)"/>
     <use xlink:href="#DejaVuSans-2e" transform="translate(769.815911 0.51875)"/>
     <use xlink:href="#DejaVuSans-33" transform="translate(801.603021 0.51875)"/>
    </g>
   </g>
   <g id="legend_1">
    <g id="patch_7">
     <path d="M 257.897813 114.320125 
L 379 114.320125 
Q 381.8 114.320125 381.8 111.520125 
L 381.8 51.272 
Q 381.8 48.472 379 48.472 
L 257.897813 48.472 
Q 255.097813 48.472 255.097813 51.272 
L 255.097813 111.520125 
Q 255.097813 114.320125 257.897813 114.320125 
z
" style="fill: #ffffff; opacity: 0.8; stroke: #cccccc; stroke-linejoin: miter"/>
    </g>
    <g id="LineCollection_4">
     <path d="M 274.697813 66.809812 
L 274.697813 52.809812 
" style="fill: none; stroke: #1f77b4; stroke-width: 0.8"/>
    </g>
    <g id="line2d_55"/>
    <g id="line2d_56">
     <g>
      <use xlink:href="#m026296af64" x="274.697813" y="59.809812" style="fill: #1f77b4; stroke: #1f77b4"/>
     </g>
    </g>
    <g id="text_11">
     <!-- Baseline -->
     <g transform="translate(299.897813 64.709812)scale(0.14 -0.14)">
      <defs>
       <path id="DejaVuSans-42" d="M 1259 2228 
L 1259 519 
L 2272 519 
Q 2781 519 3026 730 
Q 3272 941 3272 1375 
Q 3272 1813 3026 2020 
Q 2781 2228 2272 2228 
L 1259 2228 
z
M 1259 4147 
L 1259 2741 
L 2194 2741 
Q 2656 2741 2882 2914 
Q 3109 3088 3109 3444 
Q 3109 3797 2882 3972 
Q 2656 4147 2194 4147 
L 1259 4147 
z
M 628 4666 
L 2241 4666 
Q 2963 4666 3353 4366 
Q 3744 4066 3744 3513 
Q 3744 3084 3544 2831 
Q 3344 2578 2956 2516 
Q 3422 2416 3680 2098 
Q 3938 1781 3938 1306 
Q 3938 681 3513 340 
Q 3088 0 2303 0 
L 628 0 
L 628 4666 
z
" transform="scale(0.015625)"/>
       <path id="DejaVuSans-6c" d="M 603 4863 
L 1178 4863 
L 1178 0 
L 603 0 
L 603 4863 
z
" transform="scale(0.015625)"/>
      </defs>
      <use xlink:href="#DejaVuSans-42"/>
      <use xlink:href="#DejaVuSans-61" x="68.603516"/>
      <use xlink:href="#DejaVuSans-73" x="129.882812"/>
      <use xlink:href="#DejaVuSans-65" x="181.982422"/>
      <use xlink:href="#DejaVuSans-6c" x="243.505859"/>
      <use xlink:href="#DejaVuSans-69" x="271.289062"/>
      <use xlink:href="#DejaVuSans-6e" x="299.072266"/>
      <use xlink:href="#DejaVuSans-65" x="362.451172"/>
     </g>
    </g>
    <g id="LineCollection_5">
     <path d="M 274.697813 87.359187 
L 274.697813 73.359187 
" style="fill: none; stroke: #ff7f0e; stroke-width: 0.8"/>
    </g>
    <g id="line2d_57"/>
    <g id="line2d_58">
     <g>
      <use xlink:href="#m90218db118" x="274.697813" y="80.359187" style="fill: #ff7f0e; stroke: #ff7f0e; stroke-linejoin: miter"/>
     </g>
    </g>
    <g id="text_12">
     <!-- PFN -->
     <g transform="translate(299.897813 85.259187)scale(0.14 -0.14)">
      <defs>
       <path id="DejaVuSans-50" d="M 1259 4147 
L 1259 2394 
L 2053 2394 
Q 2494 2394 2734 2622 
Q 2975 2850 2975 3272 
Q 2975 3691 2734 3919 
Q 2494 4147 2053 4147 
L 1259 4147 
z
M 628 4666 
L 2053 4666 
Q 2838 4666 3239 4311 
Q 3641 3956 3641 3272 
Q 3641 2581 3239 2228 
Q 2838 1875 2053 1875 
L 1259 1875 
L 1259 0 
L 628 0 
L 628 4666 
z
" transform="scale(0.015625)"/>
       <path id="DejaVuSans-46" d="M 628 4666 
L 3309 4666 
L 3309 4134 
L 1259 4134 
L 1259 2759 
L 3109 2759 
L 3109 2228 
L 1259 2228 
L 1259 0 
L 628 0 
L 628 4666 
z
" transform="scale(0.015625)"/>
       <path id="DejaVuSans-4e" d="M 628 4666 
L 1478 4666 
L 3547 763 
L 3547 4666 
L 4159 4666 
L 4159 0 
L 3309 0 
L 1241 3903 
L 1241 0 
L 628 0 
L 628 4666 
z
" transform="scale(0.015625)"/>
      </defs>
      <use xlink:href="#DejaVuSans-50"/>
      <use xlink:href="#DejaVuSans-46" x="60.302734"/>
      <use xlink:href="#DejaVuSans-4e" x="117.822266"/>
     </g>
    </g>
    <g id="LineCollection_6">
     <path d="M 274.697813 107.908562 
L 274.697813 93.908562 
" style="fill: none; stroke: #2ca02c; stroke-width: 0.8"/>
    </g>
    <g id="line2d_59"/>
    <g id="line2d_60">
     <g>
      <use xlink:href="#m4209fc67e2" x="274.697813" y="100.908562" style="fill: #2ca02c; stroke: #2ca02c; stroke-linejoin: miter"/>
     </g>
    </g>
    <g id="text_13">
     <!-- ParticleNet -->
     <g transform="translate(299.897813 105.808562)scale(0.14 -0.14)">
      <defs>
       <path id="DejaVuSans-74" d="M 1172 4494 
L 1172 3500 
L 2356 3500 
L 2356 3053 
L 1172 3053 
L 1172 1153 
Q 1172 725 1289 603 
Q 1406 481 1766 481 
L 2356 481 
L 2356 0 
L 1766 0 
Q 1100 0 847 248 
Q 594 497 594 1153 
L 594 3053 
L 172 3053 
L 172 3500 
L 594 3500 
L 594 4494 
L 1172 4494 
z
" transform="scale(0.015625)"/>
       <path id="DejaVuSans-63" d="M 3122 3366 
L 3122 2828 
Q 2878 2963 2633 3030 
Q 2388 3097 2138 3097 
Q 1578 3097 1268 2742 
Q 959 2388 959 1747 
Q 959 1106 1268 751 
Q 1578 397 2138 397 
Q 2388 397 2633 464 
Q 2878 531 3122 666 
L 3122 134 
Q 2881 22 2623 -34 
Q 2366 -91 2075 -91 
Q 1284 -91 818 406 
Q 353 903 353 1747 
Q 353 2603 823 3093 
Q 1294 3584 2113 3584 
Q 2378 3584 2631 3529 
Q 2884 3475 3122 3366 
z
" transform="scale(0.015625)"/>
      </defs>
      <use xlink:href="#DejaVuSans-50"/>
      <use xlink:href="#DejaVuSans-61" x="55.802734"/>
      <use xlink:href="#DejaVuSans-72" x="117.082031"/>
      <use xlink:href="#DejaVuSans-74" x="158.195312"/>
      <use xlink:href="#DejaVuSans-69" x="197.404297"/>
      <use xlink:href="#DejaVuSans-63" x="225.1875"/>
      <use xlink:href="#DejaVuSans-6c" x="280.167969"/>
      <use xlink:href="#DejaVuSans-65" x="307.951172"/>
      <use xlink:href="#DejaVuSans-4e" x="369.474609"/>
      <use xlink:href="#DejaVuSans-65" x="444.279297"/>
      <use xlink:href="#DejaVuSans-74" x="505.802734"/>
     </g>
    </g>
   </g>
  </g>
 </g>
 <defs>
  <clipPath id="peebba451b4">
   <rect x="54" y="41.472" width="334.8" height="260.928"/>
  </clipPath>
 </defs>
</svg>
