<?xml version="1.0" encoding="utf-8" standalone="no"?>
<!DOCTYPE svg PUBLIC "-//W3C//DTD SVG 1.1//EN"
  "http://www.w3.org/Graphics/SVG/1.1/DTD/svg11.dtd">
<svg xmlns:xlink="http://www.w3.org/1999/xlink" width="432pt" height="374.4pt" viewBox="0 0 432 374.4" xmlns="http://www.w3.org/2000/svg" version="1.1">
 <metadata>
  <rdf:RDF xmlns:dc="http://purl.org/dc/elements/1.1/" xmlns:cc="http://creativecommons.org/ns#" xmlns:rdf="http://www.w3.org/1999/02/22-rdf-syntax-ns#">
   <cc:Work>
    <dc:type rdf:resource="http://purl.org/dc/dcmitype/StillImage"/>
    <dc:date>2023-03-10T21:59:01.988933</dc:date>
    <dc:format>image/svg+xml</dc:format>
    <dc:creator>
     <cc:Agent>
      <dc:title>Matplotlib v3.5.2, https://matplotlib.org/</dc:title>
     </cc:Agent>
    </dc:creator>
   </cc:Work>
  </rdf:RDF>
 </metadata>
 <defs>
  <style type="text/css">*{stroke-linejoin: round; stroke-linecap: butt}</style>
 </defs>
 <g id="figure_1">
  <g id="patch_1">
   <path d="M 0 374.4 
L 432 374.4 
L 432 0 
L 0 0 
L 0 374.4 
z
" style="fill: none"/>
  </g>
  <g id="axes_1">
   <g id="patch_2">
    <path d="M 54.674844 319.94 
L 413.823929 319.94 
L 413.823929 29.56 
L 54.674844 29.56 
z
" style="fill: #ffffff"/>
   </g>
   <g id="patch_3">
    <path d="M -227.55657 319.94 
L -227.55657 319.939144 
L -218.201315 319.939144 
L -218.201315 319.94 
L -208.84606 319.94 
L -208.84606 319.94 
L -199.490805 319.94 
L -199.490805 319.939144 
L -190.135551 319.939144 
L -190.135551 319.938289 
L -180.780296 319.938289 
L -180.780296 319.94 
L -171.425041 319.94 
L -171.425041 319.94 
L -162.069786 319.94 
L -162.069786 319.939144 
L -152.714531 319.939144 
L -152.714531 319.938289 
L -143.359276 319.938289 
L -143.359276 319.939144 
L -134.004021 319.939144 
L -134.004021 319.936578 
L -124.648766 319.936578 
L -124.648766 319.936578 
L -115.293511 319.936578 
L -115.293511 319.936578 
L -105.938256 319.936578 
L -105.938256 319.936578 
L -96.583002 319.936578 
L -96.583002 319.934867 
L -87.227747 319.934867 
L -87.227747 319.935722 
L -77.872492 319.935722 
L -77.872492 319.933155 
L -68.517237 319.933155 
L -68.517237 319.934867 
L -59.161982 319.934867 
L -59.161982 319.936578 
L -49.806727 319.936578 
L -49.806727 319.935722 
L -40.451472 319.935722 
L -40.451472 319.935722 
L -31.096217 319.935722 
L -31.096217 319.929733 
L -21.740962 319.929733 
L -21.740962 319.930589 
L -12.385708 319.930589 
L -12.385708 319.935722 
L -3.030453 319.935722 
L -3.030453 319.922888 
L 6.324802 319.922888 
L 6.324802 319.925455 
L 15.680057 319.925455 
L 15.680057 319.926311 
L 25.035312 319.926311 
L 25.035312 319.917755 
L 34.390567 319.917755 
L 34.390567 319.916899 
L 43.745822 319.916899 
L 43.745822 319.904066 
L 53.101077 319.904066 
L 53.101077 319.882676 
L 62.456332 319.882676 
L 62.456332 319.876687 
L 71.811587 319.876687 
L 71.811587 319.844175 
L 81.166841 319.844175 
L 81.166841 319.793696 
L 90.522096 319.793696 
L 90.522096 319.751773 
L 99.877351 319.751773 
L 99.877351 319.669637 
L 109.232606 319.669637 
L 109.232606 319.516488 
L 118.587861 319.516488 
L 118.587861 319.270937 
L 127.943116 319.270937 
L 127.943116 318.930416 
L 137.298371 318.930416 
L 137.298371 318.429902 
L 146.653626 318.429902 
L 146.653626 317.398929 
L 156.008881 317.398929 
L 156.008881 315.667236 
L 165.364136 315.667236 
L 165.364136 313.039751 
L 174.71939 313.039751 
L 174.71939 308.953504 
L 184.074645 308.953504 
L 184.074645 301.293501 
L 193.4299 301.293501 
L 193.4299 286.015418 
L 202.785155 286.015418 
L 202.785155 253.727559 
L 212.14041 253.727559 
L 212.14041 181.965829 
L 221.495665 181.965829 
L 221.495665 71.390736 
L 230.85092 71.390736 
L 230.85092 43.387619 
L 240.206175 43.387619 
L 240.206175 137.094963 
L 249.56143 137.094963 
L 249.56143 226.370405 
L 258.916685 226.370405 
L 258.916685 272.758213 
L 268.271939 272.758213 
L 268.271939 295.49096 
L 277.627194 295.49096 
L 277.627194 306.901824 
L 286.982449 306.901824 
L 286.982449 312.830134 
L 296.337704 312.830134 
L 296.337704 315.873431 
L 305.692959 315.873431 
L 305.692959 317.535822 
L 315.048214 317.535822 
L 315.048214 318.447014 
L 324.403469 318.447014 
L 324.403469 318.855125 
L 333.758724 318.855125 
L 333.758724 319.163989 
L 343.113979 319.163989 
L 343.113979 319.408685 
L 352.469234 319.408685 
L 352.469234 319.577234 
L 361.824488 319.577234 
L 361.824488 319.680759 
L 371.179743 319.680759 
L 371.179743 319.755195 
L 380.534998 319.755195 
L 380.534998 319.820219 
L 389.890253 319.820219 
L 389.890253 319.845886 
L 399.245508 319.845886 
L 399.245508 319.853586 
L 408.600763 319.853586 
L 408.600763 319.879254 
L 417.956018 319.879254 
L 417.956018 319.89551 
L 427.311273 319.89551 
L 427.311273 319.896365 
L 436.666528 319.896365 
L 436.666528 319.904921 
L 446.021783 319.904921 
L 446.021783 319.910055 
L 455.377037 319.910055 
L 455.377037 319.921177 
L 464.732292 319.921177 
L 464.732292 319.920322 
L 474.087547 319.920322 
L 474.087547 319.922033 
L 483.442802 319.922033 
L 483.442802 319.9323 
L 492.798057 319.9323 
L 492.798057 319.926311 
L 502.153312 319.926311 
L 502.153312 319.935722 
L 511.508567 319.935722 
L 511.508567 319.934867 
L 520.863822 319.934867 
L 520.863822 319.934011 
L 530.219077 319.934011 
L 530.219077 319.930589 
L 539.574332 319.930589 
L 539.574332 319.935722 
L 548.929586 319.935722 
L 548.929586 319.934867 
L 558.284841 319.934867 
L 558.284841 319.936578 
L 567.640096 319.936578 
L 567.640096 319.94 
L 576.995351 319.94 
L 576.995351 319.937433 
L 586.350606 319.937433 
L 586.350606 319.936578 
L 595.705861 319.936578 
L 595.705861 319.935722 
L 605.061116 319.935722 
L 605.061116 319.939144 
L 614.416371 319.939144 
L 614.416371 319.939144 
L 623.771626 319.939144 
L 623.771626 319.939144 
L 633.126881 319.939144 
L 633.126881 319.936578 
L 642.482135 319.936578 
L 642.482135 319.94 
L 651.83739 319.94 
L 651.83739 319.94 
L 661.192645 319.94 
L 661.192645 319.94 
L 670.5479 319.94 
L 670.5479 319.94 
L 679.903155 319.94 
L 679.903155 319.94 
L 689.25841 319.94 
L 689.25841 319.94 
L 698.613665 319.94 
L 698.613665 319.939144 
L 707.96892 319.939144 
L 707.96892 319.94 
L 698.613665 319.94 
L 698.613665 319.94 
L 689.25841 319.94 
L 689.25841 319.94 
L 679.903155 319.94 
L 679.903155 319.94 
L 670.5479 319.94 
L 670.5479 319.94 
L 661.192645 319.94 
L 661.192645 319.94 
L 651.83739 319.94 
L 651.83739 319.94 
L 642.482135 319.94 
L 642.482135 319.94 
L 633.126881 319.94 
L 633.126881 319.94 
L 623.771626 319.94 
L 623.771626 319.94 
L 614.416371 319.94 
L 614.416371 319.94 
L 605.061116 319.94 
L 605.061116 319.94 
L 595.705861 319.94 
L 595.705861 319.94 
L 586.350606 319.94 
L 586.350606 319.94 
L 576.995351 319.94 
L 576.995351 319.94 
L 567.640096 319.94 
L 567.640096 319.94 
L 558.284841 319.94 
L 558.284841 319.94 
L 548.929586 319.94 
L 548.929586 319.94 
L 539.574332 319.94 
L 539.574332 319.94 
L 530.219077 319.94 
L 530.219077 319.94 
L 520.863822 319.94 
L 520.863822 319.94 
L 511.508567 319.94 
L 511.508567 319.94 
L 502.153312 319.94 
L 502.153312 319.94 
L 492.798057 319.94 
L 492.798057 319.94 
L 483.442802 319.94 
L 483.442802 319.94 
L 474.087547 319.94 
L 474.087547 319.94 
L 464.732292 319.94 
L 464.732292 319.94 
L 455.377037 319.94 
L 455.377037 319.94 
L 446.021783 319.94 
L 446.021783 319.94 
L 436.666528 319.94 
L 436.666528 319.94 
L 427.311273 319.94 
L 427.311273 319.94 
L 417.956018 319.94 
L 417.956018 319.94 
L 408.600763 319.94 
L 408.600763 319.94 
L 399.245508 319.94 
L 399.245508 319.94 
L 389.890253 319.94 
L 389.890253 319.94 
L 380.534998 319.94 
L 380.534998 319.94 
L 371.179743 319.94 
L 371.179743 319.94 
L 361.824488 319.94 
L 361.824488 319.94 
L 352.469234 319.94 
L 352.469234 319.94 
L 343.113979 319.94 
L 343.113979 319.94 
L 333.758724 319.94 
L 333.758724 319.94 
L 324.403469 319.94 
L 324.403469 319.94 
L 315.048214 319.94 
L 315.048214 319.94 
L 305.692959 319.94 
L 305.692959 319.94 
L 296.337704 319.94 
L 296.337704 319.94 
L 286.982449 319.94 
L 286.982449 319.94 
L 277.627194 319.94 
L 277.627194 319.94 
L 268.271939 319.94 
L 268.271939 319.94 
L 258.916685 319.94 
L 258.916685 319.94 
L 249.56143 319.94 
L 249.56143 319.94 
L 240.206175 319.94 
L 240.206175 319.94 
L 230.85092 319.94 
L 230.85092 319.94 
L 221.495665 319.94 
L 221.495665 319.94 
L 212.14041 319.94 
L 212.14041 319.94 
L 202.785155 319.94 
L 202.785155 319.94 
L 193.4299 319.94 
L 193.4299 319.94 
L 184.074645 319.94 
L 184.074645 319.94 
L 174.71939 319.94 
L 174.71939 319.94 
L 165.364136 319.94 
L 165.364136 319.94 
L 156.008881 319.94 
L 156.008881 319.94 
L 146.653626 319.94 
L 146.653626 319.94 
L 137.298371 319.94 
L 137.298371 319.94 
L 127.943116 319.94 
L 127.943116 319.94 
L 118.587861 319.94 
L 118.587861 319.94 
L 109.232606 319.94 
L 109.232606 319.94 
L 99.877351 319.94 
L 99.877351 319.94 
L 90.522096 319.94 
L 90.522096 319.94 
L 81.166841 319.94 
L 81.166841 319.94 
L 71.811587 319.94 
L 71.811587 319.94 
L 62.456332 319.94 
L 62.456332 319.94 
L 53.101077 319.94 
L 53.101077 319.94 
L 43.745822 319.94 
L 43.745822 319.94 
L 34.390567 319.94 
L 34.390567 319.94 
L 25.035312 319.94 
L 25.035312 319.94 
L 15.680057 319.94 
L 15.680057 319.94 
L 6.324802 319.94 
L 6.324802 319.94 
L -3.030453 319.94 
L -3.030453 319.94 
L -12.385708 319.94 
L -12.385708 319.94 
L -21.740962 319.94 
L -21.740962 319.94 
L -31.096217 319.94 
L -31.096217 319.94 
L -40.451472 319.94 
L -40.451472 319.94 
L -49.806727 319.94 
L -49.806727 319.94 
L -59.161982 319.94 
L -59.161982 319.94 
L -68.517237 319.94 
L -68.517237 319.94 
L -77.872492 319.94 
L -77.872492 319.94 
L -87.227747 319.94 
L -87.227747 319.94 
L -96.583002 319.94 
L -96.583002 319.94 
L -105.938256 319.94 
L -105.938256 319.94 
L -115.293511 319.94 
L -115.293511 319.94 
L -124.648766 319.94 
L -124.648766 319.94 
L -134.004021 319.94 
L -134.004021 319.94 
L -143.359276 319.94 
L -143.359276 319.94 
L -152.714531 319.94 
L -152.714531 319.94 
L -162.069786 319.94 
L -162.069786 319.94 
L -171.425041 319.94 
L -171.425041 319.94 
L -180.780296 319.94 
L -180.780296 319.94 
L -190.135551 319.94 
L -190.135551 319.94 
L -199.490805 319.94 
L -199.490805 319.94 
L -208.84606 319.94 
L -208.84606 319.94 
L -218.201315 319.94 
L -218.201315 319.94 
z
" clip-path="url(#p4a6c541a3e)" style="fill: url(#h67318651b7); stroke: #1f77b4; stroke-width: 2; stroke-linejoin: miter"/>
   </g>
   <g id="matplotlib.axis_1">
    <g id="xtick_1">
     <g id="line2d_1">
      <defs>
       <path id="m5ff2fe4e72" d="M 0 0 
L 0 -5 
" style="stroke: #000000; stroke-width: 1.2"/>
      </defs>
      <g>
       <use xlink:href="#m5ff2fe4e72" x="63.226012" y="319.94" style="stroke: #000000; stroke-width: 1.2"/>
      </g>
     </g>
     <g id="line2d_2">
      <defs>
       <path id="me473958a3f" d="M 0 0 
L 0 5 
" style="stroke: #000000; stroke-width: 1.2"/>
      </defs>
      <g>
       <use xlink:href="#me473958a3f" x="63.226012" y="29.56" style="stroke: #000000; stroke-width: 1.2"/>
      </g>
     </g>
     <g id="text_1">
      <!-- −1.00 -->
      <g transform="translate(44.838825 332.558125)scale(0.12 -0.12)">
       <defs>
        <path id="DejaVuSans-2212" d="M 678 2272 
L 4684 2272 
L 4684 1741 
L 678 1741 
L 678 2272 
z
" transform="scale(0.015625)"/>
        <path id="DejaVuSans-31" d="M 794 531 
L 1825 531 
L 1825 4091 
L 703 3866 
L 703 4441 
L 1819 4666 
L 2450 4666 
L 2450 531 
L 3481 531 
L 3481 0 
L 794 0 
L 794 531 
z
" transform="scale(0.015625)"/>
        <path id="DejaVuSans-2e" d="M 684 794 
L 1344 794 
L 1344 0 
L 684 0 
L 684 794 
z
" transform="scale(0.015625)"/>
        <path id="DejaVuSans-30" d="M 2034 4250 
Q 1547 4250 1301 3770 
Q 1056 3291 1056 2328 
Q 1056 1369 1301 889 
Q 1547 409 2034 409 
Q 2525 409 2770 889 
Q 3016 1369 3016 2328 
Q 3016 3291 2770 3770 
Q 2525 4250 2034 4250 
z
M 2034 4750 
Q 2819 4750 3233 4129 
Q 3647 3509 3647 2328 
Q 3647 1150 3233 529 
Q 2819 -91 2034 -91 
Q 1250 -91 836 529 
Q 422 1150 422 2328 
Q 422 3509 836 4129 
Q 1250 4750 2034 4750 
z
" transform="scale(0.015625)"/>
       </defs>
       <use xlink:href="#DejaVuSans-2212"/>
       <use xlink:href="#DejaVuSans-31" x="83.789062"/>
       <use xlink:href="#DejaVuSans-2e" x="147.412109"/>
       <use xlink:href="#DejaVuSans-30" x="179.199219"/>
       <use xlink:href="#DejaVuSans-30" x="242.822266"/>
      </g>
     </g>
    </g>
    <g id="xtick_2">
     <g id="line2d_3">
      <g>
       <use xlink:href="#m5ff2fe4e72" x="105.981856" y="319.94" style="stroke: #000000; stroke-width: 1.2"/>
      </g>
     </g>
     <g id="line2d_4">
      <g>
       <use xlink:href="#me473958a3f" x="105.981856" y="29.56" style="stroke: #000000; stroke-width: 1.2"/>
      </g>
     </g>
     <g id="text_2">
      <!-- −0.75 -->
      <g transform="translate(87.594668 332.558125)scale(0.12 -0.12)">
       <defs>
        <path id="DejaVuSans-37" d="M 525 4666 
L 3525 4666 
L 3525 4397 
L 1831 0 
L 1172 0 
L 2766 4134 
L 525 4134 
L 525 4666 
z
" transform="scale(0.015625)"/>
        <path id="DejaVuSans-35" d="M 691 4666 
L 3169 4666 
L 3169 4134 
L 1269 4134 
L 1269 2991 
Q 1406 3038 1543 3061 
Q 1681 3084 1819 3084 
Q 2600 3084 3056 2656 
Q 3513 2228 3513 1497 
Q 3513 744 3044 326 
Q 2575 -91 1722 -91 
Q 1428 -91 1123 -41 
Q 819 9 494 109 
L 494 744 
Q 775 591 1075 516 
Q 1375 441 1709 441 
Q 2250 441 2565 725 
Q 2881 1009 2881 1497 
Q 2881 1984 2565 2268 
Q 2250 2553 1709 2553 
Q 1456 2553 1204 2497 
Q 953 2441 691 2322 
L 691 4666 
z
" transform="scale(0.015625)"/>
       </defs>
       <use xlink:href="#DejaVuSans-2212"/>
       <use xlink:href="#DejaVuSans-30" x="83.789062"/>
       <use xlink:href="#DejaVuSans-2e" x="147.412109"/>
       <use xlink:href="#DejaVuSans-37" x="179.199219"/>
       <use xlink:href="#DejaVuSans-35" x="242.822266"/>
      </g>
     </g>
    </g>
    <g id="xtick_3">
     <g id="line2d_5">
      <g>
       <use xlink:href="#m5ff2fe4e72" x="148.737699" y="319.94" style="stroke: #000000; stroke-width: 1.2"/>
      </g>
     </g>
     <g id="line2d_6">
      <g>
       <use xlink:href="#me473958a3f" x="148.737699" y="29.56" style="stroke: #000000; stroke-width: 1.2"/>
      </g>
     </g>
     <g id="text_3">
      <!-- −0.50 -->
      <g transform="translate(130.350512 332.558125)scale(0.12 -0.12)">
       <use xlink:href="#DejaVuSans-2212"/>
       <use xlink:href="#DejaVuSans-30" x="83.789062"/>
       <use xlink:href="#DejaVuSans-2e" x="147.412109"/>
       <use xlink:href="#DejaVuSans-35" x="179.199219"/>
       <use xlink:href="#DejaVuSans-30" x="242.822266"/>
      </g>
     </g>
    </g>
    <g id="xtick_4">
     <g id="line2d_7">
      <g>
       <use xlink:href="#m5ff2fe4e72" x="191.493543" y="319.94" style="stroke: #000000; stroke-width: 1.2"/>
      </g>
     </g>
     <g id="line2d_8">
      <g>
       <use xlink:href="#me473958a3f" x="191.493543" y="29.56" style="stroke: #000000; stroke-width: 1.2"/>
      </g>
     </g>
     <g id="text_4">
      <!-- −0.25 -->
      <g transform="translate(173.106355 332.558125)scale(0.12 -0.12)">
       <defs>
        <path id="DejaVuSans-32" d="M 1228 531 
L 3431 531 
L 3431 0 
L 469 0 
L 469 531 
Q 828 903 1448 1529 
Q 2069 2156 2228 2338 
Q 2531 2678 2651 2914 
Q 2772 3150 2772 3378 
Q 2772 3750 2511 3984 
Q 2250 4219 1831 4219 
Q 1534 4219 1204 4116 
Q 875 4013 500 3803 
L 500 4441 
Q 881 4594 1212 4672 
Q 1544 4750 1819 4750 
Q 2544 4750 2975 4387 
Q 3406 4025 3406 3419 
Q 3406 3131 3298 2873 
Q 3191 2616 2906 2266 
Q 2828 2175 2409 1742 
Q 1991 1309 1228 531 
z
" transform="scale(0.015625)"/>
       </defs>
       <use xlink:href="#DejaVuSans-2212"/>
       <use xlink:href="#DejaVuSans-30" x="83.789062"/>
       <use xlink:href="#DejaVuSans-2e" x="147.412109"/>
       <use xlink:href="#DejaVuSans-32" x="179.199219"/>
       <use xlink:href="#DejaVuSans-35" x="242.822266"/>
      </g>
     </g>
    </g>
    <g id="xtick_5">
     <g id="line2d_9">
      <g>
       <use xlink:href="#m5ff2fe4e72" x="234.249386" y="319.94" style="stroke: #000000; stroke-width: 1.2"/>
      </g>
     </g>
     <g id="line2d_10">
      <g>
       <use xlink:href="#me473958a3f" x="234.249386" y="29.56" style="stroke: #000000; stroke-width: 1.2"/>
      </g>
     </g>
     <g id="text_5">
      <!-- 0.00 -->
      <g transform="translate(220.890011 332.558125)scale(0.12 -0.12)">
       <use xlink:href="#DejaVuSans-30"/>
       <use xlink:href="#DejaVuSans-2e" x="63.623047"/>
       <use xlink:href="#DejaVuSans-30" x="95.410156"/>
       <use xlink:href="#DejaVuSans-30" x="159.033203"/>
      </g>
     </g>
    </g>
    <g id="xtick_6">
     <g id="line2d_11">
      <g>
       <use xlink:href="#m5ff2fe4e72" x="277.00523" y="319.94" style="stroke: #000000; stroke-width: 1.2"/>
      </g>
     </g>
     <g id="line2d_12">
      <g>
       <use xlink:href="#me473958a3f" x="277.00523" y="29.56" style="stroke: #000000; stroke-width: 1.2"/>
      </g>
     </g>
     <g id="text_6">
      <!-- 0.25 -->
      <g transform="translate(263.645855 332.558125)scale(0.12 -0.12)">
       <use xlink:href="#DejaVuSans-30"/>
       <use xlink:href="#DejaVuSans-2e" x="63.623047"/>
       <use xlink:href="#DejaVuSans-32" x="95.410156"/>
       <use xlink:href="#DejaVuSans-35" x="159.033203"/>
      </g>
     </g>
    </g>
    <g id="xtick_7">
     <g id="line2d_13">
      <g>
       <use xlink:href="#m5ff2fe4e72" x="319.761073" y="319.94" style="stroke: #000000; stroke-width: 1.2"/>
      </g>
     </g>
     <g id="line2d_14">
      <g>
       <use xlink:href="#me473958a3f" x="319.761073" y="29.56" style="stroke: #000000; stroke-width: 1.2"/>
      </g>
     </g>
     <g id="text_7">
      <!-- 0.50 -->
      <g transform="translate(306.401698 332.558125)scale(0.12 -0.12)">
       <use xlink:href="#DejaVuSans-30"/>
       <use xlink:href="#DejaVuSans-2e" x="63.623047"/>
       <use xlink:href="#DejaVuSans-35" x="95.410156"/>
       <use xlink:href="#DejaVuSans-30" x="159.033203"/>
      </g>
     </g>
    </g>
    <g id="xtick_8">
     <g id="line2d_15">
      <g>
       <use xlink:href="#m5ff2fe4e72" x="362.516916" y="319.94" style="stroke: #000000; stroke-width: 1.2"/>
      </g>
     </g>
     <g id="line2d_16">
      <g>
       <use xlink:href="#me473958a3f" x="362.516916" y="29.56" style="stroke: #000000; stroke-width: 1.2"/>
      </g>
     </g>
     <g id="text_8">
      <!-- 0.75 -->
      <g transform="translate(349.157541 332.558125)scale(0.12 -0.12)">
       <use xlink:href="#DejaVuSans-30"/>
       <use xlink:href="#DejaVuSans-2e" x="63.623047"/>
       <use xlink:href="#DejaVuSans-37" x="95.410156"/>
       <use xlink:href="#DejaVuSans-35" x="159.033203"/>
      </g>
     </g>
    </g>
    <g id="xtick_9">
     <g id="line2d_17">
      <g>
       <use xlink:href="#m5ff2fe4e72" x="405.27276" y="319.94" style="stroke: #000000; stroke-width: 1.2"/>
      </g>
     </g>
     <g id="line2d_18">
      <g>
       <use xlink:href="#me473958a3f" x="405.27276" y="29.56" style="stroke: #000000; stroke-width: 1.2"/>
      </g>
     </g>
     <g id="text_9">
      <!-- 1.00 -->
      <g transform="translate(391.913385 332.558125)scale(0.12 -0.12)">
       <use xlink:href="#DejaVuSans-31"/>
       <use xlink:href="#DejaVuSans-2e" x="63.623047"/>
       <use xlink:href="#DejaVuSans-30" x="95.410156"/>
       <use xlink:href="#DejaVuSans-30" x="159.033203"/>
      </g>
     </g>
    </g>
    <g id="xtick_10">
     <g id="line2d_19">
      <defs>
       <path id="m18314c993f" d="M 0 0 
L 0 -2 
" style="stroke: #000000; stroke-width: 1.2"/>
      </defs>
      <g>
       <use xlink:href="#m18314c993f" x="54.674844" y="319.94" style="stroke: #000000; stroke-width: 1.2"/>
      </g>
     </g>
     <g id="line2d_20">
      <defs>
       <path id="m933ca9a761" d="M 0 0 
L 0 2 
" style="stroke: #000000; stroke-width: 1.2"/>
      </defs>
      <g>
       <use xlink:href="#m933ca9a761" x="54.674844" y="29.56" style="stroke: #000000; stroke-width: 1.2"/>
      </g>
     </g>
    </g>
    <g id="xtick_11">
     <g id="line2d_21">
      <g>
       <use xlink:href="#m18314c993f" x="71.777181" y="319.94" style="stroke: #000000; stroke-width: 1.2"/>
      </g>
     </g>
     <g id="line2d_22">
      <g>
       <use xlink:href="#m933ca9a761" x="71.777181" y="29.56" style="stroke: #000000; stroke-width: 1.2"/>
      </g>
     </g>
    </g>
    <g id="xtick_12">
     <g id="line2d_23">
      <g>
       <use xlink:href="#m18314c993f" x="80.32835" y="319.94" style="stroke: #000000; stroke-width: 1.2"/>
      </g>
     </g>
     <g id="line2d_24">
      <g>
       <use xlink:href="#m933ca9a761" x="80.32835" y="29.56" style="stroke: #000000; stroke-width: 1.2"/>
      </g>
     </g>
    </g>
    <g id="xtick_13">
     <g id="line2d_25">
      <g>
       <use xlink:href="#m18314c993f" x="88.879518" y="319.94" style="stroke: #000000; stroke-width: 1.2"/>
      </g>
     </g>
     <g id="line2d_26">
      <g>
       <use xlink:href="#m933ca9a761" x="88.879518" y="29.56" style="stroke: #000000; stroke-width: 1.2"/>
      </g>
     </g>
    </g>
    <g id="xtick_14">
     <g id="line2d_27">
      <g>
       <use xlink:href="#m18314c993f" x="97.430687" y="319.94" style="stroke: #000000; stroke-width: 1.2"/>
      </g>
     </g>
     <g id="line2d_28">
      <g>
       <use xlink:href="#m933ca9a761" x="97.430687" y="29.56" style="stroke: #000000; stroke-width: 1.2"/>
      </g>
     </g>
    </g>
    <g id="xtick_15">
     <g id="line2d_29">
      <g>
       <use xlink:href="#m18314c993f" x="114.533025" y="319.94" style="stroke: #000000; stroke-width: 1.2"/>
      </g>
     </g>
     <g id="line2d_30">
      <g>
       <use xlink:href="#m933ca9a761" x="114.533025" y="29.56" style="stroke: #000000; stroke-width: 1.2"/>
      </g>
     </g>
    </g>
    <g id="xtick_16">
     <g id="line2d_31">
      <g>
       <use xlink:href="#m18314c993f" x="123.084193" y="319.94" style="stroke: #000000; stroke-width: 1.2"/>
      </g>
     </g>
     <g id="line2d_32">
      <g>
       <use xlink:href="#m933ca9a761" x="123.084193" y="29.56" style="stroke: #000000; stroke-width: 1.2"/>
      </g>
     </g>
    </g>
    <g id="xtick_17">
     <g id="line2d_33">
      <g>
       <use xlink:href="#m18314c993f" x="131.635362" y="319.94" style="stroke: #000000; stroke-width: 1.2"/>
      </g>
     </g>
     <g id="line2d_34">
      <g>
       <use xlink:href="#m933ca9a761" x="131.635362" y="29.56" style="stroke: #000000; stroke-width: 1.2"/>
      </g>
     </g>
    </g>
    <g id="xtick_18">
     <g id="line2d_35">
      <g>
       <use xlink:href="#m18314c993f" x="140.186531" y="319.94" style="stroke: #000000; stroke-width: 1.2"/>
      </g>
     </g>
     <g id="line2d_36">
      <g>
       <use xlink:href="#m933ca9a761" x="140.186531" y="29.56" style="stroke: #000000; stroke-width: 1.2"/>
      </g>
     </g>
    </g>
    <g id="xtick_19">
     <g id="line2d_37">
      <g>
       <use xlink:href="#m18314c993f" x="157.288868" y="319.94" style="stroke: #000000; stroke-width: 1.2"/>
      </g>
     </g>
     <g id="line2d_38">
      <g>
       <use xlink:href="#m933ca9a761" x="157.288868" y="29.56" style="stroke: #000000; stroke-width: 1.2"/>
      </g>
     </g>
    </g>
    <g id="xtick_20">
     <g id="line2d_39">
      <g>
       <use xlink:href="#m18314c993f" x="165.840037" y="319.94" style="stroke: #000000; stroke-width: 1.2"/>
      </g>
     </g>
     <g id="line2d_40">
      <g>
       <use xlink:href="#m933ca9a761" x="165.840037" y="29.56" style="stroke: #000000; stroke-width: 1.2"/>
      </g>
     </g>
    </g>
    <g id="xtick_21">
     <g id="line2d_41">
      <g>
       <use xlink:href="#m18314c993f" x="174.391205" y="319.94" style="stroke: #000000; stroke-width: 1.2"/>
      </g>
     </g>
     <g id="line2d_42">
      <g>
       <use xlink:href="#m933ca9a761" x="174.391205" y="29.56" style="stroke: #000000; stroke-width: 1.2"/>
      </g>
     </g>
    </g>
    <g id="xtick_22">
     <g id="line2d_43">
      <g>
       <use xlink:href="#m18314c993f" x="182.942374" y="319.94" style="stroke: #000000; stroke-width: 1.2"/>
      </g>
     </g>
     <g id="line2d_44">
      <g>
       <use xlink:href="#m933ca9a761" x="182.942374" y="29.56" style="stroke: #000000; stroke-width: 1.2"/>
      </g>
     </g>
    </g>
    <g id="xtick_23">
     <g id="line2d_45">
      <g>
       <use xlink:href="#m18314c993f" x="200.044711" y="319.94" style="stroke: #000000; stroke-width: 1.2"/>
      </g>
     </g>
     <g id="line2d_46">
      <g>
       <use xlink:href="#m933ca9a761" x="200.044711" y="29.56" style="stroke: #000000; stroke-width: 1.2"/>
      </g>
     </g>
    </g>
    <g id="xtick_24">
     <g id="line2d_47">
      <g>
       <use xlink:href="#m18314c993f" x="208.59588" y="319.94" style="stroke: #000000; stroke-width: 1.2"/>
      </g>
     </g>
     <g id="line2d_48">
      <g>
       <use xlink:href="#m933ca9a761" x="208.59588" y="29.56" style="stroke: #000000; stroke-width: 1.2"/>
      </g>
     </g>
    </g>
    <g id="xtick_25">
     <g id="line2d_49">
      <g>
       <use xlink:href="#m18314c993f" x="217.147049" y="319.94" style="stroke: #000000; stroke-width: 1.2"/>
      </g>
     </g>
     <g id="line2d_50">
      <g>
       <use xlink:href="#m933ca9a761" x="217.147049" y="29.56" style="stroke: #000000; stroke-width: 1.2"/>
      </g>
     </g>
    </g>
    <g id="xtick_26">
     <g id="line2d_51">
      <g>
       <use xlink:href="#m18314c993f" x="225.698217" y="319.94" style="stroke: #000000; stroke-width: 1.2"/>
      </g>
     </g>
     <g id="line2d_52">
      <g>
       <use xlink:href="#m933ca9a761" x="225.698217" y="29.56" style="stroke: #000000; stroke-width: 1.2"/>
      </g>
     </g>
    </g>
    <g id="xtick_27">
     <g id="line2d_53">
      <g>
       <use xlink:href="#m18314c993f" x="242.800555" y="319.94" style="stroke: #000000; stroke-width: 1.2"/>
      </g>
     </g>
     <g id="line2d_54">
      <g>
       <use xlink:href="#m933ca9a761" x="242.800555" y="29.56" style="stroke: #000000; stroke-width: 1.2"/>
      </g>
     </g>
    </g>
    <g id="xtick_28">
     <g id="line2d_55">
      <g>
       <use xlink:href="#m18314c993f" x="251.351724" y="319.94" style="stroke: #000000; stroke-width: 1.2"/>
      </g>
     </g>
     <g id="line2d_56">
      <g>
       <use xlink:href="#m933ca9a761" x="251.351724" y="29.56" style="stroke: #000000; stroke-width: 1.2"/>
      </g>
     </g>
    </g>
    <g id="xtick_29">
     <g id="line2d_57">
      <g>
       <use xlink:href="#m18314c993f" x="259.902892" y="319.94" style="stroke: #000000; stroke-width: 1.2"/>
      </g>
     </g>
     <g id="line2d_58">
      <g>
       <use xlink:href="#m933ca9a761" x="259.902892" y="29.56" style="stroke: #000000; stroke-width: 1.2"/>
      </g>
     </g>
    </g>
    <g id="xtick_30">
     <g id="line2d_59">
      <g>
       <use xlink:href="#m18314c993f" x="268.454061" y="319.94" style="stroke: #000000; stroke-width: 1.2"/>
      </g>
     </g>
     <g id="line2d_60">
      <g>
       <use xlink:href="#m933ca9a761" x="268.454061" y="29.56" style="stroke: #000000; stroke-width: 1.2"/>
      </g>
     </g>
    </g>
    <g id="xtick_31">
     <g id="line2d_61">
      <g>
       <use xlink:href="#m18314c993f" x="285.556398" y="319.94" style="stroke: #000000; stroke-width: 1.2"/>
      </g>
     </g>
     <g id="line2d_62">
      <g>
       <use xlink:href="#m933ca9a761" x="285.556398" y="29.56" style="stroke: #000000; stroke-width: 1.2"/>
      </g>
     </g>
    </g>
    <g id="xtick_32">
     <g id="line2d_63">
      <g>
       <use xlink:href="#m18314c993f" x="294.107567" y="319.94" style="stroke: #000000; stroke-width: 1.2"/>
      </g>
     </g>
     <g id="line2d_64">
      <g>
       <use xlink:href="#m933ca9a761" x="294.107567" y="29.56" style="stroke: #000000; stroke-width: 1.2"/>
      </g>
     </g>
    </g>
    <g id="xtick_33">
     <g id="line2d_65">
      <g>
       <use xlink:href="#m18314c993f" x="302.658736" y="319.94" style="stroke: #000000; stroke-width: 1.2"/>
      </g>
     </g>
     <g id="line2d_66">
      <g>
       <use xlink:href="#m933ca9a761" x="302.658736" y="29.56" style="stroke: #000000; stroke-width: 1.2"/>
      </g>
     </g>
    </g>
    <g id="xtick_34">
     <g id="line2d_67">
      <g>
       <use xlink:href="#m18314c993f" x="311.209904" y="319.94" style="stroke: #000000; stroke-width: 1.2"/>
      </g>
     </g>
     <g id="line2d_68">
      <g>
       <use xlink:href="#m933ca9a761" x="311.209904" y="29.56" style="stroke: #000000; stroke-width: 1.2"/>
      </g>
     </g>
    </g>
    <g id="xtick_35">
     <g id="line2d_69">
      <g>
       <use xlink:href="#m18314c993f" x="328.312242" y="319.94" style="stroke: #000000; stroke-width: 1.2"/>
      </g>
     </g>
     <g id="line2d_70">
      <g>
       <use xlink:href="#m933ca9a761" x="328.312242" y="29.56" style="stroke: #000000; stroke-width: 1.2"/>
      </g>
     </g>
    </g>
    <g id="xtick_36">
     <g id="line2d_71">
      <g>
       <use xlink:href="#m18314c993f" x="336.86341" y="319.94" style="stroke: #000000; stroke-width: 1.2"/>
      </g>
     </g>
     <g id="line2d_72">
      <g>
       <use xlink:href="#m933ca9a761" x="336.86341" y="29.56" style="stroke: #000000; stroke-width: 1.2"/>
      </g>
     </g>
    </g>
    <g id="xtick_37">
     <g id="line2d_73">
      <g>
       <use xlink:href="#m18314c993f" x="345.414579" y="319.94" style="stroke: #000000; stroke-width: 1.2"/>
      </g>
     </g>
     <g id="line2d_74">
      <g>
       <use xlink:href="#m933ca9a761" x="345.414579" y="29.56" style="stroke: #000000; stroke-width: 1.2"/>
      </g>
     </g>
    </g>
    <g id="xtick_38">
     <g id="line2d_75">
      <g>
       <use xlink:href="#m18314c993f" x="353.965748" y="319.94" style="stroke: #000000; stroke-width: 1.2"/>
      </g>
     </g>
     <g id="line2d_76">
      <g>
       <use xlink:href="#m933ca9a761" x="353.965748" y="29.56" style="stroke: #000000; stroke-width: 1.2"/>
      </g>
     </g>
    </g>
    <g id="xtick_39">
     <g id="line2d_77">
      <g>
       <use xlink:href="#m18314c993f" x="371.068085" y="319.94" style="stroke: #000000; stroke-width: 1.2"/>
      </g>
     </g>
     <g id="line2d_78">
      <g>
       <use xlink:href="#m933ca9a761" x="371.068085" y="29.56" style="stroke: #000000; stroke-width: 1.2"/>
      </g>
     </g>
    </g>
    <g id="xtick_40">
     <g id="line2d_79">
      <g>
       <use xlink:href="#m18314c993f" x="379.619254" y="319.94" style="stroke: #000000; stroke-width: 1.2"/>
      </g>
     </g>
     <g id="line2d_80">
      <g>
       <use xlink:href="#m933ca9a761" x="379.619254" y="29.56" style="stroke: #000000; stroke-width: 1.2"/>
      </g>
     </g>
    </g>
    <g id="xtick_41">
     <g id="line2d_81">
      <g>
       <use xlink:href="#m18314c993f" x="388.170423" y="319.94" style="stroke: #000000; stroke-width: 1.2"/>
      </g>
     </g>
     <g id="line2d_82">
      <g>
       <use xlink:href="#m933ca9a761" x="388.170423" y="29.56" style="stroke: #000000; stroke-width: 1.2"/>
      </g>
     </g>
    </g>
    <g id="xtick_42">
     <g id="line2d_83">
      <g>
       <use xlink:href="#m18314c993f" x="396.721591" y="319.94" style="stroke: #000000; stroke-width: 1.2"/>
      </g>
     </g>
     <g id="line2d_84">
      <g>
       <use xlink:href="#m933ca9a761" x="396.721591" y="29.56" style="stroke: #000000; stroke-width: 1.2"/>
      </g>
     </g>
    </g>
    <g id="text_10">
     <!-- $\log \left( p_T^\mathrm{gen} / p_T^\mathrm{reco} \right)$ -->
     <g transform="translate(183.919386 351.65375)scale(0.14 -0.14)">
      <defs>
       <path id="DejaVuSans-6c" d="M 603 4863 
L 1178 4863 
L 1178 0 
L 603 0 
L 603 4863 
z
" transform="scale(0.015625)"/>
       <path id="DejaVuSans-6f" d="M 1959 3097 
Q 1497 3097 1228 2736 
Q 959 2375 959 1747 
Q 959 1119 1226 758 
Q 1494 397 1959 397 
Q 2419 397 2687 759 
Q 2956 1122 2956 1747 
Q 2956 2369 2687 2733 
Q 2419 3097 1959 3097 
z
M 1959 3584 
Q 2709 3584 3137 3096 
Q 3566 2609 3566 1747 
Q 3566 888 3137 398 
Q 2709 -91 1959 -91 
Q 1206 -91 779 398 
Q 353 888 353 1747 
Q 353 2609 779 3096 
Q 1206 3584 1959 3584 
z
" transform="scale(0.015625)"/>
       <path id="DejaVuSans-67" d="M 2906 1791 
Q 2906 2416 2648 2759 
Q 2391 3103 1925 3103 
Q 1463 3103 1205 2759 
Q 947 2416 947 1791 
Q 947 1169 1205 825 
Q 1463 481 1925 481 
Q 2391 481 2648 825 
Q 2906 1169 2906 1791 
z
M 3481 434 
Q 3481 -459 3084 -895 
Q 2688 -1331 1869 -1331 
Q 1566 -1331 1297 -1286 
Q 1028 -1241 775 -1147 
L 775 -588 
Q 1028 -725 1275 -790 
Q 1522 -856 1778 -856 
Q 2344 -856 2625 -561 
Q 2906 -266 2906 331 
L 2906 616 
Q 2728 306 2450 153 
Q 2172 0 1784 0 
Q 1141 0 747 490 
Q 353 981 353 1791 
Q 353 2603 747 3093 
Q 1141 3584 1784 3584 
Q 2172 3584 2450 3431 
Q 2728 3278 2906 2969 
L 2906 3500 
L 3481 3500 
L 3481 434 
z
" transform="scale(0.015625)"/>
       <path id="STIXSizeOneSym-Regular-28" d="M 2445 -858 
L 2445 -1050 
Q 1728 -371 1309 630 
Q 890 1632 890 2886 
Q 890 4122 1309 5136 
Q 1728 6150 2445 6822 
L 2445 6630 
Q 1408 5363 1408 2886 
Q 1408 410 2445 -858 
z
" transform="scale(0.015625)"/>
       <path id="DejaVuSans-Oblique-70" d="M 3175 2156 
Q 3175 2616 2975 2859 
Q 2775 3103 2400 3103 
Q 2144 3103 1911 2972 
Q 1678 2841 1497 2591 
Q 1319 2344 1212 1994 
Q 1106 1644 1106 1300 
Q 1106 863 1306 627 
Q 1506 391 1875 391 
Q 2147 391 2380 519 
Q 2613 647 2778 891 
Q 2956 1147 3065 1494 
Q 3175 1841 3175 2156 
z
M 1394 2969 
Q 1625 3272 1939 3428 
Q 2253 3584 2638 3584 
Q 3175 3584 3472 3232 
Q 3769 2881 3769 2247 
Q 3769 1728 3584 1258 
Q 3400 788 3053 416 
Q 2822 169 2531 39 
Q 2241 -91 1919 -91 
Q 1547 -91 1294 64 
Q 1041 219 916 525 
L 556 -1331 
L -19 -1331 
L 922 3500 
L 1497 3500 
L 1394 2969 
z
" transform="scale(0.015625)"/>
       <path id="DejaVuSans-65" d="M 3597 1894 
L 3597 1613 
L 953 1613 
Q 991 1019 1311 708 
Q 1631 397 2203 397 
Q 2534 397 2845 478 
Q 3156 559 3463 722 
L 3463 178 
Q 3153 47 2828 -22 
Q 2503 -91 2169 -91 
Q 1331 -91 842 396 
Q 353 884 353 1716 
Q 353 2575 817 3079 
Q 1281 3584 2069 3584 
Q 2775 3584 3186 3129 
Q 3597 2675 3597 1894 
z
M 3022 2063 
Q 3016 2534 2758 2815 
Q 2500 3097 2075 3097 
Q 1594 3097 1305 2825 
Q 1016 2553 972 2059 
L 3022 2063 
z
" transform="scale(0.015625)"/>
       <path id="DejaVuSans-6e" d="M 3513 2113 
L 3513 0 
L 2938 0 
L 2938 2094 
Q 2938 2591 2744 2837 
Q 2550 3084 2163 3084 
Q 1697 3084 1428 2787 
Q 1159 2491 1159 1978 
L 1159 0 
L 581 0 
L 581 3500 
L 1159 3500 
L 1159 2956 
Q 1366 3272 1645 3428 
Q 1925 3584 2291 3584 
Q 2894 3584 3203 3211 
Q 3513 2838 3513 2113 
z
" transform="scale(0.015625)"/>
       <path id="DejaVuSans-Oblique-54" d="M 378 4666 
L 4325 4666 
L 4225 4134 
L 2559 4134 
L 1759 0 
L 1125 0 
L 1925 4134 
L 275 4134 
L 378 4666 
z
" transform="scale(0.015625)"/>
       <path id="DejaVuSans-2f" d="M 1625 4666 
L 2156 4666 
L 531 -594 
L 0 -594 
L 1625 4666 
z
" transform="scale(0.015625)"/>
       <path id="DejaVuSans-72" d="M 2631 2963 
Q 2534 3019 2420 3045 
Q 2306 3072 2169 3072 
Q 1681 3072 1420 2755 
Q 1159 2438 1159 1844 
L 1159 0 
L 581 0 
L 581 3500 
L 1159 3500 
L 1159 2956 
Q 1341 3275 1631 3429 
Q 1922 3584 2338 3584 
Q 2397 3584 2469 3576 
Q 2541 3569 2628 3553 
L 2631 2963 
z
" transform="scale(0.015625)"/>
       <path id="DejaVuSans-63" d="M 3122 3366 
L 3122 2828 
Q 2878 2963 2633 3030 
Q 2388 3097 2138 3097 
Q 1578 3097 1268 2742 
Q 959 2388 959 1747 
Q 959 1106 1268 751 
Q 1578 397 2138 397 
Q 2388 397 2633 464 
Q 2878 531 3122 666 
L 3122 134 
Q 2881 22 2623 -34 
Q 2366 -91 2075 -91 
Q 1284 -91 818 406 
Q 353 903 353 1747 
Q 353 2603 823 3093 
Q 1294 3584 2113 3584 
Q 2378 3584 2631 3529 
Q 2884 3475 3122 3366 
z
" transform="scale(0.015625)"/>
       <path id="STIXSizeOneSym-Regular-29" d="M 550 6630 
L 550 6822 
Q 1267 6144 1686 5142 
Q 2106 4141 2106 2886 
Q 2106 1651 1686 636 
Q 1267 -378 550 -1050 
L 550 -858 
Q 1587 410 1587 2886 
Q 1587 5363 550 6630 
z
" transform="scale(0.015625)"/>
      </defs>
      <use xlink:href="#DejaVuSans-6c" transform="translate(0 0.051563)"/>
      <use xlink:href="#DejaVuSans-6f" transform="translate(27.783203 0.051563)"/>
      <use xlink:href="#DejaVuSans-67" transform="translate(88.964844 0.051563)"/>
      <use xlink:href="#STIXSizeOneSym-Regular-28" transform="translate(168.677083 -11.714062)scale(0.953595)"/>
      <use xlink:href="#DejaVuSans-Oblique-70" transform="translate(213.312581 0.051563)"/>
      <use xlink:href="#DejaVuSans-67" transform="translate(281.439039 50.8)scale(0.7)"/>
      <use xlink:href="#DejaVuSans-65" transform="translate(325.872633 50.8)scale(0.7)"/>
      <use xlink:href="#DejaVuSans-6e" transform="translate(368.939039 50.8)scale(0.7)"/>
      <use xlink:href="#DejaVuSans-Oblique-54" transform="translate(276.789143 -27.292187)scale(0.7)"/>
      <use xlink:href="#DejaVuSans-2f" transform="translate(416.038648 0.051563)"/>
      <use xlink:href="#DejaVuSans-Oblique-70" transform="translate(449.730055 0.051563)"/>
      <use xlink:href="#DejaVuSans-72" transform="translate(517.856513 38.332813)scale(0.7)"/>
      <use xlink:href="#DejaVuSans-65" transform="translate(546.63581 38.332813)scale(0.7)"/>
      <use xlink:href="#DejaVuSans-63" transform="translate(589.702216 38.332813)scale(0.7)"/>
      <use xlink:href="#DejaVuSans-6f" transform="translate(628.188544 38.332813)scale(0.7)"/>
      <use xlink:href="#DejaVuSans-Oblique-54" transform="translate(513.206617 -27.292187)scale(0.7)"/>
      <use xlink:href="#STIXSizeOneSym-Regular-29" transform="translate(673.750068 -11.714062)scale(0.953595)"/>
     </g>
    </g>
   </g>
   <g id="matplotlib.axis_2">
    <g id="ytick_1">
     <g id="line2d_85">
      <defs>
       <path id="m6d04841893" d="M 0 0 
L 5 0 
" style="stroke: #000000; stroke-width: 1.2"/>
      </defs>
      <g>
       <use xlink:href="#m6d04841893" x="54.674844" y="319.94" style="stroke: #000000; stroke-width: 1.2"/>
      </g>
     </g>
     <g id="line2d_86">
      <defs>
       <path id="mdb2968aa92" d="M 0 0 
L -5 0 
" style="stroke: #000000; stroke-width: 1.2"/>
      </defs>
      <g>
       <use xlink:href="#mdb2968aa92" x="413.823929" y="319.94" style="stroke: #000000; stroke-width: 1.2"/>
      </g>
     </g>
     <g id="text_11">
      <!-- $\mathdefault{0.0}$ -->
      <g transform="translate(31.974844 324.499063)scale(0.12 -0.12)">
       <use xlink:href="#DejaVuSans-30" transform="translate(0 0.78125)"/>
       <use xlink:href="#DejaVuSans-2e" transform="translate(63.623047 0.78125)"/>
       <use xlink:href="#DejaVuSans-30" transform="translate(95.410156 0.78125)"/>
      </g>
     </g>
    </g>
    <g id="ytick_2">
     <g id="line2d_87">
      <g>
       <use xlink:href="#m6d04841893" x="54.674844" y="277.161025" style="stroke: #000000; stroke-width: 1.2"/>
      </g>
     </g>
     <g id="line2d_88">
      <g>
       <use xlink:href="#mdb2968aa92" x="413.823929" y="277.161025" style="stroke: #000000; stroke-width: 1.2"/>
      </g>
     </g>
     <g id="text_12">
      <!-- $\mathdefault{0.5}$ -->
      <g transform="translate(31.974844 281.720088)scale(0.12 -0.12)">
       <use xlink:href="#DejaVuSans-30" transform="translate(0 0.78125)"/>
       <use xlink:href="#DejaVuSans-2e" transform="translate(63.623047 0.78125)"/>
       <use xlink:href="#DejaVuSans-35" transform="translate(95.410156 0.78125)"/>
      </g>
     </g>
    </g>
    <g id="ytick_3">
     <g id="line2d_89">
      <g>
       <use xlink:href="#m6d04841893" x="54.674844" y="234.382051" style="stroke: #000000; stroke-width: 1.2"/>
      </g>
     </g>
     <g id="line2d_90">
      <g>
       <use xlink:href="#mdb2968aa92" x="413.823929" y="234.382051" style="stroke: #000000; stroke-width: 1.2"/>
      </g>
     </g>
     <g id="text_13">
      <!-- $\mathdefault{1.0}$ -->
      <g transform="translate(31.974844 238.941113)scale(0.12 -0.12)">
       <use xlink:href="#DejaVuSans-31" transform="translate(0 0.78125)"/>
       <use xlink:href="#DejaVuSans-2e" transform="translate(63.623047 0.78125)"/>
       <use xlink:href="#DejaVuSans-30" transform="translate(95.410156 0.78125)"/>
      </g>
     </g>
    </g>
    <g id="ytick_4">
     <g id="line2d_91">
      <g>
       <use xlink:href="#m6d04841893" x="54.674844" y="191.603076" style="stroke: #000000; stroke-width: 1.2"/>
      </g>
     </g>
     <g id="line2d_92">
      <g>
       <use xlink:href="#mdb2968aa92" x="413.823929" y="191.603076" style="stroke: #000000; stroke-width: 1.2"/>
      </g>
     </g>
     <g id="text_14">
      <!-- $\mathdefault{1.5}$ -->
      <g transform="translate(31.974844 196.162139)scale(0.12 -0.12)">
       <use xlink:href="#DejaVuSans-31" transform="translate(0 0.09375)"/>
       <use xlink:href="#DejaVuSans-2e" transform="translate(63.623047 0.09375)"/>
       <use xlink:href="#DejaVuSans-35" transform="translate(95.410156 0.09375)"/>
      </g>
     </g>
    </g>
    <g id="ytick_5">
     <g id="line2d_93">
      <g>
       <use xlink:href="#m6d04841893" x="54.674844" y="148.824102" style="stroke: #000000; stroke-width: 1.2"/>
      </g>
     </g>
     <g id="line2d_94">
      <g>
       <use xlink:href="#mdb2968aa92" x="413.823929" y="148.824102" style="stroke: #000000; stroke-width: 1.2"/>
      </g>
     </g>
     <g id="text_15">
      <!-- $\mathdefault{2.0}$ -->
      <g transform="translate(31.974844 153.383164)scale(0.12 -0.12)">
       <use xlink:href="#DejaVuSans-32" transform="translate(0 0.78125)"/>
       <use xlink:href="#DejaVuSans-2e" transform="translate(63.623047 0.78125)"/>
       <use xlink:href="#DejaVuSans-30" transform="translate(95.410156 0.78125)"/>
      </g>
     </g>
    </g>
    <g id="ytick_6">
     <g id="line2d_95">
      <g>
       <use xlink:href="#m6d04841893" x="54.674844" y="106.045127" style="stroke: #000000; stroke-width: 1.2"/>
      </g>
     </g>
     <g id="line2d_96">
      <g>
       <use xlink:href="#mdb2968aa92" x="413.823929" y="106.045127" style="stroke: #000000; stroke-width: 1.2"/>
      </g>
     </g>
     <g id="text_16">
      <!-- $\mathdefault{2.5}$ -->
      <g transform="translate(31.974844 110.60419)scale(0.12 -0.12)">
       <use xlink:href="#DejaVuSans-32" transform="translate(0 0.78125)"/>
       <use xlink:href="#DejaVuSans-2e" transform="translate(63.623047 0.78125)"/>
       <use xlink:href="#DejaVuSans-35" transform="translate(95.410156 0.78125)"/>
      </g>
     </g>
    </g>
    <g id="ytick_7">
     <g id="line2d_97">
      <g>
       <use xlink:href="#m6d04841893" x="54.674844" y="63.266153" style="stroke: #000000; stroke-width: 1.2"/>
      </g>
     </g>
     <g id="line2d_98">
      <g>
       <use xlink:href="#mdb2968aa92" x="413.823929" y="63.266153" style="stroke: #000000; stroke-width: 1.2"/>
      </g>
     </g>
     <g id="text_17">
      <!-- $\mathdefault{3.0}$ -->
      <g transform="translate(31.974844 67.825215)scale(0.12 -0.12)">
       <defs>
        <path id="DejaVuSans-33" d="M 2597 2516 
Q 3050 2419 3304 2112 
Q 3559 1806 3559 1356 
Q 3559 666 3084 287 
Q 2609 -91 1734 -91 
Q 1441 -91 1130 -33 
Q 819 25 488 141 
L 488 750 
Q 750 597 1062 519 
Q 1375 441 1716 441 
Q 2309 441 2620 675 
Q 2931 909 2931 1356 
Q 2931 1769 2642 2001 
Q 2353 2234 1838 2234 
L 1294 2234 
L 1294 2753 
L 1863 2753 
Q 2328 2753 2575 2939 
Q 2822 3125 2822 3475 
Q 2822 3834 2567 4026 
Q 2313 4219 1838 4219 
Q 1578 4219 1281 4162 
Q 984 4106 628 3988 
L 628 4550 
Q 988 4650 1302 4700 
Q 1616 4750 1894 4750 
Q 2613 4750 3031 4423 
Q 3450 4097 3450 3541 
Q 3450 3153 3228 2886 
Q 3006 2619 2597 2516 
z
" transform="scale(0.015625)"/>
       </defs>
       <use xlink:href="#DejaVuSans-33" transform="translate(0 0.78125)"/>
       <use xlink:href="#DejaVuSans-2e" transform="translate(63.623047 0.78125)"/>
       <use xlink:href="#DejaVuSans-30" transform="translate(95.410156 0.78125)"/>
      </g>
     </g>
    </g>
    <g id="ytick_8">
     <g id="line2d_99">
      <defs>
       <path id="m76774a6e60" d="M 0 0 
L 2 0 
" style="stroke: #000000; stroke-width: 1.2"/>
      </defs>
      <g>
       <use xlink:href="#m76774a6e60" x="54.674844" y="311.384205" style="stroke: #000000; stroke-width: 1.2"/>
      </g>
     </g>
     <g id="line2d_100">
      <defs>
       <path id="mb8bf2e1b48" d="M 0 0 
L -2 0 
" style="stroke: #000000; stroke-width: 1.2"/>
      </defs>
      <g>
       <use xlink:href="#mb8bf2e1b48" x="413.823929" y="311.384205" style="stroke: #000000; stroke-width: 1.2"/>
      </g>
     </g>
    </g>
    <g id="ytick_9">
     <g id="line2d_101">
      <g>
       <use xlink:href="#m76774a6e60" x="54.674844" y="302.82841" style="stroke: #000000; stroke-width: 1.2"/>
      </g>
     </g>
     <g id="line2d_102">
      <g>
       <use xlink:href="#mb8bf2e1b48" x="413.823929" y="302.82841" style="stroke: #000000; stroke-width: 1.2"/>
      </g>
     </g>
    </g>
    <g id="ytick_10">
     <g id="line2d_103">
      <g>
       <use xlink:href="#m76774a6e60" x="54.674844" y="294.272615" style="stroke: #000000; stroke-width: 1.2"/>
      </g>
     </g>
     <g id="line2d_104">
      <g>
       <use xlink:href="#mb8bf2e1b48" x="413.823929" y="294.272615" style="stroke: #000000; stroke-width: 1.2"/>
      </g>
     </g>
    </g>
    <g id="ytick_11">
     <g id="line2d_105">
      <g>
       <use xlink:href="#m76774a6e60" x="54.674844" y="285.71682" style="stroke: #000000; stroke-width: 1.2"/>
      </g>
     </g>
     <g id="line2d_106">
      <g>
       <use xlink:href="#mb8bf2e1b48" x="413.823929" y="285.71682" style="stroke: #000000; stroke-width: 1.2"/>
      </g>
     </g>
    </g>
    <g id="ytick_12">
     <g id="line2d_107">
      <g>
       <use xlink:href="#m76774a6e60" x="54.674844" y="268.605231" style="stroke: #000000; stroke-width: 1.2"/>
      </g>
     </g>
     <g id="line2d_108">
      <g>
       <use xlink:href="#mb8bf2e1b48" x="413.823929" y="268.605231" style="stroke: #000000; stroke-width: 1.2"/>
      </g>
     </g>
    </g>
    <g id="ytick_13">
     <g id="line2d_109">
      <g>
       <use xlink:href="#m76774a6e60" x="54.674844" y="260.049436" style="stroke: #000000; stroke-width: 1.2"/>
      </g>
     </g>
     <g id="line2d_110">
      <g>
       <use xlink:href="#mb8bf2e1b48" x="413.823929" y="260.049436" style="stroke: #000000; stroke-width: 1.2"/>
      </g>
     </g>
    </g>
    <g id="ytick_14">
     <g id="line2d_111">
      <g>
       <use xlink:href="#m76774a6e60" x="54.674844" y="251.493641" style="stroke: #000000; stroke-width: 1.2"/>
      </g>
     </g>
     <g id="line2d_112">
      <g>
       <use xlink:href="#mb8bf2e1b48" x="413.823929" y="251.493641" style="stroke: #000000; stroke-width: 1.2"/>
      </g>
     </g>
    </g>
    <g id="ytick_15">
     <g id="line2d_113">
      <g>
       <use xlink:href="#m76774a6e60" x="54.674844" y="242.937846" style="stroke: #000000; stroke-width: 1.2"/>
      </g>
     </g>
     <g id="line2d_114">
      <g>
       <use xlink:href="#mb8bf2e1b48" x="413.823929" y="242.937846" style="stroke: #000000; stroke-width: 1.2"/>
      </g>
     </g>
    </g>
    <g id="ytick_16">
     <g id="line2d_115">
      <g>
       <use xlink:href="#m76774a6e60" x="54.674844" y="225.826256" style="stroke: #000000; stroke-width: 1.2"/>
      </g>
     </g>
     <g id="line2d_116">
      <g>
       <use xlink:href="#mb8bf2e1b48" x="413.823929" y="225.826256" style="stroke: #000000; stroke-width: 1.2"/>
      </g>
     </g>
    </g>
    <g id="ytick_17">
     <g id="line2d_117">
      <g>
       <use xlink:href="#m76774a6e60" x="54.674844" y="217.270461" style="stroke: #000000; stroke-width: 1.2"/>
      </g>
     </g>
     <g id="line2d_118">
      <g>
       <use xlink:href="#mb8bf2e1b48" x="413.823929" y="217.270461" style="stroke: #000000; stroke-width: 1.2"/>
      </g>
     </g>
    </g>
    <g id="ytick_18">
     <g id="line2d_119">
      <g>
       <use xlink:href="#m76774a6e60" x="54.674844" y="208.714666" style="stroke: #000000; stroke-width: 1.2"/>
      </g>
     </g>
     <g id="line2d_120">
      <g>
       <use xlink:href="#mb8bf2e1b48" x="413.823929" y="208.714666" style="stroke: #000000; stroke-width: 1.2"/>
      </g>
     </g>
    </g>
    <g id="ytick_19">
     <g id="line2d_121">
      <g>
       <use xlink:href="#m76774a6e60" x="54.674844" y="200.158871" style="stroke: #000000; stroke-width: 1.2"/>
      </g>
     </g>
     <g id="line2d_122">
      <g>
       <use xlink:href="#mb8bf2e1b48" x="413.823929" y="200.158871" style="stroke: #000000; stroke-width: 1.2"/>
      </g>
     </g>
    </g>
    <g id="ytick_20">
     <g id="line2d_123">
      <g>
       <use xlink:href="#m76774a6e60" x="54.674844" y="183.047282" style="stroke: #000000; stroke-width: 1.2"/>
      </g>
     </g>
     <g id="line2d_124">
      <g>
       <use xlink:href="#mb8bf2e1b48" x="413.823929" y="183.047282" style="stroke: #000000; stroke-width: 1.2"/>
      </g>
     </g>
    </g>
    <g id="ytick_21">
     <g id="line2d_125">
      <g>
       <use xlink:href="#m76774a6e60" x="54.674844" y="174.491487" style="stroke: #000000; stroke-width: 1.2"/>
      </g>
     </g>
     <g id="line2d_126">
      <g>
       <use xlink:href="#mb8bf2e1b48" x="413.823929" y="174.491487" style="stroke: #000000; stroke-width: 1.2"/>
      </g>
     </g>
    </g>
    <g id="ytick_22">
     <g id="line2d_127">
      <g>
       <use xlink:href="#m76774a6e60" x="54.674844" y="165.935692" style="stroke: #000000; stroke-width: 1.2"/>
      </g>
     </g>
     <g id="line2d_128">
      <g>
       <use xlink:href="#mb8bf2e1b48" x="413.823929" y="165.935692" style="stroke: #000000; stroke-width: 1.2"/>
      </g>
     </g>
    </g>
    <g id="ytick_23">
     <g id="line2d_129">
      <g>
       <use xlink:href="#m76774a6e60" x="54.674844" y="157.379897" style="stroke: #000000; stroke-width: 1.2"/>
      </g>
     </g>
     <g id="line2d_130">
      <g>
       <use xlink:href="#mb8bf2e1b48" x="413.823929" y="157.379897" style="stroke: #000000; stroke-width: 1.2"/>
      </g>
     </g>
    </g>
    <g id="ytick_24">
     <g id="line2d_131">
      <g>
       <use xlink:href="#m76774a6e60" x="54.674844" y="140.268307" style="stroke: #000000; stroke-width: 1.2"/>
      </g>
     </g>
     <g id="line2d_132">
      <g>
       <use xlink:href="#mb8bf2e1b48" x="413.823929" y="140.268307" style="stroke: #000000; stroke-width: 1.2"/>
      </g>
     </g>
    </g>
    <g id="ytick_25">
     <g id="line2d_133">
      <g>
       <use xlink:href="#m76774a6e60" x="54.674844" y="131.712512" style="stroke: #000000; stroke-width: 1.2"/>
      </g>
     </g>
     <g id="line2d_134">
      <g>
       <use xlink:href="#mb8bf2e1b48" x="413.823929" y="131.712512" style="stroke: #000000; stroke-width: 1.2"/>
      </g>
     </g>
    </g>
    <g id="ytick_26">
     <g id="line2d_135">
      <g>
       <use xlink:href="#m76774a6e60" x="54.674844" y="123.156717" style="stroke: #000000; stroke-width: 1.2"/>
      </g>
     </g>
     <g id="line2d_136">
      <g>
       <use xlink:href="#mb8bf2e1b48" x="413.823929" y="123.156717" style="stroke: #000000; stroke-width: 1.2"/>
      </g>
     </g>
    </g>
    <g id="ytick_27">
     <g id="line2d_137">
      <g>
       <use xlink:href="#m76774a6e60" x="54.674844" y="114.600922" style="stroke: #000000; stroke-width: 1.2"/>
      </g>
     </g>
     <g id="line2d_138">
      <g>
       <use xlink:href="#mb8bf2e1b48" x="413.823929" y="114.600922" style="stroke: #000000; stroke-width: 1.2"/>
      </g>
     </g>
    </g>
    <g id="ytick_28">
     <g id="line2d_139">
      <g>
       <use xlink:href="#m76774a6e60" x="54.674844" y="97.489333" style="stroke: #000000; stroke-width: 1.2"/>
      </g>
     </g>
     <g id="line2d_140">
      <g>
       <use xlink:href="#mb8bf2e1b48" x="413.823929" y="97.489333" style="stroke: #000000; stroke-width: 1.2"/>
      </g>
     </g>
    </g>
    <g id="ytick_29">
     <g id="line2d_141">
      <g>
       <use xlink:href="#m76774a6e60" x="54.674844" y="88.933538" style="stroke: #000000; stroke-width: 1.2"/>
      </g>
     </g>
     <g id="line2d_142">
      <g>
       <use xlink:href="#mb8bf2e1b48" x="413.823929" y="88.933538" style="stroke: #000000; stroke-width: 1.2"/>
      </g>
     </g>
    </g>
    <g id="ytick_30">
     <g id="line2d_143">
      <g>
       <use xlink:href="#m76774a6e60" x="54.674844" y="80.377743" style="stroke: #000000; stroke-width: 1.2"/>
      </g>
     </g>
     <g id="line2d_144">
      <g>
       <use xlink:href="#mb8bf2e1b48" x="413.823929" y="80.377743" style="stroke: #000000; stroke-width: 1.2"/>
      </g>
     </g>
    </g>
    <g id="ytick_31">
     <g id="line2d_145">
      <g>
       <use xlink:href="#m76774a6e60" x="54.674844" y="71.821948" style="stroke: #000000; stroke-width: 1.2"/>
      </g>
     </g>
     <g id="line2d_146">
      <g>
       <use xlink:href="#mb8bf2e1b48" x="413.823929" y="71.821948" style="stroke: #000000; stroke-width: 1.2"/>
      </g>
     </g>
    </g>
    <g id="ytick_32">
     <g id="line2d_147">
      <g>
       <use xlink:href="#m76774a6e60" x="54.674844" y="54.710358" style="stroke: #000000; stroke-width: 1.2"/>
      </g>
     </g>
     <g id="line2d_148">
      <g>
       <use xlink:href="#mb8bf2e1b48" x="413.823929" y="54.710358" style="stroke: #000000; stroke-width: 1.2"/>
      </g>
     </g>
    </g>
    <g id="ytick_33">
     <g id="line2d_149">
      <g>
       <use xlink:href="#m76774a6e60" x="54.674844" y="46.154563" style="stroke: #000000; stroke-width: 1.2"/>
      </g>
     </g>
     <g id="line2d_150">
      <g>
       <use xlink:href="#mb8bf2e1b48" x="413.823929" y="46.154563" style="stroke: #000000; stroke-width: 1.2"/>
      </g>
     </g>
    </g>
    <g id="ytick_34">
     <g id="line2d_151">
      <g>
       <use xlink:href="#m76774a6e60" x="54.674844" y="37.598768" style="stroke: #000000; stroke-width: 1.2"/>
      </g>
     </g>
     <g id="line2d_152">
      <g>
       <use xlink:href="#mb8bf2e1b48" x="413.823929" y="37.598768" style="stroke: #000000; stroke-width: 1.2"/>
      </g>
     </g>
    </g>
    <g id="text_18">
     <!-- Fraction of jets/bin -->
     <g transform="translate(25.063281 239.715469)rotate(-90)scale(0.14 -0.14)">
      <defs>
       <path id="DejaVuSans-46" d="M 628 4666 
L 3309 4666 
L 3309 4134 
L 1259 4134 
L 1259 2759 
L 3109 2759 
L 3109 2228 
L 1259 2228 
L 1259 0 
L 628 0 
L 628 4666 
z
" transform="scale(0.015625)"/>
       <path id="DejaVuSans-61" d="M 2194 1759 
Q 1497 1759 1228 1600 
Q 959 1441 959 1056 
Q 959 750 1161 570 
Q 1363 391 1709 391 
Q 2188 391 2477 730 
Q 2766 1069 2766 1631 
L 2766 1759 
L 2194 1759 
z
M 3341 1997 
L 3341 0 
L 2766 0 
L 2766 531 
Q 2569 213 2275 61 
Q 1981 -91 1556 -91 
Q 1019 -91 701 211 
Q 384 513 384 1019 
Q 384 1609 779 1909 
Q 1175 2209 1959 2209 
L 2766 2209 
L 2766 2266 
Q 2766 2663 2505 2880 
Q 2244 3097 1772 3097 
Q 1472 3097 1187 3025 
Q 903 2953 641 2809 
L 641 3341 
Q 956 3463 1253 3523 
Q 1550 3584 1831 3584 
Q 2591 3584 2966 3190 
Q 3341 2797 3341 1997 
z
" transform="scale(0.015625)"/>
       <path id="DejaVuSans-74" d="M 1172 4494 
L 1172 3500 
L 2356 3500 
L 2356 3053 
L 1172 3053 
L 1172 1153 
Q 1172 725 1289 603 
Q 1406 481 1766 481 
L 2356 481 
L 2356 0 
L 1766 0 
Q 1100 0 847 248 
Q 594 497 594 1153 
L 594 3053 
L 172 3053 
L 172 3500 
L 594 3500 
L 594 4494 
L 1172 4494 
z
" transform="scale(0.015625)"/>
       <path id="DejaVuSans-69" d="M 603 3500 
L 1178 3500 
L 1178 0 
L 603 0 
L 603 3500 
z
M 603 4863 
L 1178 4863 
L 1178 4134 
L 603 4134 
L 603 4863 
z
" transform="scale(0.015625)"/>
       <path id="DejaVuSans-20" transform="scale(0.015625)"/>
       <path id="DejaVuSans-66" d="M 2375 4863 
L 2375 4384 
L 1825 4384 
Q 1516 4384 1395 4259 
Q 1275 4134 1275 3809 
L 1275 3500 
L 2222 3500 
L 2222 3053 
L 1275 3053 
L 1275 0 
L 697 0 
L 697 3053 
L 147 3053 
L 147 3500 
L 697 3500 
L 697 3744 
Q 697 4328 969 4595 
Q 1241 4863 1831 4863 
L 2375 4863 
z
" transform="scale(0.015625)"/>
       <path id="DejaVuSans-6a" d="M 603 3500 
L 1178 3500 
L 1178 -63 
Q 1178 -731 923 -1031 
Q 669 -1331 103 -1331 
L -116 -1331 
L -116 -844 
L 38 -844 
Q 366 -844 484 -692 
Q 603 -541 603 -63 
L 603 3500 
z
M 603 4863 
L 1178 4863 
L 1178 4134 
L 603 4134 
L 603 4863 
z
" transform="scale(0.015625)"/>
       <path id="DejaVuSans-73" d="M 2834 3397 
L 2834 2853 
Q 2591 2978 2328 3040 
Q 2066 3103 1784 3103 
Q 1356 3103 1142 2972 
Q 928 2841 928 2578 
Q 928 2378 1081 2264 
Q 1234 2150 1697 2047 
L 1894 2003 
Q 2506 1872 2764 1633 
Q 3022 1394 3022 966 
Q 3022 478 2636 193 
Q 2250 -91 1575 -91 
Q 1294 -91 989 -36 
Q 684 19 347 128 
L 347 722 
Q 666 556 975 473 
Q 1284 391 1588 391 
Q 1994 391 2212 530 
Q 2431 669 2431 922 
Q 2431 1156 2273 1281 
Q 2116 1406 1581 1522 
L 1381 1569 
Q 847 1681 609 1914 
Q 372 2147 372 2553 
Q 372 3047 722 3315 
Q 1072 3584 1716 3584 
Q 2034 3584 2315 3537 
Q 2597 3491 2834 3397 
z
" transform="scale(0.015625)"/>
       <path id="DejaVuSans-62" d="M 3116 1747 
Q 3116 2381 2855 2742 
Q 2594 3103 2138 3103 
Q 1681 3103 1420 2742 
Q 1159 2381 1159 1747 
Q 1159 1113 1420 752 
Q 1681 391 2138 391 
Q 2594 391 2855 752 
Q 3116 1113 3116 1747 
z
M 1159 2969 
Q 1341 3281 1617 3432 
Q 1894 3584 2278 3584 
Q 2916 3584 3314 3078 
Q 3713 2572 3713 1747 
Q 3713 922 3314 415 
Q 2916 -91 2278 -91 
Q 1894 -91 1617 61 
Q 1341 213 1159 525 
L 1159 0 
L 581 0 
L 581 4863 
L 1159 4863 
L 1159 2969 
z
" transform="scale(0.015625)"/>
      </defs>
      <use xlink:href="#DejaVuSans-46"/>
      <use xlink:href="#DejaVuSans-72" x="50.269531"/>
      <use xlink:href="#DejaVuSans-61" x="91.382812"/>
      <use xlink:href="#DejaVuSans-63" x="152.662109"/>
      <use xlink:href="#DejaVuSans-74" x="207.642578"/>
      <use xlink:href="#DejaVuSans-69" x="246.851562"/>
      <use xlink:href="#DejaVuSans-6f" x="274.634766"/>
      <use xlink:href="#DejaVuSans-6e" x="335.816406"/>
      <use xlink:href="#DejaVuSans-20" x="399.195312"/>
      <use xlink:href="#DejaVuSans-6f" x="430.982422"/>
      <use xlink:href="#DejaVuSans-66" x="492.164062"/>
      <use xlink:href="#DejaVuSans-20" x="527.369141"/>
      <use xlink:href="#DejaVuSans-6a" x="559.15625"/>
      <use xlink:href="#DejaVuSans-65" x="586.939453"/>
      <use xlink:href="#DejaVuSans-74" x="648.462891"/>
      <use xlink:href="#DejaVuSans-73" x="687.671875"/>
      <use xlink:href="#DejaVuSans-2f" x="739.771484"/>
      <use xlink:href="#DejaVuSans-62" x="773.462891"/>
      <use xlink:href="#DejaVuSans-69" x="836.939453"/>
      <use xlink:href="#DejaVuSans-6e" x="864.722656"/>
     </g>
    </g>
    <g id="text_19">
     <!-- $\times\mathdefault{10^{5}}\mathdefault{}$ -->
     <g transform="translate(54.674844 26.56)scale(0.12 -0.12)">
      <defs>
       <path id="DejaVuSans-d7" d="M 4488 3438 
L 3059 2003 
L 4488 575 
L 4116 197 
L 2681 1631 
L 1247 197 
L 878 575 
L 2303 2003 
L 878 3438 
L 1247 3816 
L 2681 2381 
L 4116 3816 
L 4488 3438 
z
" transform="scale(0.015625)"/>
      </defs>
      <use xlink:href="#DejaVuSans-d7" transform="translate(0 0.684375)"/>
      <use xlink:href="#DejaVuSans-31" transform="translate(83.789062 0.684375)"/>
      <use xlink:href="#DejaVuSans-30" transform="translate(147.412109 0.684375)"/>
      <use xlink:href="#DejaVuSans-35" transform="translate(211.992188 38.965625)scale(0.7)"/>
     </g>
    </g>
   </g>
   <g id="patch_4">
    <path d="M 54.674844 319.94 
L 54.674844 29.56 
" style="fill: none; stroke: #000000; stroke-width: 0.8; stroke-linejoin: miter; stroke-linecap: square"/>
   </g>
   <g id="patch_5">
    <path d="M 413.823929 319.94 
L 413.823929 29.56 
" style="fill: none; stroke: #000000; stroke-width: 0.8; stroke-linejoin: miter; stroke-linecap: square"/>
   </g>
   <g id="patch_6">
    <path d="M 54.674844 319.94 
L 413.823929 319.94 
" style="fill: none; stroke: #000000; stroke-width: 0.8; stroke-linejoin: miter; stroke-linecap: square"/>
   </g>
   <g id="patch_7">
    <path d="M 54.674844 29.56 
L 413.823929 29.56 
" style="fill: none; stroke: #000000; stroke-width: 0.8; stroke-linejoin: miter; stroke-linecap: square"/>
   </g>
  </g>
 </g>
 <defs>
  <clipPath id="p4a6c541a3e">
   <rect x="54.674844" y="29.56" width="359.149085" height="290.38"/>
  </clipPath>
 </defs>
 <defs>
  <pattern id="h67318651b7" patternUnits="userSpaceOnUse" x="0" y="0" width="72" height="72">
   <rect x="0" y="0" width="73" height="73" fill="#ffffff"/>
   <path d="M -36 36 
L 36 -36 
M -33 39 
L 39 -33 
M -30 42 
L 42 -30 
M -27 45 
L 45 -27 
M -24 48 
L 48 -24 
M -21 51 
L 51 -21 
M -18 54 
L 54 -18 
M -15 57 
L 57 -15 
M -12 60 
L 60 -12 
M -9 63 
L 63 -9 
M -6 66 
L 66 -6 
M -3 69 
L 69 -3 
M 0 72 
L 72 0 
M 3 75 
L 75 3 
M 6 78 
L 78 6 
M 9 81 
L 81 9 
M 12 84 
L 84 12 
M 15 87 
L 87 15 
M 18 90 
L 90 18 
M 21 93 
L 93 21 
M 24 96 
L 96 24 
M 27 99 
L 99 27 
M 30 102 
L 102 30 
M 33 105 
L 105 33 
M 36 108 
L 108 36 
" style="fill: #1f77b4; stroke: #1f77b4; stroke-width: 1.0; stroke-linecap: butt; stroke-linejoin: miter"/>
  </pattern>
 </defs>
</svg>
