<?xml version="1.0" encoding="utf-8" standalone="no"?>
<!DOCTYPE svg PUBLIC "-//W3C//DTD SVG 1.1//EN"
  "http://www.w3.org/Graphics/SVG/1.1/DTD/svg11.dtd">
<svg xmlns:xlink="http://www.w3.org/1999/xlink" width="432pt" height="345.6pt" viewBox="0 0 432 345.6" xmlns="http://www.w3.org/2000/svg" version="1.1">
 <metadata>
  <rdf:RDF xmlns:dc="http://purl.org/dc/elements/1.1/" xmlns:cc="http://creativecommons.org/ns#" xmlns:rdf="http://www.w3.org/1999/02/22-rdf-syntax-ns#">
   <cc:Work>
    <dc:type rdf:resource="http://purl.org/dc/dcmitype/StillImage"/>
    <dc:date>2023-03-10T21:40:02.792615</dc:date>
    <dc:format>image/svg+xml</dc:format>
    <dc:creator>
     <cc:Agent>
      <dc:title>Matplotlib v3.5.2, https://matplotlib.org/</dc:title>
     </cc:Agent>
    </dc:creator>
   </cc:Work>
  </rdf:RDF>
 </metadata>
 <defs>
  <style type="text/css">*{stroke-linejoin: round; stroke-linecap: butt}</style>
 </defs>
 <g id="figure_1">
  <g id="patch_1">
   <path d="M 0 345.6 
L 432 345.6 
L 432 0 
L 0 0 
L 0 345.6 
z
" style="fill: none"/>
  </g>
  <g id="axes_1">
   <g id="patch_2">
    <path d="M 54 302.4 
L 388.8 302.4 
L 388.8 41.472 
L 54 41.472 
z
" style="fill: #ffffff"/>
   </g>
   <g id="matplotlib.axis_1">
    <g id="xtick_1">
     <g id="line2d_1">
      <defs>
       <path id="m2ec3b4a1be" d="M 0 0 
L 0 -3.5 
" style="stroke: #000000; stroke-width: 1.2"/>
      </defs>
      <g>
       <use xlink:href="#m2ec3b4a1be" x="87.48" y="302.4" style="stroke: #000000; stroke-width: 1.2"/>
      </g>
     </g>
     <g id="line2d_2">
      <defs>
       <path id="md6c3c9a5af" d="M 0 0 
L 0 3.5 
" style="stroke: #000000; stroke-width: 1.2"/>
      </defs>
      <g>
       <use xlink:href="#md6c3c9a5af" x="87.48" y="41.472" style="stroke: #000000; stroke-width: 1.2"/>
      </g>
     </g>
     <g id="text_1">
      <!-- 0.6 -->
      <g transform="translate(76.347813 316.537812)scale(0.14 -0.14)">
       <defs>
        <path id="DejaVuSans-30" d="M 2034 4250 
Q 1547 4250 1301 3770 
Q 1056 3291 1056 2328 
Q 1056 1369 1301 889 
Q 1547 409 2034 409 
Q 2525 409 2770 889 
Q 3016 1369 3016 2328 
Q 3016 3291 2770 3770 
Q 2525 4250 2034 4250 
z
M 2034 4750 
Q 2819 4750 3233 4129 
Q 3647 3509 3647 2328 
Q 3647 1150 3233 529 
Q 2819 -91 2034 -91 
Q 1250 -91 836 529 
Q 422 1150 422 2328 
Q 422 3509 836 4129 
Q 1250 4750 2034 4750 
z
" transform="scale(0.015625)"/>
        <path id="DejaVuSans-2e" d="M 684 794 
L 1344 794 
L 1344 0 
L 684 0 
L 684 794 
z
" transform="scale(0.015625)"/>
        <path id="DejaVuSans-36" d="M 2113 2584 
Q 1688 2584 1439 2293 
Q 1191 2003 1191 1497 
Q 1191 994 1439 701 
Q 1688 409 2113 409 
Q 2538 409 2786 701 
Q 3034 994 3034 1497 
Q 3034 2003 2786 2293 
Q 2538 2584 2113 2584 
z
M 3366 4563 
L 3366 3988 
Q 3128 4100 2886 4159 
Q 2644 4219 2406 4219 
Q 1781 4219 1451 3797 
Q 1122 3375 1075 2522 
Q 1259 2794 1537 2939 
Q 1816 3084 2150 3084 
Q 2853 3084 3261 2657 
Q 3669 2231 3669 1497 
Q 3669 778 3244 343 
Q 2819 -91 2113 -91 
Q 1303 -91 875 529 
Q 447 1150 447 2328 
Q 447 3434 972 4092 
Q 1497 4750 2381 4750 
Q 2619 4750 2861 4703 
Q 3103 4656 3366 4563 
z
" transform="scale(0.015625)"/>
       </defs>
       <use xlink:href="#DejaVuSans-30"/>
       <use xlink:href="#DejaVuSans-2e" x="63.623047"/>
       <use xlink:href="#DejaVuSans-36" x="95.410156"/>
      </g>
     </g>
    </g>
    <g id="xtick_2">
     <g id="line2d_3">
      <g>
       <use xlink:href="#m2ec3b4a1be" x="154.44" y="302.4" style="stroke: #000000; stroke-width: 1.2"/>
      </g>
     </g>
     <g id="line2d_4">
      <g>
       <use xlink:href="#md6c3c9a5af" x="154.44" y="41.472" style="stroke: #000000; stroke-width: 1.2"/>
      </g>
     </g>
     <g id="text_2">
      <!-- 0.8 -->
      <g transform="translate(143.307813 316.537812)scale(0.14 -0.14)">
       <defs>
        <path id="DejaVuSans-38" d="M 2034 2216 
Q 1584 2216 1326 1975 
Q 1069 1734 1069 1313 
Q 1069 891 1326 650 
Q 1584 409 2034 409 
Q 2484 409 2743 651 
Q 3003 894 3003 1313 
Q 3003 1734 2745 1975 
Q 2488 2216 2034 2216 
z
M 1403 2484 
Q 997 2584 770 2862 
Q 544 3141 544 3541 
Q 544 4100 942 4425 
Q 1341 4750 2034 4750 
Q 2731 4750 3128 4425 
Q 3525 4100 3525 3541 
Q 3525 3141 3298 2862 
Q 3072 2584 2669 2484 
Q 3125 2378 3379 2068 
Q 3634 1759 3634 1313 
Q 3634 634 3220 271 
Q 2806 -91 2034 -91 
Q 1263 -91 848 271 
Q 434 634 434 1313 
Q 434 1759 690 2068 
Q 947 2378 1403 2484 
z
M 1172 3481 
Q 1172 3119 1398 2916 
Q 1625 2713 2034 2713 
Q 2441 2713 2670 2916 
Q 2900 3119 2900 3481 
Q 2900 3844 2670 4047 
Q 2441 4250 2034 4250 
Q 1625 4250 1398 4047 
Q 1172 3844 1172 3481 
z
" transform="scale(0.015625)"/>
       </defs>
       <use xlink:href="#DejaVuSans-30"/>
       <use xlink:href="#DejaVuSans-2e" x="63.623047"/>
       <use xlink:href="#DejaVuSans-38" x="95.410156"/>
      </g>
     </g>
    </g>
    <g id="xtick_3">
     <g id="line2d_5">
      <g>
       <use xlink:href="#m2ec3b4a1be" x="221.4" y="302.4" style="stroke: #000000; stroke-width: 1.2"/>
      </g>
     </g>
     <g id="line2d_6">
      <g>
       <use xlink:href="#md6c3c9a5af" x="221.4" y="41.472" style="stroke: #000000; stroke-width: 1.2"/>
      </g>
     </g>
     <g id="text_3">
      <!-- 1.0 -->
      <g transform="translate(210.267812 316.537812)scale(0.14 -0.14)">
       <defs>
        <path id="DejaVuSans-31" d="M 794 531 
L 1825 531 
L 1825 4091 
L 703 3866 
L 703 4441 
L 1819 4666 
L 2450 4666 
L 2450 531 
L 3481 531 
L 3481 0 
L 794 0 
L 794 531 
z
" transform="scale(0.015625)"/>
       </defs>
       <use xlink:href="#DejaVuSans-31"/>
       <use xlink:href="#DejaVuSans-2e" x="63.623047"/>
       <use xlink:href="#DejaVuSans-30" x="95.410156"/>
      </g>
     </g>
    </g>
    <g id="xtick_4">
     <g id="line2d_7">
      <g>
       <use xlink:href="#m2ec3b4a1be" x="288.36" y="302.4" style="stroke: #000000; stroke-width: 1.2"/>
      </g>
     </g>
     <g id="line2d_8">
      <g>
       <use xlink:href="#md6c3c9a5af" x="288.36" y="41.472" style="stroke: #000000; stroke-width: 1.2"/>
      </g>
     </g>
     <g id="text_4">
      <!-- 1.2 -->
      <g transform="translate(277.227813 316.537812)scale(0.14 -0.14)">
       <defs>
        <path id="DejaVuSans-32" d="M 1228 531 
L 3431 531 
L 3431 0 
L 469 0 
L 469 531 
Q 828 903 1448 1529 
Q 2069 2156 2228 2338 
Q 2531 2678 2651 2914 
Q 2772 3150 2772 3378 
Q 2772 3750 2511 3984 
Q 2250 4219 1831 4219 
Q 1534 4219 1204 4116 
Q 875 4013 500 3803 
L 500 4441 
Q 881 4594 1212 4672 
Q 1544 4750 1819 4750 
Q 2544 4750 2975 4387 
Q 3406 4025 3406 3419 
Q 3406 3131 3298 2873 
Q 3191 2616 2906 2266 
Q 2828 2175 2409 1742 
Q 1991 1309 1228 531 
z
" transform="scale(0.015625)"/>
       </defs>
       <use xlink:href="#DejaVuSans-31"/>
       <use xlink:href="#DejaVuSans-2e" x="63.623047"/>
       <use xlink:href="#DejaVuSans-32" x="95.410156"/>
      </g>
     </g>
    </g>
    <g id="xtick_5">
     <g id="line2d_9">
      <g>
       <use xlink:href="#m2ec3b4a1be" x="355.32" y="302.4" style="stroke: #000000; stroke-width: 1.2"/>
      </g>
     </g>
     <g id="line2d_10">
      <g>
       <use xlink:href="#md6c3c9a5af" x="355.32" y="41.472" style="stroke: #000000; stroke-width: 1.2"/>
      </g>
     </g>
     <g id="text_5">
      <!-- 1.4 -->
      <g transform="translate(344.187812 316.537812)scale(0.14 -0.14)">
       <defs>
        <path id="DejaVuSans-34" d="M 2419 4116 
L 825 1625 
L 2419 1625 
L 2419 4116 
z
M 2253 4666 
L 3047 4666 
L 3047 1625 
L 3713 1625 
L 3713 1100 
L 3047 1100 
L 3047 0 
L 2419 0 
L 2419 1100 
L 313 1100 
L 313 1709 
L 2253 4666 
z
" transform="scale(0.015625)"/>
       </defs>
       <use xlink:href="#DejaVuSans-31"/>
       <use xlink:href="#DejaVuSans-2e" x="63.623047"/>
       <use xlink:href="#DejaVuSans-34" x="95.410156"/>
      </g>
     </g>
    </g>
    <g id="text_6">
     <!-- $p_\mathrm{T}^\mathrm{corr}\//\/p_\mathrm{T}^\mathrm{gen}$ -->
     <g transform="translate(187.87 336.049375)scale(0.14 -0.14)">
      <defs>
       <path id="DejaVuSans-Oblique-70" d="M 3175 2156 
Q 3175 2616 2975 2859 
Q 2775 3103 2400 3103 
Q 2144 3103 1911 2972 
Q 1678 2841 1497 2591 
Q 1319 2344 1212 1994 
Q 1106 1644 1106 1300 
Q 1106 863 1306 627 
Q 1506 391 1875 391 
Q 2147 391 2380 519 
Q 2613 647 2778 891 
Q 2956 1147 3065 1494 
Q 3175 1841 3175 2156 
z
M 1394 2969 
Q 1625 3272 1939 3428 
Q 2253 3584 2638 3584 
Q 3175 3584 3472 3232 
Q 3769 2881 3769 2247 
Q 3769 1728 3584 1258 
Q 3400 788 3053 416 
Q 2822 169 2531 39 
Q 2241 -91 1919 -91 
Q 1547 -91 1294 64 
Q 1041 219 916 525 
L 556 -1331 
L -19 -1331 
L 922 3500 
L 1497 3500 
L 1394 2969 
z
" transform="scale(0.015625)"/>
       <path id="DejaVuSans-63" d="M 3122 3366 
L 3122 2828 
Q 2878 2963 2633 3030 
Q 2388 3097 2138 3097 
Q 1578 3097 1268 2742 
Q 959 2388 959 1747 
Q 959 1106 1268 751 
Q 1578 397 2138 397 
Q 2388 397 2633 464 
Q 2878 531 3122 666 
L 3122 134 
Q 2881 22 2623 -34 
Q 2366 -91 2075 -91 
Q 1284 -91 818 406 
Q 353 903 353 1747 
Q 353 2603 823 3093 
Q 1294 3584 2113 3584 
Q 2378 3584 2631 3529 
Q 2884 3475 3122 3366 
z
" transform="scale(0.015625)"/>
       <path id="DejaVuSans-6f" d="M 1959 3097 
Q 1497 3097 1228 2736 
Q 959 2375 959 1747 
Q 959 1119 1226 758 
Q 1494 397 1959 397 
Q 2419 397 2687 759 
Q 2956 1122 2956 1747 
Q 2956 2369 2687 2733 
Q 2419 3097 1959 3097 
z
M 1959 3584 
Q 2709 3584 3137 3096 
Q 3566 2609 3566 1747 
Q 3566 888 3137 398 
Q 2709 -91 1959 -91 
Q 1206 -91 779 398 
Q 353 888 353 1747 
Q 353 2609 779 3096 
Q 1206 3584 1959 3584 
z
" transform="scale(0.015625)"/>
       <path id="DejaVuSans-72" d="M 2631 2963 
Q 2534 3019 2420 3045 
Q 2306 3072 2169 3072 
Q 1681 3072 1420 2755 
Q 1159 2438 1159 1844 
L 1159 0 
L 581 0 
L 581 3500 
L 1159 3500 
L 1159 2956 
Q 1341 3275 1631 3429 
Q 1922 3584 2338 3584 
Q 2397 3584 2469 3576 
Q 2541 3569 2628 3553 
L 2631 2963 
z
" transform="scale(0.015625)"/>
       <path id="DejaVuSans-54" d="M -19 4666 
L 3928 4666 
L 3928 4134 
L 2272 4134 
L 2272 0 
L 1638 0 
L 1638 4134 
L -19 4134 
L -19 4666 
z
" transform="scale(0.015625)"/>
       <path id="DejaVuSans-2f" d="M 1625 4666 
L 2156 4666 
L 531 -594 
L 0 -594 
L 1625 4666 
z
" transform="scale(0.015625)"/>
       <path id="DejaVuSans-67" d="M 2906 1791 
Q 2906 2416 2648 2759 
Q 2391 3103 1925 3103 
Q 1463 3103 1205 2759 
Q 947 2416 947 1791 
Q 947 1169 1205 825 
Q 1463 481 1925 481 
Q 2391 481 2648 825 
Q 2906 1169 2906 1791 
z
M 3481 434 
Q 3481 -459 3084 -895 
Q 2688 -1331 1869 -1331 
Q 1566 -1331 1297 -1286 
Q 1028 -1241 775 -1147 
L 775 -588 
Q 1028 -725 1275 -790 
Q 1522 -856 1778 -856 
Q 2344 -856 2625 -561 
Q 2906 -266 2906 331 
L 2906 616 
Q 2728 306 2450 153 
Q 2172 0 1784 0 
Q 1141 0 747 490 
Q 353 981 353 1791 
Q 353 2603 747 3093 
Q 1141 3584 1784 3584 
Q 2172 3584 2450 3431 
Q 2728 3278 2906 2969 
L 2906 3500 
L 3481 3500 
L 3481 434 
z
" transform="scale(0.015625)"/>
       <path id="DejaVuSans-65" d="M 3597 1894 
L 3597 1613 
L 953 1613 
Q 991 1019 1311 708 
Q 1631 397 2203 397 
Q 2534 397 2845 478 
Q 3156 559 3463 722 
L 3463 178 
Q 3153 47 2828 -22 
Q 2503 -91 2169 -91 
Q 1331 -91 842 396 
Q 353 884 353 1716 
Q 353 2575 817 3079 
Q 1281 3584 2069 3584 
Q 2775 3584 3186 3129 
Q 3597 2675 3597 1894 
z
M 3022 2063 
Q 3016 2534 2758 2815 
Q 2500 3097 2075 3097 
Q 1594 3097 1305 2825 
Q 1016 2553 972 2059 
L 3022 2063 
z
" transform="scale(0.015625)"/>
       <path id="DejaVuSans-6e" d="M 3513 2113 
L 3513 0 
L 2938 0 
L 2938 2094 
Q 2938 2591 2744 2837 
Q 2550 3084 2163 3084 
Q 1697 3084 1428 2787 
Q 1159 2491 1159 1978 
L 1159 0 
L 581 0 
L 581 3500 
L 1159 3500 
L 1159 2956 
Q 1366 3272 1645 3428 
Q 1925 3584 2291 3584 
Q 2894 3584 3203 3211 
Q 3513 2838 3513 2113 
z
" transform="scale(0.015625)"/>
      </defs>
      <use xlink:href="#DejaVuSans-Oblique-70" transform="translate(0 0.051563)"/>
      <use xlink:href="#DejaVuSans-63" transform="translate(68.126458 38.332813)scale(0.7)"/>
      <use xlink:href="#DejaVuSans-6f" transform="translate(106.612786 38.332813)scale(0.7)"/>
      <use xlink:href="#DejaVuSans-72" transform="translate(149.439935 38.332813)scale(0.7)"/>
      <use xlink:href="#DejaVuSans-72" transform="translate(178.219232 38.332813)scale(0.7)"/>
      <use xlink:href="#DejaVuSans-54" transform="translate(63.476562 -27.292187)scale(0.7)"/>
      <use xlink:href="#DejaVuSans-2f" transform="translate(225.96858 0.051563)"/>
      <use xlink:href="#DejaVuSans-Oblique-70" transform="translate(275.895662 0.051563)"/>
      <use xlink:href="#DejaVuSans-67" transform="translate(344.022121 50.8)scale(0.7)"/>
      <use xlink:href="#DejaVuSans-65" transform="translate(388.455715 50.8)scale(0.7)"/>
      <use xlink:href="#DejaVuSans-6e" transform="translate(431.522121 50.8)scale(0.7)"/>
      <use xlink:href="#DejaVuSans-54" transform="translate(339.372225 -27.292187)scale(0.7)"/>
     </g>
    </g>
   </g>
   <g id="matplotlib.axis_2">
    <g id="ytick_1">
     <g id="line2d_11">
      <defs>
       <path id="m9be1c2a94e" d="M 0 0 
L 3.5 0 
" style="stroke: #000000; stroke-width: 1.2"/>
      </defs>
      <g>
       <use xlink:href="#m9be1c2a94e" x="54" y="302.4" style="stroke: #000000; stroke-width: 1.2"/>
      </g>
     </g>
     <g id="line2d_12">
      <defs>
       <path id="m4ee397d41f" d="M 0 0 
L -3.5 0 
" style="stroke: #000000; stroke-width: 1.2"/>
      </defs>
      <g>
       <use xlink:href="#m4ee397d41f" x="388.8" y="302.4" style="stroke: #000000; stroke-width: 1.2"/>
      </g>
     </g>
     <g id="text_7">
      <!-- 0 -->
      <g transform="translate(41.5925 307.718906)scale(0.14 -0.14)">
       <use xlink:href="#DejaVuSans-30"/>
      </g>
     </g>
    </g>
    <g id="ytick_2">
     <g id="line2d_13">
      <g>
       <use xlink:href="#m9be1c2a94e" x="54" y="249.784532" style="stroke: #000000; stroke-width: 1.2"/>
      </g>
     </g>
     <g id="line2d_14">
      <g>
       <use xlink:href="#m4ee397d41f" x="388.8" y="249.784532" style="stroke: #000000; stroke-width: 1.2"/>
      </g>
     </g>
     <g id="text_8">
      <!-- 2000 -->
      <g transform="translate(14.87 255.103438)scale(0.14 -0.14)">
       <use xlink:href="#DejaVuSans-32"/>
       <use xlink:href="#DejaVuSans-30" x="63.623047"/>
       <use xlink:href="#DejaVuSans-30" x="127.246094"/>
       <use xlink:href="#DejaVuSans-30" x="190.869141"/>
      </g>
     </g>
    </g>
    <g id="ytick_3">
     <g id="line2d_15">
      <g>
       <use xlink:href="#m9be1c2a94e" x="54" y="197.169063" style="stroke: #000000; stroke-width: 1.2"/>
      </g>
     </g>
     <g id="line2d_16">
      <g>
       <use xlink:href="#m4ee397d41f" x="388.8" y="197.169063" style="stroke: #000000; stroke-width: 1.2"/>
      </g>
     </g>
     <g id="text_9">
      <!-- 4000 -->
      <g transform="translate(14.87 202.487969)scale(0.14 -0.14)">
       <use xlink:href="#DejaVuSans-34"/>
       <use xlink:href="#DejaVuSans-30" x="63.623047"/>
       <use xlink:href="#DejaVuSans-30" x="127.246094"/>
       <use xlink:href="#DejaVuSans-30" x="190.869141"/>
      </g>
     </g>
    </g>
    <g id="ytick_4">
     <g id="line2d_17">
      <g>
       <use xlink:href="#m9be1c2a94e" x="54" y="144.553595" style="stroke: #000000; stroke-width: 1.2"/>
      </g>
     </g>
     <g id="line2d_18">
      <g>
       <use xlink:href="#m4ee397d41f" x="388.8" y="144.553595" style="stroke: #000000; stroke-width: 1.2"/>
      </g>
     </g>
     <g id="text_10">
      <!-- 6000 -->
      <g transform="translate(14.87 149.872501)scale(0.14 -0.14)">
       <use xlink:href="#DejaVuSans-36"/>
       <use xlink:href="#DejaVuSans-30" x="63.623047"/>
       <use xlink:href="#DejaVuSans-30" x="127.246094"/>
       <use xlink:href="#DejaVuSans-30" x="190.869141"/>
      </g>
     </g>
    </g>
    <g id="ytick_5">
     <g id="line2d_19">
      <g>
       <use xlink:href="#m9be1c2a94e" x="54" y="91.938126" style="stroke: #000000; stroke-width: 1.2"/>
      </g>
     </g>
     <g id="line2d_20">
      <g>
       <use xlink:href="#m4ee397d41f" x="388.8" y="91.938126" style="stroke: #000000; stroke-width: 1.2"/>
      </g>
     </g>
     <g id="text_11">
      <!-- 8000 -->
      <g transform="translate(14.87 97.257033)scale(0.14 -0.14)">
       <use xlink:href="#DejaVuSans-38"/>
       <use xlink:href="#DejaVuSans-30" x="63.623047"/>
       <use xlink:href="#DejaVuSans-30" x="127.246094"/>
       <use xlink:href="#DejaVuSans-30" x="190.869141"/>
      </g>
     </g>
    </g>
    <g id="text_12">
     <!-- Jets -->
     <g transform="translate(7.958437 184.698969)rotate(-90)scale(0.14 -0.14)">
      <defs>
       <path id="DejaVuSans-4a" d="M 628 4666 
L 1259 4666 
L 1259 325 
Q 1259 -519 939 -900 
Q 619 -1281 -91 -1281 
L -331 -1281 
L -331 -750 
L -134 -750 
Q 284 -750 456 -515 
Q 628 -281 628 325 
L 628 4666 
z
" transform="scale(0.015625)"/>
       <path id="DejaVuSans-74" d="M 1172 4494 
L 1172 3500 
L 2356 3500 
L 2356 3053 
L 1172 3053 
L 1172 1153 
Q 1172 725 1289 603 
Q 1406 481 1766 481 
L 2356 481 
L 2356 0 
L 1766 0 
Q 1100 0 847 248 
Q 594 497 594 1153 
L 594 3053 
L 172 3053 
L 172 3500 
L 594 3500 
L 594 4494 
L 1172 4494 
z
" transform="scale(0.015625)"/>
       <path id="DejaVuSans-73" d="M 2834 3397 
L 2834 2853 
Q 2591 2978 2328 3040 
Q 2066 3103 1784 3103 
Q 1356 3103 1142 2972 
Q 928 2841 928 2578 
Q 928 2378 1081 2264 
Q 1234 2150 1697 2047 
L 1894 2003 
Q 2506 1872 2764 1633 
Q 3022 1394 3022 966 
Q 3022 478 2636 193 
Q 2250 -91 1575 -91 
Q 1294 -91 989 -36 
Q 684 19 347 128 
L 347 722 
Q 666 556 975 473 
Q 1284 391 1588 391 
Q 1994 391 2212 530 
Q 2431 669 2431 922 
Q 2431 1156 2273 1281 
Q 2116 1406 1581 1522 
L 1381 1569 
Q 847 1681 609 1914 
Q 372 2147 372 2553 
Q 372 3047 722 3315 
Q 1072 3584 1716 3584 
Q 2034 3584 2315 3537 
Q 2597 3491 2834 3397 
z
" transform="scale(0.015625)"/>
      </defs>
      <use xlink:href="#DejaVuSans-4a"/>
      <use xlink:href="#DejaVuSans-65" x="29.492188"/>
      <use xlink:href="#DejaVuSans-74" x="91.015625"/>
      <use xlink:href="#DejaVuSans-73" x="130.224609"/>
     </g>
    </g>
   </g>
   <g id="patch_3">
    <path d="M 54 302.4 
L 54 301.847538 
L 60.696 301.873845 
L 60.696 301.637076 
L 64.044 301.637076 
L 64.044 301.847538 
L 67.392 301.847538 
L 67.392 301.452922 
L 77.436 301.426614 
L 77.436 301.295075 
L 80.784 301.295075 
L 80.784 300.900459 
L 84.132 300.900459 
L 84.132 301.084613 
L 87.48 301.084613 
L 87.48 301.295075 
L 90.828 301.295075 
L 90.828 300.76892 
L 94.176 300.76892 
L 94.176 300.42692 
L 100.872 300.505843 
L 100.872 300.163843 
L 107.568 300.058612 
L 107.568 299.26938 
L 110.916 299.26938 
L 110.916 299.006302 
L 114.264 299.006302 
L 114.264 298.111839 
L 117.612 298.111839 
L 117.612 297.901377 
L 120.96 297.901377 
L 120.96 297.401531 
L 124.308 297.401531 
L 124.308 295.559989 
L 127.656 295.559989 
L 127.656 294.533987 
L 131.004 294.533987 
L 131.004 293.771063 
L 134.352 293.771063 
L 134.352 292.718754 
L 137.7 292.718754 
L 137.7 291.324444 
L 141.048 291.324444 
L 141.048 289.325056 
L 144.396 289.325056 
L 144.396 286.931052 
L 147.744 286.931052 
L 147.744 284.668587 
L 151.092 284.668587 
L 151.092 282.43243 
L 154.44 282.43243 
L 154.44 278.880886 
L 157.788 278.880886 
L 157.788 274.434879 
L 161.136 274.434879 
L 161.136 271.909336 
L 164.484 271.909336 
L 164.484 266.75302 
L 167.832 266.75302 
L 167.832 260.412856 
L 171.18 260.412856 
L 171.18 255.440694 
L 174.528 255.440694 
L 174.528 248.732222 
L 177.876 248.732222 
L 177.876 239.550823 
L 181.224 239.550823 
L 181.224 230.343116 
L 184.572 230.343116 
L 184.572 217.978481 
L 187.92 217.978481 
L 187.92 206.008462 
L 191.268 206.008462 
L 191.268 189.408282 
L 194.616 189.408282 
L 194.616 175.465183 
L 197.964 175.465183 
L 197.964 158.943925 
L 201.312 158.943925 
L 201.312 140.554819 
L 204.66 140.554819 
L 204.66 125.980335 
L 208.008 125.980335 
L 208.008 105.591841 
L 211.356 105.591841 
L 211.356 85.782117 
L 214.704 85.782117 
L 214.704 79.073644 
L 218.052 79.073644 
L 218.052 64.999007 
L 221.4 64.999007 
L 221.4 63.762543 
L 224.748 63.762543 
L 224.748 76.021947 
L 228.096 76.021947 
L 228.096 78.679028 
L 231.444 78.679028 
L 231.444 96.647211 
L 234.792 96.647211 
L 234.792 107.407074 
L 238.14 107.407074 
L 238.14 127.058952 
L 241.488 127.058952 
L 241.488 144.132671 
L 244.836 144.132671 
L 244.836 165.415628 
L 248.184 165.415628 
L 248.184 185.567352 
L 251.532 185.567352 
L 251.532 197.09014 
L 254.88 197.09014 
L 254.88 211.848779 
L 258.228 211.848779 
L 258.228 225.449877 
L 261.576 225.449877 
L 261.576 237.946051 
L 264.924 237.946051 
L 264.924 244.338831 
L 268.272 244.338831 
L 268.272 253.178229 
L 271.62 253.178229 
L 271.62 260.649626 
L 274.968 260.649626 
L 274.968 266.595174 
L 278.316 266.595174 
L 278.316 272.014567 
L 281.664 272.014567 
L 281.664 276.802575 
L 285.012 276.802575 
L 285.012 279.564887 
L 288.36 279.564887 
L 288.36 282.563968 
L 291.708 282.563968 
L 291.708 285.589358 
L 295.056 285.589358 
L 295.056 287.299361 
L 298.404 287.299361 
L 298.404 287.878131 
L 301.752 287.878131 
L 301.752 290.429981 
L 305.1 290.429981 
L 305.1 292.139984 
L 308.448 292.139984 
L 308.448 292.929216 
L 311.796 292.929216 
L 311.796 294.718142 
L 315.144 294.718142 
L 315.144 294.086756 
L 318.492 294.086756 
L 318.492 295.454758 
L 321.84 295.454758 
L 321.84 296.375529 
L 325.188 296.375529 
L 325.188 297.506761 
L 328.536 297.506761 
L 328.536 297.664608 
L 331.884 297.664608 
L 331.884 297.953993 
L 338.58 297.87507 
L 338.58 299.348303 
L 341.928 299.348303 
L 341.928 299.795534 
L 345.276 299.795534 
L 345.276 298.45384 
L 348.624 298.45384 
L 348.624 300.400612 
L 355.32 300.295381 
L 355.32 300.111227 
L 358.668 300.111227 
L 358.668 300.374304 
L 362.016 300.374304 
L 362.016 300.716305 
L 372.06 300.795228 
L 372.06 301.084613 
L 375.408 301.084613 
L 375.408 301.24246 
L 388.8 301.24246 
L 388.8 302.4 
L 388.8 302.4 
" clip-path="url(#pe18f7af33a)" style="fill: none; stroke: #1f77b4; stroke-linejoin: miter"/>
   </g>
   <g id="patch_4">
    <path d="M 54 302.4 
L 54 301.794922 
L 60.696 301.689691 
L 60.696 301.610768 
L 67.392 301.689691 
L 67.392 301.400306 
L 70.74 301.400306 
L 70.74 301.742307 
L 74.088 301.742307 
L 74.088 301.24246 
L 77.436 301.24246 
L 77.436 301.610768 
L 80.784 301.610768 
L 80.784 301.031998 
L 87.48 301.031998 
L 87.48 300.321689 
L 90.828 300.321689 
L 90.828 300.611074 
L 94.176 300.611074 
L 94.176 300.216458 
L 97.524 300.216458 
L 97.524 300.400612 
L 100.872 300.400612 
L 100.872 299.61138 
L 104.22 299.61138 
L 104.22 299.111533 
L 107.568 299.111533 
L 107.568 298.874764 
L 110.916 298.874764 
L 110.916 298.322301 
L 114.264 298.322301 
L 114.264 297.401531 
L 117.612 297.401531 
L 117.612 296.901684 
L 120.96 296.901684 
L 120.96 296.48076 
L 124.308 296.48076 
L 124.308 295.32322 
L 127.656 295.32322 
L 127.656 293.244909 
L 131.004 293.244909 
L 131.004 293.11337 
L 134.352 293.11337 
L 134.352 290.245827 
L 137.7 290.245827 
L 137.7 288.904132 
L 141.048 288.904132 
L 141.048 287.088899 
L 144.396 287.088899 
L 144.396 284.957972 
L 147.744 284.957972 
L 147.744 283.300585 
L 151.092 283.300585 
L 151.092 279.433348 
L 154.44 279.433348 
L 154.44 276.065958 
L 157.788 276.065958 
L 157.788 271.067489 
L 161.136 271.067489 
L 161.136 269.646871 
L 164.484 269.646871 
L 164.484 263.096245 
L 167.832 263.096245 
L 167.832 256.940235 
L 171.18 256.940235 
L 171.18 251.994381 
L 174.528 251.994381 
L 174.528 242.155289 
L 177.876 242.155289 
L 177.876 233.236967 
L 181.224 233.236967 
L 181.224 226.00234 
L 184.572 226.00234 
L 184.572 210.691239 
L 187.92 210.691239 
L 187.92 200.510145 
L 191.268 200.510145 
L 191.268 185.041198 
L 194.616 185.041198 
L 194.616 168.967172 
L 197.964 168.967172 
L 197.964 152.866839 
L 201.312 152.866839 
L 201.312 136.214043 
L 204.66 136.214043 
L 204.66 111.563696 
L 208.008 111.563696 
L 208.008 98.593983 
L 211.356 98.593983 
L 211.356 79.205183 
L 214.704 79.205183 
L 214.704 67.656088 
L 218.052 67.656088 
L 218.052 54.949452 
L 221.4 54.949452 
L 221.4 58.264227 
L 224.748 58.264227 
L 224.748 65.867162 
L 228.096 65.867162 
L 228.096 78.968414 
L 231.444 78.968414 
L 231.444 94.937208 
L 234.792 94.937208 
L 234.792 115.720318 
L 238.14 115.720318 
L 238.14 134.267271 
L 241.488 134.267271 
L 241.488 153.419301 
L 244.836 153.419301 
L 244.836 175.623029 
L 248.184 175.623029 
L 248.184 192.986134 
L 251.532 192.986134 
L 251.532 209.612622 
L 254.88 209.612622 
L 254.88 222.424488 
L 258.228 222.424488 
L 258.228 232.526658 
L 261.576 232.526658 
L 261.576 244.391446 
L 264.924 244.391446 
L 264.924 254.67777 
L 268.272 254.67777 
L 268.272 260.518087 
L 271.62 260.518087 
L 271.62 266.305789 
L 274.968 266.305789 
L 274.968 271.75149 
L 278.316 271.75149 
L 278.316 276.223804 
L 281.664 276.223804 
L 281.664 280.643504 
L 285.012 280.643504 
L 285.012 282.721815 
L 288.36 282.721815 
L 288.36 285.720897 
L 291.708 285.720897 
L 291.708 287.141514 
L 295.056 287.141514 
L 295.056 288.719978 
L 298.404 288.719978 
L 298.404 292.245215 
L 301.752 292.245215 
L 301.752 292.376753 
L 305.1 292.376753 
L 305.1 293.955217 
L 308.448 293.955217 
L 308.448 294.428757 
L 311.796 294.428757 
L 311.796 295.244296 
L 315.144 295.244296 
L 315.144 296.585991 
L 318.492 296.585991 
L 318.492 297.690916 
L 321.84 297.690916 
L 321.84 298.085532 
L 325.188 298.085532 
L 325.188 298.664302 
L 328.536 298.664302 
L 328.536 298.374917 
L 331.884 298.374917 
L 331.884 299.190456 
L 335.232 299.190456 
L 335.232 299.427226 
L 338.58 299.427226 
L 338.58 299.927073 
L 341.928 299.927073 
L 341.928 300.084919 
L 348.624 300.163843 
L 348.624 300.821536 
L 362.016 300.900459 
L 362.016 300.689997 
L 365.364 300.689997 
L 365.364 301.479229 
L 382.104 301.531845 
L 382.104 301.82123 
L 388.8 301.873845 
L 388.8 302.4 
L 388.8 302.4 
" clip-path="url(#pe18f7af33a)" style="fill: none; stroke: #ff7f0e; stroke-linejoin: miter"/>
   </g>
   <g id="patch_5">
    <path d="M 54 302.4 
L 54 302.031692 
L 57.348 302.031692 
L 57.348 301.610768 
L 60.696 301.610768 
L 60.696 301.768614 
L 64.044 301.768614 
L 64.044 301.531845 
L 67.392 301.531845 
L 67.392 301.715999 
L 74.088 301.742307 
L 74.088 301.216152 
L 77.436 301.216152 
L 77.436 301.505537 
L 80.784 301.505537 
L 80.784 301.295075 
L 84.132 301.295075 
L 84.132 301.084613 
L 87.48 301.084613 
L 87.48 300.742613 
L 94.176 300.637382 
L 94.176 300.295381 
L 100.872 300.216458 
L 100.872 299.795534 
L 104.22 299.795534 
L 104.22 299.216764 
L 107.568 299.216764 
L 107.568 299.558765 
L 110.916 299.558765 
L 110.916 297.901377 
L 114.264 297.901377 
L 114.264 297.611992 
L 117.612 297.611992 
L 117.612 296.691222 
L 120.96 296.691222 
L 120.96 296.875376 
L 124.308 296.875376 
L 124.308 294.902296 
L 127.656 294.902296 
L 127.656 294.586603 
L 131.004 294.586603 
L 131.004 292.271522 
L 134.352 292.271522 
L 134.352 291.534906 
L 137.7 291.534906 
L 137.7 288.904132 
L 141.048 288.904132 
L 141.048 287.641361 
L 144.396 287.641361 
L 144.396 284.484433 
L 147.744 284.484433 
L 147.744 283.58997 
L 151.092 283.58997 
L 151.092 280.80135 
L 154.44 280.80135 
L 154.44 275.46088 
L 157.788 275.46088 
L 157.788 272.961645 
L 161.136 272.961645 
L 161.136 268.620869 
L 164.484 268.620869 
L 164.484 263.38563 
L 167.832 263.38563 
L 167.832 258.676546 
L 171.18 258.676546 
L 171.18 251.020995 
L 174.528 251.020995 
L 174.528 243.470675 
L 177.876 243.470675 
L 177.876 235.683586 
L 181.224 235.683586 
L 181.224 224.555415 
L 184.572 224.555415 
L 184.572 211.243701 
L 187.92 211.243701 
L 187.92 201.509839 
L 191.268 201.509839 
L 191.268 186.672277 
L 194.616 186.672277 
L 194.616 169.046095 
L 197.964 169.046095 
L 197.964 155.76069 
L 201.312 155.76069 
L 201.312 135.135426 
L 204.66 135.135426 
L 204.66 114.326008 
L 208.008 114.326008 
L 208.008 97.278597 
L 211.356 97.278597 
L 211.356 77.96872 
L 214.704 77.96872 
L 214.704 66.577471 
L 218.052 66.577471 
L 218.052 53.897143 
L 221.4 53.897143 
L 221.4 59.816383 
L 224.748 59.816383 
L 224.748 67.840242 
L 228.096 67.840242 
L 228.096 80.310108 
L 231.444 80.310108 
L 231.444 92.280127 
L 234.792 92.280127 
L 234.792 114.562778 
L 238.14 114.562778 
L 238.14 134.319886 
L 241.488 134.319886 
L 241.488 152.814223 
L 244.836 152.814223 
L 244.836 172.36087 
L 248.184 172.36087 
L 248.184 192.512594 
L 251.532 192.512594 
L 251.532 207.586926 
L 254.88 207.586926 
L 254.88 220.240946 
L 258.228 220.240946 
L 258.228 232.132042 
L 261.576 232.132042 
L 261.576 244.391446 
L 264.924 244.391446 
L 264.924 253.888538 
L 268.272 253.888538 
L 268.272 260.781165 
L 271.62 260.781165 
L 271.62 266.305789 
L 274.968 266.305789 
L 274.968 271.988259 
L 278.316 271.988259 
L 278.316 275.723958 
L 281.664 275.723958 
L 281.664 279.485964 
L 285.012 279.485964 
L 285.012 283.221662 
L 288.36 283.221662 
L 288.36 285.852435 
L 291.708 285.852435 
L 291.708 286.352282 
L 295.056 286.352282 
L 295.056 288.562132 
L 298.404 288.562132 
L 298.404 291.298136 
L 301.752 291.298136 
L 301.752 292.929216 
L 305.1 292.929216 
L 305.1 293.350139 
L 308.448 293.350139 
L 308.448 295.586297 
L 311.796 295.586297 
L 311.796 295.375835 
L 315.144 295.375835 
L 315.144 296.638606 
L 318.492 296.638606 
L 318.492 297.164761 
L 321.84 297.164761 
L 321.84 297.796147 
L 325.188 297.796147 
L 325.188 298.006608 
L 328.536 298.006608 
L 328.536 298.953687 
L 335.232 298.901071 
L 335.232 299.769227 
L 338.58 299.769227 
L 338.58 299.26938 
L 341.928 299.26938 
L 341.928 299.821842 
L 345.276 299.821842 
L 345.276 300.269074 
L 348.624 300.269074 
L 348.624 300.716305 
L 358.668 300.76892 
L 358.668 301.031998 
L 362.016 301.031998 
L 362.016 301.216152 
L 365.364 301.216152 
L 365.364 301.00569 
L 368.712 301.00569 
L 368.712 301.479229 
L 372.06 301.479229 
L 372.06 301.610768 
L 378.756 301.637076 
L 378.756 301.768614 
L 382.104 301.768614 
L 382.104 301.400306 
L 385.452 301.400306 
L 385.452 301.689691 
L 388.8 301.689691 
L 388.8 302.4 
L 388.8 302.4 
" clip-path="url(#pe18f7af33a)" style="fill: none; stroke: #2ca02c; stroke-linejoin: miter"/>
   </g>
   <g id="line2d_21">
    <path d="M 221.4 302.4 
L 221.4 41.472 
" clip-path="url(#pe18f7af33a)" style="fill: none; stroke-dasharray: 2.96,1.28; stroke-dashoffset: 0; stroke: #808080; stroke-width: 0.8"/>
   </g>
   <g id="patch_6">
    <path d="M 54 302.4 
L 54 41.472 
" style="fill: none; stroke: #000000; stroke-width: 0.8; stroke-linejoin: miter; stroke-linecap: square"/>
   </g>
   <g id="patch_7">
    <path d="M 388.8 302.4 
L 388.8 41.472 
" style="fill: none; stroke: #000000; stroke-width: 0.8; stroke-linejoin: miter; stroke-linecap: square"/>
   </g>
   <g id="patch_8">
    <path d="M 54 302.4 
L 388.8 302.4 
" style="fill: none; stroke: #000000; stroke-width: 0.8; stroke-linejoin: miter; stroke-linecap: square"/>
   </g>
   <g id="patch_9">
    <path d="M 54 41.472 
L 388.8 41.472 
" style="fill: none; stroke: #000000; stroke-width: 0.8; stroke-linejoin: miter; stroke-linecap: square"/>
   </g>
   <g id="text_13">
    <!-- $all$, $p_\mathrm{T}^\mathrm{gen} &gt; 30$ GeV, $0 &lt; |\eta^\mathrm{gen}| &lt; 1.3$ -->
    <g transform="translate(154.3 37.030144)scale(0.14 -0.14)">
     <defs>
      <path id="DejaVuSans-Oblique-61" d="M 3438 1997 
L 3047 0 
L 2472 0 
L 2578 531 
Q 2325 219 2001 64 
Q 1678 -91 1281 -91 
Q 834 -91 548 182 
Q 263 456 263 884 
Q 263 1497 752 1853 
Q 1241 2209 2100 2209 
L 2900 2209 
L 2931 2363 
Q 2938 2388 2941 2417 
Q 2944 2447 2944 2509 
Q 2944 2788 2717 2942 
Q 2491 3097 2081 3097 
Q 1800 3097 1504 3025 
Q 1209 2953 897 2809 
L 997 3341 
Q 1322 3463 1633 3523 
Q 1944 3584 2234 3584 
Q 2853 3584 3176 3315 
Q 3500 3047 3500 2534 
Q 3500 2431 3484 2292 
Q 3469 2153 3438 1997 
z
M 2816 1759 
L 2241 1759 
Q 1534 1759 1195 1570 
Q 856 1381 856 984 
Q 856 709 1029 553 
Q 1203 397 1509 397 
Q 1978 397 2328 733 
Q 2678 1069 2791 1631 
L 2816 1759 
z
" transform="scale(0.015625)"/>
      <path id="DejaVuSans-Oblique-6c" d="M 1172 4863 
L 1747 4863 
L 800 0 
L 225 0 
L 1172 4863 
z
" transform="scale(0.015625)"/>
      <path id="DejaVuSans-2c" d="M 750 794 
L 1409 794 
L 1409 256 
L 897 -744 
L 494 -744 
L 750 256 
L 750 794 
z
" transform="scale(0.015625)"/>
      <path id="DejaVuSans-20" transform="scale(0.015625)"/>
      <path id="DejaVuSans-3e" d="M 678 3150 
L 678 3719 
L 4684 2266 
L 4684 1747 
L 678 294 
L 678 863 
L 3897 2003 
L 678 3150 
z
" transform="scale(0.015625)"/>
      <path id="DejaVuSans-33" d="M 2597 2516 
Q 3050 2419 3304 2112 
Q 3559 1806 3559 1356 
Q 3559 666 3084 287 
Q 2609 -91 1734 -91 
Q 1441 -91 1130 -33 
Q 819 25 488 141 
L 488 750 
Q 750 597 1062 519 
Q 1375 441 1716 441 
Q 2309 441 2620 675 
Q 2931 909 2931 1356 
Q 2931 1769 2642 2001 
Q 2353 2234 1838 2234 
L 1294 2234 
L 1294 2753 
L 1863 2753 
Q 2328 2753 2575 2939 
Q 2822 3125 2822 3475 
Q 2822 3834 2567 4026 
Q 2313 4219 1838 4219 
Q 1578 4219 1281 4162 
Q 984 4106 628 3988 
L 628 4550 
Q 988 4650 1302 4700 
Q 1616 4750 1894 4750 
Q 2613 4750 3031 4423 
Q 3450 4097 3450 3541 
Q 3450 3153 3228 2886 
Q 3006 2619 2597 2516 
z
" transform="scale(0.015625)"/>
      <path id="DejaVuSans-47" d="M 3809 666 
L 3809 1919 
L 2778 1919 
L 2778 2438 
L 4434 2438 
L 4434 434 
Q 4069 175 3628 42 
Q 3188 -91 2688 -91 
Q 1594 -91 976 548 
Q 359 1188 359 2328 
Q 359 3472 976 4111 
Q 1594 4750 2688 4750 
Q 3144 4750 3555 4637 
Q 3966 4525 4313 4306 
L 4313 3634 
Q 3963 3931 3569 4081 
Q 3175 4231 2741 4231 
Q 1884 4231 1454 3753 
Q 1025 3275 1025 2328 
Q 1025 1384 1454 906 
Q 1884 428 2741 428 
Q 3075 428 3337 486 
Q 3600 544 3809 666 
z
" transform="scale(0.015625)"/>
      <path id="DejaVuSans-56" d="M 1831 0 
L 50 4666 
L 709 4666 
L 2188 738 
L 3669 4666 
L 4325 4666 
L 2547 0 
L 1831 0 
z
" transform="scale(0.015625)"/>
      <path id="DejaVuSans-3c" d="M 4684 3150 
L 1459 2003 
L 4684 863 
L 4684 294 
L 678 1747 
L 678 2266 
L 4684 3719 
L 4684 3150 
z
" transform="scale(0.015625)"/>
      <path id="DejaVuSans-7c" d="M 1344 4891 
L 1344 -1509 
L 813 -1509 
L 813 4891 
L 1344 4891 
z
" transform="scale(0.015625)"/>
      <path id="DejaVuSans-Oblique-3b7" d="M 3703 2113 
L 3034 -1331 
L 2459 -1331 
L 3125 2094 
Q 3222 2591 3075 2838 
Q 2931 3084 2544 3084 
Q 2078 3084 1750 2788 
Q 1425 2491 1325 1978 
L 941 0 
L 363 0 
L 1044 3500 
L 1622 3500 
L 1516 2956 
Q 1781 3272 2094 3428 
Q 2403 3584 2769 3584 
Q 3372 3584 3609 3213 
Q 3844 2838 3703 2113 
z
" transform="scale(0.015625)"/>
     </defs>
     <use xlink:href="#DejaVuSans-Oblique-61" transform="translate(0 0.051563)"/>
     <use xlink:href="#DejaVuSans-Oblique-6c" transform="translate(61.279297 0.051563)"/>
     <use xlink:href="#DejaVuSans-Oblique-6c" transform="translate(89.0625 0.051563)"/>
     <use xlink:href="#DejaVuSans-2c" transform="translate(116.845703 0.051563)"/>
     <use xlink:href="#DejaVuSans-20" transform="translate(148.632812 0.051563)"/>
     <use xlink:href="#DejaVuSans-Oblique-70" transform="translate(180.419922 0.051563)"/>
     <use xlink:href="#DejaVuSans-67" transform="translate(248.54638 50.8)scale(0.7)"/>
     <use xlink:href="#DejaVuSans-65" transform="translate(292.979974 50.8)scale(0.7)"/>
     <use xlink:href="#DejaVuSans-6e" transform="translate(336.04638 50.8)scale(0.7)"/>
     <use xlink:href="#DejaVuSans-54" transform="translate(243.896484 -27.292187)scale(0.7)"/>
     <use xlink:href="#DejaVuSans-3e" transform="translate(402.628411 0.051563)"/>
     <use xlink:href="#DejaVuSans-33" transform="translate(505.899896 0.051563)"/>
     <use xlink:href="#DejaVuSans-30" transform="translate(569.522943 0.051563)"/>
     <use xlink:href="#DejaVuSans-20" transform="translate(633.14599 0.051563)"/>
     <use xlink:href="#DejaVuSans-47" transform="translate(664.933099 0.051563)"/>
     <use xlink:href="#DejaVuSans-65" transform="translate(742.423333 0.051563)"/>
     <use xlink:href="#DejaVuSans-56" transform="translate(803.946771 0.051563)"/>
     <use xlink:href="#DejaVuSans-2c" transform="translate(872.354974 0.051563)"/>
     <use xlink:href="#DejaVuSans-20" transform="translate(904.142083 0.051563)"/>
     <use xlink:href="#DejaVuSans-30" transform="translate(935.929193 0.051563)"/>
     <use xlink:href="#DejaVuSans-3c" transform="translate(1019.034661 0.051563)"/>
     <use xlink:href="#DejaVuSans-7c" transform="translate(1122.306146 0.051563)"/>
     <use xlink:href="#DejaVuSans-Oblique-3b7" transform="translate(1155.997552 0.051563)"/>
     <use xlink:href="#DejaVuSans-67" transform="translate(1224.026354 38.332813)scale(0.7)"/>
     <use xlink:href="#DejaVuSans-65" transform="translate(1268.459948 38.332813)scale(0.7)"/>
     <use xlink:href="#DejaVuSans-6e" transform="translate(1311.526354 38.332813)scale(0.7)"/>
     <use xlink:href="#DejaVuSans-7c" transform="translate(1358.625964 0.051563)"/>
     <use xlink:href="#DejaVuSans-3c" transform="translate(1411.799792 0.051563)"/>
     <use xlink:href="#DejaVuSans-31" transform="translate(1515.071276 0.051563)"/>
     <use xlink:href="#DejaVuSans-2e" transform="translate(1578.694323 0.051563)"/>
     <use xlink:href="#DejaVuSans-33" transform="translate(1610.481432 0.051563)"/>
    </g>
   </g>
   <g id="legend_1">
    <g id="patch_10">
     <path d="M 257.897813 114.320125 
L 379 114.320125 
Q 381.8 114.320125 381.8 111.520125 
L 381.8 51.272 
Q 381.8 48.472 379 48.472 
L 257.897813 48.472 
Q 255.097813 48.472 255.097813 51.272 
L 255.097813 111.520125 
Q 255.097813 114.320125 257.897813 114.320125 
z
" style="fill: #ffffff; opacity: 0.8; stroke: #cccccc; stroke-linejoin: miter"/>
    </g>
    <g id="patch_11">
     <path d="M 260.697813 64.709812 
L 288.697813 64.709812 
L 288.697813 54.909813 
L 260.697813 54.909813 
L 260.697813 64.709812 
z
" style="fill: none; stroke: #1f77b4; stroke-linejoin: miter"/>
    </g>
    <g id="text_14">
     <!-- Baseline -->
     <g transform="translate(299.897813 64.709812)scale(0.14 -0.14)">
      <defs>
       <path id="DejaVuSans-42" d="M 1259 2228 
L 1259 519 
L 2272 519 
Q 2781 519 3026 730 
Q 3272 941 3272 1375 
Q 3272 1813 3026 2020 
Q 2781 2228 2272 2228 
L 1259 2228 
z
M 1259 4147 
L 1259 2741 
L 2194 2741 
Q 2656 2741 2882 2914 
Q 3109 3088 3109 3444 
Q 3109 3797 2882 3972 
Q 2656 4147 2194 4147 
L 1259 4147 
z
M 628 4666 
L 2241 4666 
Q 2963 4666 3353 4366 
Q 3744 4066 3744 3513 
Q 3744 3084 3544 2831 
Q 3344 2578 2956 2516 
Q 3422 2416 3680 2098 
Q 3938 1781 3938 1306 
Q 3938 681 3513 340 
Q 3088 0 2303 0 
L 628 0 
L 628 4666 
z
" transform="scale(0.015625)"/>
       <path id="DejaVuSans-61" d="M 2194 1759 
Q 1497 1759 1228 1600 
Q 959 1441 959 1056 
Q 959 750 1161 570 
Q 1363 391 1709 391 
Q 2188 391 2477 730 
Q 2766 1069 2766 1631 
L 2766 1759 
L 2194 1759 
z
M 3341 1997 
L 3341 0 
L 2766 0 
L 2766 531 
Q 2569 213 2275 61 
Q 1981 -91 1556 -91 
Q 1019 -91 701 211 
Q 384 513 384 1019 
Q 384 1609 779 1909 
Q 1175 2209 1959 2209 
L 2766 2209 
L 2766 2266 
Q 2766 2663 2505 2880 
Q 2244 3097 1772 3097 
Q 1472 3097 1187 3025 
Q 903 2953 641 2809 
L 641 3341 
Q 956 3463 1253 3523 
Q 1550 3584 1831 3584 
Q 2591 3584 2966 3190 
Q 3341 2797 3341 1997 
z
" transform="scale(0.015625)"/>
       <path id="DejaVuSans-6c" d="M 603 4863 
L 1178 4863 
L 1178 0 
L 603 0 
L 603 4863 
z
" transform="scale(0.015625)"/>
       <path id="DejaVuSans-69" d="M 603 3500 
L 1178 3500 
L 1178 0 
L 603 0 
L 603 3500 
z
M 603 4863 
L 1178 4863 
L 1178 4134 
L 603 4134 
L 603 4863 
z
" transform="scale(0.015625)"/>
      </defs>
      <use xlink:href="#DejaVuSans-42"/>
      <use xlink:href="#DejaVuSans-61" x="68.603516"/>
      <use xlink:href="#DejaVuSans-73" x="129.882812"/>
      <use xlink:href="#DejaVuSans-65" x="181.982422"/>
      <use xlink:href="#DejaVuSans-6c" x="243.505859"/>
      <use xlink:href="#DejaVuSans-69" x="271.289062"/>
      <use xlink:href="#DejaVuSans-6e" x="299.072266"/>
      <use xlink:href="#DejaVuSans-65" x="362.451172"/>
     </g>
    </g>
    <g id="patch_12">
     <path d="M 260.697813 85.259187 
L 288.697813 85.259187 
L 288.697813 75.459187 
L 260.697813 75.459187 
L 260.697813 85.259187 
z
" style="fill: none; stroke: #ff7f0e; stroke-linejoin: miter"/>
    </g>
    <g id="text_15">
     <!-- PFN -->
     <g transform="translate(299.897813 85.259187)scale(0.14 -0.14)">
      <defs>
       <path id="DejaVuSans-50" d="M 1259 4147 
L 1259 2394 
L 2053 2394 
Q 2494 2394 2734 2622 
Q 2975 2850 2975 3272 
Q 2975 3691 2734 3919 
Q 2494 4147 2053 4147 
L 1259 4147 
z
M 628 4666 
L 2053 4666 
Q 2838 4666 3239 4311 
Q 3641 3956 3641 3272 
Q 3641 2581 3239 2228 
Q 2838 1875 2053 1875 
L 1259 1875 
L 1259 0 
L 628 0 
L 628 4666 
z
" transform="scale(0.015625)"/>
       <path id="DejaVuSans-46" d="M 628 4666 
L 3309 4666 
L 3309 4134 
L 1259 4134 
L 1259 2759 
L 3109 2759 
L 3109 2228 
L 1259 2228 
L 1259 0 
L 628 0 
L 628 4666 
z
" transform="scale(0.015625)"/>
       <path id="DejaVuSans-4e" d="M 628 4666 
L 1478 4666 
L 3547 763 
L 3547 4666 
L 4159 4666 
L 4159 0 
L 3309 0 
L 1241 3903 
L 1241 0 
L 628 0 
L 628 4666 
z
" transform="scale(0.015625)"/>
      </defs>
      <use xlink:href="#DejaVuSans-50"/>
      <use xlink:href="#DejaVuSans-46" x="60.302734"/>
      <use xlink:href="#DejaVuSans-4e" x="117.822266"/>
     </g>
    </g>
    <g id="patch_13">
     <path d="M 260.697813 105.808562 
L 288.697813 105.808562 
L 288.697813 96.008562 
L 260.697813 96.008562 
L 260.697813 105.808562 
z
" style="fill: none; stroke: #2ca02c; stroke-linejoin: miter"/>
    </g>
    <g id="text_16">
     <!-- ParticleNet -->
     <g transform="translate(299.897813 105.808562)scale(0.14 -0.14)">
      <use xlink:href="#DejaVuSans-50"/>
      <use xlink:href="#DejaVuSans-61" x="55.802734"/>
      <use xlink:href="#DejaVuSans-72" x="117.082031"/>
      <use xlink:href="#DejaVuSans-74" x="158.195312"/>
      <use xlink:href="#DejaVuSans-69" x="197.404297"/>
      <use xlink:href="#DejaVuSans-63" x="225.1875"/>
      <use xlink:href="#DejaVuSans-6c" x="280.167969"/>
      <use xlink:href="#DejaVuSans-65" x="307.951172"/>
      <use xlink:href="#DejaVuSans-4e" x="369.474609"/>
      <use xlink:href="#DejaVuSans-65" x="444.279297"/>
      <use xlink:href="#DejaVuSans-74" x="505.802734"/>
     </g>
    </g>
   </g>
  </g>
 </g>
 <defs>
  <clipPath id="pe18f7af33a">
   <rect x="54" y="41.472" width="334.8" height="260.928"/>
  </clipPath>
 </defs>
</svg>
