<?xml version="1.0" encoding="utf-8" standalone="no"?>
<!DOCTYPE svg PUBLIC "-//W3C//DTD SVG 1.1//EN"
  "http://www.w3.org/Graphics/SVG/1.1/DTD/svg11.dtd">
<svg xmlns:xlink="http://www.w3.org/1999/xlink" width="432pt" height="345.6pt" viewBox="0 0 432 345.6" xmlns="http://www.w3.org/2000/svg" version="1.1">
 <metadata>
  <rdf:RDF xmlns:dc="http://purl.org/dc/elements/1.1/" xmlns:cc="http://creativecommons.org/ns#" xmlns:rdf="http://www.w3.org/1999/02/22-rdf-syntax-ns#">
   <cc:Work>
    <dc:type rdf:resource="http://purl.org/dc/dcmitype/StillImage"/>
    <dc:date>2023-03-10T21:40:09.369277</dc:date>
    <dc:format>image/svg+xml</dc:format>
    <dc:creator>
     <cc:Agent>
      <dc:title>Matplotlib v3.5.2, https://matplotlib.org/</dc:title>
     </cc:Agent>
    </dc:creator>
   </cc:Work>
  </rdf:RDF>
 </metadata>
 <defs>
  <style type="text/css">*{stroke-linejoin: round; stroke-linecap: butt}</style>
 </defs>
 <g id="figure_1">
  <g id="patch_1">
   <path d="M 0 345.6 
L 432 345.6 
L 432 0 
L 0 0 
L 0 345.6 
z
" style="fill: none"/>
  </g>
  <g id="axes_1">
   <g id="patch_2">
    <path d="M 54 302.4 
L 388.8 302.4 
L 388.8 41.472 
L 54 41.472 
z
" style="fill: #ffffff"/>
   </g>
   <g id="matplotlib.axis_1">
    <g id="xtick_1">
     <g id="line2d_1">
      <defs>
       <path id="mc78ed54e91" d="M 0 0 
L 0 -3.5 
" style="stroke: #000000; stroke-width: 1.2"/>
      </defs>
      <g>
       <use xlink:href="#mc78ed54e91" x="87.48" y="302.4" style="stroke: #000000; stroke-width: 1.2"/>
      </g>
     </g>
     <g id="line2d_2">
      <defs>
       <path id="m2a10160530" d="M 0 0 
L 0 3.5 
" style="stroke: #000000; stroke-width: 1.2"/>
      </defs>
      <g>
       <use xlink:href="#m2a10160530" x="87.48" y="41.472" style="stroke: #000000; stroke-width: 1.2"/>
      </g>
     </g>
     <g id="text_1">
      <!-- 0.6 -->
      <g transform="translate(76.347813 316.537812)scale(0.14 -0.14)">
       <defs>
        <path id="DejaVuSans-30" d="M 2034 4250 
Q 1547 4250 1301 3770 
Q 1056 3291 1056 2328 
Q 1056 1369 1301 889 
Q 1547 409 2034 409 
Q 2525 409 2770 889 
Q 3016 1369 3016 2328 
Q 3016 3291 2770 3770 
Q 2525 4250 2034 4250 
z
M 2034 4750 
Q 2819 4750 3233 4129 
Q 3647 3509 3647 2328 
Q 3647 1150 3233 529 
Q 2819 -91 2034 -91 
Q 1250 -91 836 529 
Q 422 1150 422 2328 
Q 422 3509 836 4129 
Q 1250 4750 2034 4750 
z
" transform="scale(0.015625)"/>
        <path id="DejaVuSans-2e" d="M 684 794 
L 1344 794 
L 1344 0 
L 684 0 
L 684 794 
z
" transform="scale(0.015625)"/>
        <path id="DejaVuSans-36" d="M 2113 2584 
Q 1688 2584 1439 2293 
Q 1191 2003 1191 1497 
Q 1191 994 1439 701 
Q 1688 409 2113 409 
Q 2538 409 2786 701 
Q 3034 994 3034 1497 
Q 3034 2003 2786 2293 
Q 2538 2584 2113 2584 
z
M 3366 4563 
L 3366 3988 
Q 3128 4100 2886 4159 
Q 2644 4219 2406 4219 
Q 1781 4219 1451 3797 
Q 1122 3375 1075 2522 
Q 1259 2794 1537 2939 
Q 1816 3084 2150 3084 
Q 2853 3084 3261 2657 
Q 3669 2231 3669 1497 
Q 3669 778 3244 343 
Q 2819 -91 2113 -91 
Q 1303 -91 875 529 
Q 447 1150 447 2328 
Q 447 3434 972 4092 
Q 1497 4750 2381 4750 
Q 2619 4750 2861 4703 
Q 3103 4656 3366 4563 
z
" transform="scale(0.015625)"/>
       </defs>
       <use xlink:href="#DejaVuSans-30"/>
       <use xlink:href="#DejaVuSans-2e" x="63.623047"/>
       <use xlink:href="#DejaVuSans-36" x="95.410156"/>
      </g>
     </g>
    </g>
    <g id="xtick_2">
     <g id="line2d_3">
      <g>
       <use xlink:href="#mc78ed54e91" x="154.44" y="302.4" style="stroke: #000000; stroke-width: 1.2"/>
      </g>
     </g>
     <g id="line2d_4">
      <g>
       <use xlink:href="#m2a10160530" x="154.44" y="41.472" style="stroke: #000000; stroke-width: 1.2"/>
      </g>
     </g>
     <g id="text_2">
      <!-- 0.8 -->
      <g transform="translate(143.307813 316.537812)scale(0.14 -0.14)">
       <defs>
        <path id="DejaVuSans-38" d="M 2034 2216 
Q 1584 2216 1326 1975 
Q 1069 1734 1069 1313 
Q 1069 891 1326 650 
Q 1584 409 2034 409 
Q 2484 409 2743 651 
Q 3003 894 3003 1313 
Q 3003 1734 2745 1975 
Q 2488 2216 2034 2216 
z
M 1403 2484 
Q 997 2584 770 2862 
Q 544 3141 544 3541 
Q 544 4100 942 4425 
Q 1341 4750 2034 4750 
Q 2731 4750 3128 4425 
Q 3525 4100 3525 3541 
Q 3525 3141 3298 2862 
Q 3072 2584 2669 2484 
Q 3125 2378 3379 2068 
Q 3634 1759 3634 1313 
Q 3634 634 3220 271 
Q 2806 -91 2034 -91 
Q 1263 -91 848 271 
Q 434 634 434 1313 
Q 434 1759 690 2068 
Q 947 2378 1403 2484 
z
M 1172 3481 
Q 1172 3119 1398 2916 
Q 1625 2713 2034 2713 
Q 2441 2713 2670 2916 
Q 2900 3119 2900 3481 
Q 2900 3844 2670 4047 
Q 2441 4250 2034 4250 
Q 1625 4250 1398 4047 
Q 1172 3844 1172 3481 
z
" transform="scale(0.015625)"/>
       </defs>
       <use xlink:href="#DejaVuSans-30"/>
       <use xlink:href="#DejaVuSans-2e" x="63.623047"/>
       <use xlink:href="#DejaVuSans-38" x="95.410156"/>
      </g>
     </g>
    </g>
    <g id="xtick_3">
     <g id="line2d_5">
      <g>
       <use xlink:href="#mc78ed54e91" x="221.4" y="302.4" style="stroke: #000000; stroke-width: 1.2"/>
      </g>
     </g>
     <g id="line2d_6">
      <g>
       <use xlink:href="#m2a10160530" x="221.4" y="41.472" style="stroke: #000000; stroke-width: 1.2"/>
      </g>
     </g>
     <g id="text_3">
      <!-- 1.0 -->
      <g transform="translate(210.267812 316.537812)scale(0.14 -0.14)">
       <defs>
        <path id="DejaVuSans-31" d="M 794 531 
L 1825 531 
L 1825 4091 
L 703 3866 
L 703 4441 
L 1819 4666 
L 2450 4666 
L 2450 531 
L 3481 531 
L 3481 0 
L 794 0 
L 794 531 
z
" transform="scale(0.015625)"/>
       </defs>
       <use xlink:href="#DejaVuSans-31"/>
       <use xlink:href="#DejaVuSans-2e" x="63.623047"/>
       <use xlink:href="#DejaVuSans-30" x="95.410156"/>
      </g>
     </g>
    </g>
    <g id="xtick_4">
     <g id="line2d_7">
      <g>
       <use xlink:href="#mc78ed54e91" x="288.36" y="302.4" style="stroke: #000000; stroke-width: 1.2"/>
      </g>
     </g>
     <g id="line2d_8">
      <g>
       <use xlink:href="#m2a10160530" x="288.36" y="41.472" style="stroke: #000000; stroke-width: 1.2"/>
      </g>
     </g>
     <g id="text_4">
      <!-- 1.2 -->
      <g transform="translate(277.227813 316.537812)scale(0.14 -0.14)">
       <defs>
        <path id="DejaVuSans-32" d="M 1228 531 
L 3431 531 
L 3431 0 
L 469 0 
L 469 531 
Q 828 903 1448 1529 
Q 2069 2156 2228 2338 
Q 2531 2678 2651 2914 
Q 2772 3150 2772 3378 
Q 2772 3750 2511 3984 
Q 2250 4219 1831 4219 
Q 1534 4219 1204 4116 
Q 875 4013 500 3803 
L 500 4441 
Q 881 4594 1212 4672 
Q 1544 4750 1819 4750 
Q 2544 4750 2975 4387 
Q 3406 4025 3406 3419 
Q 3406 3131 3298 2873 
Q 3191 2616 2906 2266 
Q 2828 2175 2409 1742 
Q 1991 1309 1228 531 
z
" transform="scale(0.015625)"/>
       </defs>
       <use xlink:href="#DejaVuSans-31"/>
       <use xlink:href="#DejaVuSans-2e" x="63.623047"/>
       <use xlink:href="#DejaVuSans-32" x="95.410156"/>
      </g>
     </g>
    </g>
    <g id="xtick_5">
     <g id="line2d_9">
      <g>
       <use xlink:href="#mc78ed54e91" x="355.32" y="302.4" style="stroke: #000000; stroke-width: 1.2"/>
      </g>
     </g>
     <g id="line2d_10">
      <g>
       <use xlink:href="#m2a10160530" x="355.32" y="41.472" style="stroke: #000000; stroke-width: 1.2"/>
      </g>
     </g>
     <g id="text_5">
      <!-- 1.4 -->
      <g transform="translate(344.187812 316.537812)scale(0.14 -0.14)">
       <defs>
        <path id="DejaVuSans-34" d="M 2419 4116 
L 825 1625 
L 2419 1625 
L 2419 4116 
z
M 2253 4666 
L 3047 4666 
L 3047 1625 
L 3713 1625 
L 3713 1100 
L 3047 1100 
L 3047 0 
L 2419 0 
L 2419 1100 
L 313 1100 
L 313 1709 
L 2253 4666 
z
" transform="scale(0.015625)"/>
       </defs>
       <use xlink:href="#DejaVuSans-31"/>
       <use xlink:href="#DejaVuSans-2e" x="63.623047"/>
       <use xlink:href="#DejaVuSans-34" x="95.410156"/>
      </g>
     </g>
    </g>
    <g id="text_6">
     <!-- $p_\mathrm{T}^\mathrm{corr}\//\/p_\mathrm{T}^\mathrm{gen}$ -->
     <g transform="translate(187.87 336.049375)scale(0.14 -0.14)">
      <defs>
       <path id="DejaVuSans-Oblique-70" d="M 3175 2156 
Q 3175 2616 2975 2859 
Q 2775 3103 2400 3103 
Q 2144 3103 1911 2972 
Q 1678 2841 1497 2591 
Q 1319 2344 1212 1994 
Q 1106 1644 1106 1300 
Q 1106 863 1306 627 
Q 1506 391 1875 391 
Q 2147 391 2380 519 
Q 2613 647 2778 891 
Q 2956 1147 3065 1494 
Q 3175 1841 3175 2156 
z
M 1394 2969 
Q 1625 3272 1939 3428 
Q 2253 3584 2638 3584 
Q 3175 3584 3472 3232 
Q 3769 2881 3769 2247 
Q 3769 1728 3584 1258 
Q 3400 788 3053 416 
Q 2822 169 2531 39 
Q 2241 -91 1919 -91 
Q 1547 -91 1294 64 
Q 1041 219 916 525 
L 556 -1331 
L -19 -1331 
L 922 3500 
L 1497 3500 
L 1394 2969 
z
" transform="scale(0.015625)"/>
       <path id="DejaVuSans-63" d="M 3122 3366 
L 3122 2828 
Q 2878 2963 2633 3030 
Q 2388 3097 2138 3097 
Q 1578 3097 1268 2742 
Q 959 2388 959 1747 
Q 959 1106 1268 751 
Q 1578 397 2138 397 
Q 2388 397 2633 464 
Q 2878 531 3122 666 
L 3122 134 
Q 2881 22 2623 -34 
Q 2366 -91 2075 -91 
Q 1284 -91 818 406 
Q 353 903 353 1747 
Q 353 2603 823 3093 
Q 1294 3584 2113 3584 
Q 2378 3584 2631 3529 
Q 2884 3475 3122 3366 
z
" transform="scale(0.015625)"/>
       <path id="DejaVuSans-6f" d="M 1959 3097 
Q 1497 3097 1228 2736 
Q 959 2375 959 1747 
Q 959 1119 1226 758 
Q 1494 397 1959 397 
Q 2419 397 2687 759 
Q 2956 1122 2956 1747 
Q 2956 2369 2687 2733 
Q 2419 3097 1959 3097 
z
M 1959 3584 
Q 2709 3584 3137 3096 
Q 3566 2609 3566 1747 
Q 3566 888 3137 398 
Q 2709 -91 1959 -91 
Q 1206 -91 779 398 
Q 353 888 353 1747 
Q 353 2609 779 3096 
Q 1206 3584 1959 3584 
z
" transform="scale(0.015625)"/>
       <path id="DejaVuSans-72" d="M 2631 2963 
Q 2534 3019 2420 3045 
Q 2306 3072 2169 3072 
Q 1681 3072 1420 2755 
Q 1159 2438 1159 1844 
L 1159 0 
L 581 0 
L 581 3500 
L 1159 3500 
L 1159 2956 
Q 1341 3275 1631 3429 
Q 1922 3584 2338 3584 
Q 2397 3584 2469 3576 
Q 2541 3569 2628 3553 
L 2631 2963 
z
" transform="scale(0.015625)"/>
       <path id="DejaVuSans-54" d="M -19 4666 
L 3928 4666 
L 3928 4134 
L 2272 4134 
L 2272 0 
L 1638 0 
L 1638 4134 
L -19 4134 
L -19 4666 
z
" transform="scale(0.015625)"/>
       <path id="DejaVuSans-2f" d="M 1625 4666 
L 2156 4666 
L 531 -594 
L 0 -594 
L 1625 4666 
z
" transform="scale(0.015625)"/>
       <path id="DejaVuSans-67" d="M 2906 1791 
Q 2906 2416 2648 2759 
Q 2391 3103 1925 3103 
Q 1463 3103 1205 2759 
Q 947 2416 947 1791 
Q 947 1169 1205 825 
Q 1463 481 1925 481 
Q 2391 481 2648 825 
Q 2906 1169 2906 1791 
z
M 3481 434 
Q 3481 -459 3084 -895 
Q 2688 -1331 1869 -1331 
Q 1566 -1331 1297 -1286 
Q 1028 -1241 775 -1147 
L 775 -588 
Q 1028 -725 1275 -790 
Q 1522 -856 1778 -856 
Q 2344 -856 2625 -561 
Q 2906 -266 2906 331 
L 2906 616 
Q 2728 306 2450 153 
Q 2172 0 1784 0 
Q 1141 0 747 490 
Q 353 981 353 1791 
Q 353 2603 747 3093 
Q 1141 3584 1784 3584 
Q 2172 3584 2450 3431 
Q 2728 3278 2906 2969 
L 2906 3500 
L 3481 3500 
L 3481 434 
z
" transform="scale(0.015625)"/>
       <path id="DejaVuSans-65" d="M 3597 1894 
L 3597 1613 
L 953 1613 
Q 991 1019 1311 708 
Q 1631 397 2203 397 
Q 2534 397 2845 478 
Q 3156 559 3463 722 
L 3463 178 
Q 3153 47 2828 -22 
Q 2503 -91 2169 -91 
Q 1331 -91 842 396 
Q 353 884 353 1716 
Q 353 2575 817 3079 
Q 1281 3584 2069 3584 
Q 2775 3584 3186 3129 
Q 3597 2675 3597 1894 
z
M 3022 2063 
Q 3016 2534 2758 2815 
Q 2500 3097 2075 3097 
Q 1594 3097 1305 2825 
Q 1016 2553 972 2059 
L 3022 2063 
z
" transform="scale(0.015625)"/>
       <path id="DejaVuSans-6e" d="M 3513 2113 
L 3513 0 
L 2938 0 
L 2938 2094 
Q 2938 2591 2744 2837 
Q 2550 3084 2163 3084 
Q 1697 3084 1428 2787 
Q 1159 2491 1159 1978 
L 1159 0 
L 581 0 
L 581 3500 
L 1159 3500 
L 1159 2956 
Q 1366 3272 1645 3428 
Q 1925 3584 2291 3584 
Q 2894 3584 3203 3211 
Q 3513 2838 3513 2113 
z
" transform="scale(0.015625)"/>
      </defs>
      <use xlink:href="#DejaVuSans-Oblique-70" transform="translate(0 0.051563)"/>
      <use xlink:href="#DejaVuSans-63" transform="translate(68.126458 38.332813)scale(0.7)"/>
      <use xlink:href="#DejaVuSans-6f" transform="translate(106.612786 38.332813)scale(0.7)"/>
      <use xlink:href="#DejaVuSans-72" transform="translate(149.439935 38.332813)scale(0.7)"/>
      <use xlink:href="#DejaVuSans-72" transform="translate(178.219232 38.332813)scale(0.7)"/>
      <use xlink:href="#DejaVuSans-54" transform="translate(63.476562 -27.292187)scale(0.7)"/>
      <use xlink:href="#DejaVuSans-2f" transform="translate(225.96858 0.051563)"/>
      <use xlink:href="#DejaVuSans-Oblique-70" transform="translate(275.895662 0.051563)"/>
      <use xlink:href="#DejaVuSans-67" transform="translate(344.022121 50.8)scale(0.7)"/>
      <use xlink:href="#DejaVuSans-65" transform="translate(388.455715 50.8)scale(0.7)"/>
      <use xlink:href="#DejaVuSans-6e" transform="translate(431.522121 50.8)scale(0.7)"/>
      <use xlink:href="#DejaVuSans-54" transform="translate(339.372225 -27.292187)scale(0.7)"/>
     </g>
    </g>
   </g>
   <g id="matplotlib.axis_2">
    <g id="ytick_1">
     <g id="line2d_11">
      <defs>
       <path id="me438c31f22" d="M 0 0 
L 3.5 0 
" style="stroke: #000000; stroke-width: 1.2"/>
      </defs>
      <g>
       <use xlink:href="#me438c31f22" x="54" y="302.4" style="stroke: #000000; stroke-width: 1.2"/>
      </g>
     </g>
     <g id="line2d_12">
      <defs>
       <path id="mbb6bde21a2" d="M 0 0 
L -3.5 0 
" style="stroke: #000000; stroke-width: 1.2"/>
      </defs>
      <g>
       <use xlink:href="#mbb6bde21a2" x="388.8" y="302.4" style="stroke: #000000; stroke-width: 1.2"/>
      </g>
     </g>
     <g id="text_7">
      <!-- 0 -->
      <g transform="translate(41.5925 307.718906)scale(0.14 -0.14)">
       <use xlink:href="#DejaVuSans-30"/>
      </g>
     </g>
    </g>
    <g id="ytick_2">
     <g id="line2d_13">
      <g>
       <use xlink:href="#me438c31f22" x="54" y="261.086142" style="stroke: #000000; stroke-width: 1.2"/>
      </g>
     </g>
     <g id="line2d_14">
      <g>
       <use xlink:href="#mbb6bde21a2" x="388.8" y="261.086142" style="stroke: #000000; stroke-width: 1.2"/>
      </g>
     </g>
     <g id="text_8">
      <!-- 200 -->
      <g transform="translate(23.7775 266.405048)scale(0.14 -0.14)">
       <use xlink:href="#DejaVuSans-32"/>
       <use xlink:href="#DejaVuSans-30" x="63.623047"/>
       <use xlink:href="#DejaVuSans-30" x="127.246094"/>
      </g>
     </g>
    </g>
    <g id="ytick_3">
     <g id="line2d_15">
      <g>
       <use xlink:href="#me438c31f22" x="54" y="219.772284" style="stroke: #000000; stroke-width: 1.2"/>
      </g>
     </g>
     <g id="line2d_16">
      <g>
       <use xlink:href="#mbb6bde21a2" x="388.8" y="219.772284" style="stroke: #000000; stroke-width: 1.2"/>
      </g>
     </g>
     <g id="text_9">
      <!-- 400 -->
      <g transform="translate(23.7775 225.09119)scale(0.14 -0.14)">
       <use xlink:href="#DejaVuSans-34"/>
       <use xlink:href="#DejaVuSans-30" x="63.623047"/>
       <use xlink:href="#DejaVuSans-30" x="127.246094"/>
      </g>
     </g>
    </g>
    <g id="ytick_4">
     <g id="line2d_17">
      <g>
       <use xlink:href="#me438c31f22" x="54" y="178.458425" style="stroke: #000000; stroke-width: 1.2"/>
      </g>
     </g>
     <g id="line2d_18">
      <g>
       <use xlink:href="#mbb6bde21a2" x="388.8" y="178.458425" style="stroke: #000000; stroke-width: 1.2"/>
      </g>
     </g>
     <g id="text_10">
      <!-- 600 -->
      <g transform="translate(23.7775 183.777332)scale(0.14 -0.14)">
       <use xlink:href="#DejaVuSans-36"/>
       <use xlink:href="#DejaVuSans-30" x="63.623047"/>
       <use xlink:href="#DejaVuSans-30" x="127.246094"/>
      </g>
     </g>
    </g>
    <g id="ytick_5">
     <g id="line2d_19">
      <g>
       <use xlink:href="#me438c31f22" x="54" y="137.144567" style="stroke: #000000; stroke-width: 1.2"/>
      </g>
     </g>
     <g id="line2d_20">
      <g>
       <use xlink:href="#mbb6bde21a2" x="388.8" y="137.144567" style="stroke: #000000; stroke-width: 1.2"/>
      </g>
     </g>
     <g id="text_11">
      <!-- 800 -->
      <g transform="translate(23.7775 142.463473)scale(0.14 -0.14)">
       <use xlink:href="#DejaVuSans-38"/>
       <use xlink:href="#DejaVuSans-30" x="63.623047"/>
       <use xlink:href="#DejaVuSans-30" x="127.246094"/>
      </g>
     </g>
    </g>
    <g id="ytick_6">
     <g id="line2d_21">
      <g>
       <use xlink:href="#me438c31f22" x="54" y="95.830709" style="stroke: #000000; stroke-width: 1.2"/>
      </g>
     </g>
     <g id="line2d_22">
      <g>
       <use xlink:href="#mbb6bde21a2" x="388.8" y="95.830709" style="stroke: #000000; stroke-width: 1.2"/>
      </g>
     </g>
     <g id="text_12">
      <!-- 1000 -->
      <g transform="translate(14.87 101.149615)scale(0.14 -0.14)">
       <use xlink:href="#DejaVuSans-31"/>
       <use xlink:href="#DejaVuSans-30" x="63.623047"/>
       <use xlink:href="#DejaVuSans-30" x="127.246094"/>
       <use xlink:href="#DejaVuSans-30" x="190.869141"/>
      </g>
     </g>
    </g>
    <g id="ytick_7">
     <g id="line2d_23">
      <g>
       <use xlink:href="#me438c31f22" x="54" y="54.516851" style="stroke: #000000; stroke-width: 1.2"/>
      </g>
     </g>
     <g id="line2d_24">
      <g>
       <use xlink:href="#mbb6bde21a2" x="388.8" y="54.516851" style="stroke: #000000; stroke-width: 1.2"/>
      </g>
     </g>
     <g id="text_13">
      <!-- 1200 -->
      <g transform="translate(14.87 59.835757)scale(0.14 -0.14)">
       <use xlink:href="#DejaVuSans-31"/>
       <use xlink:href="#DejaVuSans-32" x="63.623047"/>
       <use xlink:href="#DejaVuSans-30" x="127.246094"/>
       <use xlink:href="#DejaVuSans-30" x="190.869141"/>
      </g>
     </g>
    </g>
    <g id="text_14">
     <!-- Jets -->
     <g transform="translate(7.958437 184.698969)rotate(-90)scale(0.14 -0.14)">
      <defs>
       <path id="DejaVuSans-4a" d="M 628 4666 
L 1259 4666 
L 1259 325 
Q 1259 -519 939 -900 
Q 619 -1281 -91 -1281 
L -331 -1281 
L -331 -750 
L -134 -750 
Q 284 -750 456 -515 
Q 628 -281 628 325 
L 628 4666 
z
" transform="scale(0.015625)"/>
       <path id="DejaVuSans-74" d="M 1172 4494 
L 1172 3500 
L 2356 3500 
L 2356 3053 
L 1172 3053 
L 1172 1153 
Q 1172 725 1289 603 
Q 1406 481 1766 481 
L 2356 481 
L 2356 0 
L 1766 0 
Q 1100 0 847 248 
Q 594 497 594 1153 
L 594 3053 
L 172 3053 
L 172 3500 
L 594 3500 
L 594 4494 
L 1172 4494 
z
" transform="scale(0.015625)"/>
       <path id="DejaVuSans-73" d="M 2834 3397 
L 2834 2853 
Q 2591 2978 2328 3040 
Q 2066 3103 1784 3103 
Q 1356 3103 1142 2972 
Q 928 2841 928 2578 
Q 928 2378 1081 2264 
Q 1234 2150 1697 2047 
L 1894 2003 
Q 2506 1872 2764 1633 
Q 3022 1394 3022 966 
Q 3022 478 2636 193 
Q 2250 -91 1575 -91 
Q 1294 -91 989 -36 
Q 684 19 347 128 
L 347 722 
Q 666 556 975 473 
Q 1284 391 1588 391 
Q 1994 391 2212 530 
Q 2431 669 2431 922 
Q 2431 1156 2273 1281 
Q 2116 1406 1581 1522 
L 1381 1569 
Q 847 1681 609 1914 
Q 372 2147 372 2553 
Q 372 3047 722 3315 
Q 1072 3584 1716 3584 
Q 2034 3584 2315 3537 
Q 2597 3491 2834 3397 
z
" transform="scale(0.015625)"/>
      </defs>
      <use xlink:href="#DejaVuSans-4a"/>
      <use xlink:href="#DejaVuSans-65" x="29.492188"/>
      <use xlink:href="#DejaVuSans-74" x="91.015625"/>
      <use xlink:href="#DejaVuSans-73" x="130.224609"/>
     </g>
    </g>
   </g>
   <g id="patch_3">
    <path d="M 54 302.4 
L 54 300.334307 
L 57.348 300.334307 
L 57.348 300.747446 
L 60.696 300.747446 
L 60.696 299.714599 
L 64.044 299.714599 
L 64.044 300.127738 
L 67.392 300.127738 
L 67.392 299.50803 
L 70.74 299.50803 
L 70.74 299.301461 
L 74.088 299.301461 
L 74.088 300.540876 
L 77.436 300.540876 
L 77.436 299.094891 
L 80.784 299.094891 
L 80.784 298.475183 
L 84.132 298.475183 
L 84.132 297.648906 
L 87.48 297.648906 
L 87.48 298.062045 
L 90.828 298.062045 
L 90.828 296.409491 
L 94.176 296.409491 
L 94.176 296.202921 
L 97.524 296.202921 
L 97.524 292.278105 
L 100.872 292.278105 
L 100.872 294.963506 
L 104.22 294.963506 
L 104.22 292.484674 
L 107.568 292.484674 
L 107.568 288.972996 
L 110.916 288.972996 
L 110.916 292.278105 
L 114.264 292.278105 
L 114.264 282.982487 
L 117.612 282.982487 
L 117.612 281.329932 
L 120.96 281.329932 
L 120.96 278.851101 
L 124.308 278.851101 
L 124.308 276.372269 
L 127.656 276.372269 
L 127.656 275.132854 
L 131.004 275.132854 
L 131.004 271.621176 
L 134.352 271.621176 
L 134.352 264.39125 
L 137.7 264.39125 
L 137.7 264.184681 
L 141.048 264.184681 
L 141.048 257.367895 
L 144.396 257.367895 
L 144.396 255.71534 
L 147.744 255.71534 
L 147.744 244.354029 
L 151.092 244.354029 
L 151.092 240.842351 
L 154.44 240.842351 
L 154.44 232.992718 
L 157.788 232.992718 
L 157.788 229.48104 
L 161.136 229.48104 
L 161.136 218.532868 
L 164.484 218.532868 
L 164.484 215.434328 
L 167.832 215.434328 
L 167.832 203.040171 
L 171.18 203.040171 
L 171.18 192.091999 
L 174.528 192.091999 
L 174.528 175.153317 
L 177.876 175.153317 
L 177.876 167.923392 
L 181.224 167.923392 
L 181.224 166.890545 
L 184.572 166.890545 
L 184.572 156.975219 
L 187.92 156.975219 
L 187.92 141.895661 
L 191.268 141.895661 
L 191.268 135.285444 
L 194.616 135.285444 
L 194.616 123.924133 
L 197.964 123.924133 
L 197.964 124.75041 
L 201.312 124.75041 
L 201.312 107.605159 
L 204.66 107.605159 
L 204.66 95.004432 
L 208.008 95.004432 
L 208.008 94.591293 
L 211.356 94.591293 
L 211.356 84.469398 
L 214.704 84.469398 
L 214.704 80.338012 
L 218.052 80.338012 
L 218.052 74.140933 
L 224.748 74.140933 
L 224.748 67.324147 
L 228.096 67.324147 
L 228.096 71.455533 
L 231.444 71.455533 
L 231.444 73.934364 
L 234.792 73.934364 
L 234.792 81.990566 
L 238.14 81.990566 
L 238.14 78.685458 
L 241.488 78.685458 
L 241.488 81.783997 
L 244.836 81.783997 
L 244.836 97.070125 
L 248.184 97.070125 
L 248.184 113.182529 
L 251.532 113.182529 
L 251.532 116.900777 
L 254.88 116.900777 
L 254.88 123.510994 
L 258.228 123.510994 
L 258.228 133.839458 
L 261.576 133.839458 
L 261.576 140.656245 
L 264.924 140.656245 
L 264.924 155.942373 
L 271.62 155.942373 
L 271.62 163.172298 
L 274.968 163.172298 
L 274.968 172.674485 
L 278.316 172.674485 
L 278.316 184.862073 
L 281.664 184.862073 
L 281.664 194.364261 
L 285.012 194.364261 
L 285.012 197.256231 
L 288.36 197.256231 
L 288.36 209.03068 
L 295.056 209.03068 
L 295.056 218.119729 
L 298.404 218.119729 
L 298.404 230.927025 
L 301.752 230.927025 
L 301.752 232.992718 
L 305.1 232.992718 
L 305.1 241.875198 
L 308.448 241.875198 
L 308.448 244.560599 
L 311.796 244.560599 
L 311.796 249.105123 
L 315.144 249.105123 
L 315.144 258.194172 
L 318.492 258.194172 
L 318.492 256.954756 
L 321.84 256.954756 
L 321.84 264.59782 
L 325.188 264.59782 
L 325.188 262.532127 
L 328.536 262.532127 
L 328.536 269.762052 
L 331.884 269.762052 
L 331.884 276.578839 
L 335.232 276.578839 
L 335.232 279.264239 
L 338.58 279.264239 
L 338.58 278.644532 
L 341.928 278.644532 
L 341.928 282.775917 
L 345.276 282.775917 
L 345.276 281.123363 
L 348.624 281.123363 
L 348.624 287.113872 
L 351.972 287.113872 
L 351.972 286.700734 
L 355.32 286.700734 
L 355.32 285.667887 
L 358.668 285.667887 
L 358.668 290.83212 
L 362.016 290.83212 
L 362.016 292.278105 
L 365.364 292.278105 
L 365.364 291.245258 
L 368.712 291.245258 
L 368.712 294.550367 
L 372.06 294.550367 
L 372.06 296.202921 
L 375.408 296.202921 
L 375.408 295.996352 
L 378.756 295.996352 
L 378.756 293.930659 
L 382.104 293.930659 
L 382.104 297.855476 
L 385.452 297.855476 
L 385.452 298.062045 
L 388.8 298.062045 
L 388.8 302.4 
L 388.8 302.4 
" clip-path="url(#pa1717c9ec3)" style="fill: none; stroke: #1f77b4; stroke-linejoin: miter"/>
   </g>
   <g id="patch_4">
    <path d="M 54 302.4 
L 54 300.540876 
L 57.348 300.540876 
L 57.348 300.954015 
L 60.696 300.954015 
L 60.696 300.334307 
L 64.044 300.334307 
L 64.044 300.747446 
L 67.392 300.747446 
L 67.392 300.954015 
L 70.74 300.954015 
L 70.74 299.714599 
L 74.088 299.714599 
L 74.088 298.268614 
L 77.436 298.268614 
L 77.436 298.681753 
L 80.784 298.681753 
L 80.784 296.409491 
L 84.132 296.409491 
L 84.132 296.202921 
L 87.48 296.202921 
L 87.48 294.756936 
L 90.828 294.756936 
L 90.828 295.996352 
L 94.176 295.996352 
L 94.176 290.83212 
L 97.524 290.83212 
L 97.524 290.418981 
L 100.872 290.418981 
L 100.872 290.212412 
L 104.22 290.212412 
L 104.22 288.559857 
L 107.568 288.559857 
L 107.568 286.287595 
L 110.916 286.287595 
L 110.916 284.015333 
L 114.264 284.015333 
L 114.264 279.05767 
L 117.612 279.05767 
L 117.612 277.818254 
L 120.96 277.818254 
L 120.96 272.447453 
L 124.308 272.447453 
L 124.308 271.001468 
L 127.656 271.001468 
L 127.656 265.630666 
L 131.004 265.630666 
L 131.004 257.161325 
L 134.352 257.161325 
L 134.352 256.335048 
L 137.7 256.335048 
L 137.7 248.278846 
L 141.048 248.278846 
L 141.048 241.875198 
L 144.396 241.875198 
L 144.396 239.189797 
L 147.744 239.189797 
L 147.744 231.959872 
L 151.092 231.959872 
L 151.092 221.631407 
L 154.44 221.631407 
L 154.44 214.608051 
L 157.788 214.608051 
L 157.788 210.270096 
L 161.136 210.270096 
L 161.136 203.45331 
L 164.484 203.45331 
L 164.484 196.223384 
L 167.832 196.223384 
L 167.832 176.805871 
L 171.18 176.805871 
L 171.18 164.824852 
L 174.528 164.824852 
L 174.528 154.702957 
L 177.876 154.702957 
L 177.876 135.698582 
L 181.224 135.698582 
L 181.224 129.501503 
L 184.572 129.501503 
L 184.572 129.708073 
L 187.92 129.708073 
L 187.92 113.595668 
L 191.268 113.595668 
L 191.268 109.670851 
L 194.616 109.670851 
L 194.616 90.666477 
L 197.964 90.666477 
L 197.964 86.74166 
L 201.312 86.74166 
L 201.312 83.643121 
L 204.66 83.643121 
L 204.66 80.131443 
L 208.008 80.131443 
L 208.008 69.802978 
L 211.356 69.802978 
L 211.356 82.816844 
L 214.704 82.816844 
L 214.704 53.897143 
L 218.052 53.897143 
L 218.052 59.887652 
L 221.4 59.887652 
L 221.4 75.586918 
L 224.748 75.586918 
L 224.748 76.619765 
L 228.096 76.619765 
L 228.096 70.422686 
L 231.444 70.422686 
L 231.444 87.567937 
L 234.792 87.567937 
L 234.792 80.95772 
L 238.14 80.95772 
L 238.14 86.535091 
L 241.488 86.535091 
L 241.488 100.788372 
L 244.836 100.788372 
L 244.836 124.956979 
L 248.184 124.956979 
L 248.184 125.370118 
L 251.532 125.370118 
L 251.532 135.285444 
L 254.88 135.285444 
L 254.88 137.557706 
L 258.228 137.557706 
L 258.228 158.834343 
L 261.576 158.834343 
L 261.576 164.824852 
L 264.924 164.824852 
L 264.924 173.500762 
L 268.272 173.500762 
L 268.272 177.21901 
L 271.62 177.21901 
L 271.62 180.730688 
L 274.968 180.730688 
L 274.968 199.941632 
L 278.316 199.941632 
L 278.316 206.13871 
L 281.664 206.13871 
L 281.664 209.650388 
L 285.012 209.650388 
L 285.012 223.283962 
L 288.36 223.283962 
L 288.36 225.556224 
L 291.708 225.556224 
L 291.708 231.133595 
L 295.056 231.133595 
L 295.056 237.743812 
L 298.404 237.743812 
L 298.404 242.081767 
L 301.752 242.081767 
L 301.752 259.227018 
L 305.1 259.227018 
L 305.1 258.194172 
L 308.448 258.194172 
L 308.448 259.846726 
L 311.796 259.846726 
L 311.796 267.076651 
L 315.144 267.076651 
L 315.144 269.762052 
L 318.492 269.762052 
L 318.492 273.067161 
L 321.84 273.067161 
L 321.84 275.545992 
L 325.188 275.545992 
L 325.188 280.297086 
L 328.536 280.297086 
L 328.536 284.221902 
L 331.884 284.221902 
L 331.884 282.775917 
L 335.232 282.775917 
L 335.232 283.602195 
L 338.58 283.602195 
L 338.58 288.353288 
L 341.928 288.353288 
L 341.928 290.212412 
L 345.276 290.212412 
L 345.276 288.353288 
L 348.624 288.353288 
L 348.624 292.484674 
L 351.972 292.484674 
L 351.972 294.550367 
L 355.32 294.550367 
L 355.32 295.170075 
L 358.668 295.170075 
L 358.668 294.137228 
L 362.016 294.137228 
L 362.016 293.104382 
L 365.364 293.104382 
L 365.364 294.756936 
L 368.712 294.756936 
L 368.712 297.235768 
L 372.06 297.235768 
L 372.06 295.996352 
L 375.408 295.996352 
L 375.408 297.648906 
L 378.756 297.648906 
L 378.756 298.888322 
L 382.104 298.888322 
L 382.104 297.648906 
L 385.452 297.648906 
L 385.452 298.681753 
L 388.8 298.681753 
L 388.8 302.4 
L 388.8 302.4 
" clip-path="url(#pa1717c9ec3)" style="fill: none; stroke: #ff7f0e; stroke-linejoin: miter"/>
   </g>
   <g id="patch_5">
    <path d="M 54 302.4 
L 54 300.954015 
L 57.348 300.954015 
L 57.348 300.334307 
L 60.696 300.334307 
L 60.696 300.747446 
L 64.044 300.747446 
L 64.044 300.127738 
L 67.392 300.127738 
L 67.392 300.334307 
L 74.088 300.334307 
L 74.088 298.475183 
L 80.784 298.475183 
L 80.784 298.681753 
L 84.132 298.681753 
L 84.132 297.029198 
L 87.48 297.029198 
L 87.48 296.409491 
L 90.828 296.409491 
L 90.828 294.756936 
L 97.524 294.756936 
L 97.524 292.278105 
L 100.872 292.278105 
L 100.872 291.245258 
L 104.22 291.245258 
L 104.22 287.113872 
L 107.568 287.113872 
L 107.568 284.015333 
L 110.916 284.015333 
L 110.916 283.395625 
L 114.264 283.395625 
L 114.264 282.156209 
L 117.612 282.156209 
L 117.612 274.926284 
L 120.96 274.926284 
L 120.96 276.578839 
L 124.308 276.578839 
L 124.308 268.316067 
L 127.656 268.316067 
L 127.656 264.59782 
L 131.004 264.59782 
L 131.004 255.508771 
L 134.352 255.508771 
L 134.352 255.095632 
L 137.7 255.095632 
L 137.7 252.410232 
L 141.048 252.410232 
L 141.048 241.875198 
L 144.396 241.875198 
L 144.396 243.527752 
L 147.744 243.527752 
L 147.744 232.57958 
L 151.092 232.57958 
L 151.092 229.067902 
L 154.44 229.067902 
L 154.44 216.880314 
L 157.788 216.880314 
L 157.788 213.575205 
L 161.136 213.575205 
L 161.136 203.659879 
L 164.484 203.659879 
L 164.484 182.383242 
L 167.832 182.383242 
L 167.832 172.674485 
L 171.18 172.674485 
L 171.18 165.857699 
L 174.528 165.857699 
L 174.528 145.20077 
L 181.224 145.20077 
L 181.224 131.773766 
L 184.572 131.773766 
L 184.572 127.43581 
L 187.92 127.43581 
L 187.92 121.65187 
L 191.268 121.65187 
L 191.268 100.168664 
L 194.616 100.168664 
L 194.616 97.276694 
L 197.964 97.276694 
L 197.964 83.023413 
L 201.312 83.023413 
L 201.312 84.882537 
L 204.66 84.882537 
L 204.66 70.629255 
L 208.008 70.629255 
L 208.008 74.967211 
L 211.356 74.967211 
L 211.356 63.39933 
L 214.704 63.39933 
L 214.704 62.159914 
L 218.052 62.159914 
L 218.052 68.150424 
L 221.4 68.150424 
L 221.4 76.413196 
L 224.748 76.413196 
L 224.748 73.521226 
L 228.096 73.521226 
L 228.096 70.216117 
L 231.444 70.216117 
L 231.444 78.478888 
L 234.792 78.478888 
L 234.792 88.807353 
L 238.14 88.807353 
L 238.14 95.62414 
L 241.488 95.62414 
L 241.488 102.440926 
L 244.836 102.440926 
L 244.836 106.778881 
L 248.184 106.778881 
L 248.184 130.327781 
L 251.532 130.327781 
L 251.532 137.557706 
L 254.88 137.557706 
L 254.88 139.003691 
L 258.228 139.003691 
L 258.228 147.88617 
L 261.576 147.88617 
L 261.576 163.998575 
L 264.924 163.998575 
L 264.924 167.303684 
L 268.272 167.303684 
L 268.272 189.406598 
L 271.62 189.406598 
L 271.62 182.176673 
L 274.968 182.176673 
L 274.968 202.007325 
L 278.316 202.007325 
L 278.316 202.213894 
L 281.664 202.213894 
L 281.664 210.683235 
L 285.012 210.683235 
L 285.012 215.847467 
L 288.36 215.847467 
L 288.36 222.664254 
L 291.708 222.664254 
L 291.708 230.100748 
L 295.056 230.100748 
L 295.056 241.462059 
L 298.404 241.462059 
L 298.404 246.419722 
L 301.752 246.419722 
L 301.752 250.344539 
L 305.1 250.344539 
L 305.1 259.227018 
L 308.448 259.227018 
L 308.448 262.945265 
L 311.796 262.945265 
L 311.796 269.968621 
L 315.144 269.968621 
L 315.144 272.654022 
L 318.492 272.654022 
L 318.492 269.968621 
L 321.84 269.968621 
L 321.84 274.926284 
L 325.188 274.926284 
L 325.188 278.851101 
L 328.536 278.851101 
L 328.536 286.907303 
L 331.884 286.907303 
L 331.884 285.04818 
L 335.232 285.04818 
L 335.232 287.94015 
L 338.58 287.94015 
L 338.58 288.146719 
L 341.928 288.146719 
L 341.928 289.592704 
L 345.276 289.592704 
L 345.276 288.972996 
L 348.624 288.972996 
L 348.624 292.691243 
L 351.972 292.691243 
L 351.972 291.658397 
L 355.32 291.658397 
L 355.32 293.51752 
L 358.668 293.51752 
L 358.668 294.137228 
L 362.016 294.137228 
L 362.016 296.202921 
L 365.364 296.202921 
L 365.364 293.51752 
L 368.712 293.51752 
L 368.712 298.475183 
L 372.06 298.475183 
L 372.06 297.855476 
L 375.408 297.855476 
L 375.408 298.681753 
L 378.756 298.681753 
L 378.756 298.062045 
L 382.104 298.062045 
L 382.104 298.268614 
L 385.452 298.268614 
L 385.452 298.888322 
L 388.8 298.888322 
L 388.8 302.4 
L 388.8 302.4 
" clip-path="url(#pa1717c9ec3)" style="fill: none; stroke: #2ca02c; stroke-linejoin: miter"/>
   </g>
   <g id="line2d_25">
    <path d="M 221.4 302.4 
L 221.4 41.472 
" clip-path="url(#pa1717c9ec3)" style="fill: none; stroke-dasharray: 2.96,1.28; stroke-dashoffset: 0; stroke: #808080; stroke-width: 0.8"/>
   </g>
   <g id="patch_6">
    <path d="M 54 302.4 
L 54 41.472 
" style="fill: none; stroke: #000000; stroke-width: 0.8; stroke-linejoin: miter; stroke-linecap: square"/>
   </g>
   <g id="patch_7">
    <path d="M 388.8 302.4 
L 388.8 41.472 
" style="fill: none; stroke: #000000; stroke-width: 0.8; stroke-linejoin: miter; stroke-linecap: square"/>
   </g>
   <g id="patch_8">
    <path d="M 54 302.4 
L 388.8 302.4 
" style="fill: none; stroke: #000000; stroke-width: 0.8; stroke-linejoin: miter; stroke-linecap: square"/>
   </g>
   <g id="patch_9">
    <path d="M 54 41.472 
L 388.8 41.472 
" style="fill: none; stroke: #000000; stroke-width: 0.8; stroke-linejoin: miter; stroke-linecap: square"/>
   </g>
   <g id="text_15">
    <!-- $all$, $30 &lt; p_\mathrm{T}^\mathrm{gen} &lt; 100$ GeV, $1.3 &lt; |\eta^\mathrm{gen}| &lt; 2.5$ -->
    <g transform="translate(97.04 37.030144)scale(0.14 -0.14)">
     <defs>
      <path id="DejaVuSans-Oblique-61" d="M 3438 1997 
L 3047 0 
L 2472 0 
L 2578 531 
Q 2325 219 2001 64 
Q 1678 -91 1281 -91 
Q 834 -91 548 182 
Q 263 456 263 884 
Q 263 1497 752 1853 
Q 1241 2209 2100 2209 
L 2900 2209 
L 2931 2363 
Q 2938 2388 2941 2417 
Q 2944 2447 2944 2509 
Q 2944 2788 2717 2942 
Q 2491 3097 2081 3097 
Q 1800 3097 1504 3025 
Q 1209 2953 897 2809 
L 997 3341 
Q 1322 3463 1633 3523 
Q 1944 3584 2234 3584 
Q 2853 3584 3176 3315 
Q 3500 3047 3500 2534 
Q 3500 2431 3484 2292 
Q 3469 2153 3438 1997 
z
M 2816 1759 
L 2241 1759 
Q 1534 1759 1195 1570 
Q 856 1381 856 984 
Q 856 709 1029 553 
Q 1203 397 1509 397 
Q 1978 397 2328 733 
Q 2678 1069 2791 1631 
L 2816 1759 
z
" transform="scale(0.015625)"/>
      <path id="DejaVuSans-Oblique-6c" d="M 1172 4863 
L 1747 4863 
L 800 0 
L 225 0 
L 1172 4863 
z
" transform="scale(0.015625)"/>
      <path id="DejaVuSans-2c" d="M 750 794 
L 1409 794 
L 1409 256 
L 897 -744 
L 494 -744 
L 750 256 
L 750 794 
z
" transform="scale(0.015625)"/>
      <path id="DejaVuSans-20" transform="scale(0.015625)"/>
      <path id="DejaVuSans-33" d="M 2597 2516 
Q 3050 2419 3304 2112 
Q 3559 1806 3559 1356 
Q 3559 666 3084 287 
Q 2609 -91 1734 -91 
Q 1441 -91 1130 -33 
Q 819 25 488 141 
L 488 750 
Q 750 597 1062 519 
Q 1375 441 1716 441 
Q 2309 441 2620 675 
Q 2931 909 2931 1356 
Q 2931 1769 2642 2001 
Q 2353 2234 1838 2234 
L 1294 2234 
L 1294 2753 
L 1863 2753 
Q 2328 2753 2575 2939 
Q 2822 3125 2822 3475 
Q 2822 3834 2567 4026 
Q 2313 4219 1838 4219 
Q 1578 4219 1281 4162 
Q 984 4106 628 3988 
L 628 4550 
Q 988 4650 1302 4700 
Q 1616 4750 1894 4750 
Q 2613 4750 3031 4423 
Q 3450 4097 3450 3541 
Q 3450 3153 3228 2886 
Q 3006 2619 2597 2516 
z
" transform="scale(0.015625)"/>
      <path id="DejaVuSans-3c" d="M 4684 3150 
L 1459 2003 
L 4684 863 
L 4684 294 
L 678 1747 
L 678 2266 
L 4684 3719 
L 4684 3150 
z
" transform="scale(0.015625)"/>
      <path id="DejaVuSans-47" d="M 3809 666 
L 3809 1919 
L 2778 1919 
L 2778 2438 
L 4434 2438 
L 4434 434 
Q 4069 175 3628 42 
Q 3188 -91 2688 -91 
Q 1594 -91 976 548 
Q 359 1188 359 2328 
Q 359 3472 976 4111 
Q 1594 4750 2688 4750 
Q 3144 4750 3555 4637 
Q 3966 4525 4313 4306 
L 4313 3634 
Q 3963 3931 3569 4081 
Q 3175 4231 2741 4231 
Q 1884 4231 1454 3753 
Q 1025 3275 1025 2328 
Q 1025 1384 1454 906 
Q 1884 428 2741 428 
Q 3075 428 3337 486 
Q 3600 544 3809 666 
z
" transform="scale(0.015625)"/>
      <path id="DejaVuSans-56" d="M 1831 0 
L 50 4666 
L 709 4666 
L 2188 738 
L 3669 4666 
L 4325 4666 
L 2547 0 
L 1831 0 
z
" transform="scale(0.015625)"/>
      <path id="DejaVuSans-7c" d="M 1344 4891 
L 1344 -1509 
L 813 -1509 
L 813 4891 
L 1344 4891 
z
" transform="scale(0.015625)"/>
      <path id="DejaVuSans-Oblique-3b7" d="M 3703 2113 
L 3034 -1331 
L 2459 -1331 
L 3125 2094 
Q 3222 2591 3075 2838 
Q 2931 3084 2544 3084 
Q 2078 3084 1750 2788 
Q 1425 2491 1325 1978 
L 941 0 
L 363 0 
L 1044 3500 
L 1622 3500 
L 1516 2956 
Q 1781 3272 2094 3428 
Q 2403 3584 2769 3584 
Q 3372 3584 3609 3213 
Q 3844 2838 3703 2113 
z
" transform="scale(0.015625)"/>
      <path id="DejaVuSans-35" d="M 691 4666 
L 3169 4666 
L 3169 4134 
L 1269 4134 
L 1269 2991 
Q 1406 3038 1543 3061 
Q 1681 3084 1819 3084 
Q 2600 3084 3056 2656 
Q 3513 2228 3513 1497 
Q 3513 744 3044 326 
Q 2575 -91 1722 -91 
Q 1428 -91 1123 -41 
Q 819 9 494 109 
L 494 744 
Q 775 591 1075 516 
Q 1375 441 1709 441 
Q 2250 441 2565 725 
Q 2881 1009 2881 1497 
Q 2881 1984 2565 2268 
Q 2250 2553 1709 2553 
Q 1456 2553 1204 2497 
Q 953 2441 691 2322 
L 691 4666 
z
" transform="scale(0.015625)"/>
     </defs>
     <use xlink:href="#DejaVuSans-Oblique-61" transform="translate(0 0.051563)"/>
     <use xlink:href="#DejaVuSans-Oblique-6c" transform="translate(61.279297 0.051563)"/>
     <use xlink:href="#DejaVuSans-Oblique-6c" transform="translate(89.0625 0.051563)"/>
     <use xlink:href="#DejaVuSans-2c" transform="translate(116.845703 0.051563)"/>
     <use xlink:href="#DejaVuSans-20" transform="translate(148.632812 0.051563)"/>
     <use xlink:href="#DejaVuSans-33" transform="translate(180.419922 0.051563)"/>
     <use xlink:href="#DejaVuSans-30" transform="translate(244.042969 0.051563)"/>
     <use xlink:href="#DejaVuSans-3c" transform="translate(327.148438 0.051563)"/>
     <use xlink:href="#DejaVuSans-Oblique-70" transform="translate(430.419922 0.051563)"/>
     <use xlink:href="#DejaVuSans-67" transform="translate(498.54638 50.8)scale(0.7)"/>
     <use xlink:href="#DejaVuSans-65" transform="translate(542.979974 50.8)scale(0.7)"/>
     <use xlink:href="#DejaVuSans-6e" transform="translate(586.04638 50.8)scale(0.7)"/>
     <use xlink:href="#DejaVuSans-54" transform="translate(493.896484 -27.292187)scale(0.7)"/>
     <use xlink:href="#DejaVuSans-3c" transform="translate(652.628411 0.051563)"/>
     <use xlink:href="#DejaVuSans-31" transform="translate(755.899896 0.051563)"/>
     <use xlink:href="#DejaVuSans-30" transform="translate(819.522943 0.051563)"/>
     <use xlink:href="#DejaVuSans-30" transform="translate(883.14599 0.051563)"/>
     <use xlink:href="#DejaVuSans-20" transform="translate(946.769036 0.051563)"/>
     <use xlink:href="#DejaVuSans-47" transform="translate(978.556146 0.051563)"/>
     <use xlink:href="#DejaVuSans-65" transform="translate(1056.04638 0.051563)"/>
     <use xlink:href="#DejaVuSans-56" transform="translate(1117.569818 0.051563)"/>
     <use xlink:href="#DejaVuSans-2c" transform="translate(1185.978021 0.051563)"/>
     <use xlink:href="#DejaVuSans-20" transform="translate(1217.76513 0.051563)"/>
     <use xlink:href="#DejaVuSans-31" transform="translate(1249.55224 0.051563)"/>
     <use xlink:href="#DejaVuSans-2e" transform="translate(1313.175286 0.051563)"/>
     <use xlink:href="#DejaVuSans-33" transform="translate(1344.962396 0.051563)"/>
     <use xlink:href="#DejaVuSans-3c" transform="translate(1428.067865 0.051563)"/>
     <use xlink:href="#DejaVuSans-7c" transform="translate(1531.339349 0.051563)"/>
     <use xlink:href="#DejaVuSans-Oblique-3b7" transform="translate(1565.030755 0.051563)"/>
     <use xlink:href="#DejaVuSans-67" transform="translate(1633.059557 38.332813)scale(0.7)"/>
     <use xlink:href="#DejaVuSans-65" transform="translate(1677.493151 38.332813)scale(0.7)"/>
     <use xlink:href="#DejaVuSans-6e" transform="translate(1720.559557 38.332813)scale(0.7)"/>
     <use xlink:href="#DejaVuSans-7c" transform="translate(1767.659167 0.051563)"/>
     <use xlink:href="#DejaVuSans-3c" transform="translate(1820.832995 0.051563)"/>
     <use xlink:href="#DejaVuSans-32" transform="translate(1924.104479 0.051563)"/>
     <use xlink:href="#DejaVuSans-2e" transform="translate(1987.727526 0.051563)"/>
     <use xlink:href="#DejaVuSans-35" transform="translate(2019.514635 0.051563)"/>
    </g>
   </g>
   <g id="legend_1">
    <g id="patch_10">
     <path d="M 257.897813 114.320125 
L 379 114.320125 
Q 381.8 114.320125 381.8 111.520125 
L 381.8 51.272 
Q 381.8 48.472 379 48.472 
L 257.897813 48.472 
Q 255.097813 48.472 255.097813 51.272 
L 255.097813 111.520125 
Q 255.097813 114.320125 257.897813 114.320125 
z
" style="fill: #ffffff; opacity: 0.8; stroke: #cccccc; stroke-linejoin: miter"/>
    </g>
    <g id="patch_11">
     <path d="M 260.697813 64.709812 
L 288.697813 64.709812 
L 288.697813 54.909813 
L 260.697813 54.909813 
L 260.697813 64.709812 
z
" style="fill: none; stroke: #1f77b4; stroke-linejoin: miter"/>
    </g>
    <g id="text_16">
     <!-- Baseline -->
     <g transform="translate(299.897813 64.709812)scale(0.14 -0.14)">
      <defs>
       <path id="DejaVuSans-42" d="M 1259 2228 
L 1259 519 
L 2272 519 
Q 2781 519 3026 730 
Q 3272 941 3272 1375 
Q 3272 1813 3026 2020 
Q 2781 2228 2272 2228 
L 1259 2228 
z
M 1259 4147 
L 1259 2741 
L 2194 2741 
Q 2656 2741 2882 2914 
Q 3109 3088 3109 3444 
Q 3109 3797 2882 3972 
Q 2656 4147 2194 4147 
L 1259 4147 
z
M 628 4666 
L 2241 4666 
Q 2963 4666 3353 4366 
Q 3744 4066 3744 3513 
Q 3744 3084 3544 2831 
Q 3344 2578 2956 2516 
Q 3422 2416 3680 2098 
Q 3938 1781 3938 1306 
Q 3938 681 3513 340 
Q 3088 0 2303 0 
L 628 0 
L 628 4666 
z
" transform="scale(0.015625)"/>
       <path id="DejaVuSans-61" d="M 2194 1759 
Q 1497 1759 1228 1600 
Q 959 1441 959 1056 
Q 959 750 1161 570 
Q 1363 391 1709 391 
Q 2188 391 2477 730 
Q 2766 1069 2766 1631 
L 2766 1759 
L 2194 1759 
z
M 3341 1997 
L 3341 0 
L 2766 0 
L 2766 531 
Q 2569 213 2275 61 
Q 1981 -91 1556 -91 
Q 1019 -91 701 211 
Q 384 513 384 1019 
Q 384 1609 779 1909 
Q 1175 2209 1959 2209 
L 2766 2209 
L 2766 2266 
Q 2766 2663 2505 2880 
Q 2244 3097 1772 3097 
Q 1472 3097 1187 3025 
Q 903 2953 641 2809 
L 641 3341 
Q 956 3463 1253 3523 
Q 1550 3584 1831 3584 
Q 2591 3584 2966 3190 
Q 3341 2797 3341 1997 
z
" transform="scale(0.015625)"/>
       <path id="DejaVuSans-6c" d="M 603 4863 
L 1178 4863 
L 1178 0 
L 603 0 
L 603 4863 
z
" transform="scale(0.015625)"/>
       <path id="DejaVuSans-69" d="M 603 3500 
L 1178 3500 
L 1178 0 
L 603 0 
L 603 3500 
z
M 603 4863 
L 1178 4863 
L 1178 4134 
L 603 4134 
L 603 4863 
z
" transform="scale(0.015625)"/>
      </defs>
      <use xlink:href="#DejaVuSans-42"/>
      <use xlink:href="#DejaVuSans-61" x="68.603516"/>
      <use xlink:href="#DejaVuSans-73" x="129.882812"/>
      <use xlink:href="#DejaVuSans-65" x="181.982422"/>
      <use xlink:href="#DejaVuSans-6c" x="243.505859"/>
      <use xlink:href="#DejaVuSans-69" x="271.289062"/>
      <use xlink:href="#DejaVuSans-6e" x="299.072266"/>
      <use xlink:href="#DejaVuSans-65" x="362.451172"/>
     </g>
    </g>
    <g id="patch_12">
     <path d="M 260.697813 85.259187 
L 288.697813 85.259187 
L 288.697813 75.459187 
L 260.697813 75.459187 
L 260.697813 85.259187 
z
" style="fill: none; stroke: #ff7f0e; stroke-linejoin: miter"/>
    </g>
    <g id="text_17">
     <!-- PFN -->
     <g transform="translate(299.897813 85.259187)scale(0.14 -0.14)">
      <defs>
       <path id="DejaVuSans-50" d="M 1259 4147 
L 1259 2394 
L 2053 2394 
Q 2494 2394 2734 2622 
Q 2975 2850 2975 3272 
Q 2975 3691 2734 3919 
Q 2494 4147 2053 4147 
L 1259 4147 
z
M 628 4666 
L 2053 4666 
Q 2838 4666 3239 4311 
Q 3641 3956 3641 3272 
Q 3641 2581 3239 2228 
Q 2838 1875 2053 1875 
L 1259 1875 
L 1259 0 
L 628 0 
L 628 4666 
z
" transform="scale(0.015625)"/>
       <path id="DejaVuSans-46" d="M 628 4666 
L 3309 4666 
L 3309 4134 
L 1259 4134 
L 1259 2759 
L 3109 2759 
L 3109 2228 
L 1259 2228 
L 1259 0 
L 628 0 
L 628 4666 
z
" transform="scale(0.015625)"/>
       <path id="DejaVuSans-4e" d="M 628 4666 
L 1478 4666 
L 3547 763 
L 3547 4666 
L 4159 4666 
L 4159 0 
L 3309 0 
L 1241 3903 
L 1241 0 
L 628 0 
L 628 4666 
z
" transform="scale(0.015625)"/>
      </defs>
      <use xlink:href="#DejaVuSans-50"/>
      <use xlink:href="#DejaVuSans-46" x="60.302734"/>
      <use xlink:href="#DejaVuSans-4e" x="117.822266"/>
     </g>
    </g>
    <g id="patch_13">
     <path d="M 260.697813 105.808562 
L 288.697813 105.808562 
L 288.697813 96.008562 
L 260.697813 96.008562 
L 260.697813 105.808562 
z
" style="fill: none; stroke: #2ca02c; stroke-linejoin: miter"/>
    </g>
    <g id="text_18">
     <!-- ParticleNet -->
     <g transform="translate(299.897813 105.808562)scale(0.14 -0.14)">
      <use xlink:href="#DejaVuSans-50"/>
      <use xlink:href="#DejaVuSans-61" x="55.802734"/>
      <use xlink:href="#DejaVuSans-72" x="117.082031"/>
      <use xlink:href="#DejaVuSans-74" x="158.195312"/>
      <use xlink:href="#DejaVuSans-69" x="197.404297"/>
      <use xlink:href="#DejaVuSans-63" x="225.1875"/>
      <use xlink:href="#DejaVuSans-6c" x="280.167969"/>
      <use xlink:href="#DejaVuSans-65" x="307.951172"/>
      <use xlink:href="#DejaVuSans-4e" x="369.474609"/>
      <use xlink:href="#DejaVuSans-65" x="444.279297"/>
      <use xlink:href="#DejaVuSans-74" x="505.802734"/>
     </g>
    </g>
   </g>
  </g>
 </g>
 <defs>
  <clipPath id="pa1717c9ec3">
   <rect x="54" y="41.472" width="334.8" height="260.928"/>
  </clipPath>
 </defs>
</svg>
