<?xml version="1.0" encoding="utf-8" standalone="no"?>
<!DOCTYPE svg PUBLIC "-//W3C//DTD SVG 1.1//EN"
  "http://www.w3.org/Graphics/SVG/1.1/DTD/svg11.dtd">
<svg xmlns:xlink="http://www.w3.org/1999/xlink" width="432pt" height="345.6pt" viewBox="0 0 432 345.6" xmlns="http://www.w3.org/2000/svg" version="1.1">
 <metadata>
  <rdf:RDF xmlns:dc="http://purl.org/dc/elements/1.1/" xmlns:cc="http://creativecommons.org/ns#" xmlns:rdf="http://www.w3.org/1999/02/22-rdf-syntax-ns#">
   <cc:Work>
    <dc:type rdf:resource="http://purl.org/dc/dcmitype/StillImage"/>
    <dc:date>2023-03-10T21:40:16.524272</dc:date>
    <dc:format>image/svg+xml</dc:format>
    <dc:creator>
     <cc:Agent>
      <dc:title>Matplotlib v3.5.2, https://matplotlib.org/</dc:title>
     </cc:Agent>
    </dc:creator>
   </cc:Work>
  </rdf:RDF>
 </metadata>
 <defs>
  <style type="text/css">*{stroke-linejoin: round; stroke-linecap: butt}</style>
 </defs>
 <g id="figure_1">
  <g id="patch_1">
   <path d="M 0 345.6 
L 432 345.6 
L 432 0 
L 0 0 
L 0 345.6 
z
" style="fill: none"/>
  </g>
  <g id="axes_1">
   <g id="patch_2">
    <path d="M 54 302.4 
L 388.8 302.4 
L 388.8 41.472 
L 54 41.472 
z
" style="fill: #ffffff"/>
   </g>
   <g id="matplotlib.axis_1">
    <g id="xtick_1">
     <g id="line2d_1">
      <defs>
       <path id="m2187257d8a" d="M 0 0 
L 0 -3.5 
" style="stroke: #000000; stroke-width: 1.2"/>
      </defs>
      <g>
       <use xlink:href="#m2187257d8a" x="87.48" y="302.4" style="stroke: #000000; stroke-width: 1.2"/>
      </g>
     </g>
     <g id="line2d_2">
      <defs>
       <path id="meb410da051" d="M 0 0 
L 0 3.5 
" style="stroke: #000000; stroke-width: 1.2"/>
      </defs>
      <g>
       <use xlink:href="#meb410da051" x="87.48" y="41.472" style="stroke: #000000; stroke-width: 1.2"/>
      </g>
     </g>
     <g id="text_1">
      <!-- 0.6 -->
      <g transform="translate(76.347813 316.537812)scale(0.14 -0.14)">
       <defs>
        <path id="DejaVuSans-30" d="M 2034 4250 
Q 1547 4250 1301 3770 
Q 1056 3291 1056 2328 
Q 1056 1369 1301 889 
Q 1547 409 2034 409 
Q 2525 409 2770 889 
Q 3016 1369 3016 2328 
Q 3016 3291 2770 3770 
Q 2525 4250 2034 4250 
z
M 2034 4750 
Q 2819 4750 3233 4129 
Q 3647 3509 3647 2328 
Q 3647 1150 3233 529 
Q 2819 -91 2034 -91 
Q 1250 -91 836 529 
Q 422 1150 422 2328 
Q 422 3509 836 4129 
Q 1250 4750 2034 4750 
z
" transform="scale(0.015625)"/>
        <path id="DejaVuSans-2e" d="M 684 794 
L 1344 794 
L 1344 0 
L 684 0 
L 684 794 
z
" transform="scale(0.015625)"/>
        <path id="DejaVuSans-36" d="M 2113 2584 
Q 1688 2584 1439 2293 
Q 1191 2003 1191 1497 
Q 1191 994 1439 701 
Q 1688 409 2113 409 
Q 2538 409 2786 701 
Q 3034 994 3034 1497 
Q 3034 2003 2786 2293 
Q 2538 2584 2113 2584 
z
M 3366 4563 
L 3366 3988 
Q 3128 4100 2886 4159 
Q 2644 4219 2406 4219 
Q 1781 4219 1451 3797 
Q 1122 3375 1075 2522 
Q 1259 2794 1537 2939 
Q 1816 3084 2150 3084 
Q 2853 3084 3261 2657 
Q 3669 2231 3669 1497 
Q 3669 778 3244 343 
Q 2819 -91 2113 -91 
Q 1303 -91 875 529 
Q 447 1150 447 2328 
Q 447 3434 972 4092 
Q 1497 4750 2381 4750 
Q 2619 4750 2861 4703 
Q 3103 4656 3366 4563 
z
" transform="scale(0.015625)"/>
       </defs>
       <use xlink:href="#DejaVuSans-30"/>
       <use xlink:href="#DejaVuSans-2e" x="63.623047"/>
       <use xlink:href="#DejaVuSans-36" x="95.410156"/>
      </g>
     </g>
    </g>
    <g id="xtick_2">
     <g id="line2d_3">
      <g>
       <use xlink:href="#m2187257d8a" x="154.44" y="302.4" style="stroke: #000000; stroke-width: 1.2"/>
      </g>
     </g>
     <g id="line2d_4">
      <g>
       <use xlink:href="#meb410da051" x="154.44" y="41.472" style="stroke: #000000; stroke-width: 1.2"/>
      </g>
     </g>
     <g id="text_2">
      <!-- 0.8 -->
      <g transform="translate(143.307813 316.537812)scale(0.14 -0.14)">
       <defs>
        <path id="DejaVuSans-38" d="M 2034 2216 
Q 1584 2216 1326 1975 
Q 1069 1734 1069 1313 
Q 1069 891 1326 650 
Q 1584 409 2034 409 
Q 2484 409 2743 651 
Q 3003 894 3003 1313 
Q 3003 1734 2745 1975 
Q 2488 2216 2034 2216 
z
M 1403 2484 
Q 997 2584 770 2862 
Q 544 3141 544 3541 
Q 544 4100 942 4425 
Q 1341 4750 2034 4750 
Q 2731 4750 3128 4425 
Q 3525 4100 3525 3541 
Q 3525 3141 3298 2862 
Q 3072 2584 2669 2484 
Q 3125 2378 3379 2068 
Q 3634 1759 3634 1313 
Q 3634 634 3220 271 
Q 2806 -91 2034 -91 
Q 1263 -91 848 271 
Q 434 634 434 1313 
Q 434 1759 690 2068 
Q 947 2378 1403 2484 
z
M 1172 3481 
Q 1172 3119 1398 2916 
Q 1625 2713 2034 2713 
Q 2441 2713 2670 2916 
Q 2900 3119 2900 3481 
Q 2900 3844 2670 4047 
Q 2441 4250 2034 4250 
Q 1625 4250 1398 4047 
Q 1172 3844 1172 3481 
z
" transform="scale(0.015625)"/>
       </defs>
       <use xlink:href="#DejaVuSans-30"/>
       <use xlink:href="#DejaVuSans-2e" x="63.623047"/>
       <use xlink:href="#DejaVuSans-38" x="95.410156"/>
      </g>
     </g>
    </g>
    <g id="xtick_3">
     <g id="line2d_5">
      <g>
       <use xlink:href="#m2187257d8a" x="221.4" y="302.4" style="stroke: #000000; stroke-width: 1.2"/>
      </g>
     </g>
     <g id="line2d_6">
      <g>
       <use xlink:href="#meb410da051" x="221.4" y="41.472" style="stroke: #000000; stroke-width: 1.2"/>
      </g>
     </g>
     <g id="text_3">
      <!-- 1.0 -->
      <g transform="translate(210.267812 316.537812)scale(0.14 -0.14)">
       <defs>
        <path id="DejaVuSans-31" d="M 794 531 
L 1825 531 
L 1825 4091 
L 703 3866 
L 703 4441 
L 1819 4666 
L 2450 4666 
L 2450 531 
L 3481 531 
L 3481 0 
L 794 0 
L 794 531 
z
" transform="scale(0.015625)"/>
       </defs>
       <use xlink:href="#DejaVuSans-31"/>
       <use xlink:href="#DejaVuSans-2e" x="63.623047"/>
       <use xlink:href="#DejaVuSans-30" x="95.410156"/>
      </g>
     </g>
    </g>
    <g id="xtick_4">
     <g id="line2d_7">
      <g>
       <use xlink:href="#m2187257d8a" x="288.36" y="302.4" style="stroke: #000000; stroke-width: 1.2"/>
      </g>
     </g>
     <g id="line2d_8">
      <g>
       <use xlink:href="#meb410da051" x="288.36" y="41.472" style="stroke: #000000; stroke-width: 1.2"/>
      </g>
     </g>
     <g id="text_4">
      <!-- 1.2 -->
      <g transform="translate(277.227813 316.537812)scale(0.14 -0.14)">
       <defs>
        <path id="DejaVuSans-32" d="M 1228 531 
L 3431 531 
L 3431 0 
L 469 0 
L 469 531 
Q 828 903 1448 1529 
Q 2069 2156 2228 2338 
Q 2531 2678 2651 2914 
Q 2772 3150 2772 3378 
Q 2772 3750 2511 3984 
Q 2250 4219 1831 4219 
Q 1534 4219 1204 4116 
Q 875 4013 500 3803 
L 500 4441 
Q 881 4594 1212 4672 
Q 1544 4750 1819 4750 
Q 2544 4750 2975 4387 
Q 3406 4025 3406 3419 
Q 3406 3131 3298 2873 
Q 3191 2616 2906 2266 
Q 2828 2175 2409 1742 
Q 1991 1309 1228 531 
z
" transform="scale(0.015625)"/>
       </defs>
       <use xlink:href="#DejaVuSans-31"/>
       <use xlink:href="#DejaVuSans-2e" x="63.623047"/>
       <use xlink:href="#DejaVuSans-32" x="95.410156"/>
      </g>
     </g>
    </g>
    <g id="xtick_5">
     <g id="line2d_9">
      <g>
       <use xlink:href="#m2187257d8a" x="355.32" y="302.4" style="stroke: #000000; stroke-width: 1.2"/>
      </g>
     </g>
     <g id="line2d_10">
      <g>
       <use xlink:href="#meb410da051" x="355.32" y="41.472" style="stroke: #000000; stroke-width: 1.2"/>
      </g>
     </g>
     <g id="text_5">
      <!-- 1.4 -->
      <g transform="translate(344.187812 316.537812)scale(0.14 -0.14)">
       <defs>
        <path id="DejaVuSans-34" d="M 2419 4116 
L 825 1625 
L 2419 1625 
L 2419 4116 
z
M 2253 4666 
L 3047 4666 
L 3047 1625 
L 3713 1625 
L 3713 1100 
L 3047 1100 
L 3047 0 
L 2419 0 
L 2419 1100 
L 313 1100 
L 313 1709 
L 2253 4666 
z
" transform="scale(0.015625)"/>
       </defs>
       <use xlink:href="#DejaVuSans-31"/>
       <use xlink:href="#DejaVuSans-2e" x="63.623047"/>
       <use xlink:href="#DejaVuSans-34" x="95.410156"/>
      </g>
     </g>
    </g>
    <g id="text_6">
     <!-- $p_\mathrm{T}^\mathrm{corr}\//\/p_\mathrm{T}^\mathrm{gen}$ -->
     <g transform="translate(187.87 336.049375)scale(0.14 -0.14)">
      <defs>
       <path id="DejaVuSans-Oblique-70" d="M 3175 2156 
Q 3175 2616 2975 2859 
Q 2775 3103 2400 3103 
Q 2144 3103 1911 2972 
Q 1678 2841 1497 2591 
Q 1319 2344 1212 1994 
Q 1106 1644 1106 1300 
Q 1106 863 1306 627 
Q 1506 391 1875 391 
Q 2147 391 2380 519 
Q 2613 647 2778 891 
Q 2956 1147 3065 1494 
Q 3175 1841 3175 2156 
z
M 1394 2969 
Q 1625 3272 1939 3428 
Q 2253 3584 2638 3584 
Q 3175 3584 3472 3232 
Q 3769 2881 3769 2247 
Q 3769 1728 3584 1258 
Q 3400 788 3053 416 
Q 2822 169 2531 39 
Q 2241 -91 1919 -91 
Q 1547 -91 1294 64 
Q 1041 219 916 525 
L 556 -1331 
L -19 -1331 
L 922 3500 
L 1497 3500 
L 1394 2969 
z
" transform="scale(0.015625)"/>
       <path id="DejaVuSans-63" d="M 3122 3366 
L 3122 2828 
Q 2878 2963 2633 3030 
Q 2388 3097 2138 3097 
Q 1578 3097 1268 2742 
Q 959 2388 959 1747 
Q 959 1106 1268 751 
Q 1578 397 2138 397 
Q 2388 397 2633 464 
Q 2878 531 3122 666 
L 3122 134 
Q 2881 22 2623 -34 
Q 2366 -91 2075 -91 
Q 1284 -91 818 406 
Q 353 903 353 1747 
Q 353 2603 823 3093 
Q 1294 3584 2113 3584 
Q 2378 3584 2631 3529 
Q 2884 3475 3122 3366 
z
" transform="scale(0.015625)"/>
       <path id="DejaVuSans-6f" d="M 1959 3097 
Q 1497 3097 1228 2736 
Q 959 2375 959 1747 
Q 959 1119 1226 758 
Q 1494 397 1959 397 
Q 2419 397 2687 759 
Q 2956 1122 2956 1747 
Q 2956 2369 2687 2733 
Q 2419 3097 1959 3097 
z
M 1959 3584 
Q 2709 3584 3137 3096 
Q 3566 2609 3566 1747 
Q 3566 888 3137 398 
Q 2709 -91 1959 -91 
Q 1206 -91 779 398 
Q 353 888 353 1747 
Q 353 2609 779 3096 
Q 1206 3584 1959 3584 
z
" transform="scale(0.015625)"/>
       <path id="DejaVuSans-72" d="M 2631 2963 
Q 2534 3019 2420 3045 
Q 2306 3072 2169 3072 
Q 1681 3072 1420 2755 
Q 1159 2438 1159 1844 
L 1159 0 
L 581 0 
L 581 3500 
L 1159 3500 
L 1159 2956 
Q 1341 3275 1631 3429 
Q 1922 3584 2338 3584 
Q 2397 3584 2469 3576 
Q 2541 3569 2628 3553 
L 2631 2963 
z
" transform="scale(0.015625)"/>
       <path id="DejaVuSans-54" d="M -19 4666 
L 3928 4666 
L 3928 4134 
L 2272 4134 
L 2272 0 
L 1638 0 
L 1638 4134 
L -19 4134 
L -19 4666 
z
" transform="scale(0.015625)"/>
       <path id="DejaVuSans-2f" d="M 1625 4666 
L 2156 4666 
L 531 -594 
L 0 -594 
L 1625 4666 
z
" transform="scale(0.015625)"/>
       <path id="DejaVuSans-67" d="M 2906 1791 
Q 2906 2416 2648 2759 
Q 2391 3103 1925 3103 
Q 1463 3103 1205 2759 
Q 947 2416 947 1791 
Q 947 1169 1205 825 
Q 1463 481 1925 481 
Q 2391 481 2648 825 
Q 2906 1169 2906 1791 
z
M 3481 434 
Q 3481 -459 3084 -895 
Q 2688 -1331 1869 -1331 
Q 1566 -1331 1297 -1286 
Q 1028 -1241 775 -1147 
L 775 -588 
Q 1028 -725 1275 -790 
Q 1522 -856 1778 -856 
Q 2344 -856 2625 -561 
Q 2906 -266 2906 331 
L 2906 616 
Q 2728 306 2450 153 
Q 2172 0 1784 0 
Q 1141 0 747 490 
Q 353 981 353 1791 
Q 353 2603 747 3093 
Q 1141 3584 1784 3584 
Q 2172 3584 2450 3431 
Q 2728 3278 2906 2969 
L 2906 3500 
L 3481 3500 
L 3481 434 
z
" transform="scale(0.015625)"/>
       <path id="DejaVuSans-65" d="M 3597 1894 
L 3597 1613 
L 953 1613 
Q 991 1019 1311 708 
Q 1631 397 2203 397 
Q 2534 397 2845 478 
Q 3156 559 3463 722 
L 3463 178 
Q 3153 47 2828 -22 
Q 2503 -91 2169 -91 
Q 1331 -91 842 396 
Q 353 884 353 1716 
Q 353 2575 817 3079 
Q 1281 3584 2069 3584 
Q 2775 3584 3186 3129 
Q 3597 2675 3597 1894 
z
M 3022 2063 
Q 3016 2534 2758 2815 
Q 2500 3097 2075 3097 
Q 1594 3097 1305 2825 
Q 1016 2553 972 2059 
L 3022 2063 
z
" transform="scale(0.015625)"/>
       <path id="DejaVuSans-6e" d="M 3513 2113 
L 3513 0 
L 2938 0 
L 2938 2094 
Q 2938 2591 2744 2837 
Q 2550 3084 2163 3084 
Q 1697 3084 1428 2787 
Q 1159 2491 1159 1978 
L 1159 0 
L 581 0 
L 581 3500 
L 1159 3500 
L 1159 2956 
Q 1366 3272 1645 3428 
Q 1925 3584 2291 3584 
Q 2894 3584 3203 3211 
Q 3513 2838 3513 2113 
z
" transform="scale(0.015625)"/>
      </defs>
      <use xlink:href="#DejaVuSans-Oblique-70" transform="translate(0 0.051563)"/>
      <use xlink:href="#DejaVuSans-63" transform="translate(68.126458 38.332813)scale(0.7)"/>
      <use xlink:href="#DejaVuSans-6f" transform="translate(106.612786 38.332813)scale(0.7)"/>
      <use xlink:href="#DejaVuSans-72" transform="translate(149.439935 38.332813)scale(0.7)"/>
      <use xlink:href="#DejaVuSans-72" transform="translate(178.219232 38.332813)scale(0.7)"/>
      <use xlink:href="#DejaVuSans-54" transform="translate(63.476562 -27.292187)scale(0.7)"/>
      <use xlink:href="#DejaVuSans-2f" transform="translate(225.96858 0.051563)"/>
      <use xlink:href="#DejaVuSans-Oblique-70" transform="translate(275.895662 0.051563)"/>
      <use xlink:href="#DejaVuSans-67" transform="translate(344.022121 50.8)scale(0.7)"/>
      <use xlink:href="#DejaVuSans-65" transform="translate(388.455715 50.8)scale(0.7)"/>
      <use xlink:href="#DejaVuSans-6e" transform="translate(431.522121 50.8)scale(0.7)"/>
      <use xlink:href="#DejaVuSans-54" transform="translate(339.372225 -27.292187)scale(0.7)"/>
     </g>
    </g>
   </g>
   <g id="matplotlib.axis_2">
    <g id="ytick_1">
     <g id="line2d_11">
      <defs>
       <path id="m62a5f078ff" d="M 0 0 
L 3.5 0 
" style="stroke: #000000; stroke-width: 1.2"/>
      </defs>
      <g>
       <use xlink:href="#m62a5f078ff" x="54" y="302.4" style="stroke: #000000; stroke-width: 1.2"/>
      </g>
     </g>
     <g id="line2d_12">
      <defs>
       <path id="m7a7f8d3dc8" d="M 0 0 
L -3.5 0 
" style="stroke: #000000; stroke-width: 1.2"/>
      </defs>
      <g>
       <use xlink:href="#m7a7f8d3dc8" x="388.8" y="302.4" style="stroke: #000000; stroke-width: 1.2"/>
      </g>
     </g>
     <g id="text_7">
      <!-- 0 -->
      <g transform="translate(41.5925 307.718906)scale(0.14 -0.14)">
       <use xlink:href="#DejaVuSans-30"/>
      </g>
     </g>
    </g>
    <g id="ytick_2">
     <g id="line2d_13">
      <g>
       <use xlink:href="#m62a5f078ff" x="54" y="272.956534" style="stroke: #000000; stroke-width: 1.2"/>
      </g>
     </g>
     <g id="line2d_14">
      <g>
       <use xlink:href="#m7a7f8d3dc8" x="388.8" y="272.956534" style="stroke: #000000; stroke-width: 1.2"/>
      </g>
     </g>
     <g id="text_8">
      <!-- 50 -->
      <g transform="translate(32.685 278.27544)scale(0.14 -0.14)">
       <defs>
        <path id="DejaVuSans-35" d="M 691 4666 
L 3169 4666 
L 3169 4134 
L 1269 4134 
L 1269 2991 
Q 1406 3038 1543 3061 
Q 1681 3084 1819 3084 
Q 2600 3084 3056 2656 
Q 3513 2228 3513 1497 
Q 3513 744 3044 326 
Q 2575 -91 1722 -91 
Q 1428 -91 1123 -41 
Q 819 9 494 109 
L 494 744 
Q 775 591 1075 516 
Q 1375 441 1709 441 
Q 2250 441 2565 725 
Q 2881 1009 2881 1497 
Q 2881 1984 2565 2268 
Q 2250 2553 1709 2553 
Q 1456 2553 1204 2497 
Q 953 2441 691 2322 
L 691 4666 
z
" transform="scale(0.015625)"/>
       </defs>
       <use xlink:href="#DejaVuSans-35"/>
       <use xlink:href="#DejaVuSans-30" x="63.623047"/>
      </g>
     </g>
    </g>
    <g id="ytick_3">
     <g id="line2d_15">
      <g>
       <use xlink:href="#m62a5f078ff" x="54" y="243.513067" style="stroke: #000000; stroke-width: 1.2"/>
      </g>
     </g>
     <g id="line2d_16">
      <g>
       <use xlink:href="#m7a7f8d3dc8" x="388.8" y="243.513067" style="stroke: #000000; stroke-width: 1.2"/>
      </g>
     </g>
     <g id="text_9">
      <!-- 100 -->
      <g transform="translate(23.7775 248.831973)scale(0.14 -0.14)">
       <use xlink:href="#DejaVuSans-31"/>
       <use xlink:href="#DejaVuSans-30" x="63.623047"/>
       <use xlink:href="#DejaVuSans-30" x="127.246094"/>
      </g>
     </g>
    </g>
    <g id="ytick_4">
     <g id="line2d_17">
      <g>
       <use xlink:href="#m62a5f078ff" x="54" y="214.069601" style="stroke: #000000; stroke-width: 1.2"/>
      </g>
     </g>
     <g id="line2d_18">
      <g>
       <use xlink:href="#m7a7f8d3dc8" x="388.8" y="214.069601" style="stroke: #000000; stroke-width: 1.2"/>
      </g>
     </g>
     <g id="text_10">
      <!-- 150 -->
      <g transform="translate(23.7775 219.388507)scale(0.14 -0.14)">
       <use xlink:href="#DejaVuSans-31"/>
       <use xlink:href="#DejaVuSans-35" x="63.623047"/>
       <use xlink:href="#DejaVuSans-30" x="127.246094"/>
      </g>
     </g>
    </g>
    <g id="ytick_5">
     <g id="line2d_19">
      <g>
       <use xlink:href="#m62a5f078ff" x="54" y="184.626134" style="stroke: #000000; stroke-width: 1.2"/>
      </g>
     </g>
     <g id="line2d_20">
      <g>
       <use xlink:href="#m7a7f8d3dc8" x="388.8" y="184.626134" style="stroke: #000000; stroke-width: 1.2"/>
      </g>
     </g>
     <g id="text_11">
      <!-- 200 -->
      <g transform="translate(23.7775 189.94504)scale(0.14 -0.14)">
       <use xlink:href="#DejaVuSans-32"/>
       <use xlink:href="#DejaVuSans-30" x="63.623047"/>
       <use xlink:href="#DejaVuSans-30" x="127.246094"/>
      </g>
     </g>
    </g>
    <g id="ytick_6">
     <g id="line2d_21">
      <g>
       <use xlink:href="#m62a5f078ff" x="54" y="155.182668" style="stroke: #000000; stroke-width: 1.2"/>
      </g>
     </g>
     <g id="line2d_22">
      <g>
       <use xlink:href="#m7a7f8d3dc8" x="388.8" y="155.182668" style="stroke: #000000; stroke-width: 1.2"/>
      </g>
     </g>
     <g id="text_12">
      <!-- 250 -->
      <g transform="translate(23.7775 160.501574)scale(0.14 -0.14)">
       <use xlink:href="#DejaVuSans-32"/>
       <use xlink:href="#DejaVuSans-35" x="63.623047"/>
       <use xlink:href="#DejaVuSans-30" x="127.246094"/>
      </g>
     </g>
    </g>
    <g id="ytick_7">
     <g id="line2d_23">
      <g>
       <use xlink:href="#m62a5f078ff" x="54" y="125.739201" style="stroke: #000000; stroke-width: 1.2"/>
      </g>
     </g>
     <g id="line2d_24">
      <g>
       <use xlink:href="#m7a7f8d3dc8" x="388.8" y="125.739201" style="stroke: #000000; stroke-width: 1.2"/>
      </g>
     </g>
     <g id="text_13">
      <!-- 300 -->
      <g transform="translate(23.7775 131.058107)scale(0.14 -0.14)">
       <defs>
        <path id="DejaVuSans-33" d="M 2597 2516 
Q 3050 2419 3304 2112 
Q 3559 1806 3559 1356 
Q 3559 666 3084 287 
Q 2609 -91 1734 -91 
Q 1441 -91 1130 -33 
Q 819 25 488 141 
L 488 750 
Q 750 597 1062 519 
Q 1375 441 1716 441 
Q 2309 441 2620 675 
Q 2931 909 2931 1356 
Q 2931 1769 2642 2001 
Q 2353 2234 1838 2234 
L 1294 2234 
L 1294 2753 
L 1863 2753 
Q 2328 2753 2575 2939 
Q 2822 3125 2822 3475 
Q 2822 3834 2567 4026 
Q 2313 4219 1838 4219 
Q 1578 4219 1281 4162 
Q 984 4106 628 3988 
L 628 4550 
Q 988 4650 1302 4700 
Q 1616 4750 1894 4750 
Q 2613 4750 3031 4423 
Q 3450 4097 3450 3541 
Q 3450 3153 3228 2886 
Q 3006 2619 2597 2516 
z
" transform="scale(0.015625)"/>
       </defs>
       <use xlink:href="#DejaVuSans-33"/>
       <use xlink:href="#DejaVuSans-30" x="63.623047"/>
       <use xlink:href="#DejaVuSans-30" x="127.246094"/>
      </g>
     </g>
    </g>
    <g id="ytick_8">
     <g id="line2d_25">
      <g>
       <use xlink:href="#m62a5f078ff" x="54" y="96.295735" style="stroke: #000000; stroke-width: 1.2"/>
      </g>
     </g>
     <g id="line2d_26">
      <g>
       <use xlink:href="#m7a7f8d3dc8" x="388.8" y="96.295735" style="stroke: #000000; stroke-width: 1.2"/>
      </g>
     </g>
     <g id="text_14">
      <!-- 350 -->
      <g transform="translate(23.7775 101.614641)scale(0.14 -0.14)">
       <use xlink:href="#DejaVuSans-33"/>
       <use xlink:href="#DejaVuSans-35" x="63.623047"/>
       <use xlink:href="#DejaVuSans-30" x="127.246094"/>
      </g>
     </g>
    </g>
    <g id="ytick_9">
     <g id="line2d_27">
      <g>
       <use xlink:href="#m62a5f078ff" x="54" y="66.852268" style="stroke: #000000; stroke-width: 1.2"/>
      </g>
     </g>
     <g id="line2d_28">
      <g>
       <use xlink:href="#m7a7f8d3dc8" x="388.8" y="66.852268" style="stroke: #000000; stroke-width: 1.2"/>
      </g>
     </g>
     <g id="text_15">
      <!-- 400 -->
      <g transform="translate(23.7775 72.171174)scale(0.14 -0.14)">
       <use xlink:href="#DejaVuSans-34"/>
       <use xlink:href="#DejaVuSans-30" x="63.623047"/>
       <use xlink:href="#DejaVuSans-30" x="127.246094"/>
      </g>
     </g>
    </g>
    <g id="text_16">
     <!-- Jets -->
     <g transform="translate(16.865937 184.698969)rotate(-90)scale(0.14 -0.14)">
      <defs>
       <path id="DejaVuSans-4a" d="M 628 4666 
L 1259 4666 
L 1259 325 
Q 1259 -519 939 -900 
Q 619 -1281 -91 -1281 
L -331 -1281 
L -331 -750 
L -134 -750 
Q 284 -750 456 -515 
Q 628 -281 628 325 
L 628 4666 
z
" transform="scale(0.015625)"/>
       <path id="DejaVuSans-74" d="M 1172 4494 
L 1172 3500 
L 2356 3500 
L 2356 3053 
L 1172 3053 
L 1172 1153 
Q 1172 725 1289 603 
Q 1406 481 1766 481 
L 2356 481 
L 2356 0 
L 1766 0 
Q 1100 0 847 248 
Q 594 497 594 1153 
L 594 3053 
L 172 3053 
L 172 3500 
L 594 3500 
L 594 4494 
L 1172 4494 
z
" transform="scale(0.015625)"/>
       <path id="DejaVuSans-73" d="M 2834 3397 
L 2834 2853 
Q 2591 2978 2328 3040 
Q 2066 3103 1784 3103 
Q 1356 3103 1142 2972 
Q 928 2841 928 2578 
Q 928 2378 1081 2264 
Q 1234 2150 1697 2047 
L 1894 2003 
Q 2506 1872 2764 1633 
Q 3022 1394 3022 966 
Q 3022 478 2636 193 
Q 2250 -91 1575 -91 
Q 1294 -91 989 -36 
Q 684 19 347 128 
L 347 722 
Q 666 556 975 473 
Q 1284 391 1588 391 
Q 1994 391 2212 530 
Q 2431 669 2431 922 
Q 2431 1156 2273 1281 
Q 2116 1406 1581 1522 
L 1381 1569 
Q 847 1681 609 1914 
Q 372 2147 372 2553 
Q 372 3047 722 3315 
Q 1072 3584 1716 3584 
Q 2034 3584 2315 3537 
Q 2597 3491 2834 3397 
z
" transform="scale(0.015625)"/>
      </defs>
      <use xlink:href="#DejaVuSans-4a"/>
      <use xlink:href="#DejaVuSans-65" x="29.492188"/>
      <use xlink:href="#DejaVuSans-74" x="91.015625"/>
      <use xlink:href="#DejaVuSans-73" x="130.224609"/>
     </g>
    </g>
   </g>
   <g id="patch_3">
    <path d="M 54 302.4 
L 64.044 302.4 
L 64.044 301.811131 
L 67.392 301.811131 
L 67.392 302.4 
L 74.088 302.4 
L 74.088 301.811131 
L 77.436 301.811131 
L 77.436 302.4 
L 84.132 302.4 
L 84.132 300.633392 
L 87.48 300.633392 
L 87.48 301.811131 
L 94.176 301.811131 
L 94.176 301.222261 
L 97.524 301.222261 
L 97.524 301.811131 
L 100.872 301.811131 
L 100.872 301.222261 
L 104.22 301.222261 
L 104.22 301.811131 
L 107.568 301.811131 
L 107.568 301.222261 
L 114.264 301.222261 
L 114.264 301.811131 
L 117.612 301.811131 
L 117.612 301.222261 
L 124.308 301.222261 
L 124.308 298.866784 
L 127.656 298.866784 
L 127.656 301.222261 
L 131.004 301.222261 
L 131.004 300.633392 
L 134.352 300.633392 
L 134.352 301.811131 
L 141.048 301.811131 
L 141.048 300.044523 
L 144.396 300.044523 
L 144.396 298.866784 
L 151.092 298.866784 
L 151.092 299.455653 
L 157.788 299.455653 
L 157.788 296.511307 
L 161.136 296.511307 
L 161.136 297.100176 
L 164.484 297.100176 
L 164.484 291.211483 
L 167.832 291.211483 
L 167.832 288.267136 
L 171.18 288.267136 
L 171.18 287.678267 
L 174.528 287.678267 
L 174.528 285.911659 
L 177.876 285.911659 
L 177.876 281.789573 
L 181.224 281.789573 
L 181.224 262.356886 
L 184.572 262.356886 
L 184.572 260.590278 
L 187.92 260.590278 
L 187.92 234.091158 
L 191.268 234.091158 
L 191.268 222.90264 
L 194.616 222.90264 
L 194.616 204.647691 
L 197.964 204.647691 
L 197.964 194.636913 
L 201.312 194.636913 
L 201.312 177.559702 
L 204.66 177.559702 
L 204.66 147.527366 
L 208.008 147.527366 
L 208.008 119.850508 
L 211.356 119.850508 
L 211.356 94.529127 
L 214.704 94.529127 
L 214.704 76.274177 
L 218.052 76.274177 
L 218.052 72.740961 
L 221.4 72.740961 
L 221.4 70.974353 
L 224.748 70.974353 
L 224.748 83.929479 
L 228.096 83.929479 
L 228.096 99.828951 
L 231.444 99.828951 
L 231.444 115.728422 
L 234.792 115.728422 
L 234.792 147.527366 
L 238.14 147.527366 
L 238.14 163.426838 
L 241.488 163.426838 
L 241.488 188.748219 
L 244.836 188.748219 
L 244.836 224.080379 
L 248.184 224.080379 
L 248.184 239.979851 
L 251.532 239.979851 
L 251.532 252.346107 
L 254.88 252.346107 
L 254.88 264.712363 
L 258.228 264.712363 
L 258.228 268.834448 
L 261.576 268.834448 
L 261.576 280.022965 
L 264.924 280.022965 
L 264.924 287.678267 
L 268.272 287.678267 
L 268.272 291.800352 
L 271.62 291.800352 
L 271.62 295.333568 
L 274.968 295.333568 
L 274.968 297.100176 
L 278.316 297.100176 
L 278.316 299.455653 
L 281.664 299.455653 
L 281.664 300.044523 
L 285.012 300.044523 
L 285.012 301.222261 
L 291.708 301.222261 
L 291.708 300.633392 
L 295.056 300.633392 
L 295.056 301.222261 
L 298.404 301.222261 
L 298.404 301.811131 
L 301.752 301.811131 
L 301.752 301.222261 
L 305.1 301.222261 
L 305.1 302.4 
L 308.448 302.4 
L 308.448 301.222261 
L 311.796 301.222261 
L 311.796 301.811131 
L 321.84 301.811131 
L 321.84 302.4 
L 325.188 302.4 
L 325.188 301.811131 
L 328.536 301.811131 
L 328.536 302.4 
L 335.232 302.4 
L 335.232 301.811131 
L 345.276 301.811131 
L 345.276 302.4 
L 365.364 302.4 
L 365.364 301.811131 
L 368.712 301.811131 
L 368.712 302.4 
L 375.408 302.4 
L 375.408 301.811131 
L 378.756 301.811131 
L 378.756 302.4 
L 388.8 302.4 
L 388.8 302.4 
" clip-path="url(#p77ad391885)" style="fill: none; stroke: #1f77b4; stroke-linejoin: miter"/>
   </g>
   <g id="patch_4">
    <path d="M 54 302.4 
L 64.044 302.4 
L 64.044 301.811131 
L 67.392 301.811131 
L 67.392 302.4 
L 77.436 302.4 
L 77.436 301.811131 
L 84.132 301.811131 
L 84.132 302.4 
L 87.48 302.4 
L 87.48 299.455653 
L 90.828 299.455653 
L 90.828 301.811131 
L 100.872 301.811131 
L 100.872 301.222261 
L 104.22 301.222261 
L 104.22 300.633392 
L 107.568 300.633392 
L 107.568 301.222261 
L 110.916 301.222261 
L 110.916 301.811131 
L 114.264 301.811131 
L 114.264 302.4 
L 117.612 302.4 
L 117.612 301.811131 
L 120.96 301.811131 
L 120.96 298.866784 
L 124.308 298.866784 
L 124.308 300.633392 
L 131.004 300.633392 
L 131.004 301.222261 
L 137.7 301.222261 
L 137.7 302.4 
L 141.048 302.4 
L 141.048 299.455653 
L 144.396 299.455653 
L 144.396 300.633392 
L 147.744 300.633392 
L 147.744 300.044523 
L 151.092 300.044523 
L 151.092 297.689045 
L 154.44 297.689045 
L 154.44 295.922437 
L 157.788 295.922437 
L 157.788 297.689045 
L 161.136 297.689045 
L 161.136 292.978091 
L 164.484 292.978091 
L 164.484 292.389221 
L 167.832 292.389221 
L 167.832 287.678267 
L 171.18 287.678267 
L 171.18 293.56696 
L 174.528 293.56696 
L 174.528 281.200704 
L 177.876 281.200704 
L 177.876 276.489749 
L 181.224 276.489749 
L 181.224 262.356886 
L 184.572 262.356886 
L 184.572 260.590278 
L 187.92 260.590278 
L 187.92 241.15759 
L 191.268 241.15759 
L 191.268 216.425078 
L 194.616 216.425078 
L 194.616 211.714123 
L 197.964 211.714123 
L 197.964 175.204225 
L 201.312 175.204225 
L 201.312 183.448395 
L 204.66 183.448395 
L 204.66 142.227542 
L 208.008 142.227542 
L 208.008 126.32807 
L 211.356 126.32807 
L 211.356 70.974353 
L 214.704 70.974353 
L 214.704 82.75174 
L 218.052 82.75174 
L 218.052 60.374705 
L 221.4 60.374705 
L 221.4 59.785836 
L 224.748 59.785836 
L 224.748 70.385484 
L 228.096 70.385484 
L 228.096 96.295735 
L 231.444 96.295735 
L 231.444 119.261638 
L 234.792 119.261638 
L 234.792 136.338849 
L 238.14 136.338849 
L 238.14 171.082139 
L 241.488 171.082139 
L 241.488 202.881083 
L 244.836 202.881083 
L 244.836 241.15759 
L 251.532 241.15759 
L 251.532 258.82367 
L 254.88 258.82367 
L 254.88 269.423318 
L 258.228 269.423318 
L 258.228 281.200704 
L 261.576 281.200704 
L 261.576 282.378443 
L 264.924 282.378443 
L 264.924 290.622613 
L 268.272 290.622613 
L 268.272 294.744699 
L 271.62 294.744699 
L 271.62 296.511307 
L 274.968 296.511307 
L 274.968 297.689045 
L 278.316 297.689045 
L 278.316 298.277915 
L 281.664 298.277915 
L 281.664 301.811131 
L 285.012 301.811131 
L 285.012 302.4 
L 288.36 302.4 
L 288.36 301.811131 
L 298.404 301.811131 
L 298.404 302.4 
L 301.752 302.4 
L 301.752 301.811131 
L 305.1 301.811131 
L 305.1 301.222261 
L 308.448 301.222261 
L 308.448 301.811131 
L 321.84 301.811131 
L 321.84 302.4 
L 325.188 302.4 
L 325.188 301.811131 
L 328.536 301.811131 
L 328.536 302.4 
L 335.232 302.4 
L 335.232 301.811131 
L 338.58 301.811131 
L 338.58 302.4 
L 341.928 302.4 
L 341.928 301.811131 
L 348.624 301.811131 
L 348.624 302.4 
L 355.32 302.4 
L 355.32 301.811131 
L 358.668 301.811131 
L 358.668 302.4 
L 362.016 302.4 
L 362.016 301.811131 
L 365.364 301.811131 
L 365.364 302.4 
L 388.8 302.4 
L 388.8 302.4 
" clip-path="url(#p77ad391885)" style="fill: none; stroke: #ff7f0e; stroke-linejoin: miter"/>
   </g>
   <g id="patch_5">
    <path d="M 54 302.4 
L 60.696 302.4 
L 60.696 301.811131 
L 67.392 301.811131 
L 67.392 302.4 
L 74.088 302.4 
L 74.088 301.811131 
L 77.436 301.811131 
L 77.436 302.4 
L 80.784 302.4 
L 80.784 301.811131 
L 84.132 301.811131 
L 84.132 301.222261 
L 90.828 301.222261 
L 90.828 301.811131 
L 100.872 301.811131 
L 100.872 301.222261 
L 104.22 301.222261 
L 104.22 300.044523 
L 107.568 300.044523 
L 107.568 301.811131 
L 110.916 301.811131 
L 110.916 301.222261 
L 114.264 301.222261 
L 114.264 302.4 
L 117.612 302.4 
L 117.612 301.222261 
L 120.96 301.222261 
L 120.96 300.633392 
L 124.308 300.633392 
L 124.308 300.044523 
L 127.656 300.044523 
L 127.656 300.633392 
L 131.004 300.633392 
L 131.004 299.455653 
L 134.352 299.455653 
L 134.352 302.4 
L 141.048 302.4 
L 141.048 299.455653 
L 147.744 299.455653 
L 147.744 300.044523 
L 151.092 300.044523 
L 151.092 297.689045 
L 154.44 297.689045 
L 154.44 298.277915 
L 157.788 298.277915 
L 157.788 294.744699 
L 164.484 294.744699 
L 164.484 291.800352 
L 167.832 291.800352 
L 167.832 292.978091 
L 171.18 292.978091 
L 171.18 288.856005 
L 174.528 288.856005 
L 174.528 281.200704 
L 177.876 281.200704 
L 177.876 277.667488 
L 181.224 277.667488 
L 181.224 264.123494 
L 184.572 264.123494 
L 184.572 261.179147 
L 187.92 261.179147 
L 187.92 236.446635 
L 191.268 236.446635 
L 191.268 232.32455 
L 194.616 232.32455 
L 194.616 195.814651 
L 197.964 195.814651 
L 197.964 191.103697 
L 201.312 191.103697 
L 201.312 176.970833 
L 204.66 176.970833 
L 204.66 145.171889 
L 208.008 145.171889 
L 208.008 122.205985 
L 211.356 122.205985 
L 211.356 80.396263 
L 214.704 80.396263 
L 214.704 81.574001 
L 218.052 81.574001 
L 218.052 53.897143 
L 221.4 53.897143 
L 221.4 55.663751 
L 224.748 55.663751 
L 224.748 73.329831 
L 228.096 73.329831 
L 228.096 116.317292 
L 231.444 116.317292 
L 231.444 105.128775 
L 234.792 105.128775 
L 234.792 123.972593 
L 238.14 123.972593 
L 238.14 174.615355 
L 241.488 174.615355 
L 241.488 208.769777 
L 244.836 208.769777 
L 244.836 225.846987 
L 248.184 225.846987 
L 248.184 246.457414 
L 251.532 246.457414 
L 251.532 257.645931 
L 254.88 257.645931 
L 254.88 271.189926 
L 258.228 271.189926 
L 258.228 280.022965 
L 261.576 280.022965 
L 261.576 280.611835 
L 264.924 280.611835 
L 264.924 292.389221 
L 268.272 292.389221 
L 268.272 296.511307 
L 274.968 296.511307 
L 274.968 297.689045 
L 278.316 297.689045 
L 278.316 299.455653 
L 281.664 299.455653 
L 281.664 301.222261 
L 285.012 301.222261 
L 285.012 301.811131 
L 288.36 301.811131 
L 288.36 301.222261 
L 298.404 301.222261 
L 298.404 302.4 
L 301.752 302.4 
L 301.752 301.222261 
L 308.448 301.222261 
L 308.448 302.4 
L 318.492 302.4 
L 318.492 301.811131 
L 328.536 301.811131 
L 328.536 302.4 
L 338.58 302.4 
L 338.58 301.811131 
L 341.928 301.811131 
L 341.928 301.222261 
L 345.276 301.222261 
L 345.276 302.4 
L 355.32 302.4 
L 355.32 301.811131 
L 358.668 301.811131 
L 358.668 302.4 
L 365.364 302.4 
L 365.364 301.811131 
L 368.712 301.811131 
L 368.712 302.4 
L 388.8 302.4 
L 388.8 302.4 
" clip-path="url(#p77ad391885)" style="fill: none; stroke: #2ca02c; stroke-linejoin: miter"/>
   </g>
   <g id="line2d_29">
    <path d="M 221.4 302.4 
L 221.4 41.472 
" clip-path="url(#p77ad391885)" style="fill: none; stroke-dasharray: 2.96,1.28; stroke-dashoffset: 0; stroke: #808080; stroke-width: 0.8"/>
   </g>
   <g id="patch_6">
    <path d="M 54 302.4 
L 54 41.472 
" style="fill: none; stroke: #000000; stroke-width: 0.8; stroke-linejoin: miter; stroke-linecap: square"/>
   </g>
   <g id="patch_7">
    <path d="M 388.8 302.4 
L 388.8 41.472 
" style="fill: none; stroke: #000000; stroke-width: 0.8; stroke-linejoin: miter; stroke-linecap: square"/>
   </g>
   <g id="patch_8">
    <path d="M 54 302.4 
L 388.8 302.4 
" style="fill: none; stroke: #000000; stroke-width: 0.8; stroke-linejoin: miter; stroke-linecap: square"/>
   </g>
   <g id="patch_9">
    <path d="M 54 41.472 
L 388.8 41.472 
" style="fill: none; stroke: #000000; stroke-width: 0.8; stroke-linejoin: miter; stroke-linecap: square"/>
   </g>
   <g id="text_17">
    <!-- $c$, $300 &lt; p_\mathrm{T}^\mathrm{gen} &lt; 1000$ GeV, $0 &lt; |\eta^\mathrm{gen}| &lt; 1.3$ -->
    <g transform="translate(101.24 37.030144)scale(0.14 -0.14)">
     <defs>
      <path id="DejaVuSans-Oblique-63" d="M 3431 3366 
L 3316 2797 
Q 3109 2947 2876 3022 
Q 2644 3097 2394 3097 
Q 2119 3097 1870 3000 
Q 1622 2903 1453 2725 
Q 1184 2453 1037 2087 
Q 891 1722 891 1331 
Q 891 859 1127 628 
Q 1363 397 1844 397 
Q 2081 397 2348 469 
Q 2616 541 2906 684 
L 2797 116 
Q 2547 13 2283 -39 
Q 2019 -91 1741 -91 
Q 1044 -91 669 257 
Q 294 606 294 1253 
Q 294 1797 489 2255 
Q 684 2713 1069 3078 
Q 1331 3328 1684 3456 
Q 2038 3584 2456 3584 
Q 2700 3584 2940 3529 
Q 3181 3475 3431 3366 
z
" transform="scale(0.015625)"/>
      <path id="DejaVuSans-2c" d="M 750 794 
L 1409 794 
L 1409 256 
L 897 -744 
L 494 -744 
L 750 256 
L 750 794 
z
" transform="scale(0.015625)"/>
      <path id="DejaVuSans-20" transform="scale(0.015625)"/>
      <path id="DejaVuSans-3c" d="M 4684 3150 
L 1459 2003 
L 4684 863 
L 4684 294 
L 678 1747 
L 678 2266 
L 4684 3719 
L 4684 3150 
z
" transform="scale(0.015625)"/>
      <path id="DejaVuSans-47" d="M 3809 666 
L 3809 1919 
L 2778 1919 
L 2778 2438 
L 4434 2438 
L 4434 434 
Q 4069 175 3628 42 
Q 3188 -91 2688 -91 
Q 1594 -91 976 548 
Q 359 1188 359 2328 
Q 359 3472 976 4111 
Q 1594 4750 2688 4750 
Q 3144 4750 3555 4637 
Q 3966 4525 4313 4306 
L 4313 3634 
Q 3963 3931 3569 4081 
Q 3175 4231 2741 4231 
Q 1884 4231 1454 3753 
Q 1025 3275 1025 2328 
Q 1025 1384 1454 906 
Q 1884 428 2741 428 
Q 3075 428 3337 486 
Q 3600 544 3809 666 
z
" transform="scale(0.015625)"/>
      <path id="DejaVuSans-56" d="M 1831 0 
L 50 4666 
L 709 4666 
L 2188 738 
L 3669 4666 
L 4325 4666 
L 2547 0 
L 1831 0 
z
" transform="scale(0.015625)"/>
      <path id="DejaVuSans-7c" d="M 1344 4891 
L 1344 -1509 
L 813 -1509 
L 813 4891 
L 1344 4891 
z
" transform="scale(0.015625)"/>
      <path id="DejaVuSans-Oblique-3b7" d="M 3703 2113 
L 3034 -1331 
L 2459 -1331 
L 3125 2094 
Q 3222 2591 3075 2838 
Q 2931 3084 2544 3084 
Q 2078 3084 1750 2788 
Q 1425 2491 1325 1978 
L 941 0 
L 363 0 
L 1044 3500 
L 1622 3500 
L 1516 2956 
Q 1781 3272 2094 3428 
Q 2403 3584 2769 3584 
Q 3372 3584 3609 3213 
Q 3844 2838 3703 2113 
z
" transform="scale(0.015625)"/>
     </defs>
     <use xlink:href="#DejaVuSans-Oblique-63" transform="translate(0 0.051563)"/>
     <use xlink:href="#DejaVuSans-2c" transform="translate(54.980469 0.051563)"/>
     <use xlink:href="#DejaVuSans-20" transform="translate(86.767578 0.051563)"/>
     <use xlink:href="#DejaVuSans-33" transform="translate(118.554688 0.051563)"/>
     <use xlink:href="#DejaVuSans-30" transform="translate(182.177734 0.051563)"/>
     <use xlink:href="#DejaVuSans-30" transform="translate(245.800781 0.051563)"/>
     <use xlink:href="#DejaVuSans-3c" transform="translate(328.90625 0.051563)"/>
     <use xlink:href="#DejaVuSans-Oblique-70" transform="translate(432.177734 0.051563)"/>
     <use xlink:href="#DejaVuSans-67" transform="translate(500.304193 50.8)scale(0.7)"/>
     <use xlink:href="#DejaVuSans-65" transform="translate(544.737786 50.8)scale(0.7)"/>
     <use xlink:href="#DejaVuSans-6e" transform="translate(587.804193 50.8)scale(0.7)"/>
     <use xlink:href="#DejaVuSans-54" transform="translate(495.654297 -27.292187)scale(0.7)"/>
     <use xlink:href="#DejaVuSans-3c" transform="translate(654.386224 0.051563)"/>
     <use xlink:href="#DejaVuSans-31" transform="translate(757.657708 0.051563)"/>
     <use xlink:href="#DejaVuSans-30" transform="translate(821.280755 0.051563)"/>
     <use xlink:href="#DejaVuSans-30" transform="translate(884.903802 0.051563)"/>
     <use xlink:href="#DejaVuSans-30" transform="translate(948.526849 0.051563)"/>
     <use xlink:href="#DejaVuSans-20" transform="translate(1012.149896 0.051563)"/>
     <use xlink:href="#DejaVuSans-47" transform="translate(1043.937005 0.051563)"/>
     <use xlink:href="#DejaVuSans-65" transform="translate(1121.42724 0.051563)"/>
     <use xlink:href="#DejaVuSans-56" transform="translate(1182.950677 0.051563)"/>
     <use xlink:href="#DejaVuSans-2c" transform="translate(1251.35888 0.051563)"/>
     <use xlink:href="#DejaVuSans-20" transform="translate(1283.14599 0.051563)"/>
     <use xlink:href="#DejaVuSans-30" transform="translate(1314.933099 0.051563)"/>
     <use xlink:href="#DejaVuSans-3c" transform="translate(1398.038568 0.051563)"/>
     <use xlink:href="#DejaVuSans-7c" transform="translate(1501.310052 0.051563)"/>
     <use xlink:href="#DejaVuSans-Oblique-3b7" transform="translate(1535.001458 0.051563)"/>
     <use xlink:href="#DejaVuSans-67" transform="translate(1603.03026 38.332813)scale(0.7)"/>
     <use xlink:href="#DejaVuSans-65" transform="translate(1647.463854 38.332813)scale(0.7)"/>
     <use xlink:href="#DejaVuSans-6e" transform="translate(1690.53026 38.332813)scale(0.7)"/>
     <use xlink:href="#DejaVuSans-7c" transform="translate(1737.62987 0.051563)"/>
     <use xlink:href="#DejaVuSans-3c" transform="translate(1790.803698 0.051563)"/>
     <use xlink:href="#DejaVuSans-31" transform="translate(1894.075182 0.051563)"/>
     <use xlink:href="#DejaVuSans-2e" transform="translate(1957.698229 0.051563)"/>
     <use xlink:href="#DejaVuSans-33" transform="translate(1989.485339 0.051563)"/>
    </g>
   </g>
   <g id="legend_1">
    <g id="patch_10">
     <path d="M 257.897813 114.320125 
L 379 114.320125 
Q 381.8 114.320125 381.8 111.520125 
L 381.8 51.272 
Q 381.8 48.472 379 48.472 
L 257.897813 48.472 
Q 255.097813 48.472 255.097813 51.272 
L 255.097813 111.520125 
Q 255.097813 114.320125 257.897813 114.320125 
z
" style="fill: #ffffff; opacity: 0.8; stroke: #cccccc; stroke-linejoin: miter"/>
    </g>
    <g id="patch_11">
     <path d="M 260.697813 64.709812 
L 288.697813 64.709812 
L 288.697813 54.909813 
L 260.697813 54.909813 
L 260.697813 64.709812 
z
" style="fill: none; stroke: #1f77b4; stroke-linejoin: miter"/>
    </g>
    <g id="text_18">
     <!-- Baseline -->
     <g transform="translate(299.897813 64.709812)scale(0.14 -0.14)">
      <defs>
       <path id="DejaVuSans-42" d="M 1259 2228 
L 1259 519 
L 2272 519 
Q 2781 519 3026 730 
Q 3272 941 3272 1375 
Q 3272 1813 3026 2020 
Q 2781 2228 2272 2228 
L 1259 2228 
z
M 1259 4147 
L 1259 2741 
L 2194 2741 
Q 2656 2741 2882 2914 
Q 3109 3088 3109 3444 
Q 3109 3797 2882 3972 
Q 2656 4147 2194 4147 
L 1259 4147 
z
M 628 4666 
L 2241 4666 
Q 2963 4666 3353 4366 
Q 3744 4066 3744 3513 
Q 3744 3084 3544 2831 
Q 3344 2578 2956 2516 
Q 3422 2416 3680 2098 
Q 3938 1781 3938 1306 
Q 3938 681 3513 340 
Q 3088 0 2303 0 
L 628 0 
L 628 4666 
z
" transform="scale(0.015625)"/>
       <path id="DejaVuSans-61" d="M 2194 1759 
Q 1497 1759 1228 1600 
Q 959 1441 959 1056 
Q 959 750 1161 570 
Q 1363 391 1709 391 
Q 2188 391 2477 730 
Q 2766 1069 2766 1631 
L 2766 1759 
L 2194 1759 
z
M 3341 1997 
L 3341 0 
L 2766 0 
L 2766 531 
Q 2569 213 2275 61 
Q 1981 -91 1556 -91 
Q 1019 -91 701 211 
Q 384 513 384 1019 
Q 384 1609 779 1909 
Q 1175 2209 1959 2209 
L 2766 2209 
L 2766 2266 
Q 2766 2663 2505 2880 
Q 2244 3097 1772 3097 
Q 1472 3097 1187 3025 
Q 903 2953 641 2809 
L 641 3341 
Q 956 3463 1253 3523 
Q 1550 3584 1831 3584 
Q 2591 3584 2966 3190 
Q 3341 2797 3341 1997 
z
" transform="scale(0.015625)"/>
       <path id="DejaVuSans-6c" d="M 603 4863 
L 1178 4863 
L 1178 0 
L 603 0 
L 603 4863 
z
" transform="scale(0.015625)"/>
       <path id="DejaVuSans-69" d="M 603 3500 
L 1178 3500 
L 1178 0 
L 603 0 
L 603 3500 
z
M 603 4863 
L 1178 4863 
L 1178 4134 
L 603 4134 
L 603 4863 
z
" transform="scale(0.015625)"/>
      </defs>
      <use xlink:href="#DejaVuSans-42"/>
      <use xlink:href="#DejaVuSans-61" x="68.603516"/>
      <use xlink:href="#DejaVuSans-73" x="129.882812"/>
      <use xlink:href="#DejaVuSans-65" x="181.982422"/>
      <use xlink:href="#DejaVuSans-6c" x="243.505859"/>
      <use xlink:href="#DejaVuSans-69" x="271.289062"/>
      <use xlink:href="#DejaVuSans-6e" x="299.072266"/>
      <use xlink:href="#DejaVuSans-65" x="362.451172"/>
     </g>
    </g>
    <g id="patch_12">
     <path d="M 260.697813 85.259187 
L 288.697813 85.259187 
L 288.697813 75.459187 
L 260.697813 75.459187 
L 260.697813 85.259187 
z
" style="fill: none; stroke: #ff7f0e; stroke-linejoin: miter"/>
    </g>
    <g id="text_19">
     <!-- PFN -->
     <g transform="translate(299.897813 85.259187)scale(0.14 -0.14)">
      <defs>
       <path id="DejaVuSans-50" d="M 1259 4147 
L 1259 2394 
L 2053 2394 
Q 2494 2394 2734 2622 
Q 2975 2850 2975 3272 
Q 2975 3691 2734 3919 
Q 2494 4147 2053 4147 
L 1259 4147 
z
M 628 4666 
L 2053 4666 
Q 2838 4666 3239 4311 
Q 3641 3956 3641 3272 
Q 3641 2581 3239 2228 
Q 2838 1875 2053 1875 
L 1259 1875 
L 1259 0 
L 628 0 
L 628 4666 
z
" transform="scale(0.015625)"/>
       <path id="DejaVuSans-46" d="M 628 4666 
L 3309 4666 
L 3309 4134 
L 1259 4134 
L 1259 2759 
L 3109 2759 
L 3109 2228 
L 1259 2228 
L 1259 0 
L 628 0 
L 628 4666 
z
" transform="scale(0.015625)"/>
       <path id="DejaVuSans-4e" d="M 628 4666 
L 1478 4666 
L 3547 763 
L 3547 4666 
L 4159 4666 
L 4159 0 
L 3309 0 
L 1241 3903 
L 1241 0 
L 628 0 
L 628 4666 
z
" transform="scale(0.015625)"/>
      </defs>
      <use xlink:href="#DejaVuSans-50"/>
      <use xlink:href="#DejaVuSans-46" x="60.302734"/>
      <use xlink:href="#DejaVuSans-4e" x="117.822266"/>
     </g>
    </g>
    <g id="patch_13">
     <path d="M 260.697813 105.808562 
L 288.697813 105.808562 
L 288.697813 96.008562 
L 260.697813 96.008562 
L 260.697813 105.808562 
z
" style="fill: none; stroke: #2ca02c; stroke-linejoin: miter"/>
    </g>
    <g id="text_20">
     <!-- ParticleNet -->
     <g transform="translate(299.897813 105.808562)scale(0.14 -0.14)">
      <use xlink:href="#DejaVuSans-50"/>
      <use xlink:href="#DejaVuSans-61" x="55.802734"/>
      <use xlink:href="#DejaVuSans-72" x="117.082031"/>
      <use xlink:href="#DejaVuSans-74" x="158.195312"/>
      <use xlink:href="#DejaVuSans-69" x="197.404297"/>
      <use xlink:href="#DejaVuSans-63" x="225.1875"/>
      <use xlink:href="#DejaVuSans-6c" x="280.167969"/>
      <use xlink:href="#DejaVuSans-65" x="307.951172"/>
      <use xlink:href="#DejaVuSans-4e" x="369.474609"/>
      <use xlink:href="#DejaVuSans-65" x="444.279297"/>
      <use xlink:href="#DejaVuSans-74" x="505.802734"/>
     </g>
    </g>
   </g>
  </g>
 </g>
 <defs>
  <clipPath id="p77ad391885">
   <rect x="54" y="41.472" width="334.8" height="260.928"/>
  </clipPath>
 </defs>
</svg>
