<?xml version="1.0" encoding="utf-8" standalone="no"?>
<!DOCTYPE svg PUBLIC "-//W3C//DTD SVG 1.1//EN"
  "http://www.w3.org/Graphics/SVG/1.1/DTD/svg11.dtd">
<svg xmlns:xlink="http://www.w3.org/1999/xlink" width="432pt" height="345.6pt" viewBox="0 0 432 345.6" xmlns="http://www.w3.org/2000/svg" version="1.1">
 <metadata>
  <rdf:RDF xmlns:dc="http://purl.org/dc/elements/1.1/" xmlns:cc="http://creativecommons.org/ns#" xmlns:rdf="http://www.w3.org/1999/02/22-rdf-syntax-ns#">
   <cc:Work>
    <dc:type rdf:resource="http://purl.org/dc/dcmitype/StillImage"/>
    <dc:date>2023-03-10T21:40:10.918587</dc:date>
    <dc:format>image/svg+xml</dc:format>
    <dc:creator>
     <cc:Agent>
      <dc:title>Matplotlib v3.5.2, https://matplotlib.org/</dc:title>
     </cc:Agent>
    </dc:creator>
   </cc:Work>
  </rdf:RDF>
 </metadata>
 <defs>
  <style type="text/css">*{stroke-linejoin: round; stroke-linecap: butt}</style>
 </defs>
 <g id="figure_1">
  <g id="patch_1">
   <path d="M 0 345.6 
L 432 345.6 
L 432 0 
L 0 0 
L 0 345.6 
z
" style="fill: none"/>
  </g>
  <g id="axes_1">
   <g id="patch_2">
    <path d="M 54 302.4 
L 388.8 302.4 
L 388.8 41.472 
L 54 41.472 
z
" style="fill: #ffffff"/>
   </g>
   <g id="matplotlib.axis_1">
    <g id="xtick_1">
     <g id="line2d_1">
      <defs>
       <path id="mda2111c5dd" d="M 0 0 
L 0 -3.5 
" style="stroke: #000000; stroke-width: 1.2"/>
      </defs>
      <g>
       <use xlink:href="#mda2111c5dd" x="87.48" y="302.4" style="stroke: #000000; stroke-width: 1.2"/>
      </g>
     </g>
     <g id="line2d_2">
      <defs>
       <path id="ma9474235d0" d="M 0 0 
L 0 3.5 
" style="stroke: #000000; stroke-width: 1.2"/>
      </defs>
      <g>
       <use xlink:href="#ma9474235d0" x="87.48" y="41.472" style="stroke: #000000; stroke-width: 1.2"/>
      </g>
     </g>
     <g id="text_1">
      <!-- 0.6 -->
      <g transform="translate(76.347813 316.537812)scale(0.14 -0.14)">
       <defs>
        <path id="DejaVuSans-30" d="M 2034 4250 
Q 1547 4250 1301 3770 
Q 1056 3291 1056 2328 
Q 1056 1369 1301 889 
Q 1547 409 2034 409 
Q 2525 409 2770 889 
Q 3016 1369 3016 2328 
Q 3016 3291 2770 3770 
Q 2525 4250 2034 4250 
z
M 2034 4750 
Q 2819 4750 3233 4129 
Q 3647 3509 3647 2328 
Q 3647 1150 3233 529 
Q 2819 -91 2034 -91 
Q 1250 -91 836 529 
Q 422 1150 422 2328 
Q 422 3509 836 4129 
Q 1250 4750 2034 4750 
z
" transform="scale(0.015625)"/>
        <path id="DejaVuSans-2e" d="M 684 794 
L 1344 794 
L 1344 0 
L 684 0 
L 684 794 
z
" transform="scale(0.015625)"/>
        <path id="DejaVuSans-36" d="M 2113 2584 
Q 1688 2584 1439 2293 
Q 1191 2003 1191 1497 
Q 1191 994 1439 701 
Q 1688 409 2113 409 
Q 2538 409 2786 701 
Q 3034 994 3034 1497 
Q 3034 2003 2786 2293 
Q 2538 2584 2113 2584 
z
M 3366 4563 
L 3366 3988 
Q 3128 4100 2886 4159 
Q 2644 4219 2406 4219 
Q 1781 4219 1451 3797 
Q 1122 3375 1075 2522 
Q 1259 2794 1537 2939 
Q 1816 3084 2150 3084 
Q 2853 3084 3261 2657 
Q 3669 2231 3669 1497 
Q 3669 778 3244 343 
Q 2819 -91 2113 -91 
Q 1303 -91 875 529 
Q 447 1150 447 2328 
Q 447 3434 972 4092 
Q 1497 4750 2381 4750 
Q 2619 4750 2861 4703 
Q 3103 4656 3366 4563 
z
" transform="scale(0.015625)"/>
       </defs>
       <use xlink:href="#DejaVuSans-30"/>
       <use xlink:href="#DejaVuSans-2e" x="63.623047"/>
       <use xlink:href="#DejaVuSans-36" x="95.410156"/>
      </g>
     </g>
    </g>
    <g id="xtick_2">
     <g id="line2d_3">
      <g>
       <use xlink:href="#mda2111c5dd" x="154.44" y="302.4" style="stroke: #000000; stroke-width: 1.2"/>
      </g>
     </g>
     <g id="line2d_4">
      <g>
       <use xlink:href="#ma9474235d0" x="154.44" y="41.472" style="stroke: #000000; stroke-width: 1.2"/>
      </g>
     </g>
     <g id="text_2">
      <!-- 0.8 -->
      <g transform="translate(143.307813 316.537812)scale(0.14 -0.14)">
       <defs>
        <path id="DejaVuSans-38" d="M 2034 2216 
Q 1584 2216 1326 1975 
Q 1069 1734 1069 1313 
Q 1069 891 1326 650 
Q 1584 409 2034 409 
Q 2484 409 2743 651 
Q 3003 894 3003 1313 
Q 3003 1734 2745 1975 
Q 2488 2216 2034 2216 
z
M 1403 2484 
Q 997 2584 770 2862 
Q 544 3141 544 3541 
Q 544 4100 942 4425 
Q 1341 4750 2034 4750 
Q 2731 4750 3128 4425 
Q 3525 4100 3525 3541 
Q 3525 3141 3298 2862 
Q 3072 2584 2669 2484 
Q 3125 2378 3379 2068 
Q 3634 1759 3634 1313 
Q 3634 634 3220 271 
Q 2806 -91 2034 -91 
Q 1263 -91 848 271 
Q 434 634 434 1313 
Q 434 1759 690 2068 
Q 947 2378 1403 2484 
z
M 1172 3481 
Q 1172 3119 1398 2916 
Q 1625 2713 2034 2713 
Q 2441 2713 2670 2916 
Q 2900 3119 2900 3481 
Q 2900 3844 2670 4047 
Q 2441 4250 2034 4250 
Q 1625 4250 1398 4047 
Q 1172 3844 1172 3481 
z
" transform="scale(0.015625)"/>
       </defs>
       <use xlink:href="#DejaVuSans-30"/>
       <use xlink:href="#DejaVuSans-2e" x="63.623047"/>
       <use xlink:href="#DejaVuSans-38" x="95.410156"/>
      </g>
     </g>
    </g>
    <g id="xtick_3">
     <g id="line2d_5">
      <g>
       <use xlink:href="#mda2111c5dd" x="221.4" y="302.4" style="stroke: #000000; stroke-width: 1.2"/>
      </g>
     </g>
     <g id="line2d_6">
      <g>
       <use xlink:href="#ma9474235d0" x="221.4" y="41.472" style="stroke: #000000; stroke-width: 1.2"/>
      </g>
     </g>
     <g id="text_3">
      <!-- 1.0 -->
      <g transform="translate(210.267812 316.537812)scale(0.14 -0.14)">
       <defs>
        <path id="DejaVuSans-31" d="M 794 531 
L 1825 531 
L 1825 4091 
L 703 3866 
L 703 4441 
L 1819 4666 
L 2450 4666 
L 2450 531 
L 3481 531 
L 3481 0 
L 794 0 
L 794 531 
z
" transform="scale(0.015625)"/>
       </defs>
       <use xlink:href="#DejaVuSans-31"/>
       <use xlink:href="#DejaVuSans-2e" x="63.623047"/>
       <use xlink:href="#DejaVuSans-30" x="95.410156"/>
      </g>
     </g>
    </g>
    <g id="xtick_4">
     <g id="line2d_7">
      <g>
       <use xlink:href="#mda2111c5dd" x="288.36" y="302.4" style="stroke: #000000; stroke-width: 1.2"/>
      </g>
     </g>
     <g id="line2d_8">
      <g>
       <use xlink:href="#ma9474235d0" x="288.36" y="41.472" style="stroke: #000000; stroke-width: 1.2"/>
      </g>
     </g>
     <g id="text_4">
      <!-- 1.2 -->
      <g transform="translate(277.227813 316.537812)scale(0.14 -0.14)">
       <defs>
        <path id="DejaVuSans-32" d="M 1228 531 
L 3431 531 
L 3431 0 
L 469 0 
L 469 531 
Q 828 903 1448 1529 
Q 2069 2156 2228 2338 
Q 2531 2678 2651 2914 
Q 2772 3150 2772 3378 
Q 2772 3750 2511 3984 
Q 2250 4219 1831 4219 
Q 1534 4219 1204 4116 
Q 875 4013 500 3803 
L 500 4441 
Q 881 4594 1212 4672 
Q 1544 4750 1819 4750 
Q 2544 4750 2975 4387 
Q 3406 4025 3406 3419 
Q 3406 3131 3298 2873 
Q 3191 2616 2906 2266 
Q 2828 2175 2409 1742 
Q 1991 1309 1228 531 
z
" transform="scale(0.015625)"/>
       </defs>
       <use xlink:href="#DejaVuSans-31"/>
       <use xlink:href="#DejaVuSans-2e" x="63.623047"/>
       <use xlink:href="#DejaVuSans-32" x="95.410156"/>
      </g>
     </g>
    </g>
    <g id="xtick_5">
     <g id="line2d_9">
      <g>
       <use xlink:href="#mda2111c5dd" x="355.32" y="302.4" style="stroke: #000000; stroke-width: 1.2"/>
      </g>
     </g>
     <g id="line2d_10">
      <g>
       <use xlink:href="#ma9474235d0" x="355.32" y="41.472" style="stroke: #000000; stroke-width: 1.2"/>
      </g>
     </g>
     <g id="text_5">
      <!-- 1.4 -->
      <g transform="translate(344.187812 316.537812)scale(0.14 -0.14)">
       <defs>
        <path id="DejaVuSans-34" d="M 2419 4116 
L 825 1625 
L 2419 1625 
L 2419 4116 
z
M 2253 4666 
L 3047 4666 
L 3047 1625 
L 3713 1625 
L 3713 1100 
L 3047 1100 
L 3047 0 
L 2419 0 
L 2419 1100 
L 313 1100 
L 313 1709 
L 2253 4666 
z
" transform="scale(0.015625)"/>
       </defs>
       <use xlink:href="#DejaVuSans-31"/>
       <use xlink:href="#DejaVuSans-2e" x="63.623047"/>
       <use xlink:href="#DejaVuSans-34" x="95.410156"/>
      </g>
     </g>
    </g>
    <g id="text_6">
     <!-- $p_\mathrm{T}^\mathrm{corr}\//\/p_\mathrm{T}^\mathrm{gen}$ -->
     <g transform="translate(187.87 336.049375)scale(0.14 -0.14)">
      <defs>
       <path id="DejaVuSans-Oblique-70" d="M 3175 2156 
Q 3175 2616 2975 2859 
Q 2775 3103 2400 3103 
Q 2144 3103 1911 2972 
Q 1678 2841 1497 2591 
Q 1319 2344 1212 1994 
Q 1106 1644 1106 1300 
Q 1106 863 1306 627 
Q 1506 391 1875 391 
Q 2147 391 2380 519 
Q 2613 647 2778 891 
Q 2956 1147 3065 1494 
Q 3175 1841 3175 2156 
z
M 1394 2969 
Q 1625 3272 1939 3428 
Q 2253 3584 2638 3584 
Q 3175 3584 3472 3232 
Q 3769 2881 3769 2247 
Q 3769 1728 3584 1258 
Q 3400 788 3053 416 
Q 2822 169 2531 39 
Q 2241 -91 1919 -91 
Q 1547 -91 1294 64 
Q 1041 219 916 525 
L 556 -1331 
L -19 -1331 
L 922 3500 
L 1497 3500 
L 1394 2969 
z
" transform="scale(0.015625)"/>
       <path id="DejaVuSans-63" d="M 3122 3366 
L 3122 2828 
Q 2878 2963 2633 3030 
Q 2388 3097 2138 3097 
Q 1578 3097 1268 2742 
Q 959 2388 959 1747 
Q 959 1106 1268 751 
Q 1578 397 2138 397 
Q 2388 397 2633 464 
Q 2878 531 3122 666 
L 3122 134 
Q 2881 22 2623 -34 
Q 2366 -91 2075 -91 
Q 1284 -91 818 406 
Q 353 903 353 1747 
Q 353 2603 823 3093 
Q 1294 3584 2113 3584 
Q 2378 3584 2631 3529 
Q 2884 3475 3122 3366 
z
" transform="scale(0.015625)"/>
       <path id="DejaVuSans-6f" d="M 1959 3097 
Q 1497 3097 1228 2736 
Q 959 2375 959 1747 
Q 959 1119 1226 758 
Q 1494 397 1959 397 
Q 2419 397 2687 759 
Q 2956 1122 2956 1747 
Q 2956 2369 2687 2733 
Q 2419 3097 1959 3097 
z
M 1959 3584 
Q 2709 3584 3137 3096 
Q 3566 2609 3566 1747 
Q 3566 888 3137 398 
Q 2709 -91 1959 -91 
Q 1206 -91 779 398 
Q 353 888 353 1747 
Q 353 2609 779 3096 
Q 1206 3584 1959 3584 
z
" transform="scale(0.015625)"/>
       <path id="DejaVuSans-72" d="M 2631 2963 
Q 2534 3019 2420 3045 
Q 2306 3072 2169 3072 
Q 1681 3072 1420 2755 
Q 1159 2438 1159 1844 
L 1159 0 
L 581 0 
L 581 3500 
L 1159 3500 
L 1159 2956 
Q 1341 3275 1631 3429 
Q 1922 3584 2338 3584 
Q 2397 3584 2469 3576 
Q 2541 3569 2628 3553 
L 2631 2963 
z
" transform="scale(0.015625)"/>
       <path id="DejaVuSans-54" d="M -19 4666 
L 3928 4666 
L 3928 4134 
L 2272 4134 
L 2272 0 
L 1638 0 
L 1638 4134 
L -19 4134 
L -19 4666 
z
" transform="scale(0.015625)"/>
       <path id="DejaVuSans-2f" d="M 1625 4666 
L 2156 4666 
L 531 -594 
L 0 -594 
L 1625 4666 
z
" transform="scale(0.015625)"/>
       <path id="DejaVuSans-67" d="M 2906 1791 
Q 2906 2416 2648 2759 
Q 2391 3103 1925 3103 
Q 1463 3103 1205 2759 
Q 947 2416 947 1791 
Q 947 1169 1205 825 
Q 1463 481 1925 481 
Q 2391 481 2648 825 
Q 2906 1169 2906 1791 
z
M 3481 434 
Q 3481 -459 3084 -895 
Q 2688 -1331 1869 -1331 
Q 1566 -1331 1297 -1286 
Q 1028 -1241 775 -1147 
L 775 -588 
Q 1028 -725 1275 -790 
Q 1522 -856 1778 -856 
Q 2344 -856 2625 -561 
Q 2906 -266 2906 331 
L 2906 616 
Q 2728 306 2450 153 
Q 2172 0 1784 0 
Q 1141 0 747 490 
Q 353 981 353 1791 
Q 353 2603 747 3093 
Q 1141 3584 1784 3584 
Q 2172 3584 2450 3431 
Q 2728 3278 2906 2969 
L 2906 3500 
L 3481 3500 
L 3481 434 
z
" transform="scale(0.015625)"/>
       <path id="DejaVuSans-65" d="M 3597 1894 
L 3597 1613 
L 953 1613 
Q 991 1019 1311 708 
Q 1631 397 2203 397 
Q 2534 397 2845 478 
Q 3156 559 3463 722 
L 3463 178 
Q 3153 47 2828 -22 
Q 2503 -91 2169 -91 
Q 1331 -91 842 396 
Q 353 884 353 1716 
Q 353 2575 817 3079 
Q 1281 3584 2069 3584 
Q 2775 3584 3186 3129 
Q 3597 2675 3597 1894 
z
M 3022 2063 
Q 3016 2534 2758 2815 
Q 2500 3097 2075 3097 
Q 1594 3097 1305 2825 
Q 1016 2553 972 2059 
L 3022 2063 
z
" transform="scale(0.015625)"/>
       <path id="DejaVuSans-6e" d="M 3513 2113 
L 3513 0 
L 2938 0 
L 2938 2094 
Q 2938 2591 2744 2837 
Q 2550 3084 2163 3084 
Q 1697 3084 1428 2787 
Q 1159 2491 1159 1978 
L 1159 0 
L 581 0 
L 581 3500 
L 1159 3500 
L 1159 2956 
Q 1366 3272 1645 3428 
Q 1925 3584 2291 3584 
Q 2894 3584 3203 3211 
Q 3513 2838 3513 2113 
z
" transform="scale(0.015625)"/>
      </defs>
      <use xlink:href="#DejaVuSans-Oblique-70" transform="translate(0 0.051563)"/>
      <use xlink:href="#DejaVuSans-63" transform="translate(68.126458 38.332813)scale(0.7)"/>
      <use xlink:href="#DejaVuSans-6f" transform="translate(106.612786 38.332813)scale(0.7)"/>
      <use xlink:href="#DejaVuSans-72" transform="translate(149.439935 38.332813)scale(0.7)"/>
      <use xlink:href="#DejaVuSans-72" transform="translate(178.219232 38.332813)scale(0.7)"/>
      <use xlink:href="#DejaVuSans-54" transform="translate(63.476562 -27.292187)scale(0.7)"/>
      <use xlink:href="#DejaVuSans-2f" transform="translate(225.96858 0.051563)"/>
      <use xlink:href="#DejaVuSans-Oblique-70" transform="translate(275.895662 0.051563)"/>
      <use xlink:href="#DejaVuSans-67" transform="translate(344.022121 50.8)scale(0.7)"/>
      <use xlink:href="#DejaVuSans-65" transform="translate(388.455715 50.8)scale(0.7)"/>
      <use xlink:href="#DejaVuSans-6e" transform="translate(431.522121 50.8)scale(0.7)"/>
      <use xlink:href="#DejaVuSans-54" transform="translate(339.372225 -27.292187)scale(0.7)"/>
     </g>
    </g>
   </g>
   <g id="matplotlib.axis_2">
    <g id="ytick_1">
     <g id="line2d_11">
      <defs>
       <path id="mbc2dde562d" d="M 0 0 
L 3.5 0 
" style="stroke: #000000; stroke-width: 1.2"/>
      </defs>
      <g>
       <use xlink:href="#mbc2dde562d" x="54" y="302.4" style="stroke: #000000; stroke-width: 1.2"/>
      </g>
     </g>
     <g id="line2d_12">
      <defs>
       <path id="mfab3f23377" d="M 0 0 
L -3.5 0 
" style="stroke: #000000; stroke-width: 1.2"/>
      </defs>
      <g>
       <use xlink:href="#mfab3f23377" x="388.8" y="302.4" style="stroke: #000000; stroke-width: 1.2"/>
      </g>
     </g>
     <g id="text_7">
      <!-- 0 -->
      <g transform="translate(41.5925 307.718906)scale(0.14 -0.14)">
       <use xlink:href="#DejaVuSans-30"/>
      </g>
     </g>
    </g>
    <g id="ytick_2">
     <g id="line2d_13">
      <g>
       <use xlink:href="#mbc2dde562d" x="54" y="268.863852" style="stroke: #000000; stroke-width: 1.2"/>
      </g>
     </g>
     <g id="line2d_14">
      <g>
       <use xlink:href="#mfab3f23377" x="388.8" y="268.863852" style="stroke: #000000; stroke-width: 1.2"/>
      </g>
     </g>
     <g id="text_8">
      <!-- 100 -->
      <g transform="translate(23.7775 274.182758)scale(0.14 -0.14)">
       <use xlink:href="#DejaVuSans-31"/>
       <use xlink:href="#DejaVuSans-30" x="63.623047"/>
       <use xlink:href="#DejaVuSans-30" x="127.246094"/>
      </g>
     </g>
    </g>
    <g id="ytick_3">
     <g id="line2d_15">
      <g>
       <use xlink:href="#mbc2dde562d" x="54" y="235.327704" style="stroke: #000000; stroke-width: 1.2"/>
      </g>
     </g>
     <g id="line2d_16">
      <g>
       <use xlink:href="#mfab3f23377" x="388.8" y="235.327704" style="stroke: #000000; stroke-width: 1.2"/>
      </g>
     </g>
     <g id="text_9">
      <!-- 200 -->
      <g transform="translate(23.7775 240.64661)scale(0.14 -0.14)">
       <use xlink:href="#DejaVuSans-32"/>
       <use xlink:href="#DejaVuSans-30" x="63.623047"/>
       <use xlink:href="#DejaVuSans-30" x="127.246094"/>
      </g>
     </g>
    </g>
    <g id="ytick_4">
     <g id="line2d_17">
      <g>
       <use xlink:href="#mbc2dde562d" x="54" y="201.791556" style="stroke: #000000; stroke-width: 1.2"/>
      </g>
     </g>
     <g id="line2d_18">
      <g>
       <use xlink:href="#mfab3f23377" x="388.8" y="201.791556" style="stroke: #000000; stroke-width: 1.2"/>
      </g>
     </g>
     <g id="text_10">
      <!-- 300 -->
      <g transform="translate(23.7775 207.110462)scale(0.14 -0.14)">
       <defs>
        <path id="DejaVuSans-33" d="M 2597 2516 
Q 3050 2419 3304 2112 
Q 3559 1806 3559 1356 
Q 3559 666 3084 287 
Q 2609 -91 1734 -91 
Q 1441 -91 1130 -33 
Q 819 25 488 141 
L 488 750 
Q 750 597 1062 519 
Q 1375 441 1716 441 
Q 2309 441 2620 675 
Q 2931 909 2931 1356 
Q 2931 1769 2642 2001 
Q 2353 2234 1838 2234 
L 1294 2234 
L 1294 2753 
L 1863 2753 
Q 2328 2753 2575 2939 
Q 2822 3125 2822 3475 
Q 2822 3834 2567 4026 
Q 2313 4219 1838 4219 
Q 1578 4219 1281 4162 
Q 984 4106 628 3988 
L 628 4550 
Q 988 4650 1302 4700 
Q 1616 4750 1894 4750 
Q 2613 4750 3031 4423 
Q 3450 4097 3450 3541 
Q 3450 3153 3228 2886 
Q 3006 2619 2597 2516 
z
" transform="scale(0.015625)"/>
       </defs>
       <use xlink:href="#DejaVuSans-33"/>
       <use xlink:href="#DejaVuSans-30" x="63.623047"/>
       <use xlink:href="#DejaVuSans-30" x="127.246094"/>
      </g>
     </g>
    </g>
    <g id="ytick_5">
     <g id="line2d_19">
      <g>
       <use xlink:href="#mbc2dde562d" x="54" y="168.255408" style="stroke: #000000; stroke-width: 1.2"/>
      </g>
     </g>
     <g id="line2d_20">
      <g>
       <use xlink:href="#mfab3f23377" x="388.8" y="168.255408" style="stroke: #000000; stroke-width: 1.2"/>
      </g>
     </g>
     <g id="text_11">
      <!-- 400 -->
      <g transform="translate(23.7775 173.574314)scale(0.14 -0.14)">
       <use xlink:href="#DejaVuSans-34"/>
       <use xlink:href="#DejaVuSans-30" x="63.623047"/>
       <use xlink:href="#DejaVuSans-30" x="127.246094"/>
      </g>
     </g>
    </g>
    <g id="ytick_6">
     <g id="line2d_21">
      <g>
       <use xlink:href="#mbc2dde562d" x="54" y="134.71926" style="stroke: #000000; stroke-width: 1.2"/>
      </g>
     </g>
     <g id="line2d_22">
      <g>
       <use xlink:href="#mfab3f23377" x="388.8" y="134.71926" style="stroke: #000000; stroke-width: 1.2"/>
      </g>
     </g>
     <g id="text_12">
      <!-- 500 -->
      <g transform="translate(23.7775 140.038166)scale(0.14 -0.14)">
       <defs>
        <path id="DejaVuSans-35" d="M 691 4666 
L 3169 4666 
L 3169 4134 
L 1269 4134 
L 1269 2991 
Q 1406 3038 1543 3061 
Q 1681 3084 1819 3084 
Q 2600 3084 3056 2656 
Q 3513 2228 3513 1497 
Q 3513 744 3044 326 
Q 2575 -91 1722 -91 
Q 1428 -91 1123 -41 
Q 819 9 494 109 
L 494 744 
Q 775 591 1075 516 
Q 1375 441 1709 441 
Q 2250 441 2565 725 
Q 2881 1009 2881 1497 
Q 2881 1984 2565 2268 
Q 2250 2553 1709 2553 
Q 1456 2553 1204 2497 
Q 953 2441 691 2322 
L 691 4666 
z
" transform="scale(0.015625)"/>
       </defs>
       <use xlink:href="#DejaVuSans-35"/>
       <use xlink:href="#DejaVuSans-30" x="63.623047"/>
       <use xlink:href="#DejaVuSans-30" x="127.246094"/>
      </g>
     </g>
    </g>
    <g id="ytick_7">
     <g id="line2d_23">
      <g>
       <use xlink:href="#mbc2dde562d" x="54" y="101.183112" style="stroke: #000000; stroke-width: 1.2"/>
      </g>
     </g>
     <g id="line2d_24">
      <g>
       <use xlink:href="#mfab3f23377" x="388.8" y="101.183112" style="stroke: #000000; stroke-width: 1.2"/>
      </g>
     </g>
     <g id="text_13">
      <!-- 600 -->
      <g transform="translate(23.7775 106.502018)scale(0.14 -0.14)">
       <use xlink:href="#DejaVuSans-36"/>
       <use xlink:href="#DejaVuSans-30" x="63.623047"/>
       <use xlink:href="#DejaVuSans-30" x="127.246094"/>
      </g>
     </g>
    </g>
    <g id="ytick_8">
     <g id="line2d_25">
      <g>
       <use xlink:href="#mbc2dde562d" x="54" y="67.646964" style="stroke: #000000; stroke-width: 1.2"/>
      </g>
     </g>
     <g id="line2d_26">
      <g>
       <use xlink:href="#mfab3f23377" x="388.8" y="67.646964" style="stroke: #000000; stroke-width: 1.2"/>
      </g>
     </g>
     <g id="text_14">
      <!-- 700 -->
      <g transform="translate(23.7775 72.96587)scale(0.14 -0.14)">
       <defs>
        <path id="DejaVuSans-37" d="M 525 4666 
L 3525 4666 
L 3525 4397 
L 1831 0 
L 1172 0 
L 2766 4134 
L 525 4134 
L 525 4666 
z
" transform="scale(0.015625)"/>
       </defs>
       <use xlink:href="#DejaVuSans-37"/>
       <use xlink:href="#DejaVuSans-30" x="63.623047"/>
       <use xlink:href="#DejaVuSans-30" x="127.246094"/>
      </g>
     </g>
    </g>
    <g id="text_15">
     <!-- Jets -->
     <g transform="translate(16.865937 184.698969)rotate(-90)scale(0.14 -0.14)">
      <defs>
       <path id="DejaVuSans-4a" d="M 628 4666 
L 1259 4666 
L 1259 325 
Q 1259 -519 939 -900 
Q 619 -1281 -91 -1281 
L -331 -1281 
L -331 -750 
L -134 -750 
Q 284 -750 456 -515 
Q 628 -281 628 325 
L 628 4666 
z
" transform="scale(0.015625)"/>
       <path id="DejaVuSans-74" d="M 1172 4494 
L 1172 3500 
L 2356 3500 
L 2356 3053 
L 1172 3053 
L 1172 1153 
Q 1172 725 1289 603 
Q 1406 481 1766 481 
L 2356 481 
L 2356 0 
L 1766 0 
Q 1100 0 847 248 
Q 594 497 594 1153 
L 594 3053 
L 172 3053 
L 172 3500 
L 594 3500 
L 594 4494 
L 1172 4494 
z
" transform="scale(0.015625)"/>
       <path id="DejaVuSans-73" d="M 2834 3397 
L 2834 2853 
Q 2591 2978 2328 3040 
Q 2066 3103 1784 3103 
Q 1356 3103 1142 2972 
Q 928 2841 928 2578 
Q 928 2378 1081 2264 
Q 1234 2150 1697 2047 
L 1894 2003 
Q 2506 1872 2764 1633 
Q 3022 1394 3022 966 
Q 3022 478 2636 193 
Q 2250 -91 1575 -91 
Q 1294 -91 989 -36 
Q 684 19 347 128 
L 347 722 
Q 666 556 975 473 
Q 1284 391 1588 391 
Q 1994 391 2212 530 
Q 2431 669 2431 922 
Q 2431 1156 2273 1281 
Q 2116 1406 1581 1522 
L 1381 1569 
Q 847 1681 609 1914 
Q 372 2147 372 2553 
Q 372 3047 722 3315 
Q 1072 3584 1716 3584 
Q 2034 3584 2315 3537 
Q 2597 3491 2834 3397 
z
" transform="scale(0.015625)"/>
      </defs>
      <use xlink:href="#DejaVuSans-4a"/>
      <use xlink:href="#DejaVuSans-65" x="29.492188"/>
      <use xlink:href="#DejaVuSans-74" x="91.015625"/>
      <use xlink:href="#DejaVuSans-73" x="130.224609"/>
     </g>
    </g>
   </g>
   <g id="patch_3">
    <path d="M 54 302.4 
L 54 300.05247 
L 57.348 300.05247 
L 57.348 301.058554 
L 60.696 301.058554 
L 60.696 299.717108 
L 64.044 299.717108 
L 64.044 300.387831 
L 70.74 300.387831 
L 70.74 299.046385 
L 74.088 299.046385 
L 74.088 301.729277 
L 77.436 301.729277 
L 77.436 299.381747 
L 80.784 299.381747 
L 80.784 299.717108 
L 84.132 299.717108 
L 84.132 297.034216 
L 87.48 297.034216 
L 87.48 297.704939 
L 90.828 297.704939 
L 90.828 295.357409 
L 94.176 295.357409 
L 94.176 294.686686 
L 97.524 294.686686 
L 97.524 291.668433 
L 100.872 291.668433 
L 100.872 295.022047 
L 104.22 295.022047 
L 104.22 292.674517 
L 107.568 292.674517 
L 107.568 288.650179 
L 110.916 288.650179 
L 110.916 294.686686 
L 114.264 294.686686 
L 114.264 282.613673 
L 117.612 282.613673 
L 117.612 281.272227 
L 120.96 281.272227 
L 120.96 279.260058 
L 124.308 279.260058 
L 124.308 277.58325 
L 127.656 277.58325 
L 127.656 272.217467 
L 131.004 272.217467 
L 131.004 270.205298 
L 134.352 270.205298 
L 134.352 260.479815 
L 137.7 260.479815 
L 137.7 264.168791 
L 141.048 264.168791 
L 141.048 247.736079 
L 144.396 247.736079 
L 144.396 255.784754 
L 147.744 255.784754 
L 147.744 238.345957 
L 151.092 238.345957 
L 151.092 231.303366 
L 154.44 231.303366 
L 154.44 224.931498 
L 157.788 224.931498 
L 157.788 224.596136 
L 161.136 224.596136 
L 161.136 210.175593 
L 164.484 210.175593 
L 164.484 207.15734 
L 167.832 207.15734 
L 167.832 194.078242 
L 171.18 194.078242 
L 171.18 182.675951 
L 174.528 182.675951 
L 174.528 167.920046 
L 177.876 167.920046 
L 177.876 158.194563 
L 181.224 158.194563 
L 181.224 164.23107 
L 184.572 164.23107 
L 184.572 153.499503 
L 187.92 153.499503 
L 187.92 130.024199 
L 191.268 130.024199 
L 191.268 130.35956 
L 194.616 130.35956 
L 194.616 112.25004 
L 197.964 112.25004 
L 197.964 109.567149 
L 201.312 109.567149 
L 201.312 92.128352 
L 204.66 92.128352 
L 204.66 84.750399 
L 208.008 84.750399 
L 208.008 92.128352 
L 211.356 92.128352 
L 211.356 80.3907 
L 214.704 80.3907 
L 214.704 78.378531 
L 218.052 78.378531 
L 218.052 66.305518 
L 221.4 66.305518 
L 221.4 79.719977 
L 224.748 79.719977 
L 224.748 72.677386 
L 228.096 72.677386 
L 228.096 74.689555 
L 231.444 74.689555 
L 231.444 79.384615 
L 234.792 79.384615 
L 234.792 89.780821 
L 238.14 89.780821 
L 238.14 86.427206 
L 241.488 86.427206 
L 241.488 92.799075 
L 244.836 92.799075 
L 244.836 115.939017 
L 248.184 115.939017 
L 248.184 121.975523 
L 251.532 121.975523 
L 251.532 138.408236 
L 254.88 138.408236 
L 254.88 142.767935 
L 258.228 142.767935 
L 258.228 143.438658 
L 261.576 143.438658 
L 261.576 159.871371 
L 264.924 159.871371 
L 264.924 178.316252 
L 268.272 178.316252 
L 268.272 171.273661 
L 271.62 171.273661 
L 271.62 178.651614 
L 274.968 178.651614 
L 274.968 194.413603 
L 278.316 194.413603 
L 278.316 196.761134 
L 281.664 196.761134 
L 281.664 207.15734 
L 285.012 207.15734 
L 285.012 212.858485 
L 288.36 212.858485 
L 288.36 217.218184 
L 291.708 217.218184 
L 291.708 229.291197 
L 295.056 229.291197 
L 295.056 229.96192 
L 298.404 229.96192 
L 298.404 239.01668 
L 301.752 239.01668 
L 301.752 245.72391 
L 305.1 245.72391 
L 305.1 251.089693 
L 308.448 251.089693 
L 308.448 251.760416 
L 311.796 251.760416 
L 311.796 259.138369 
L 315.144 259.138369 
L 315.144 268.52849 
L 318.492 268.52849 
L 318.492 265.510237 
L 321.84 265.510237 
L 321.84 267.857767 
L 325.188 267.857767 
L 325.188 264.839514 
L 328.536 264.839514 
L 328.536 273.223551 
L 331.884 273.223551 
L 331.884 281.94295 
L 335.232 281.94295 
L 335.232 285.296564 
L 338.58 285.296564 
L 338.58 280.936865 
L 341.928 280.936865 
L 341.928 286.302649 
L 348.624 286.302649 
L 348.624 292.003794 
L 351.972 292.003794 
L 351.972 288.314818 
L 355.32 288.314818 
L 355.32 288.985541 
L 358.668 288.985541 
L 358.668 293.34524 
L 362.016 293.34524 
L 362.016 292.674517 
L 365.364 292.674517 
L 365.364 295.022047 
L 368.712 295.022047 
L 368.712 296.028132 
L 372.06 296.028132 
L 372.06 297.369578 
L 375.408 297.369578 
L 375.408 296.698855 
L 382.104 296.698855 
L 382.104 298.375662 
L 385.452 298.375662 
L 385.452 299.717108 
L 388.8 299.717108 
L 388.8 302.4 
L 388.8 302.4 
" clip-path="url(#pb2774a0499)" style="fill: none; stroke: #1f77b4; stroke-linejoin: miter"/>
   </g>
   <g id="patch_4">
    <path d="M 54 302.4 
L 54 300.05247 
L 57.348 300.05247 
L 57.348 301.058554 
L 60.696 301.058554 
L 60.696 299.717108 
L 64.044 299.717108 
L 64.044 301.393916 
L 67.392 301.393916 
L 67.392 302.064639 
L 70.74 302.064639 
L 70.74 300.387831 
L 74.088 300.387831 
L 74.088 297.369578 
L 77.436 297.369578 
L 77.436 298.375662 
L 80.784 298.375662 
L 80.784 296.363493 
L 87.48 296.363493 
L 87.48 294.015963 
L 90.828 294.015963 
L 90.828 296.363493 
L 94.176 296.363493 
L 94.176 290.326987 
L 97.524 290.326987 
L 97.524 289.656264 
L 100.872 289.656264 
L 100.872 290.99771 
L 104.22 290.99771 
L 104.22 287.308733 
L 107.568 287.308733 
L 107.568 284.625842 
L 110.916 284.625842 
L 110.916 281.94295 
L 114.264 281.94295 
L 114.264 277.247889 
L 117.612 277.247889 
L 117.612 277.58325 
L 120.96 277.58325 
L 120.96 268.52849 
L 124.308 268.52849 
L 124.308 271.211382 
L 127.656 271.211382 
L 127.656 262.827345 
L 131.004 262.827345 
L 131.004 254.77867 
L 134.352 254.77867 
L 134.352 256.455477 
L 137.7 256.455477 
L 137.7 247.065356 
L 141.048 247.065356 
L 141.048 236.333788 
L 144.396 236.333788 
L 144.396 237.004511 
L 147.744 237.004511 
L 147.744 223.590052 
L 151.092 223.590052 
L 151.092 219.565714 
L 154.44 219.565714 
L 154.44 208.834147 
L 157.788 208.834147 
L 157.788 205.815894 
L 161.136 205.815894 
L 161.136 200.785471 
L 164.484 200.785471 
L 164.484 190.389265 
L 167.832 190.389265 
L 167.832 171.273661 
L 171.18 171.273661 
L 171.18 156.853117 
L 174.528 156.853117 
L 174.528 140.420405 
L 177.876 140.420405 
L 177.876 124.323054 
L 181.224 124.323054 
L 181.224 124.993777 
L 184.572 124.993777 
L 184.572 125.6645 
L 187.92 125.6645 
L 187.92 110.908595 
L 191.268 110.908595 
L 191.268 98.50022 
L 194.616 98.50022 
L 194.616 80.726061 
L 197.964 80.726061 
L 197.964 81.061423 
L 201.312 81.061423 
L 201.312 81.396784 
L 204.66 81.396784 
L 204.66 79.384615 
L 208.008 79.384615 
L 208.008 80.055338 
L 211.356 80.055338 
L 211.356 80.3907 
L 214.704 80.3907 
L 214.704 53.897143 
L 218.052 53.897143 
L 218.052 75.695639 
L 221.4 75.695639 
L 221.4 76.031001 
L 224.748 76.031001 
L 224.748 75.024916 
L 228.096 75.024916 
L 228.096 70.665217 
L 231.444 70.665217 
L 231.444 108.561064 
L 234.792 108.561064 
L 234.792 89.780821 
L 238.14 89.780821 
L 238.14 102.859919 
L 241.488 102.859919 
L 241.488 119.292632 
L 244.836 119.292632 
L 244.836 144.780104 
L 248.184 144.780104 
L 248.184 137.737513 
L 251.532 137.737513 
L 251.532 146.12155 
L 254.88 146.12155 
L 254.88 157.859202 
L 258.228 157.859202 
L 258.228 167.920046 
L 261.576 167.920046 
L 261.576 178.986975 
L 264.924 178.986975 
L 264.924 184.68812 
L 268.272 184.68812 
L 268.272 194.078242 
L 271.62 194.078242 
L 271.62 190.053904 
L 274.968 190.053904 
L 274.968 218.224268 
L 278.316 218.224268 
L 278.316 218.894991 
L 285.012 218.894991 
L 285.012 231.974089 
L 288.36 231.974089 
L 288.36 234.992342 
L 291.708 234.992342 
L 291.708 235.327704 
L 295.056 235.327704 
L 295.056 246.059271 
L 298.404 246.059271 
L 298.404 253.772585 
L 301.752 253.772585 
L 301.752 269.869936 
L 305.1 269.869936 
L 305.1 262.827345 
L 308.448 262.827345 
L 308.448 267.187045 
L 311.796 267.187045 
L 311.796 272.217467 
L 315.144 272.217467 
L 315.144 277.918612 
L 318.492 277.918612 
L 318.492 279.260058 
L 321.84 279.260058 
L 321.84 277.247889 
L 325.188 277.247889 
L 325.188 284.625842 
L 328.536 284.625842 
L 328.536 285.967287 
L 331.884 285.967287 
L 331.884 287.308733 
L 335.232 287.308733 
L 335.232 284.961203 
L 338.58 284.961203 
L 338.58 288.650179 
L 341.928 288.650179 
L 341.928 294.686686 
L 345.276 294.686686 
L 345.276 289.320902 
L 348.624 289.320902 
L 348.624 293.009879 
L 351.972 293.009879 
L 351.972 295.69277 
L 355.32 295.69277 
L 355.32 297.704939 
L 358.668 297.704939 
L 358.668 295.69277 
L 362.016 295.69277 
L 362.016 295.022047 
L 365.364 295.022047 
L 365.364 296.698855 
L 368.712 296.698855 
L 368.712 298.040301 
L 372.06 298.040301 
L 372.06 298.711024 
L 375.408 298.711024 
L 375.408 298.375662 
L 378.756 298.375662 
L 378.756 300.723193 
L 382.104 300.723193 
L 382.104 300.05247 
L 385.452 300.05247 
L 385.452 298.040301 
L 388.8 298.040301 
L 388.8 302.4 
L 388.8 302.4 
" clip-path="url(#pb2774a0499)" style="fill: none; stroke: #ff7f0e; stroke-linejoin: miter"/>
   </g>
   <g id="patch_5">
    <path d="M 54 302.4 
L 54 300.723193 
L 57.348 300.723193 
L 57.348 300.05247 
L 60.696 300.05247 
L 60.696 301.393916 
L 64.044 301.393916 
L 64.044 300.723193 
L 67.392 300.723193 
L 67.392 300.387831 
L 70.74 300.387831 
L 70.74 301.729277 
L 74.088 301.729277 
L 74.088 298.711024 
L 77.436 298.711024 
L 77.436 297.034216 
L 80.784 297.034216 
L 80.784 297.704939 
L 84.132 297.704939 
L 84.132 297.369578 
L 87.48 297.369578 
L 87.48 296.028132 
L 90.828 296.028132 
L 90.828 293.34524 
L 94.176 293.34524 
L 94.176 295.022047 
L 97.524 295.022047 
L 97.524 292.339156 
L 104.22 292.339156 
L 104.22 284.961203 
L 107.568 284.961203 
L 107.568 281.607588 
L 110.916 281.607588 
L 110.916 282.278311 
L 114.264 282.278311 
L 114.264 284.29048 
L 117.612 284.29048 
L 117.612 270.540659 
L 120.96 270.540659 
L 120.96 273.223551 
L 124.308 273.223551 
L 124.308 264.839514 
L 127.656 264.839514 
L 127.656 263.162707 
L 131.004 263.162707 
L 131.004 249.748248 
L 134.352 249.748248 
L 134.352 253.437224 
L 137.7 253.437224 
L 137.7 248.406802 
L 141.048 248.406802 
L 141.048 238.681319 
L 144.396 238.681319 
L 144.396 240.022765 
L 147.744 240.022765 
L 147.744 225.602221 
L 151.092 225.602221 
L 151.092 221.242522 
L 154.44 221.242522 
L 154.44 213.864569 
L 157.788 213.864569 
L 157.788 207.492701 
L 161.136 207.492701 
L 161.136 203.133002 
L 164.484 203.133002 
L 164.484 173.28583 
L 167.832 173.28583 
L 167.832 170.267577 
L 171.18 170.267577 
L 171.18 158.529925 
L 174.528 158.529925 
L 174.528 137.402152 
L 181.224 137.402152 
L 181.224 121.640162 
L 184.572 121.640162 
L 184.572 113.926848 
L 187.92 113.926848 
L 187.92 113.256125 
L 191.268 113.256125 
L 191.268 97.158774 
L 194.616 97.158774 
L 194.616 87.097929 
L 197.964 87.097929 
L 197.964 84.415038 
L 201.312 84.415038 
L 201.312 79.719977 
L 204.66 79.719977 
L 204.66 79.384615 
L 208.008 79.384615 
L 208.008 81.732146 
L 211.356 81.732146 
L 211.356 64.293349 
L 214.704 64.293349 
L 214.704 66.640879 
L 218.052 66.640879 
L 218.052 67.311602 
L 221.4 67.311602 
L 221.4 74.354193 
L 224.748 74.354193 
L 224.748 80.726061 
L 228.096 80.726061 
L 228.096 83.744315 
L 234.792 83.744315 
L 234.792 104.536726 
L 238.14 104.536726 
L 238.14 119.963355 
L 241.488 119.963355 
L 241.488 122.310885 
L 244.836 122.310885 
L 244.836 117.951186 
L 248.184 117.951186 
L 248.184 143.438658 
L 251.532 143.438658 
L 251.532 150.145888 
L 254.88 150.145888 
L 254.88 154.505587 
L 258.228 154.505587 
L 258.228 158.194563 
L 261.576 158.194563 
L 261.576 181.669867 
L 264.924 181.669867 
L 264.924 171.944384 
L 268.272 171.944384 
L 268.272 207.15734 
L 271.62 207.15734 
L 271.62 193.072157 
L 274.968 193.072157 
L 274.968 213.193846 
L 278.316 213.193846 
L 278.316 215.541377 
L 281.664 215.541377 
L 281.664 224.931498 
L 285.012 224.931498 
L 285.012 229.291197 
L 288.36 229.291197 
L 288.36 227.279028 
L 291.708 227.279028 
L 291.708 239.687403 
L 295.056 239.687403 
L 295.056 254.107947 
L 298.404 254.107947 
L 298.404 256.790839 
L 301.752 256.790839 
L 301.752 261.821261 
L 305.1 261.821261 
L 305.1 260.479815 
L 308.448 260.479815 
L 308.448 271.546744 
L 311.796 271.546744 
L 311.796 277.918612 
L 315.144 277.918612 
L 315.144 278.253973 
L 318.492 278.253973 
L 318.492 271.546744 
L 321.84 271.546744 
L 321.84 278.924696 
L 325.188 278.924696 
L 325.188 283.955119 
L 328.536 283.955119 
L 328.536 290.326987 
L 331.884 290.326987 
L 331.884 285.631926 
L 335.232 285.631926 
L 335.232 288.314818 
L 338.58 288.314818 
L 338.58 290.326987 
L 341.928 290.326987 
L 341.928 292.003794 
L 345.276 292.003794 
L 345.276 290.326987 
L 348.624 290.326987 
L 348.624 295.022047 
L 351.972 295.022047 
L 351.972 294.015963 
L 355.32 294.015963 
L 355.32 296.028132 
L 358.668 296.028132 
L 358.668 295.69277 
L 362.016 295.69277 
L 362.016 297.034216 
L 365.364 297.034216 
L 365.364 295.022047 
L 368.712 295.022047 
L 368.712 300.05247 
L 372.06 300.05247 
L 372.06 298.375662 
L 375.408 298.375662 
L 375.408 299.717108 
L 378.756 299.717108 
L 378.756 300.05247 
L 382.104 300.05247 
L 382.104 299.046385 
L 385.452 299.046385 
L 385.452 299.717108 
L 388.8 299.717108 
L 388.8 302.4 
L 388.8 302.4 
" clip-path="url(#pb2774a0499)" style="fill: none; stroke: #2ca02c; stroke-linejoin: miter"/>
   </g>
   <g id="line2d_27">
    <path d="M 221.4 302.4 
L 221.4 41.472 
" clip-path="url(#pb2774a0499)" style="fill: none; stroke-dasharray: 2.96,1.28; stroke-dashoffset: 0; stroke: #808080; stroke-width: 0.8"/>
   </g>
   <g id="patch_6">
    <path d="M 54 302.4 
L 54 41.472 
" style="fill: none; stroke: #000000; stroke-width: 0.8; stroke-linejoin: miter; stroke-linecap: square"/>
   </g>
   <g id="patch_7">
    <path d="M 388.8 302.4 
L 388.8 41.472 
" style="fill: none; stroke: #000000; stroke-width: 0.8; stroke-linejoin: miter; stroke-linecap: square"/>
   </g>
   <g id="patch_8">
    <path d="M 54 302.4 
L 388.8 302.4 
" style="fill: none; stroke: #000000; stroke-width: 0.8; stroke-linejoin: miter; stroke-linecap: square"/>
   </g>
   <g id="patch_9">
    <path d="M 54 41.472 
L 388.8 41.472 
" style="fill: none; stroke: #000000; stroke-width: 0.8; stroke-linejoin: miter; stroke-linecap: square"/>
   </g>
   <g id="text_16">
    <!-- $g$, $30 &lt; p_\mathrm{T}^\mathrm{gen} &lt; 100$ GeV, $1.3 &lt; |\eta^\mathrm{gen}| &lt; 2.5$ -->
    <g transform="translate(104.6 37.030144)scale(0.14 -0.14)">
     <defs>
      <path id="DejaVuSans-Oblique-67" d="M 3816 3500 
L 3219 434 
Q 3047 -456 2561 -893 
Q 2075 -1331 1253 -1331 
Q 950 -1331 690 -1286 
Q 431 -1241 206 -1147 
L 313 -588 
Q 525 -725 762 -790 
Q 1000 -856 1269 -856 
Q 1816 -856 2167 -557 
Q 2519 -259 2631 300 
L 2681 563 
Q 2441 288 2122 144 
Q 1803 0 1434 0 
Q 903 0 598 351 
Q 294 703 294 1319 
Q 294 1803 478 2267 
Q 663 2731 997 3091 
Q 1219 3328 1514 3456 
Q 1809 3584 2131 3584 
Q 2484 3584 2746 3420 
Q 3009 3256 3138 2956 
L 3238 3500 
L 3816 3500 
z
M 2950 2216 
Q 2950 2641 2750 2872 
Q 2550 3103 2181 3103 
Q 1953 3103 1747 3012 
Q 1541 2922 1394 2759 
Q 1156 2491 1023 2127 
Q 891 1763 891 1375 
Q 891 944 1092 712 
Q 1294 481 1672 481 
Q 2219 481 2584 976 
Q 2950 1472 2950 2216 
z
" transform="scale(0.015625)"/>
      <path id="DejaVuSans-2c" d="M 750 794 
L 1409 794 
L 1409 256 
L 897 -744 
L 494 -744 
L 750 256 
L 750 794 
z
" transform="scale(0.015625)"/>
      <path id="DejaVuSans-20" transform="scale(0.015625)"/>
      <path id="DejaVuSans-3c" d="M 4684 3150 
L 1459 2003 
L 4684 863 
L 4684 294 
L 678 1747 
L 678 2266 
L 4684 3719 
L 4684 3150 
z
" transform="scale(0.015625)"/>
      <path id="DejaVuSans-47" d="M 3809 666 
L 3809 1919 
L 2778 1919 
L 2778 2438 
L 4434 2438 
L 4434 434 
Q 4069 175 3628 42 
Q 3188 -91 2688 -91 
Q 1594 -91 976 548 
Q 359 1188 359 2328 
Q 359 3472 976 4111 
Q 1594 4750 2688 4750 
Q 3144 4750 3555 4637 
Q 3966 4525 4313 4306 
L 4313 3634 
Q 3963 3931 3569 4081 
Q 3175 4231 2741 4231 
Q 1884 4231 1454 3753 
Q 1025 3275 1025 2328 
Q 1025 1384 1454 906 
Q 1884 428 2741 428 
Q 3075 428 3337 486 
Q 3600 544 3809 666 
z
" transform="scale(0.015625)"/>
      <path id="DejaVuSans-56" d="M 1831 0 
L 50 4666 
L 709 4666 
L 2188 738 
L 3669 4666 
L 4325 4666 
L 2547 0 
L 1831 0 
z
" transform="scale(0.015625)"/>
      <path id="DejaVuSans-7c" d="M 1344 4891 
L 1344 -1509 
L 813 -1509 
L 813 4891 
L 1344 4891 
z
" transform="scale(0.015625)"/>
      <path id="DejaVuSans-Oblique-3b7" d="M 3703 2113 
L 3034 -1331 
L 2459 -1331 
L 3125 2094 
Q 3222 2591 3075 2838 
Q 2931 3084 2544 3084 
Q 2078 3084 1750 2788 
Q 1425 2491 1325 1978 
L 941 0 
L 363 0 
L 1044 3500 
L 1622 3500 
L 1516 2956 
Q 1781 3272 2094 3428 
Q 2403 3584 2769 3584 
Q 3372 3584 3609 3213 
Q 3844 2838 3703 2113 
z
" transform="scale(0.015625)"/>
     </defs>
     <use xlink:href="#DejaVuSans-Oblique-67" transform="translate(0 0.051563)"/>
     <use xlink:href="#DejaVuSans-2c" transform="translate(63.476562 0.051563)"/>
     <use xlink:href="#DejaVuSans-20" transform="translate(95.263672 0.051563)"/>
     <use xlink:href="#DejaVuSans-33" transform="translate(127.050781 0.051563)"/>
     <use xlink:href="#DejaVuSans-30" transform="translate(190.673828 0.051563)"/>
     <use xlink:href="#DejaVuSans-3c" transform="translate(273.779297 0.051563)"/>
     <use xlink:href="#DejaVuSans-Oblique-70" transform="translate(377.050781 0.051563)"/>
     <use xlink:href="#DejaVuSans-67" transform="translate(445.17724 50.8)scale(0.7)"/>
     <use xlink:href="#DejaVuSans-65" transform="translate(489.610833 50.8)scale(0.7)"/>
     <use xlink:href="#DejaVuSans-6e" transform="translate(532.67724 50.8)scale(0.7)"/>
     <use xlink:href="#DejaVuSans-54" transform="translate(440.527344 -27.292187)scale(0.7)"/>
     <use xlink:href="#DejaVuSans-3c" transform="translate(599.259271 0.051563)"/>
     <use xlink:href="#DejaVuSans-31" transform="translate(702.530755 0.051563)"/>
     <use xlink:href="#DejaVuSans-30" transform="translate(766.153802 0.051563)"/>
     <use xlink:href="#DejaVuSans-30" transform="translate(829.776849 0.051563)"/>
     <use xlink:href="#DejaVuSans-20" transform="translate(893.399896 0.051563)"/>
     <use xlink:href="#DejaVuSans-47" transform="translate(925.187005 0.051563)"/>
     <use xlink:href="#DejaVuSans-65" transform="translate(1002.67724 0.051563)"/>
     <use xlink:href="#DejaVuSans-56" transform="translate(1064.200677 0.051563)"/>
     <use xlink:href="#DejaVuSans-2c" transform="translate(1132.60888 0.051563)"/>
     <use xlink:href="#DejaVuSans-20" transform="translate(1164.39599 0.051563)"/>
     <use xlink:href="#DejaVuSans-31" transform="translate(1196.183099 0.051563)"/>
     <use xlink:href="#DejaVuSans-2e" transform="translate(1259.806146 0.051563)"/>
     <use xlink:href="#DejaVuSans-33" transform="translate(1291.593255 0.051563)"/>
     <use xlink:href="#DejaVuSans-3c" transform="translate(1374.698724 0.051563)"/>
     <use xlink:href="#DejaVuSans-7c" transform="translate(1477.970208 0.051563)"/>
     <use xlink:href="#DejaVuSans-Oblique-3b7" transform="translate(1511.661615 0.051563)"/>
     <use xlink:href="#DejaVuSans-67" transform="translate(1579.690417 38.332813)scale(0.7)"/>
     <use xlink:href="#DejaVuSans-65" transform="translate(1624.12401 38.332813)scale(0.7)"/>
     <use xlink:href="#DejaVuSans-6e" transform="translate(1667.190417 38.332813)scale(0.7)"/>
     <use xlink:href="#DejaVuSans-7c" transform="translate(1714.290026 0.051563)"/>
     <use xlink:href="#DejaVuSans-3c" transform="translate(1767.463854 0.051563)"/>
     <use xlink:href="#DejaVuSans-32" transform="translate(1870.735339 0.051563)"/>
     <use xlink:href="#DejaVuSans-2e" transform="translate(1934.358385 0.051563)"/>
     <use xlink:href="#DejaVuSans-35" transform="translate(1966.145495 0.051563)"/>
    </g>
   </g>
   <g id="legend_1">
    <g id="patch_10">
     <path d="M 257.897813 114.320125 
L 379 114.320125 
Q 381.8 114.320125 381.8 111.520125 
L 381.8 51.272 
Q 381.8 48.472 379 48.472 
L 257.897813 48.472 
Q 255.097813 48.472 255.097813 51.272 
L 255.097813 111.520125 
Q 255.097813 114.320125 257.897813 114.320125 
z
" style="fill: #ffffff; opacity: 0.8; stroke: #cccccc; stroke-linejoin: miter"/>
    </g>
    <g id="patch_11">
     <path d="M 260.697813 64.709812 
L 288.697813 64.709812 
L 288.697813 54.909813 
L 260.697813 54.909813 
L 260.697813 64.709812 
z
" style="fill: none; stroke: #1f77b4; stroke-linejoin: miter"/>
    </g>
    <g id="text_17">
     <!-- Baseline -->
     <g transform="translate(299.897813 64.709812)scale(0.14 -0.14)">
      <defs>
       <path id="DejaVuSans-42" d="M 1259 2228 
L 1259 519 
L 2272 519 
Q 2781 519 3026 730 
Q 3272 941 3272 1375 
Q 3272 1813 3026 2020 
Q 2781 2228 2272 2228 
L 1259 2228 
z
M 1259 4147 
L 1259 2741 
L 2194 2741 
Q 2656 2741 2882 2914 
Q 3109 3088 3109 3444 
Q 3109 3797 2882 3972 
Q 2656 4147 2194 4147 
L 1259 4147 
z
M 628 4666 
L 2241 4666 
Q 2963 4666 3353 4366 
Q 3744 4066 3744 3513 
Q 3744 3084 3544 2831 
Q 3344 2578 2956 2516 
Q 3422 2416 3680 2098 
Q 3938 1781 3938 1306 
Q 3938 681 3513 340 
Q 3088 0 2303 0 
L 628 0 
L 628 4666 
z
" transform="scale(0.015625)"/>
       <path id="DejaVuSans-61" d="M 2194 1759 
Q 1497 1759 1228 1600 
Q 959 1441 959 1056 
Q 959 750 1161 570 
Q 1363 391 1709 391 
Q 2188 391 2477 730 
Q 2766 1069 2766 1631 
L 2766 1759 
L 2194 1759 
z
M 3341 1997 
L 3341 0 
L 2766 0 
L 2766 531 
Q 2569 213 2275 61 
Q 1981 -91 1556 -91 
Q 1019 -91 701 211 
Q 384 513 384 1019 
Q 384 1609 779 1909 
Q 1175 2209 1959 2209 
L 2766 2209 
L 2766 2266 
Q 2766 2663 2505 2880 
Q 2244 3097 1772 3097 
Q 1472 3097 1187 3025 
Q 903 2953 641 2809 
L 641 3341 
Q 956 3463 1253 3523 
Q 1550 3584 1831 3584 
Q 2591 3584 2966 3190 
Q 3341 2797 3341 1997 
z
" transform="scale(0.015625)"/>
       <path id="DejaVuSans-6c" d="M 603 4863 
L 1178 4863 
L 1178 0 
L 603 0 
L 603 4863 
z
" transform="scale(0.015625)"/>
       <path id="DejaVuSans-69" d="M 603 3500 
L 1178 3500 
L 1178 0 
L 603 0 
L 603 3500 
z
M 603 4863 
L 1178 4863 
L 1178 4134 
L 603 4134 
L 603 4863 
z
" transform="scale(0.015625)"/>
      </defs>
      <use xlink:href="#DejaVuSans-42"/>
      <use xlink:href="#DejaVuSans-61" x="68.603516"/>
      <use xlink:href="#DejaVuSans-73" x="129.882812"/>
      <use xlink:href="#DejaVuSans-65" x="181.982422"/>
      <use xlink:href="#DejaVuSans-6c" x="243.505859"/>
      <use xlink:href="#DejaVuSans-69" x="271.289062"/>
      <use xlink:href="#DejaVuSans-6e" x="299.072266"/>
      <use xlink:href="#DejaVuSans-65" x="362.451172"/>
     </g>
    </g>
    <g id="patch_12">
     <path d="M 260.697813 85.259187 
L 288.697813 85.259187 
L 288.697813 75.459187 
L 260.697813 75.459187 
L 260.697813 85.259187 
z
" style="fill: none; stroke: #ff7f0e; stroke-linejoin: miter"/>
    </g>
    <g id="text_18">
     <!-- PFN -->
     <g transform="translate(299.897813 85.259187)scale(0.14 -0.14)">
      <defs>
       <path id="DejaVuSans-50" d="M 1259 4147 
L 1259 2394 
L 2053 2394 
Q 2494 2394 2734 2622 
Q 2975 2850 2975 3272 
Q 2975 3691 2734 3919 
Q 2494 4147 2053 4147 
L 1259 4147 
z
M 628 4666 
L 2053 4666 
Q 2838 4666 3239 4311 
Q 3641 3956 3641 3272 
Q 3641 2581 3239 2228 
Q 2838 1875 2053 1875 
L 1259 1875 
L 1259 0 
L 628 0 
L 628 4666 
z
" transform="scale(0.015625)"/>
       <path id="DejaVuSans-46" d="M 628 4666 
L 3309 4666 
L 3309 4134 
L 1259 4134 
L 1259 2759 
L 3109 2759 
L 3109 2228 
L 1259 2228 
L 1259 0 
L 628 0 
L 628 4666 
z
" transform="scale(0.015625)"/>
       <path id="DejaVuSans-4e" d="M 628 4666 
L 1478 4666 
L 3547 763 
L 3547 4666 
L 4159 4666 
L 4159 0 
L 3309 0 
L 1241 3903 
L 1241 0 
L 628 0 
L 628 4666 
z
" transform="scale(0.015625)"/>
      </defs>
      <use xlink:href="#DejaVuSans-50"/>
      <use xlink:href="#DejaVuSans-46" x="60.302734"/>
      <use xlink:href="#DejaVuSans-4e" x="117.822266"/>
     </g>
    </g>
    <g id="patch_13">
     <path d="M 260.697813 105.808562 
L 288.697813 105.808562 
L 288.697813 96.008562 
L 260.697813 96.008562 
L 260.697813 105.808562 
z
" style="fill: none; stroke: #2ca02c; stroke-linejoin: miter"/>
    </g>
    <g id="text_19">
     <!-- ParticleNet -->
     <g transform="translate(299.897813 105.808562)scale(0.14 -0.14)">
      <use xlink:href="#DejaVuSans-50"/>
      <use xlink:href="#DejaVuSans-61" x="55.802734"/>
      <use xlink:href="#DejaVuSans-72" x="117.082031"/>
      <use xlink:href="#DejaVuSans-74" x="158.195312"/>
      <use xlink:href="#DejaVuSans-69" x="197.404297"/>
      <use xlink:href="#DejaVuSans-63" x="225.1875"/>
      <use xlink:href="#DejaVuSans-6c" x="280.167969"/>
      <use xlink:href="#DejaVuSans-65" x="307.951172"/>
      <use xlink:href="#DejaVuSans-4e" x="369.474609"/>
      <use xlink:href="#DejaVuSans-65" x="444.279297"/>
      <use xlink:href="#DejaVuSans-74" x="505.802734"/>
     </g>
    </g>
   </g>
  </g>
 </g>
 <defs>
  <clipPath id="pb2774a0499">
   <rect x="54" y="41.472" width="334.8" height="260.928"/>
  </clipPath>
 </defs>
</svg>
